<svg width="217" height="217" viewBox="0 0 217 217" fill="none" xmlns="http://www.w3.org/2000/svg">
<mask id="mask0_1108_11375" style="mask-type:alpha" maskUnits="userSpaceOnUse" x="0" y="0" width="217" height="217">
<circle cx="108.204" cy="108.204" r="108.204" fill="#D9D9D9"/>
</mask>
<g mask="url(#mask0_1108_11375)">
<rect x="-61.9746" y="-23.1406" width="407.724" height="473.588" rx="21.4265" fill="#A3A3A3"/>
<path d="M115.017 22.29C112.047 25.1604 106.518 32.2766 106.663 39.002C120.749 38.9908 139.407 41.8795 149.411 51.5596C152.174 54.2331 145.472 51.7711 136.93 48.2041C136.93 48.206 136.93 48.2081 136.93 48.21C136.942 48.6035 136.878 48.9394 136.749 49.2246C139.74 51.0373 142.653 53.1498 145.453 55.585C153.835 62.8736 162.557 72.9642 169.249 83.8994C172.414 82.4987 175.793 81.7258 179.354 81.8184C192.223 82.1529 216.207 88.0042 220.636 102.731C226.347 121.723 222.518 138.127 199.771 162.698C200.103 163.321 200.298 163.687 200.298 163.687C200.2 164.321 200.021 165.101 199.751 165.997C201.148 168.999 202.168 171.614 202.622 173.605C204.87 183.46 195.128 187.373 189.976 188.098C189.559 188.164 189.078 188.211 188.554 188.229C187.865 200.093 185.61 211.238 181.589 219.162C181.394 219.08 181.196 218.998 180.998 218.917C178.671 223.694 175.866 227.509 172.722 230.208C172.127 230.718 171.514 231.221 170.885 231.72C169.732 239.377 166.47 253.636 161.724 258.699C157.742 264.215 149.206 265.494 144.709 265.353C137.263 265.867 122.074 264.426 120.883 254.545C120.715 253.151 120.517 251.691 120.333 250.201C115.112 250.67 109.679 250.812 104.07 250.577C103.876 251.908 103.632 253.237 103.345 254.545C101.359 263.603 89.9417 265.524 84.4814 265.353C79.2211 265.716 70.0972 265.102 64.7734 261.228C64.6175 261.164 64.4584 261.092 64.2979 261.005C59.8234 258.581 56.4462 247.614 54.5928 238.91C47.4748 235.217 42.11 229.332 38.1914 221.891C37.8027 222.037 37.4157 222.184 37.0312 222.333C33.3052 213.187 30.6498 202.867 29.0947 192.212C27.0445 192.842 24.9122 192.827 23.5176 192.603C18.437 191.876 8.831 187.954 11.0479 178.076C11.617 175.54 13.0813 171.993 15.0723 167.928C14.618 166.614 14.3398 165.492 14.208 164.635L30.9883 138.595C31.197 137.756 31.4152 136.926 31.6426 136.105C31.8182 136.307 32.0026 136.512 32.1953 136.722L32.5947 136.104C32.5589 136.413 32.5233 136.724 32.4883 137.037C32.4963 137.046 32.5046 137.054 32.5127 137.062C33.2168 132.606 34.0151 128.185 34.8877 123.838C33.0639 117.53 33.9043 113.056 33.9131 113.01C34.4062 102.163 38.1042 85.8031 52.1123 67.0977C52.1706 66.971 52.228 66.8448 52.2861 66.7197H52.3965C53.8254 64.8272 55.3602 62.9103 57.0078 60.9736C61.1571 56.0965 66.5268 51.8385 72.6904 48.4785C69.6656 48.8431 66.6742 48.9967 63.8887 48.792C52.168 47.9304 81.3047 41.1005 97.2412 39.4824C99.4359 39.2412 101.943 39.0778 104.656 39.0215C105.254 32.7482 107.943 21.876 115.017 19.7539V22.29Z" fill="#E3E3E3"/>
</g>
</svg>
