<svg width="147" height="147" viewBox="0 0 147 147" fill="none" xmlns="http://www.w3.org/2000/svg">
<circle cx="73.0137" cy="73.0137" r="73.0137" fill="#737373"/>
<mask id="mask0_1066_7020" style="mask-type:alpha" maskUnits="userSpaceOnUse" x="0" y="0" width="147" height="147">
<path d="M146.027 73.0137C146.027 113.338 113.338 146.027 73.0137 146.027C32.6893 146.027 0 113.338 0 73.0137C0 32.6893 32.6893 0 73.0137 0C113.338 0 146.027 32.6893 146.027 73.0137Z" fill="#FDFDFD"/>
</mask>
<g mask="url(#mask0_1066_7020)">
<path d="M71.7891 37.3467C75.8516 37.39 98.6299 39.2134 101.019 48.042C101.822 51.0101 102.385 54.0794 102.774 56.8584C103.376 56.7224 104.075 56.7529 104.881 57.0322C109.056 58.4789 109.519 62.0501 107.385 63.5703C107.061 63.8009 106.65 63.8922 106.185 63.8789C111.619 66.824 117.183 70.9445 117.714 75.1328C117.717 75.1549 117.718 75.1772 117.721 75.1992C129.977 77.9604 143.569 91.936 145.738 101.768C148.526 114.403 130.667 136.602 114.422 148.729C112.53 152.103 110.118 154.522 107.501 156.272C107.187 160.206 105.321 166.833 99.1396 168.117C89.9768 170.021 83.4779 166.656 83.9521 163.503C81.1168 163.822 77.845 164.034 74.0527 164.059C71.0093 164.079 68.5173 164.057 66.4297 163.999C64.5033 167.015 58.3296 169.69 49.9531 168.261C44.0604 167.255 42.0888 162.558 41.3994 158.747C32.1689 155.131 26.9699 147.603 27.6045 129.155C26.6784 129.265 25.6502 129.291 24.6914 129.152C19.0039 128.332 15.6478 125.16 16.2197 116.123C16.621 109.785 24.4832 101.175 31.6768 97.7041C32.7246 92.5526 33.8978 87.7238 35.1299 83.3955C33.6537 82.5118 34.5317 83.0863 31.6445 80.5928C28.2797 77.6867 28.1087 71.314 40.791 63.5869C39.8339 63.8191 38.9837 63.8103 38.4277 63.374C36.3666 61.7564 36.9942 58.2111 41.2324 56.96C41.7058 56.8202 42.1395 56.7634 42.5361 56.7705C42.7548 53.1424 43.2859 49.405 44.377 46.7598C47.1579 40.0182 67.7259 37.3034 71.7891 37.3467Z" fill="#F5F5F5"/>
</g>
</svg>
