<svg width="164" height="164" viewBox="0 0 164 164" fill="none" xmlns="http://www.w3.org/2000/svg">
<mask id="mask0_1122_16864" style="mask-type:alpha" maskUnits="userSpaceOnUse" x="0" y="0" width="164" height="164">
<circle cx="82" cy="82" r="82" fill="#D9D9D9"/>
</mask>
<g mask="url(#mask0_1122_16864)">
<rect x="-78" y="-107.328" width="300.796" height="349.386" rx="7.22772" fill="#FBBF24"/>
<path d="M120.162 227.248C135.337 220.991 179.714 195.641 175.078 142.171C170.443 88.7014 155.486 67.8806 161.096 53.4702C148.773 71.0092 145.711 109.329 144.166 155.291C141.131 129.219 142.028 84.0733 149.312 58.5897C156.596 33.1061 103.421 -2.08191 92.385 -14.0273C98.6388 3.41678 99.4044 29.6069 84.3953 48.4921C82.7045 50.6195 81.1787 52.6949 79.8014 54.7346C78.934 52.5582 77.6341 50.4759 75.8063 48.4921C63.1789 34.7868 61.4249 24.7104 61.4249 15.1351C58.7578 30.1143 10.9713 53.3538 -2.49283 74.0592C-19.323 99.9409 -34.8199 137.529 -15.3067 177.76C18.6295 247.726 104.987 233.505 120.162 227.248Z" fill="#CA3E1F"/>
<path d="M-1.62753 159.736C-5.76576 206.01 31.1335 216.593 44.6813 222.008C58.2291 227.423 127.004 237.829 157.302 177.279C174.723 142.463 158.346 105.052 143.32 82.6532C131.3 64.7344 149.512 52.2923 106.755 9.34766C106.755 17.6343 117.593 40.9008 106.755 46.0204C95.9165 51.1401 78.7677 49.7945 78.6035 76.0491C68.8161 60.2822 78.3753 66.4498 61.6254 46.0204C52.0287 34.3157 52.4372 34.7152 58.6292 23.1301C48.7763 33.4679 16.7482 65.1935 23.2511 87.2474C29.7541 109.301 25.9607 137.173 23.2511 159.736C21.8717 119.96 -0.478022 79.6591 -11.4805 64.4807C-6.47189 76.9516 2.5107 113.462 -1.62753 159.736Z" fill="#F2812F"/>
<path d="M15.6831 162.695C12.3274 200.246 42.2488 208.835 53.2347 213.23C64.2205 217.624 115.355 225.014 139.923 175.878C154.05 147.624 144.717 112.959 132.533 94.7821C122.785 80.2408 116.487 55.5659 114.556 45.0462C114.556 51.7708 112.359 66.2588 103.57 70.4135C94.7812 74.5681 92.3177 118.219 92.1845 139.524C91.5853 116.354 93.5827 94.1829 80.0002 77.6042C69.1342 64.3413 62.4894 53.1024 67.0169 40.8516C59.0272 49.2408 30.5839 67.4972 35.8571 85.3942C41.1303 103.291 38.0542 144.385 35.8571 162.695C34.7385 130.416 16.6152 97.7116 7.69336 85.3942C11.7548 95.5145 19.0387 125.143 15.6831 162.695Z" fill="#F6BC4B"/>
<path d="M38.1626 173.315L116.239 169.996L116.239 100.631L38.1626 103.951L38.1626 173.315Z" fill="#36271C"/>
<path d="M28.667 79.3314C41.9599 78.8996 51.8115 92.7585 55.3702 101.592C57.3824 126.253 54.2487 169.717 25.6161 146.285C-3.0165 122.853 -8.3076 109.743 -2.88792 93.9284C0.576234 83.8204 18.8692 79.6498 28.667 79.3314Z" fill="#816551"/>
<path d="M140.545 86.3254C132.06 96.9604 135.147 112.787 134.356 122.143C149.231 120.313 157.473 99.8551 157.473 92.8393C157.473 88.7117 155.327 85.1391 153.503 84.0834C150.456 82.2477 144.856 80.9234 140.545 86.3254Z" fill="#A3856C"/>
<path d="M49.9026 169.087C16.2385 155.584 37.5531 77.8565 49.9024 51.2637H112.702C150.86 102.214 146.938 150.421 132.242 163.037C117.546 175.654 83.5666 182.59 49.9026 169.087Z" fill="#B3937A"/>
<path d="M30.6406 134.936C30.6404 117.566 45.9958 102.468 50.2264 103.155C54.4569 103.843 49.9422 136.922 48.8054 140.895C47.6687 144.867 43.2795 145.199 41.2269 144.867C37.7535 144.371 30.6407 141.857 30.6406 134.936Z" fill="#A3856C"/>
<path d="M106.985 57.397C102.83 55.6653 102.302 51.0697 104.221 44.9015C106.491 37.6082 112.349 36.9452 116.504 38.6769C120.659 40.4086 123.806 45.1281 119.268 51.1724C115.159 56.6447 111.14 59.1287 106.985 57.397Z" fill="#C2A28A"/>
<path d="M35.908 87.3498C35.527 79.1356 42.0963 56.9096 46.0356 45.3762L111.939 37.2299C118.087 46.9757 129.017 64.8742 134.069 79.0172C109.671 74.7321 60.4538 82.3695 35.908 87.3498Z" fill="#AA4245"/>
<ellipse cx="78.803" cy="41.6696" rx="33.6556" ry="2.74739" transform="rotate(-7.04092 78.803 41.6696)" fill="#962F32"/>
<path d="M95.7171 98.1522C95.7233 98.143 95.7335 98.1373 95.7446 98.1371L98.7364 98.0825C98.7495 98.0823 98.7615 98.0896 98.7673 98.1012L100.853 102.316C100.855 102.32 100.857 102.325 100.857 102.33L100.923 105.955C100.923 105.974 100.908 105.989 100.89 105.99L93.3799 106.127C93.3613 106.127 93.346 106.112 93.3456 106.094L93.2683 101.86C93.2682 101.854 93.2701 101.847 93.2739 101.841L95.7171 98.1522Z" fill="white"/>
<path d="M99.8061 95.2604C99.8738 96.3455 98.8168 96.837 96.9363 97.9048C95.2485 97.4943 93.2519 96.7001 93.1842 95.615C93.1166 94.53 94.5689 94.0721 96.4769 93.9531C98.385 93.8342 99.7385 94.1754 99.8061 95.2604Z" fill="#3F3D3B"/>
<path d="M95.985 96.9654C94.9767 100.582 92.9589 101.841 87.9776 103.371" stroke="#3F3D3B" stroke-width="1.5" stroke-linecap="round"/>
<path d="M97.2305 97.3142C99.5137 100.647 100.199 100.604 103.67 101.076" stroke="#3F3D3B" stroke-width="1.5" stroke-linecap="round"/>
<path d="M52.4974 65.8509C48.7039 67.8581 44.4869 65.7328 40.2919 61.0144C35.3319 55.4352 38.0306 50.9164 41.8242 48.9092C45.6178 46.9021 51.3998 47.2359 54.0297 53.7457C56.4107 59.6394 56.291 63.8437 52.4974 65.8509Z" fill="#C2A28A"/>
<ellipse cx="12.3671" cy="12.1331" rx="12.3671" ry="12.1331" transform="matrix(-0.992819 0.110903 0.0945128 0.996572 126.576 69.8262)" fill="white"/>
<ellipse cx="12.3671" cy="12.1331" rx="12.3671" ry="12.1331" transform="matrix(-0.992819 0.110903 0.0945128 0.996572 83.3125 74.4102)" fill="white"/>
<ellipse cx="3.15758" cy="3.19834" rx="3.15758" ry="3.19834" transform="matrix(-0.983251 0.182254 0.168456 0.985709 118.225 79.4277)" fill="#3F3D3B"/>
<ellipse cx="3.15758" cy="3.19834" rx="3.15758" ry="3.19834" transform="matrix(-0.983251 0.182254 0.168456 0.985709 74.418 84.2949)" fill="#3F3D3B"/>
</g>
<mask id="mask1_1122_16864" style="mask-type:alpha" maskUnits="userSpaceOnUse" x="0" y="0" width="164" height="164">
<circle cx="82" cy="82" r="82" fill="#D9D9D9"/>
</mask>
<g mask="url(#mask1_1122_16864)">
</g>
</svg>
