<svg width="160" height="160" viewBox="0 0 160 160" fill="none" xmlns="http://www.w3.org/2000/svg">
<mask id="mask0_1573_3619" style="mask-type:alpha" maskUnits="userSpaceOnUse" x="0" y="0" width="160" height="160">
<circle cx="80" cy="80" r="80" fill="#D9D9D9"/>
</mask>
<g mask="url(#mask0_1573_3619)">
<rect x="-55" y="-20" width="310.072" height="359.303" rx="15.8416" fill="#EB3395"/>
<g filter="url(#filter0_d_1573_3619)">
<path d="M202.717 175.246C203.656 171.024 199.277 166.886 197.01 163.82C194.294 161.796 190.274 160.04 186.878 159.389C184.785 158.988 182.58 159.102 180.494 158.709C178.573 158.347 176.779 157.976 174.808 158.029C172.431 158.093 170.117 157.541 167.748 157.518C165.195 157.493 162.519 157.39 159.988 157.025C155.071 156.315 150.215 156.446 145.27 156.189C140.41 155.936 135.523 156.117 130.668 156.091C126.28 156.067 120.966 155.499 117.28 157.967C113.919 160.217 115.302 166.102 116.594 169.022C118.727 173.843 122.317 177.876 125.727 181.972C136.579 195.006 152.613 206.783 171.132 205.988C175.987 205.779 181.12 204.908 184.779 201.786C188.622 198.507 192.776 195.541 196.092 191.771C198.797 188.696 200.595 184.784 201.461 180.893L202.717 175.246Z" fill="#543A3A"/>
<path d="M150.749 69.4654C145.058 75.0726 142.399 79.5259 138.734 85.3214C136.264 89.228 134.835 89.9692 132.14 94.4281C127.071 107.332 125.89 117.702 130.328 120.174C133.731 122.068 160.31 109.932 164.181 109.533C167.737 109.167 172.099 108.509 174.598 105.664C177.668 102.17 175.098 96.8665 172.61 93.7994C172.405 93.5473 170.143 91.4469 171.142 91.159C172.805 90.6798 175.26 90.9755 176.967 90.941C181.148 90.8564 191.332 92.2174 194.53 88.3694C196.402 86.1164 191.336 80.8719 189.923 79.7248C186.394 76.8595 182.963 75.9909 178.685 75.7152C176.366 75.5657 183.216 74.6274 185.383 73.7891C189.014 72.3842 195.725 68.8374 194.208 64.0061C193.062 60.357 188.704 57.8331 185.464 56.3725C180.103 53.9562 172.796 55.9203 167.541 58.4498C161.536 61.3396 155.995 64.2967 150.749 69.4654Z" fill="#FEF4EA"/>
<path d="M67.6542 63.8588C71.7453 70.716 73.1931 75.694 75.2759 82.2239C76.6799 86.6255 77.8755 87.7021 79.3564 92.6944C81.0023 106.457 79.525 116.789 74.6061 118.064C70.8344 119.042 48.1794 100.615 44.5344 99.2564C41.1851 98.0078 37.1305 96.2749 35.4303 92.8932C33.3421 88.7401 37.1693 84.2538 40.3522 81.9113C40.6138 81.7188 43.3335 80.2549 42.4393 79.7251C40.951 78.8432 38.5012 78.5123 36.8577 78.0496C32.8333 76.9168 22.6337 75.6732 20.5114 71.1454C19.2689 68.4945 25.496 64.6929 27.153 63.938C31.292 62.0525 34.8322 62.0747 39.0411 62.8833C41.3232 63.3217 34.9314 60.6915 33.0464 59.3355C29.8869 57.0629 24.2888 51.9433 26.9774 47.6494C29.008 44.4062 33.8627 43.0594 37.3674 42.4606C43.1655 41.4701 49.7405 45.2079 54.1874 48.9771C59.268 53.2833 63.8831 57.538 67.6542 63.8588Z" fill="#FEF4EA"/>
<path d="M30.8474 98.8525C35.3373 100.669 38.3729 102.634 42.321 105.527C45.44 108.291 46.1895 112.327 46.2361 116.504C46.2931 121.607 43.7466 125.273 39.1189 126.241C35.9323 126.907 31.3009 125.616 28.4109 124.025C24.3978 121.816 18.9955 120.463 16.0405 116.589C14.6856 114.813 12.9753 113.178 12.7086 110.769C12.4455 108.392 12.4602 105.705 12.7547 103.336C13.3076 98.8887 14.3917 95.313 18.8109 94.8319C22.9794 94.378 27.0542 97.3177 30.8474 98.8525Z" fill="url(#paint0_linear_1573_3619)"/>
<path d="M141.498 102.99C138.651 101.239 137.277 98.8573 133.898 97.696C124.491 98.9076 126.031 111.282 128.552 116.825C129.553 119.025 132.018 120.556 133.674 122.381C135.563 124.462 137.546 126.209 139.672 128.075C142.358 130.431 147.194 132.835 151.155 132.172C155.016 131.525 161.343 131.459 162.394 126.937C163.422 122.519 161.644 118.07 158.226 114.792C154.799 111.507 150.841 109.509 147.047 106.692C145.249 105.356 143.425 104.175 141.498 102.99Z" fill="url(#paint1_linear_1573_3619)"/>
<path d="M61.5719 44.5437C75.8316 34.7817 91.6337 33.1185 108.996 42.6667C121.229 46.2704 123.851 62.1627 125.958 67.2869C127.74 71.6223 130.107 75.6446 131.678 80.1317C133.854 86.3477 136.071 92.4303 137.841 98.8368C141.208 111.026 144.407 123.288 145.521 136.117C146.337 145.527 146.408 155.009 146.023 164.487C145.804 169.872 144.842 175.749 141.476 179.597C137.98 183.593 134.81 186.764 130.61 189.639C122.852 194.951 114.403 198.643 105.579 200.413C97.384 202.056 88.9546 203.552 80.6532 203.4C76.9109 203.331 73.1952 202.87 69.4985 202.362C66.2246 201.913 63.4794 200.267 60.3525 199.381C55.6244 198.041 51.9068 193.949 48.6505 189.938C45.1653 185.645 42.2357 181.424 40.4703 175.72C38.1581 168.25 36.4774 160.754 36.6262 152.669C36.7084 148.206 36.4501 143.691 36.533 139.184C36.6192 134.507 37.0453 129.909 37.1317 125.217C37.3229 114.831 37.8007 103.782 39.9322 93.6663C40.7533 89.7693 40.9619 85.222 42.3748 81.5564C43.001 79.9317 43.4844 77.6562 43.8447 75.9111C44.3554 73.4367 45.4371 71.0976 46.1779 68.7061C47.7846 63.5195 50.4194 58.646 53.1227 54.2027C55.2274 50.7435 58.408 46.7097 61.5719 44.5437Z" fill="url(#paint2_linear_1573_3619)"/>
<path d="M134.887 137.144C138.841 137.099 142.686 136.09 146.618 136.001C147.807 136.931 151.448 139.925 151.415 141.727C157.886 176.711 140.392 187.049 125.754 196.87C121.834 199.835 117.864 200.85 113.308 202.28C107.705 204.039 102.74 205.777 96.9057 205.67L75.8729 205.285C67.278 205.127 57.017 199.458 49.3263 194.618C45.3664 192.126 33.476 176.032 32.6065 172.713C31.0348 166.714 30.1721 159.485 30.2865 153.27C30.3718 148.639 31.7286 142.981 35.0937 139.929C38.1139 137.189 42.7122 136.736 46.3907 136.497C58.9989 135.674 71.713 136.539 84.3362 136.474C97.1512 136.409 109.96 136.713 122.772 136.948C126.807 137.022 130.85 137.19 134.887 137.144Z" fill="#FEF4EA"/>
<path d="M120.401 57.9227C126.194 59.3112 128.666 54.6548 131.074 49.7791C132.628 45.0457 129.316 41.5448 125.555 40.3352C121.109 38.9053 116.025 42.3336 115.064 47.3057C114.723 49.0683 114.112 51.4238 115.183 52.9827C116.351 54.6838 118.394 57.4416 120.401 57.9227Z" fill="#AE8873"/>
<path d="M48.6529 39.7223C53.2677 40.363 59.0695 46.2479 59.088 51.4188C58.9948 56.4816 55.6492 60.5466 50.5986 59.1181C48.0376 58.3937 45.6261 56.9607 43.7683 54.8752C42.3408 53.2727 40.3025 51.116 40.1553 48.7362C39.8236 43.376 43.8068 39.0494 48.6529 39.7223Z" fill="#AE8873"/>
<path d="M65.8574 64.0459C63.6819 62.0386 59.6722 60.3414 56.9785 61.2714C54.2121 63.8119 56.232 66.5855 58.5169 67.9479C60.8128 69.3169 63.2374 70.1714 65.8475 70.2193C66.9075 70.2387 68.9411 69.3111 68.5714 67.6573C68.2303 66.1315 66.8687 64.9791 65.8574 64.0459Z" fill="#372831"/>
<path d="M92.0259 64.5247C94.2738 62.5984 98.3432 61.0493 101.001 62.0773C103.672 64.7175 101.551 67.4152 99.2177 68.693C96.8731 69.9769 94.4187 70.7421 91.8085 70.6942C90.7485 70.6748 88.7505 69.6733 89.1808 68.0342C89.5778 66.5219 90.9809 65.4202 92.0259 64.5247Z" fill="#372831"/>
<path d="M81.9521 74.2751C80.6333 73.2646 78.4301 73.4339 76.8241 73.6576C74.3403 75.6425 77.5415 78.5825 80.2704 77.1378C81.2749 76.606 83.4695 75.4378 81.9521 74.2751Z" fill="#372831" stroke="#372831" stroke-width="0.086115" stroke-linecap="round"/>
<path d="M82.2236 87.7364C82.2812 86.3524 82.2747 84.9623 82.3002 83.5775C81.1813 82.8165 79.7362 81.8995 78.8091 80.9565C77.7375 79.8664 76.8287 81.1316 75.8162 81.6322C74.6271 82.2201 74.1211 82.6429 74.0958 84.0157C74.0738 85.2115 74.0083 86.517 73.9887 87.5855C73.6918 89.0668 75.0762 89.4319 76.369 89.4556L79.914 89.5205C80.9372 89.3348 82.1757 88.8885 82.2236 87.7364Z" fill="#FEF4EA"/>
<path d="M91.2074 83.3531C86.8376 86.1923 79.0245 84.0378 78.2611 78.2799C76.9469 83.3493 71.5063 86.4718 65.4008 81.8996" stroke="#372831" stroke-width="1.5" stroke-linecap="round"/>
<path d="M94.1866 52.5802C91.9992 52.5401 90.6031 53.4254 88.608 54.6371C87.5984 55.2503 90.9994 56.6835 92.2428 56.578C93.9429 56.4339 95.7674 55.9437 97.2251 54.7351C99.324 52.9949 94.859 52.5925 94.1866 52.5802Z" fill="#372831"/>
<path d="M67.294 53.0124C65.2164 52.178 64.1972 52.6094 61.9196 53.0277C60.2019 53.4248 62.9911 55.7285 64.2114 56.0817C65.8798 56.5646 67.7732 56.7658 69.5365 56.1548C72.0752 55.275 67.9327 53.2689 67.294 53.0124Z" fill="#372831"/>
<path d="M97.7568 30.6475C97.6003 30.1597 97.5196 29.6339 97.5296 29.087C97.5753 26.607 99.4701 24.6305 101.762 24.6725C104.054 24.7145 105.874 26.759 105.829 29.2391C105.817 29.8622 105.689 30.4536 105.467 30.9891C106.198 30.3544 107.13 29.9817 108.139 30.0001C110.431 30.0421 112.252 32.0867 112.206 34.5667C112.163 36.9171 110.459 38.8152 108.33 38.9714C109.214 39.8116 109.762 41.0526 109.737 42.4274C109.691 44.9075 107.796 46.8839 105.505 46.8419C103.618 46.8073 102.05 45.415 101.581 43.5399C101.042 45.3966 99.4245 46.7305 97.5375 46.6959C95.2457 46.6539 93.4249 44.6094 93.4706 42.1293C93.4958 40.7607 94.0842 39.5453 94.9917 38.738C92.7957 38.584 91.0821 36.5873 91.1264 34.1804C91.172 31.7004 93.0669 29.7239 95.3586 29.7659C96.2589 29.7824 97.0865 30.108 97.7568 30.6475Z" fill="#F88BFC"/>
<path d="M52.3943 37.9341C52.0854 37.5408 51.8347 37.0825 51.6617 36.5691C50.8773 34.2409 51.9874 31.6602 54.1412 30.8048C56.2951 29.9494 58.6771 31.1433 59.4615 33.4715C59.6586 34.0564 59.7362 34.6574 59.7075 35.2429C60.1786 34.3662 60.9245 33.6552 61.8727 33.2786C64.0266 32.4233 66.4086 33.6172 67.193 35.9453C67.9365 38.1518 66.9782 40.5852 65.0426 41.5616C66.1483 41.9993 67.0741 42.9413 67.509 44.232C68.2934 46.5601 67.1833 49.1409 65.0295 49.9963C63.256 50.7006 61.3278 50.0155 60.2642 48.4519C60.381 50.3915 59.3151 52.2656 57.5416 52.97C55.3878 53.8253 53.0058 52.6314 52.2214 50.3032C51.7884 49.0184 51.9325 47.6566 52.5107 46.5503C50.4088 47.2639 48.1428 46.0727 47.3815 43.8132C46.5971 41.4851 47.7072 38.9043 49.861 38.0489C50.7071 37.7129 51.5885 37.6931 52.3943 37.9341Z" fill="#FBCFE8"/>
<path d="M107.483 37.4053C107.327 36.9175 107.246 36.3917 107.256 35.8448C107.302 33.3648 109.197 31.3883 111.488 31.4303C113.78 31.4723 115.601 33.5168 115.555 35.9969C115.544 36.62 115.416 37.2114 115.194 37.7469C115.925 37.1122 116.857 36.7395 117.866 36.758C120.158 36.8 121.978 38.8445 121.933 41.3245C121.889 43.6749 120.185 45.573 118.056 45.7292C118.94 46.5694 119.489 47.8104 119.463 49.1852C119.418 51.6653 117.523 53.6417 115.231 53.5997C113.344 53.5651 111.776 52.1729 111.307 50.2977C110.769 52.1544 109.151 53.4883 107.264 53.4537C104.972 53.4117 103.151 51.3672 103.197 48.8871C103.222 47.5185 103.811 46.3031 104.718 45.4959C102.522 45.3418 100.809 43.3451 100.853 40.9382C100.899 38.4582 102.793 36.4818 105.085 36.5237C105.985 36.5402 106.813 36.8658 107.483 37.4053Z" fill="#FBCFE8"/>
<path d="M68.6487 29.2229C68.5812 28.7115 68.5949 28.1784 68.7013 27.6433C69.184 25.217 71.3918 23.6673 73.6326 24.1821C75.8735 24.6969 77.2987 27.0812 76.8161 29.5076C76.6948 30.1172 76.4646 30.6715 76.1524 31.1516C76.9817 30.6793 77.9619 30.5058 78.9484 30.7325C81.1892 31.2473 82.6145 33.6316 82.1318 36.0579C81.6744 38.3575 79.6674 39.8695 77.5514 39.5831C78.2704 40.591 78.5891 41.9231 78.3216 43.2682C77.8389 45.6945 75.6311 47.2442 73.3902 46.7294C71.5452 46.3055 70.253 44.6141 70.1236 42.6754C69.2679 44.3878 67.4452 45.3636 65.6001 44.9397C63.3592 44.4249 61.934 42.0406 62.4166 39.6143C62.683 38.2752 63.4748 37.2032 64.5076 36.5978C62.3805 35.9927 61.0519 33.6776 61.5203 31.3228C62.003 28.8964 64.2108 27.3468 66.4516 27.8616C67.3319 28.0638 68.0863 28.5545 68.6487 29.2229Z" fill="#F88BFC"/>
<path d="M80.5975 27.2294C80.3295 26.8024 80.1257 26.3176 80.0046 25.7869C79.4554 23.3805 80.8143 20.9424 83.0398 20.3412C85.2652 19.7401 87.5145 21.2035 88.0637 23.6099C88.2017 24.2145 88.2193 24.8212 88.1329 25.4002C88.6878 24.5829 89.4996 23.9622 90.4794 23.6975C92.7049 23.0964 94.9542 24.5598 95.5034 26.9662C96.0238 29.2468 94.8305 31.5559 92.8099 32.3028C93.8656 32.8662 94.6925 33.9104 94.9969 35.2444C95.5461 37.6508 94.1872 40.0889 91.9618 40.6901C90.1293 41.1851 88.2807 40.2803 87.3783 38.6019C87.3024 40.5446 86.0574 42.285 84.225 42.78C81.9995 43.3811 79.7502 41.9177 79.201 39.5113C78.8979 38.1832 79.176 36.8455 79.8601 35.8123C77.7004 36.2784 75.5661 34.8312 75.0332 32.4957C74.484 30.0893 75.8429 27.6512 78.0683 27.05C78.9426 26.8139 79.8205 26.8964 80.5975 27.2294Z" fill="#FBCFE8"/>
<rect width="42.6313" height="30.8394" transform="matrix(-0.90876 -0.417241 -0.367033 0.930239 201.637 116.301)" fill="url(#paint3_linear_1573_3619)"/>
<path d="M178.619 116.655L151.578 127.203L190.319 144.99L178.619 116.655Z" fill="url(#paint4_linear_1573_3619)"/>
<path d="M174.595 126.853L201.637 116.305L162.895 98.5175L174.595 126.853Z" fill="url(#paint5_linear_1573_3619)"/>
<rect width="3.97564" height="43.978" rx="0.129173" transform="matrix(-0.965421 0.260784 0.222494 0.974913 14.9199 82.4707)" fill="#FEF4EA"/>
<path d="M20.3991 63.4156C17.1902 61.3285 13.0481 62.3533 10.9696 65.6798L10.9624 65.6751L10.8335 65.9064C10.8123 65.943 10.7913 65.9801 10.7706 66.0172C10.7499 66.0543 10.7294 66.0917 10.7093 66.129L9.79064 67.7769L7.86899 66.527L7.86365 66.5365C4.59641 64.654 0.494849 65.8562 -1.44416 69.3337C-3.38309 72.8115 -2.44865 77.2903 0.620214 79.5289L0.61585 79.5367L0.829279 79.6756C0.863008 79.6983 0.897288 79.721 0.931496 79.7432C0.965721 79.7655 1.00025 79.7876 1.03468 79.8092L14.5063 88.5716L14.5383 88.5142L14.5736 88.5372L22.9665 73.483L22.9577 73.4773C24.7076 69.937 23.608 65.5028 20.3991 63.4156Z" fill="#FBCFE8"/>
</g>
</g>
<mask id="mask1_1573_3619" style="mask-type:alpha" maskUnits="userSpaceOnUse" x="0" y="0" width="160" height="160">
<circle cx="80" cy="80" r="80" fill="#D9D9D9"/>
</mask>
<g mask="url(#mask1_1573_3619)">
</g>
<defs>
<filter id="filter0_d_1573_3619" x="-2.62731" y="20.207" width="205.647" height="202.473" filterUnits="userSpaceOnUse" color-interpolation-filters="sRGB">
<feFlood flood-opacity="0" result="BackgroundImageFix"/>
<feColorMatrix in="SourceAlpha" type="matrix" values="0 0 0 0 0 0 0 0 0 0 0 0 0 0 0 0 0 0 127 0" result="hardAlpha"/>
<feOffset dy="0.17223"/>
<feGaussianBlur stdDeviation="0.086115"/>
<feComposite in2="hardAlpha" operator="out"/>
<feColorMatrix type="matrix" values="0 0 0 0 0 0 0 0 0 0 0 0 0 0 0 0 0 0 0.25 0"/>
<feBlend mode="normal" in2="BackgroundImageFix" result="effect1_dropShadow_1573_3619"/>
<feBlend mode="normal" in="SourceGraphic" in2="effect1_dropShadow_1573_3619" result="shape"/>
</filter>
<linearGradient id="paint0_linear_1573_3619" x1="41.6236" y1="116.179" x2="7.21378" y2="103.704" gradientUnits="userSpaceOnUse">
<stop stop-color="#AD806B"/>
<stop offset="0.674683" stop-color="#C99A81"/>
</linearGradient>
<linearGradient id="paint1_linear_1573_3619" x1="130.793" y1="110.656" x2="147.221" y2="116.383" gradientUnits="userSpaceOnUse">
<stop stop-color="#B0826D"/>
<stop offset="0.901042" stop-color="#C89980"/>
</linearGradient>
<linearGradient id="paint2_linear_1573_3619" x1="93.4376" y1="36.4278" x2="90.3746" y2="203.578" gradientUnits="userSpaceOnUse">
<stop stop-color="#AD806B"/>
<stop offset="1" stop-color="#C99A81"/>
</linearGradient>
<linearGradient id="paint3_linear_1573_3619" x1="21.3157" y1="0" x2="21.3157" y2="30.8394" gradientUnits="userSpaceOnUse">
<stop stop-color="#F2F2F2"/>
<stop offset="0.29325" stop-color="#F0F0F0"/>
<stop offset="0.853303" stop-color="#EDEDED"/>
<stop offset="1" stop-color="#EAEAEA"/>
</linearGradient>
<linearGradient id="paint4_linear_1573_3619" x1="178.619" y1="116.655" x2="169.912" y2="135.62" gradientUnits="userSpaceOnUse">
<stop stop-color="#FFFDFD"/>
<stop offset="1" stop-color="#EFEFEF"/>
</linearGradient>
<linearGradient id="paint5_linear_1573_3619" x1="174.595" y1="126.853" x2="183.303" y2="107.887" gradientUnits="userSpaceOnUse">
<stop stop-color="#E8E8E8"/>
<stop offset="0.463542" stop-color="white"/>
</linearGradient>
</defs>
</svg>
