<svg width="160" height="160" viewBox="0 0 160 160" fill="none" xmlns="http://www.w3.org/2000/svg">
<mask id="mask0_1122_16873" style="mask-type:alpha" maskUnits="userSpaceOnUse" x="0" y="0" width="160" height="160">
<circle cx="80" cy="80" r="80" fill="#D9D9D9"/>
</mask>
<g mask="url(#mask0_1122_16873)">
<rect x="-60" y="-35" width="336" height="390.277" rx="15.8416" fill="#A855F7"/>
<path d="M131.019 51.9129C119.026 51.6012 110.019 65.6052 106.734 74.5057C104.712 99.2828 107.178 142.89 133.214 119.103C159.25 95.3165 164.135 82.1053 159.375 66.2784C156.333 56.1622 139.859 52.1427 131.019 51.9129Z" fill="#876B57"/>
<path d="M27.7853 97.2014C31.861 102.836 37.6605 122.441 40.0508 131.539C31.8265 124.271 14.8191 108.859 12.5848 105.36C10.3504 101.862 13.0214 98.337 14.6362 97.0121C17.321 94.7276 23.7096 91.5671 27.7853 97.2014Z" fill="#BFD29A"/>
<path d="M139.082 95.8339C134.666 101.192 127.701 120.465 124.77 129.432C133.439 122.742 151.389 108.524 153.834 105.175C156.279 101.825 153.81 98.0821 152.27 96.6292C149.713 94.1315 143.497 90.4758 139.082 95.8339Z" fill="#BFD29A"/>
<path d="M47.4796 160.817C13.6577 147.251 31.3301 68.2685 43.7372 41.5508H106.831C145.169 92.7402 141.228 141.173 126.463 153.849C111.698 166.525 81.3015 174.384 47.4796 160.817Z" fill="#C2A28A"/>
<ellipse cx="2.23791" cy="2.93127" rx="2.23791" ry="2.93127" transform="matrix(0.997044 0.076829 -0.0699354 0.997552 61.2773 76.4941)" fill="#3F3D3B"/>
<ellipse cx="2.23791" cy="2.93127" rx="2.23791" ry="2.93127" transform="matrix(0.997044 0.076829 -0.0699354 0.997552 95.541 76.752)" fill="#3F3D3B"/>
<path d="M79.4532 84.6254C79.4635 84.6105 79.4805 84.6016 79.4986 84.6016H82.4803C82.5016 84.6016 82.5211 84.6139 82.5302 84.6332L84.5404 88.8886C84.5438 88.896 84.5456 88.904 84.5456 88.9122V92.5289C84.5456 92.5593 84.5209 92.584 84.4905 92.584H76.9868C76.9563 92.584 76.9316 92.5593 76.9316 92.5289V88.3029C76.9316 88.2918 76.935 88.2809 76.9414 88.2716L79.4532 84.6254Z" fill="white"/>
<path d="M84.5431 82.1284C84.5431 83.2207 83.4525 83.6475 81.5 84.6006C79.8333 84.0835 77.8809 83.1623 77.8809 82.07C77.8809 80.9777 79.3658 80.6094 81.2865 80.6094C83.2072 80.6094 84.5431 81.0361 84.5431 82.1284Z" fill="#3F3D3B"/>
<path d="M80.5996 83.6042C79.3624 87.1676 77.2604 88.3041 72.1698 89.5264" stroke="#3F3D3B" stroke-width="1.5" stroke-linecap="round"/>
<path d="M81.8198 84.0231C82.9243 88.0935 85.1281 89.0239 90.5673 89.4152" stroke="#3F3D3B" stroke-width="1.5" stroke-linecap="round"/>
<path d="M47.9627 16.6829C37.3955 38.8805 35.5021 48.3349 36.5384 61.6871C36.5447 61.7682 36.6538 61.7914 36.6944 61.7209C44.1634 48.7549 50.394 43.5528 64.8849 38.0317C64.9287 38.015 64.9507 37.964 64.9325 37.9208C60.9107 28.3793 57.3592 23.6204 48.0891 16.6515C48.0473 16.62 47.9852 16.6357 47.9627 16.6829Z" fill="#3A8328"/>
<path d="M49.914 22.2351C44.8163 33.8967 43.5722 40.1198 44.4502 50.3636C44.4556 50.4262 44.5263 50.4616 44.5786 50.4268L59.6714 40.3649C59.7032 40.3437 59.7161 40.3028 59.7029 40.2669C57.2121 33.4961 55.1223 29.5184 50.0595 22.2207C50.0227 22.1676 49.9399 22.1758 49.914 22.2351Z" fill="#885127" stroke="#EAEAEA" stroke-width="0.124119"/>
<path d="M109.953 17.1028C120.52 39.3004 122.414 48.7548 121.378 62.107C121.371 62.1881 121.262 62.2111 121.221 62.1407C113.748 49.1848 107.1 44.8176 92.6071 39.2996C92.5633 39.2829 92.5412 39.232 92.5594 39.1889C96.5836 29.6425 100.554 24.0453 109.827 17.0713C109.869 17.0398 109.931 17.0556 109.953 17.1028Z" fill="#3A8328"/>
<path d="M107.848 23.9343C112.945 35.5959 114.19 41.819 113.312 52.0628C113.306 52.1254 113.235 52.1609 113.183 52.126L98.0904 42.0641C98.0585 42.0429 98.0456 42.002 98.0589 41.9661C100.55 35.1954 102.639 31.2176 107.702 23.9199C107.739 23.8668 107.822 23.875 107.848 23.9343Z" fill="#885127" stroke="#EAEAEA" stroke-width="0.124119"/>
<path d="M54.2102 94.5696C55.1439 98.4615 54.4272 100.461 51.8747 103.734C51.8535 103.761 51.8719 103.802 51.9063 103.802L113.225 104.35C113.257 104.351 113.277 104.315 113.26 104.287C111.424 101.235 111.263 98.0828 111.576 93.5752C111.579 93.5343 111.526 93.5147 111.501 93.5473C109.278 96.4552 108.566 98.3438 108.367 101.965C108.364 102.003 108.316 102.019 108.292 101.989C106.154 99.318 106.064 97.318 105.789 93.8814C105.786 93.8449 105.74 93.8297 105.716 93.8573C104.171 95.642 103.68 96.9818 103.632 99.9215C103.632 99.9548 103.593 99.9743 103.566 99.9548C100.96 98.0774 100.583 96.1242 100.2 92.4852C100.197 92.4511 100.155 92.4355 100.13 92.4592C98.4461 94.0642 97.8525 95.2766 97.4074 97.8673C97.4025 97.8962 97.3694 97.9115 97.3446 97.8958C95.5668 96.7754 94.8971 95.0165 93.62 91.9334C93.6023 91.8905 93.5375 91.9045 93.5397 91.951C93.6674 94.5798 93.4925 95.831 92.2604 96.8729C92.2469 96.8843 92.2273 96.8859 92.2122 96.8767C90.7447 95.983 90.1419 94.659 89.2438 91.7615C89.2359 91.7358 89.2051 91.724 89.1821 91.738C87.4763 92.78 86.76 93.5725 87.0706 96.14C87.0741 96.1689 87.0468 96.1932 87.0186 96.1859C85.0363 95.6693 84.6132 94.7382 85.3305 91.8224C85.3397 91.7848 85.2966 91.7552 85.2656 91.7782C83.445 93.1263 83.0956 94.1651 82.9958 96.1571C82.9946 96.1808 82.9735 96.1992 82.95 96.1962C81.6914 96.0377 81.101 94.5418 80.4724 91.585C80.4674 91.5614 80.4326 91.5628 80.431 91.5868C80.3212 93.2628 80.1592 95.1282 79.5671 96.8543C79.5599 96.8754 79.5383 96.8875 79.5177 96.8791C78.5283 96.4817 77.1667 92.2669 76.4981 89.8264C76.4852 89.7795 76.4162 89.789 76.4169 89.8376C76.449 92.1408 76.5759 96.1966 75.0518 96.8866C75.0439 96.8902 75.0347 96.8911 75.0263 96.8892C73.2424 96.4999 72.8502 95.3296 72.6802 92.4918C72.6781 92.4566 72.6349 92.4395 72.6095 92.4641C70.7809 94.2402 70.3984 95.4899 70.3124 97.8632C70.3113 97.8934 70.2787 97.9127 70.2518 97.8991C68.4421 96.9813 67.706 96.1913 67.9366 93.5352C67.9397 93.4989 67.8981 93.4751 67.8699 93.4981C66.8859 94.3041 66.2826 95.3771 65.2103 98.448C65.1959 98.4895 65.1339 98.4831 65.1282 98.4396C64.7646 95.6805 63.8362 95.0193 61.766 94.4878C61.7391 94.4809 61.7126 94.5026 61.7139 94.5304C61.8477 97.3295 61.3644 98.8253 59.818 101.316C59.8005 101.344 59.7577 101.341 59.7442 101.311C57.9877 97.3685 56.7373 95.97 54.2716 94.5232C54.2402 94.5048 54.2017 94.5341 54.2102 94.5696Z" fill="#D78249"/>
<path d="M81.0773 100.747C73.4013 101.958 62.1863 104.372 52.2562 103.503C52.8728 104.928 53.5194 106.269 54.1928 107.531C54.8775 108.813 55.5899 110.013 56.3269 111.135C56.8648 111.953 57.4158 112.73 57.9785 113.466C64.7196 122.289 73.1499 125.338 81.0773 125.338C90.8245 125.338 105.96 119.726 111.56 106.259C111.928 105.374 112.255 104.456 112.536 103.503C100.721 104.18 87.185 101.445 81.0773 100.747Z" fill="#FDFFF7"/>
<path d="M33.5917 73.1886C48.1666 58.7642 67.298 66.8291 69.6298 73.1886C71.9617 79.5482 88.2849 78.4882 90.6168 73.1886C92.9487 67.889 109.757 55.9405 125.595 73.4005C117.751 28.4588 41.6473 19.9792 33.5917 73.1886Z" fill="url(#paint0_linear_1122_16873)"/>
<path d="M27.8415 110.923C38.0658 112.135 43.6424 113.78 53.3598 118.13L53.3471 115.752L53.3327 113.042C44.1416 108.805 38.6233 107.385 28.2417 106.259C28.1431 107.371 27.92 109.913 27.8415 110.923Z" fill="#326825"/>
<path d="M136.648 129.366C130.257 128.639 123.768 142.827 119.04 153.167C116.062 159.68 113.782 164.665 112.664 163.437C92.9487 169.008 74.9296 169.432 52.3835 164.277C52.2919 164.377 52.1928 164.34 52.0864 164.183C51.5894 163.451 50.934 160.112 50.1441 156.09C48.8521 149.509 47.7949 144.205 45.2944 139.263C42.7938 134.32 34.7385 129.105 28.7159 129.79C30.6923 147.798 35.6396 158.951 52.0864 164.183C59.6254 166.582 69.5805 167.736 82.7732 167.736C118.175 167.736 134.818 155.751 136.648 129.366Z" fill="#BED1AF"/>
<path d="M27.4366 118.342C37.6469 119.553 43.8624 120.983 53.5568 125.32C53.5702 125.326 53.5836 125.332 53.5969 125.338L53.4503 120.462C53.4474 120.461 53.4445 120.459 53.4416 120.458C44.2552 116.224 38.0238 114.804 27.6455 113.678C27.5469 114.791 27.444 117.282 27.4366 118.342Z" fill="#326825"/>
<path d="M52.2562 103.503C62.1863 104.372 73.4013 101.958 81.0773 100.747C87.185 101.445 100.721 104.18 112.536 103.503C88.0554 96.7127 74.9272 97.2192 52.2562 103.503Z" fill="#FDFFF7"/>
<path d="M81.0773 125.338C73.1499 125.338 64.7196 122.289 57.9785 113.466C58.1411 115.682 57.8034 116.583 56.3269 117.494C57.8244 118.494 58.5921 118.242 59.8783 116.858C60.5242 118.503 60.5993 119.4 59.4544 120.886C60.8934 121.098 61.6327 120.591 62.8356 119.767L62.9561 119.684L63.0582 119.614C63.4893 121.496 63.2738 122.473 61.9982 124.066C63.5813 124.253 64.4619 123.892 66.026 122.794C66.3226 125.067 65.4294 126.094 64.1809 127.529L64.1804 127.529C64.0234 127.71 63.8607 127.897 63.6941 128.094C66.0939 129.007 68.2794 127.438 68.7819 125.338C70.0452 127.03 70.4695 128 70.4778 129.79C72.3737 128.899 72.8987 127.362 73.3984 125.9L73.4457 125.762C75.3434 127.452 75.9333 128.484 76.4135 130.426C78.0155 129.831 78.6195 128.756 79.2596 127.617C79.3681 127.424 79.4777 127.229 79.5933 127.034C80.7821 128.962 81.0463 130.026 81.0773 131.91C82.5112 130.246 82.7725 129.177 82.3492 127.034C84.7814 127.915 85.5445 128.661 86.377 130.214C87.1571 128.755 87.0015 127.77 86.589 125.974C88.7637 127.163 89.6621 127.929 91.0408 129.366C90.5915 127.545 90.5615 126.523 91.0408 124.702C92.926 125.306 93.4234 125.753 94.0086 126.61C95.1147 125.738 95.1549 124.809 95.1811 124.202C95.192 123.952 95.2004 123.756 95.2805 123.642C97.6174 122.529 98.0797 123.183 98.2484 125.338C100.073 123.568 100.37 122.597 99.9443 120.886C101.755 120.712 102.182 121.221 102.912 122.158C104.115 120.687 104.331 119.85 104.184 118.342C105.491 118.278 106.077 118.598 106.94 119.614C106.943 119.605 106.945 119.595 106.948 119.586C107.485 117.691 107.975 115.963 107.364 114.95C108.415 113.898 109.196 114.643 110.013 115.422C110.321 115.715 110.633 116.013 110.968 116.222C111.656 114.319 111.047 112.19 110.332 110.287C111.139 110.544 111.593 110.947 112.178 111.709C112.221 110.642 112.262 109.654 112.3 108.761L112.307 108.609C112.156 107.899 111.92 107.155 111.56 106.259C105.96 119.726 90.8245 125.338 81.0773 125.338Z" fill="#E2A47B"/>
<path d="M56.3269 111.135C56.0435 112.394 55.7462 113.013 54.1928 113.466C55.5799 114.251 56.3573 113.996 57.5224 113.614C57.6678 113.566 57.8191 113.516 57.9785 113.466C57.4158 112.73 56.8648 111.953 56.3269 111.135Z" fill="#E2A47B"/>
<path d="M56.3269 111.135C55.5899 110.013 54.8775 108.813 54.1928 107.531C53.6808 108.2 53.3826 108.756 53.1078 109.458C53.1358 109.807 53.1632 110.176 53.1897 110.564C54.3054 110.265 55.0714 110.222 56.3269 111.135Z" fill="#E2A47B"/>
<path d="M52.2562 103.503C52.4628 105.48 52.2912 106.376 51.3988 107.531L52.9297 107.531C52.5979 104.418 52.2562 103.503 52.2562 103.503Z" fill="#E2A47B"/>
<path d="M54.1928 107.531C53.5194 106.269 52.8728 104.928 52.2562 103.503C52.2562 103.503 52.5979 104.418 52.9297 107.531L54.1928 107.531Z" fill="#E2A47B"/>
<path d="M112.307 108.609L112.3 108.761C112.262 109.654 112.221 110.642 112.178 111.709C112.291 111.857 112.41 112.018 112.536 112.195C112.572 110.773 112.546 109.734 112.307 108.609Z" fill="#E2A47B"/>
<path fill-rule="evenodd" clip-rule="evenodd" d="M134.316 97.1433C133.493 98.8912 123.664 102.866 112.536 103.503C113.894 105.987 114.07 107.379 113.936 109.863C113.921 109.837 113.908 109.812 113.894 109.787C113.451 108.985 113.19 108.512 112.307 108.609C112.546 109.734 112.572 110.773 112.536 112.195C112.41 112.018 112.291 111.857 112.178 111.709C111.538 127.553 110.462 161.016 112.664 163.437C113.782 164.665 116.062 159.68 119.04 153.167C123.768 142.827 130.257 128.639 136.648 129.366C137.496 117.282 137.437 110.104 134.316 97.1433Z" fill="#87A15E"/>
<path d="M112.536 103.503C112.536 103.503 112.442 105.436 112.307 108.609C113.19 108.512 113.451 108.985 113.894 109.787L113.936 109.863C114.07 107.379 113.894 105.987 112.536 103.503Z" fill="#E2A47B"/>
<path fill-rule="evenodd" clip-rule="evenodd" d="M112.178 111.709C111.593 110.947 111.139 110.544 110.332 110.287C111.047 112.19 111.656 114.319 110.968 116.222C110.633 116.013 110.321 115.715 110.013 115.422C109.196 114.643 108.415 113.898 107.364 114.95C107.975 115.963 107.485 117.691 106.948 119.586L106.94 119.614C106.077 118.598 105.491 118.278 104.184 118.342C104.331 119.85 104.115 120.687 102.912 122.158C102.182 121.221 101.755 120.712 99.9443 120.886C100.37 122.597 100.073 123.568 98.2484 125.338C98.0797 123.183 97.6174 122.529 95.2805 123.642C95.2004 123.756 95.192 123.952 95.1811 124.202C95.1549 124.809 95.1147 125.738 94.0086 126.61C93.4234 125.753 92.926 125.306 91.0408 124.702C90.5615 126.523 90.5915 127.545 91.0408 129.366C89.6621 127.929 88.7637 127.163 86.589 125.974C87.0015 127.77 87.1571 128.755 86.377 130.214C85.5445 128.661 84.7814 127.915 82.3492 127.034C82.7725 129.177 82.5112 130.246 81.0773 131.91C81.0463 130.026 80.7821 128.962 79.5933 127.034C79.4777 127.229 79.3681 127.424 79.2596 127.617C78.6195 128.756 78.0155 129.831 76.4135 130.426C75.9333 128.484 75.3434 127.452 73.4457 125.762L73.3984 125.9C72.8987 127.362 72.3737 128.899 70.4778 129.79C70.4695 128 70.0452 127.03 68.7819 125.338C68.2794 127.438 66.0939 129.007 63.6941 128.094C63.8607 127.897 64.0234 127.71 64.1804 127.529L64.1809 127.529C65.4294 126.094 66.3226 125.067 66.026 122.794C64.4619 123.892 63.5813 124.253 61.9982 124.066C63.2738 122.473 63.4893 121.496 63.0582 119.614L62.9561 119.684L62.8356 119.767C61.6327 120.591 60.8934 121.098 59.4544 120.886C60.5993 119.4 60.5242 118.503 59.8783 116.858C58.5921 118.242 57.8244 118.494 56.3269 117.494C57.8034 116.583 58.1411 115.682 57.9785 113.466C57.8191 113.516 57.6678 113.566 57.5224 113.614C56.3573 113.996 55.5799 114.251 54.1928 113.466C55.7462 113.013 56.0435 112.394 56.3269 111.135C55.0714 110.222 54.3054 110.265 53.1897 110.564C53.241 111.314 53.2893 112.138 53.3327 113.042C53.3615 113.641 53.3547 114.636 53.348 115.629L53.3471 115.752C53.341 116.662 53.3361 117.557 53.3598 118.13C53.3884 118.824 53.4158 119.604 53.4416 120.458C53.485 121.892 53.5239 123.533 53.5568 125.32C53.8179 139.495 53.6987 162.831 52.3835 164.277C74.9296 169.432 92.9487 169.008 112.664 163.437C110.462 161.016 111.538 127.553 112.178 111.709ZM53.1078 109.458C53.0502 108.737 52.9901 108.098 52.9297 107.531L54.1928 107.531C53.6808 108.2 53.3826 108.756 53.1078 109.458Z" fill="#CADFB9"/>
<path d="M112.536 103.503C112.255 104.456 111.928 105.374 111.56 106.259C111.92 107.155 112.156 107.899 112.307 108.609C112.442 105.436 112.536 103.503 112.536 103.503Z" fill="#E2A47B"/>
<path fill-rule="evenodd" clip-rule="evenodd" d="M29.1399 97.1433C30.0595 97.9479 40.494 102.473 52.2562 103.503C52.4628 105.48 52.2912 106.376 51.3988 107.531L52.9297 107.531C52.9901 108.098 53.0502 108.737 53.1078 109.458C53.1358 109.807 53.1632 110.176 53.1897 110.564C53.241 111.314 53.2893 112.138 53.3327 113.042C44.1416 108.805 38.6233 107.385 28.2417 106.259C28.4769 103.604 28.6681 101.741 28.9785 98.7171L28.9787 98.7156C29.0291 98.2249 29.0826 97.7035 29.1399 97.1433ZM53.3471 115.752L53.3327 113.042C53.3615 113.641 53.3547 114.636 53.348 115.629L53.3471 115.752ZM53.3598 118.13L53.3471 115.752C53.341 116.662 53.3361 117.557 53.3598 118.13Z" fill="#8AA360"/>
<path d="M27.4366 118.342C27.3326 123.234 27.7099 126.654 28.7159 129.79C34.7385 129.105 42.7938 134.32 45.2944 139.263C47.7949 144.205 48.8521 149.509 50.1441 156.09C50.934 160.112 51.5894 163.451 52.0864 164.183C52.1851 164.215 52.2841 164.246 52.3835 164.277C53.6987 162.831 53.8179 139.495 53.5568 125.32C43.8624 120.983 37.6469 119.553 27.4366 118.342Z" fill="#8AA360"/>
<path d="M27.8415 110.923C27.7666 111.885 27.7011 112.802 27.6455 113.678C38.0238 114.804 44.2552 116.224 53.4416 120.458C53.4158 119.604 53.3884 118.824 53.3598 118.13C43.6424 113.78 38.0658 112.135 27.8415 110.923Z" fill="#8AA360"/>
<path d="M136.504 110.713C126.28 111.925 121.419 113.57 111.701 117.92L111.913 112.62C121.104 108.383 125.486 107.175 135.868 106.049C136.193 107.109 136.425 109.703 136.504 110.713Z" fill="#26581A"/>
<path d="M111.604 125.551L111.818 120.155C120.154 116.27 126.576 114.826 137.043 113.68V119.191C126.607 120.367 121.071 121.851 111.604 125.551Z" fill="#26581A"/>
<path d="M145.049 87.0274C141.504 81.2868 135.316 83.1823 134.893 89.8625C134.893 89.8625 135.127 92.3328 134.388 94.3311C133.649 96.3295 130.28 99.9157 132.92 103.45C139.863 108.76 152.965 109.757 154.775 108.695C156.584 107.632 157.483 105.018 157.319 100.595C157.155 96.1713 157.677 96.0039 158.403 94.7433C161.287 88.7033 156.99 85.7517 152.435 88.948C152.895 83.8107 147.507 82.6287 145.049 87.0274Z" fill="#BFD29A"/>
<path d="M144.729 89.3333C142.879 83.8142 135.45 84.8458 135.722 90.2768C135.995 95.7078 132.693 99.011 133.742 100.16C134.791 101.309 155.217 105.306 155.757 104.789C156.296 104.272 155.342 99.6435 157.22 95.2096C159.097 90.7757 156.99 86.8265 151.812 90.7368C151.968 85.0824 147.347 84.319 144.729 89.3333Z" fill="white"/>
<path d="M145.76 97.7465C148.485 98.4551 150.841 99.5349 152.448 100.709C153.251 101.297 153.869 101.91 154.252 102.514C154.634 103.119 154.785 103.721 154.639 104.281C154.493 104.841 154.069 105.294 153.44 105.636C152.811 105.978 151.973 106.212 150.985 106.334C149.01 106.577 146.427 106.371 143.702 105.663C140.977 104.954 138.62 103.875 137.013 102.701C136.21 102.114 135.592 101.5 135.209 100.896C134.827 100.291 134.677 99.6883 134.822 99.1281C134.968 98.5681 135.393 98.1156 136.021 97.7739C136.65 97.4322 137.489 97.1978 138.476 97.0762C140.451 96.833 143.035 97.0379 145.76 97.7465Z" fill="#D78249" stroke="white" stroke-width="0.124119"/>
<path d="M140.04 87.699C140.483 87.6521 140.906 87.9698 141.234 88.4815C141.564 88.9969 141.81 89.7266 141.897 90.5489C141.985 91.3712 141.897 92.1364 141.683 92.7096C141.47 93.2788 141.123 93.6782 140.68 93.7256C140.237 93.7727 139.813 93.4551 139.485 92.9432C139.155 92.4278 138.909 91.698 138.822 90.8757C138.734 90.0535 138.822 89.2882 139.036 88.715C139.249 88.1457 139.596 87.7461 140.04 87.699Z" fill="#D78249" stroke="white" stroke-width="0.124119"/>
<path d="M148.312 88.7721C148.743 88.8845 149.027 89.3308 149.153 89.9252C149.28 90.5238 149.253 91.2935 149.045 92.0939C148.837 92.8941 148.486 93.5794 148.083 94.0403C147.683 94.4979 147.218 94.7495 146.786 94.6375C146.355 94.5253 146.07 94.0787 145.944 93.4841C145.817 92.8856 145.844 92.1158 146.052 91.3155C146.26 90.5152 146.612 89.8299 147.014 89.369C147.414 88.9113 147.88 88.6598 148.312 88.7721Z" fill="#D78249" stroke="white" stroke-width="0.124119"/>
<path d="M155.483 90.853C155.844 91.1145 155.946 91.6335 155.848 92.2331C155.748 92.8369 155.443 93.5442 154.959 94.2141C154.474 94.8839 153.897 95.3944 153.354 95.6774C152.816 95.9583 152.291 96.0235 151.929 95.7623C151.568 95.5008 151.466 94.9813 151.564 94.3815C151.664 93.7778 151.968 93.0704 152.453 92.4006C152.938 91.7308 153.515 91.2202 154.057 90.9373C154.596 90.6563 155.122 90.5915 155.483 90.853Z" fill="#D78249" stroke="white" stroke-width="0.124119"/>
<path d="M10.6914 88.3006C4.36832 85.9467 0.648384 91.2425 4.41665 96.7745C4.41665 96.7745 6.11811 98.5807 6.76218 100.611C7.40626 102.642 6.94911 107.542 11.2032 108.71C19.9435 108.637 30.8969 101.379 31.6726 99.4294C32.4483 97.4795 31.5526 94.8646 28.7069 91.4741C25.8613 88.0835 26.1704 87.631 25.969 86.1905C24.537 79.6519 19.3325 79.9614 17.7002 85.281C14.9085 80.944 9.93042 83.3195 10.6914 88.3006Z" fill="#BFD29A"/>
<path d="M11.8536 90.3164C7.00403 87.0966 1.7739 92.4728 5.3241 96.5918C8.87431 100.711 8.29674 105.345 9.83002 105.608C11.3633 105.871 29.9397 96.4827 30.0478 95.7436C30.1559 95.0046 26.5611 91.9368 25.3202 87.2845C24.0793 82.6321 19.9913 80.8089 18.3052 87.0751C14.9563 82.5164 10.8409 84.7511 11.8536 90.3164Z" fill="white"/>
<path d="M17.8324 96.3207C20.4182 95.2067 22.9408 94.6122 24.9298 94.5528C25.9242 94.5231 26.7887 94.6274 27.4621 94.8697C28.1353 95.1121 28.6234 95.4949 28.8525 96.0263C29.0815 96.5579 29.0247 97.1762 28.7383 97.8321C28.4519 98.4879 27.9339 99.1878 27.2293 99.8901C25.8198 101.295 23.6546 102.719 21.0688 103.833C18.4829 104.947 15.96 105.543 13.9708 105.602C12.9766 105.632 12.1119 105.527 11.4386 105.285C10.7653 105.043 10.2768 104.659 10.0478 104.128C9.819 103.596 9.87614 102.978 10.1623 102.323C10.4487 101.667 10.9669 100.967 11.6714 100.265C13.0809 98.86 15.2465 97.4348 17.8324 96.3207Z" fill="#D78249" stroke="white" stroke-width="0.124119"/>
<path d="M7.14835 91.9033C7.46945 91.5941 7.9983 91.5852 8.57114 91.7878C9.14799 91.992 9.7905 92.4168 10.3644 93.0121C10.9383 93.6074 11.3392 94.2651 11.5221 94.8491C11.7036 95.4289 11.6753 95.9571 11.3545 96.2667C11.0334 96.5761 10.504 96.5856 9.93101 96.3828C9.35419 96.1786 8.71161 95.7539 8.13775 95.1586C7.56386 94.5632 7.16296 93.9055 6.98007 93.3216C6.79846 92.7415 6.82729 92.2128 7.14835 91.9033Z" fill="#D78249" stroke="white" stroke-width="0.124119"/>
<path d="M14.3366 87.6697C14.746 87.4936 15.2441 87.6716 15.7087 88.0632C16.1766 88.4577 16.6281 89.0816 16.9553 89.8411C17.2824 90.6005 17.4257 91.3573 17.3911 91.9682C17.3565 92.5749 17.1438 93.0591 16.7345 93.2357C16.3249 93.4122 15.8262 93.2344 15.3614 92.8426C14.8936 92.4482 14.4421 91.8242 14.1149 91.0648C13.7877 90.3053 13.6444 89.5486 13.6791 88.9376C13.7136 88.3308 13.927 87.8462 14.3366 87.6697Z" fill="#D78249" stroke="white" stroke-width="0.124119"/>
<path d="M21.2723 84.9096C21.7178 84.8944 22.1171 85.2414 22.4075 85.7751C22.6999 86.3127 22.8936 87.0581 22.9222 87.8845C22.9508 88.7109 22.8091 89.468 22.5547 90.0245C22.3019 90.5771 21.9276 90.9508 21.4821 90.9665C21.0364 90.9819 20.6365 90.635 20.346 90.101C20.0537 89.5635 19.8599 88.818 19.8313 87.9916C19.8027 87.1652 19.9444 86.4081 20.1988 85.8516C20.4517 85.2989 20.8267 84.925 21.2723 84.9096Z" fill="#D78249" stroke="white" stroke-width="0.124119"/>
<path d="M47.9039 174.65C47.1072 168.042 45.2491 159.248 53.6765 156.494C62.1039 153.741 70.0065 154.387 73.9115 158.15C77.8164 161.913 77.7788 168.593 76.451 174.65C75.1233 180.707 67.4886 181.992 63.8372 181.877C58.858 182.221 48.7005 181.258 47.9039 174.65Z" fill="#D8EAB4"/>
<path d="M88.1832 174.65C87.3865 168.042 85.5284 159.248 93.9558 156.494C102.383 153.741 110.286 154.387 114.191 158.15C118.096 161.913 118.058 168.593 116.73 174.65C115.403 180.707 107.768 181.992 104.116 181.877C99.1373 182.221 88.9798 181.258 88.1832 174.65Z" fill="#D8EAB4"/>
<ellipse cx="68.5687" cy="163.283" rx="1.48393" ry="2.96785" transform="rotate(21.3237 68.5687 163.283)" fill="#D78249"/>
<path d="M103.464 75.245C100.703 73.8714 96.6833 74.0544 94.0357 76.6023C94.0363 78.2098 94.0937 79.7299 94.281 81.0752C94.3283 81.4148 94.3839 81.7433 94.449 82.0592C97.6497 78.0336 101.765 78.7493 103.591 81.8803C103.724 81.3681 103.823 80.8287 103.886 80.27C104.064 78.689 103.948 76.9538 103.464 75.245Z" fill="url(#paint1_linear_1122_16873)"/>
<path d="M98.9021 86.5321C101.117 86.6903 102.86 84.6973 103.591 81.8803C101.765 78.7493 97.6497 78.0336 94.449 82.0592C95.0033 84.7512 96.2447 86.5321 98.9021 86.5321Z" fill="#93FDA4"/>
<path d="M105.343 83.2221L112.321 79.1071C110.628 78.237 109.696 77.689 108.414 76.6023C108.346 76.5442 108.276 76.4846 108.206 76.4234C107.9 76.2084 107.601 75.9994 107.307 75.7972C106.594 75.307 105.913 74.8559 105.254 74.452C104.951 74.2667 104.653 74.0913 104.359 73.9266C103.47 73.4294 102.614 73.0295 101.765 72.7484C101.347 72.6102 100.93 72.5006 100.512 72.4224C98.9239 72.1251 97.3117 72.2792 95.5027 73.024C92.7746 74.7726 92.4045 76.0603 92.5506 78.5703C92.7038 78.2863 92.8691 78.018 93.0451 77.7652C93.346 77.3332 93.6783 76.9462 94.0357 76.6023C96.6833 74.0544 100.703 73.8714 103.464 75.245C105.879 76.4463 107.331 78.8384 106.06 81.8803C105.878 82.3148 105.641 82.7626 105.343 83.2221Z" fill="black"/>
<path d="M107.307 75.7972C107.601 75.9994 107.9 76.2084 108.206 76.4234C108.276 76.4846 108.346 76.5442 108.414 76.6023C109.133 76.043 109.34 75.7863 109.637 75.3499C108.759 75.6675 108.257 75.8038 107.307 75.7972Z" fill="black"/>
<path d="M106.953 72.6661C106.124 73.326 105.437 73.7044 104.359 73.9266C104.653 74.0913 104.951 74.2667 105.254 74.452C106.066 73.9724 106.5 73.4509 106.953 72.6661Z" fill="black"/>
<path d="M102.212 70.4297C101.656 71.347 101.294 71.7971 100.512 72.4224C100.93 72.5006 101.347 72.6102 101.765 72.7484C102.156 71.934 102.235 71.4187 102.212 70.4297Z" fill="black"/>
<ellipse cx="95.929" cy="76.8656" rx="2.50482" ry="1.48644" transform="rotate(-32.331 95.929 76.8656)" fill="white"/>
<ellipse cx="99.1039" cy="80.3415" rx="2.01744" ry="1.33329" transform="rotate(89.0718 99.1039 80.3415)" fill="white"/>
<circle cx="102.482" cy="84.1189" r="0.628622" fill="white"/>
<path d="M57.7114 75.245C60.4725 73.8714 64.4925 74.0544 67.1401 76.6023C67.1395 78.2098 67.0821 79.7299 66.8947 81.0752C66.8474 81.4148 66.7918 81.7433 66.7268 82.0592C63.5261 78.0336 59.4111 78.7493 57.5849 81.8803C57.452 81.3681 57.3525 80.8287 57.2897 80.27C57.112 78.689 57.228 76.9538 57.7114 75.245Z" fill="url(#paint2_linear_1122_16873)"/>
<path d="M62.2737 86.5321C60.0588 86.6903 58.316 84.6973 57.5849 81.8803C59.4111 78.7493 63.5261 78.0336 66.7268 82.0592C66.1725 84.7512 64.931 86.5321 62.2737 86.5321Z" fill="#93FDA4"/>
<path d="M55.8328 83.2221L48.8551 79.1071C50.5478 78.237 51.48 77.689 52.7616 76.6023C52.83 76.5442 52.8995 76.4846 52.9701 76.4234C53.2757 76.2084 53.5751 75.9994 53.8692 75.7972C54.5818 75.307 55.2628 74.8559 55.9222 74.452C56.2246 74.2667 56.5225 74.0913 56.8168 73.9266C57.7054 73.4294 58.5613 73.0295 59.4111 72.7484C59.829 72.6102 60.2454 72.5006 60.6635 72.4224C62.2519 72.1251 63.8641 72.2792 65.6731 73.024C68.4012 74.7726 68.7713 76.0603 68.6252 78.5703C68.472 78.2863 68.3067 78.018 68.1307 77.7652C67.8298 77.3332 67.4974 76.9462 67.1401 76.6023C64.4925 74.0544 60.4725 73.8714 57.7114 75.245C55.2965 76.4463 53.8445 78.8384 55.116 81.8803C55.2976 82.3148 55.5348 82.7626 55.8328 83.2221Z" fill="black"/>
<path d="M53.8692 75.7972C53.5751 75.9994 53.2757 76.2084 52.9701 76.4234C52.8995 76.4846 52.83 76.5442 52.7616 76.6023C52.0431 76.043 51.8356 75.7863 51.5388 75.3499C52.4168 75.6675 52.9184 75.8038 53.8692 75.7972Z" fill="black"/>
<path d="M54.2225 72.6661C55.0521 73.326 55.7383 73.7044 56.8168 73.9266C56.5225 74.0913 56.2246 74.2667 55.9222 74.452C55.1097 73.9724 54.6757 73.4509 54.2225 72.6661Z" fill="black"/>
<path d="M58.9638 70.4297C59.52 71.347 59.8817 71.7971 60.6635 72.4224C60.2454 72.5006 59.829 72.6102 59.4111 72.7484C59.0201 71.934 58.9405 71.4187 58.9638 70.4297Z" fill="black"/>
<ellipse cx="2.50482" cy="1.48644" rx="2.50482" ry="1.48644" transform="matrix(-0.844973 -0.534809 -0.534809 0.844973 68.1582 76.9492)" fill="white"/>
<ellipse cx="2.01744" cy="1.33329" rx="2.01744" ry="1.33329" transform="matrix(-0.0161988 0.999869 0.999869 0.0161988 60.7715 78.3027)" fill="white"/>
<circle cx="0.628622" cy="0.628622" r="0.628622" transform="matrix(-1 0 0 1 59.3223 83.4902)" fill="white"/>
</g>
<mask id="mask1_1122_16873" style="mask-type:alpha" maskUnits="userSpaceOnUse" x="0" y="0" width="160" height="160">
<circle cx="80" cy="80" r="80" fill="#D9D9D9"/>
</mask>
<g mask="url(#mask1_1122_16873)">
</g>
<defs>
<linearGradient id="paint0_linear_1122_16873" x1="82.2667" y1="36.416" x2="82.095" y2="121.801" gradientUnits="userSpaceOnUse">
<stop stop-color="#CADE93"/>
<stop offset="0.880022" stop-color="#345C29"/>
</linearGradient>
<linearGradient id="paint1_linear_1122_16873" x1="98.2759" y1="79.4649" x2="102.838" y2="73.3818" gradientUnits="userSpaceOnUse">
<stop offset="0.272637" stop-color="#56E86D"/>
<stop offset="1" stop-color="#4AA859"/>
</linearGradient>
<linearGradient id="paint2_linear_1122_16873" x1="62.8999" y1="79.4649" x2="58.3376" y2="73.3818" gradientUnits="userSpaceOnUse">
<stop offset="0.272637" stop-color="#56E86D"/>
<stop offset="1" stop-color="#4AA859"/>
</linearGradient>
</defs>
</svg>
