<svg width="160" height="160" viewBox="0 0 160 160" fill="none" xmlns="http://www.w3.org/2000/svg">
<mask id="mask0_1122_16865" style="mask-type:alpha" maskUnits="userSpaceOnUse" x="0" y="0" width="160" height="160">
<circle cx="80" cy="80" r="80" fill="#D9D9D9"/>
</mask>
<g mask="url(#mask0_1122_16865)">
<rect x="-55" y="-17" width="261.759" height="304.043" rx="16.4016" fill="#84CC16"/>
<path d="M137.88 55.0149C124.855 54.6763 115.074 69.8849 111.506 79.5511C109.31 106.459 111.988 153.818 140.264 127.985C168.54 102.152 173.845 87.8043 168.676 70.616C165.372 59.6297 147.48 55.2645 137.88 55.0149Z" fill="#876B57"/>
<path d="M159.275 136.255C156.833 127.279 141.242 104.764 133.751 94.6278C134.39 109.292 136.109 139.935 137.876 145.201C139.644 150.466 145.59 150.652 148.342 150.087C153.004 149.216 161.717 145.231 159.275 136.255Z" fill="#A3856C"/>
<path d="M4.7577 133.884C6.8477 126.201 20.1941 106.927 26.6061 98.251C26.0594 110.803 24.5878 137.034 23.075 141.542C21.5622 146.049 16.472 146.208 14.116 145.724C10.1257 144.979 2.66771 141.567 4.7577 133.884Z" fill="#A3856C"/>
<path d="M41.3419 186.453C40.2805 176.071 40.8997 158.696 41.3419 151.307L77.6062 155.632C78.9329 161.941 81.1442 176.937 79.3752 186.453C77.6062 195.97 67.4345 197.988 62.5698 197.808C55.9361 198.349 42.4033 196.835 41.3419 186.453Z" fill="#A3856C"/>
<path d="M83.7208 187.537C82.6594 177.155 83.2786 159.78 83.7208 152.391L119.985 156.716C121.312 163.025 123.523 178.021 121.754 187.537C119.985 197.054 109.813 199.072 104.949 198.892C98.315 199.433 84.7822 197.919 83.7208 187.537Z" fill="#A3856C"/>
<path d="M47.1578 173.286C10.4264 158.552 27.2978 64.0851 44.5592 45.9462C49.1141 36.1374 88.0253 20.8301 111.615 43.76C146.371 77.5433 141.927 153.301 125.891 167.067C109.856 180.833 83.8891 188.019 47.1578 173.286Z" fill="#C2A28A"/>
<path d="M115.321 56.1097C109.841 53.2104 109.697 46.8412 113.108 38.6243C117.141 28.9087 125.259 28.7389 130.738 31.6382C136.218 34.5375 139.938 41.4071 132.951 49.1236C126.626 56.1097 120.801 59.009 115.321 56.1097Z" fill="#242323"/>
<path d="M47.8165 53.1212C42.592 55.8855 36.9718 53.2561 31.493 47.2317C25.015 40.1082 28.8646 34.096 34.0892 31.3317C39.3137 28.5674 47.1308 28.7954 50.4127 37.2212C53.384 44.8495 53.0411 50.3569 47.8165 53.1212Z" fill="#242323"/>
<ellipse cx="2.43042" cy="3.18341" rx="2.43042" ry="3.18341" transform="matrix(0.997044 0.0768285 -0.0699359 0.997552 59.3398 69.291)" fill="#272626"/>
<ellipse cx="2.43042" cy="3.18341" rx="2.43042" ry="3.18341" transform="matrix(0.997044 0.0768285 -0.0699359 0.997552 96.5508 69.5723)" fill="#272626"/>
<path d="M78.9502 81.2009C79.1211 80.9528 79.403 80.8047 79.7042 80.8047H81.9506C82.3048 80.8047 82.6272 81.009 82.7785 81.3292L84.6481 85.287C84.7058 85.4092 84.7358 85.5428 84.7358 85.678V88.5582C84.7358 89.0638 84.3258 89.4738 83.8202 89.4738H77.3824C76.8767 89.4738 76.4668 89.0638 76.4668 88.5582V85.0907C76.4668 84.9051 76.5232 84.724 76.6284 84.5712L78.9502 81.2009Z" fill="white"/>
<path d="M84.7334 78.1204C84.7334 79.3066 83.549 79.7701 81.4286 80.8053C79.6184 80.2436 77.498 79.2432 77.498 78.057C77.498 76.8707 79.1107 76.4707 81.1966 76.4707C83.2826 76.4707 84.7334 76.9342 84.7334 78.1204Z" fill="#272626"/>
<path d="M80.4515 79.7222C79.1079 83.5921 76.825 84.8263 71.2965 86.1538" stroke="#272626" stroke-width="1.83125" stroke-linecap="round"/>
<path d="M81.7764 80.1813C82.9758 84.6017 85.3693 85.6122 91.2764 86.0372" stroke="#272626" stroke-width="1.83125" stroke-linecap="round"/>
<path d="M159.064 134.272C157.938 129.076 144.571 107.603 136.929 98.416L134.73 147.79C143.311 145.449 160.19 139.469 159.064 134.272Z" fill="#242323"/>
<path d="M7.24447 128.023C8.22295 123.521 19.8365 104.917 26.4762 96.957L28.3867 139.735C20.9316 137.707 6.26598 132.525 7.24447 128.023Z" fill="#242323"/>
<path d="M137.13 95.3568C96.3742 114.412 45.5682 102.897 27.188 94.957C20.7946 114.265 17.9637 149.593 27.3539 164.39C38.5418 186.765 112.462 193.803 129.056 168.179C145.19 143.264 141.326 109.191 137.13 95.3568Z" fill="#1A1A1A"/>
<path fill-rule="evenodd" clip-rule="evenodd" d="M74.084 16.4697C79.6811 13.8711 82.4798 15.2704 85.2784 16.4697C104.868 27.4639 144.167 55.0886 144.647 77.6367C145.127 100.185 122.059 106.622 110.465 107.021C88.5782 109.897 75.1093 110.109 48.0977 107.021C39.4354 106.422 21.4717 99.7048 18.9131 77.6367C16.355 55.5685 54.6275 27.6639 74.084 16.4697ZM77.9444 41.3857C50.2935 41.3857 33.9217 68.2462 35.7168 84.1611C37.512 100.076 61.4876 104.32 67.5655 104.753H97.1504C105.285 104.465 124.267 100.422 123.931 84.1611C123.551 65.8076 109.908 43.0547 77.9444 41.3857Z" fill="#242323"/>
<path d="M80.7164 107.753C78.2718 110.038 74.1536 115.229 77.2374 117.712C80.3212 120.195 80.8417 112.108 80.7164 107.753Z" stroke="#434343" stroke-width="1.35122"/>
<path d="M82.2836 107.884C84.7849 110.167 88.9003 118.643 85.8868 121.331C82.8733 124.018 82.2737 112.406 82.2836 107.884Z" stroke="#434343" stroke-width="1.35122"/>
<path d="M81.3037 108.15C79.5779 113.865 77.9165 126.654 78.3597 134.736" stroke="#434343" stroke-width="1.35122"/>
<path d="M81.159 108.15C81.6884 112.426 82.9952 122.56 83.1035 128.939" stroke="#434343" stroke-width="1.35122"/>
<path d="M99.7858 120.053L101.815 118.597L101.81 118.549L99.5173 117.557L99.4616 117.04L102.242 118.274L102.295 118.761L99.8401 120.559L99.7858 120.053ZM107.23 119.862L106.892 116.721L107.379 116.669L107.434 117.18L107.459 117.177C107.483 117.097 107.515 117.019 107.557 116.945C107.598 116.867 107.65 116.798 107.713 116.737C107.78 116.677 107.861 116.625 107.955 116.582C108.049 116.539 108.161 116.511 108.291 116.497C108.619 116.461 108.894 116.538 109.116 116.728C109.337 116.914 109.468 117.197 109.509 117.579L109.726 119.594L109.239 119.646L109.031 117.716C109 117.428 108.915 117.222 108.774 117.097C108.633 116.969 108.441 116.918 108.197 116.944C108.1 116.954 108.006 116.977 107.915 117.011C107.824 117.046 107.745 117.091 107.677 117.148C107.609 117.204 107.557 117.273 107.521 117.355C107.484 117.437 107.472 117.529 107.483 117.63L107.717 119.81L107.23 119.862ZM110.128 116.373L110.561 116.326L111.212 119.003L111.267 118.997L111.51 116.224L112.046 116.167L112.874 118.824L112.929 118.818L112.996 116.064L113.416 116.019L113.273 119.212L112.64 119.28L111.857 116.704L111.809 116.709L111.58 119.394L110.947 119.462L110.128 116.373ZM114.174 115.938L114.661 115.885L114.716 116.397L114.741 116.394C114.902 115.983 115.203 115.753 115.646 115.705C116.031 115.664 116.347 115.776 116.593 116.041C116.843 116.305 116.996 116.697 117.052 117.217C117.108 117.736 117.042 118.152 116.854 118.464C116.67 118.775 116.385 118.951 115.999 118.993C115.557 119.04 115.213 118.88 114.969 118.512L114.944 118.515L115.13 120.244L114.643 120.296L114.174 115.938ZM115.764 118.581C116.048 118.55 116.258 118.441 116.394 118.254C116.534 118.063 116.588 117.825 116.557 117.541L116.5 117.005C116.469 116.721 116.366 116.502 116.189 116.349C116.016 116.191 115.788 116.127 115.503 116.158C115.394 116.17 115.292 116.195 115.198 116.234C115.103 116.273 115.023 116.325 114.956 116.389C114.888 116.45 114.837 116.523 114.801 116.609C114.768 116.691 114.758 116.784 114.769 116.89L114.891 118.022C114.902 118.127 114.933 118.219 114.982 118.295C115.035 118.368 115.101 118.428 115.18 118.477C115.259 118.522 115.349 118.554 115.449 118.572C115.549 118.59 115.655 118.593 115.764 118.581ZM118.026 118.282L119.122 118.164L118.727 114.487L117.631 114.605L117.586 114.191L119.169 114.021L119.609 118.112L120.705 117.994L120.75 118.408L118.071 118.696L118.026 118.282ZM123.748 117.568L123.724 117.571C123.7 117.651 123.667 117.731 123.626 117.809C123.585 117.883 123.531 117.951 123.463 118.011C123.4 118.071 123.321 118.123 123.227 118.166C123.134 118.209 123.022 118.237 122.892 118.251C122.563 118.287 122.288 118.212 122.067 118.026C121.845 117.836 121.714 117.551 121.673 117.169L121.456 115.154L121.943 115.102L122.151 117.032C122.182 117.32 122.268 117.528 122.409 117.657C122.55 117.781 122.742 117.83 122.985 117.804C123.083 117.794 123.177 117.771 123.267 117.737C123.358 117.702 123.437 117.657 123.505 117.6C123.573 117.544 123.625 117.477 123.662 117.399C123.699 117.317 123.711 117.223 123.7 117.118L123.465 114.938L123.952 114.886L124.29 118.027L123.803 118.079L123.748 117.568ZM126.755 117.836C126.426 117.871 126.136 117.847 125.885 117.763C125.637 117.675 125.42 117.546 125.234 117.377L125.532 117.056C125.699 117.198 125.877 117.302 126.064 117.368C126.252 117.434 126.472 117.454 126.723 117.427C126.967 117.4 127.161 117.336 127.306 117.235C127.455 117.128 127.519 116.982 127.499 116.795C127.49 116.714 127.467 116.649 127.429 116.599C127.394 116.546 127.349 116.505 127.293 116.479C127.236 116.452 127.175 116.434 127.108 116.424C127.041 116.411 126.97 116.402 126.896 116.398L126.395 116.378C126.284 116.374 126.162 116.364 126.029 116.35C125.9 116.335 125.779 116.303 125.667 116.253C125.555 116.2 125.456 116.124 125.372 116.026C125.292 115.928 125.242 115.794 125.224 115.623C125.207 115.465 125.223 115.326 125.271 115.206C125.324 115.081 125.402 114.974 125.508 114.885C125.613 114.791 125.74 114.718 125.89 114.665C126.04 114.608 126.207 114.569 126.389 114.55C126.673 114.519 126.924 114.537 127.14 114.604C127.361 114.671 127.555 114.775 127.722 114.917L127.437 115.25C127.396 115.209 127.345 115.169 127.283 115.131C127.225 115.088 127.154 115.053 127.068 115.025C126.987 114.992 126.892 114.97 126.784 114.957C126.676 114.944 126.553 114.945 126.415 114.96C126.167 114.986 125.981 115.049 125.856 115.149C125.736 115.248 125.684 115.379 125.701 115.541C125.71 115.622 125.732 115.69 125.766 115.744C125.805 115.793 125.852 115.831 125.908 115.858C125.964 115.885 126.026 115.905 126.093 115.918C126.164 115.927 126.234 115.933 126.305 115.938L126.806 115.958C126.921 115.962 127.043 115.972 127.172 115.987C127.301 116.001 127.421 116.036 127.534 116.089C127.646 116.139 127.742 116.213 127.823 116.311C127.907 116.408 127.958 116.542 127.977 116.713C128.01 117.025 127.915 117.28 127.689 117.477C127.468 117.673 127.157 117.792 126.755 117.836Z" fill="white"/>
</g>
<mask id="mask1_1122_16865" style="mask-type:alpha" maskUnits="userSpaceOnUse" x="0" y="0" width="160" height="160">
<circle cx="80" cy="80" r="80" fill="#D9D9D9"/>
</mask>
<g mask="url(#mask1_1122_16865)">
</g>
</svg>
