<svg width="160" height="160" viewBox="0 0 160 160" fill="none" xmlns="http://www.w3.org/2000/svg">
<mask id="mask0_1573_2116" style="mask-type:alpha" maskUnits="userSpaceOnUse" x="0" y="0" width="160" height="160">
<circle cx="80" cy="80" r="80" fill="#D9D9D9"/>
</mask>
<g mask="url(#mask0_1573_2116)">
<rect x="-48.6953" y="-11.5938" width="252.821" height="293.662" rx="15.8416" fill="#0284C7"/>
<path d="M51.4145 50.9286C45.4429 69.3097 54.8787 80.0279 63.7271 86.1649C79.0735 115.708 108.421 92.0664 143.403 149.522C143.403 169.02 30.9409 180.458 7.22846 156.126C-16.8301 131.438 -20.2411 61.3472 2.6684 28.757C21.7677 1.58713 61.4782 19.9513 51.4145 50.9286Z" fill="#65DDEB"/>
<mask id="mask1_1573_2116" style="mask-type:alpha" maskUnits="userSpaceOnUse" x="-13" y="15" width="157" height="155">
<path d="M51.4145 50.9286C45.4429 69.3097 54.8787 80.0279 63.7271 86.1649C79.0735 115.708 108.421 92.0664 143.403 149.522C143.403 169.02 30.9409 180.458 7.22846 156.126C-16.8301 131.438 -20.2411 61.3472 2.6684 28.757C21.7677 1.58713 61.4782 19.9513 51.4145 50.9286Z" fill="#65DDEB"/>
</mask>
<g mask="url(#mask1_1573_2116)">
<path d="M3.61089 54.0727C0.717573 43.5058 -11.3274 60.2577 -16.9883 69.9545L-13.5289 17.9062L74.2142 20.2649C71.1217 32.5825 64.9367 59.765 64.9367 69.9545C64.9367 82.6914 47.9541 73.5712 42.6078 64.451C37.2614 55.3307 30.8144 69.9545 19.8072 80.49C8.8 91.0255 7.22754 67.2814 3.61089 54.0727Z" fill="#58D4E2"/>
<path d="M32.3869 49.1977C37.7333 57.3745 50.575 53.391 55.6593 49.1977C51.3099 24.4992 17.7631 -8.98312 -10.5411 38.8195C-12.8787 42.028 7.38487 28.7558 9.5863 33.9449C12.7312 37.4043 6.253 48.695 2.0385 63.6644C-24.6304 158.389 77.0971 173.474 131.294 169.176C123.485 167.866 100.003 164.176 68.5534 159.899C29.242 154.552 -2.12501 121.653 11.316 67.7527C26.8833 5.32622 27.5191 41.7528 32.3869 49.1977Z" fill="#43BBD3"/>
<path d="M8.32871 133.798C22.943 159.061 78.932 171.694 102.085 170.083C96.9851 171.495 71.5414 170.309 42.9227 160.529C-0.097174 145.829 -7.64896 106.177 8.32871 133.798Z" fill="#B0E4EF"/>
<path d="M1.09633 121.846C1.09633 122.541 0.442544 123.104 0.00365794 123.104C-0.435228 123.104 -0.791016 122.541 -0.791016 121.846C-0.791016 121.151 -0.435228 120.588 0.00365794 120.588C0.442544 120.588 1.09633 121.151 1.09633 121.846Z" fill="#B0E4EF"/>
<path d="M11.6311 149.679C-8.49633 131.313 -11.1695 113.985 -13.2137 72L-14.6289 177.512L75.4728 172.008C62.5787 172.218 31.7585 168.046 11.6311 149.679Z" fill="#43BBD3"/>
<path d="M20.4376 68.2252C10.4997 101.435 24.5784 118.963 32.86 123.576C39.2547 128.136 47.8298 133.073 30.9731 116.342C9.90217 95.4287 32.0601 29.3856 20.4376 68.2252Z" fill="#43BBD3"/>
</g>
<path d="M52.2745 8.00515C16.1868 7.6711 1.2807 23.8157 -2.36328 37.5621C0.421261 33.0287 9.92163 23.7653 19.2777 24.2899C30.9728 24.9457 30.1374 33.0587 34.3142 42.2449C38.491 51.4312 39.3264 49.761 49.3507 43.9152C59.3751 38.0694 57.2867 51.4312 69.8171 49.761C82.3476 48.0908 76.9177 44.3327 84.8537 40.5747C92.7896 36.8167 109.079 48.9259 111.585 40.5747C114.091 32.2235 97.3841 8.42271 52.2745 8.00515Z" fill="#F7FCFA"/>
<mask id="mask2_1573_2116" style="mask-type:alpha" maskUnits="userSpaceOnUse" x="-3" y="8" width="115" height="42">
<path d="M52.2745 8.00515C16.1868 7.6711 1.2807 23.8157 -2.36328 37.5621C0.421261 33.0287 9.92163 23.7653 19.2777 24.2899C30.9728 24.9457 30.1374 33.0587 34.3142 42.2449C38.491 51.4312 39.3264 49.761 49.3507 43.9152C59.3751 38.0694 57.2867 51.4312 69.8171 49.761C82.3476 48.0908 76.9177 44.3327 84.8537 40.5747C92.7896 36.8167 109.079 48.9259 111.585 40.5747C114.091 32.2235 97.3841 8.42271 52.2745 8.00515Z" fill="#F7FCFA"/>
</mask>
<g mask="url(#mask2_1573_2116)">
<path d="M36.6349 20.4234C30.9741 11.366 12.0522 17.8026 3.29883 22.1531C17.3461 12.4563 52.1393 -4.57867 78.934 4.85607C112.427 16.6495 108.339 17.2785 97.8034 30.0154C87.268 42.7523 74.5311 24.1973 61.008 32.5313C47.4848 40.8653 43.7109 31.7451 36.6349 20.4234Z" fill="#EDF8FA"/>
</g>
<path d="M141.312 161.067C138.686 163.869 128.973 169.343 111.122 168.825C88.8079 168.179 79.8843 168.657 78.7278 166.344C78.6678 166.224 78.6133 166.144 78.5717 166.095C78.4504 166.024 78.4785 165.984 78.5717 166.095C78.9635 166.325 80.9134 166.884 87.2596 163.758C96.4478 159.232 67.7198 168.669 52.625 152.506C37.5302 136.343 29.8104 142.548 22.5911 138.669C15.3719 134.789 27.8415 138.669 31.123 136.729C34.4044 134.789 20.5957 124.149 16.6579 115.098C12.7202 106.046 24.491 120.983 33.6791 121.63C41.0296 122.147 108.497 148.137 141.312 161.067Z" fill="#FBFEFF"/>
<mask id="mask3_1573_2116" style="mask-type:alpha" maskUnits="userSpaceOnUse" x="15" y="112" width="127" height="57">
<path d="M141.312 161.067C138.686 163.869 128.973 169.343 111.122 168.825C88.8079 168.179 79.8843 168.657 78.7278 166.344C78.6678 166.224 78.6133 166.144 78.5717 166.095C78.4504 166.024 78.4785 165.984 78.5717 166.095C78.9635 166.325 80.9134 166.884 87.2596 163.758C96.4478 159.232 67.7198 168.669 52.625 152.506C37.5302 136.343 29.8104 142.548 22.5911 138.669C15.3719 134.789 27.8415 138.669 31.123 136.729C34.4044 134.789 20.5957 124.149 16.6579 115.098C12.7202 106.046 24.491 120.983 33.6791 121.63C41.0296 122.147 108.497 148.137 141.312 161.067Z" fill="#FBFEFF"/>
</mask>
<g mask="url(#mask3_1573_2116)">
<path d="M33.9595 138.357C27.1665 138.609 22.1137 136.575 20.4364 135.527C18.497 134.635 14.461 133.388 13.8321 135.527C13.0458 138.2 71.6982 169.334 76.4156 169.649C80.1895 169.9 86.4795 163.411 94.1846 161.944C91.6686 161.262 79.089 160.308 69.6542 159.428C57.8608 158.327 42.4508 138.042 33.9595 138.357Z" fill="#EDF8FA"/>
</g>
<path d="M141.648 137.826C139.836 143.676 142.119 147.929 143.487 149.324C138.282 144.434 126.558 133.081 121.306 126.792C114.741 118.931 123.27 108.821 127.021 117.633C130.773 126.444 129.502 122.408 134.675 125.467C139.847 128.525 134.955 135.025 136.063 136.097C137.171 137.168 143.912 130.512 141.648 137.826Z" fill="#FBFEFF"/>
<mask id="mask4_1573_2116" style="mask-type:alpha" maskUnits="userSpaceOnUse" x="118" y="114" width="26" height="36">
<path d="M141.648 137.826C139.836 143.676 142.119 147.929 143.487 149.324C138.282 144.434 126.558 133.081 121.306 126.792C114.741 118.931 123.27 108.821 127.021 117.633C130.773 126.444 129.502 122.408 134.675 125.467C139.847 128.525 134.955 135.025 136.063 136.097C137.171 137.168 143.912 130.512 141.648 137.826Z" fill="#FBFEFF"/>
</mask>
<g mask="url(#mask4_1573_2116)">
<path d="M126.107 114.613C124.639 115.452 122.301 118.167 124.691 122.318C127.679 127.507 133.183 123.419 133.183 130.809C133.183 136.94 133.399 143.071 135.268 145.072C136.69 145.58 137.336 145.782 136.642 145.748C136.106 145.721 135.652 145.484 135.268 145.072C130.243 143.28 115.518 137.684 115.886 125.306C116.263 112.6 119.712 109.214 121.389 109.109L126.107 114.613Z" fill="#EDF8FA"/>
</g>
<path d="M147.932 157.532C128.43 109.276 36.5764 90.6255 30.3899 93.7055C20.5599 98.5996 17.9996 102.917 16.4773 112.106C15.6813 116.912 70.2401 170.507 146.222 160.384C147.585 160.203 148.447 158.807 147.932 157.532Z" fill="url(#paint0_linear_1573_2116)"/>
<mask id="mask5_1573_2116" style="mask-type:alpha" maskUnits="userSpaceOnUse" x="16" y="93" width="133" height="69">
<path d="M147.932 157.532C128.43 109.276 36.5764 90.6255 30.3899 93.7055C20.5599 98.5996 17.9996 102.917 16.4773 112.106C15.6813 116.912 70.2401 170.507 146.222 160.384C147.585 160.203 148.447 158.807 147.932 157.532Z" fill="#492F80"/>
</mask>
<g mask="url(#mask5_1573_2116)">
<path d="M90.5675 153.923C60.6908 147.652 33.2252 126.667 17.291 114.926C23.0043 127.715 43.7712 155.212 81.1327 162.886C118.494 170.559 142.721 163.41 150.478 159.426C138.789 159.531 125.476 161.249 90.5675 153.923Z" fill="#433078"/>
<path d="M12.841 114.137C38.5035 128.73 72.4371 142.441 104.83 138.039V124.201C46.0199 100.142 -12.8214 99.5448 12.841 114.137Z" fill="#1F1536" fill-opacity="0.6"/>
<path d="M18.5498 96.0565C48.4894 89.6409 114.155 118.385 149.85 152.036C144.556 142.182 120.382 107.378 100.003 87.8798C74.5293 63.5067 -18.8746 104.076 18.5498 96.0565Z" fill="#FFEFEF" fill-opacity="0.3"/>
</g>
<path d="M63.8048 130.775C63.1959 124.819 64.1897 119.673 67.0069 116.217C69.8241 112.761 79.501 112.462 82.9152 116.217C86.3295 119.972 86.6393 125.315 85.6245 130.775C84.6096 136.234 78.7741 137.392 75.9832 137.289C72.1775 137.599 64.4137 136.731 63.8048 130.775Z" fill="#816551"/>
<path d="M91.1191 133.743C89.7706 127.909 90.1135 122.68 92.4767 118.899C94.8399 115.118 104.404 113.612 108.26 116.911C112.117 120.21 113.092 125.472 112.768 131.016C112.443 136.559 106.798 138.438 104.016 138.684C100.279 139.467 92.4676 139.576 91.1191 133.743Z" fill="#816551"/>
<path d="M49.2552 65.0478C57.5762 64.7774 63.743 73.4527 65.9706 78.982C67.2302 94.4192 65.2686 121.627 47.3454 106.959C29.4222 92.2913 26.1101 84.0842 29.5027 74.1851C31.6712 67.8577 43.122 65.247 49.2552 65.0478Z" fill="#816551"/>
<path d="M123.85 70.4636C115.574 72.4706 111.237 82.4081 107.345 87.126C115.583 92.7149 127.4 85.2794 130.017 81.4793C131.557 79.2436 131.8 76.3593 131.267 74.9807C130.405 72.6387 128.054 69.4441 123.85 70.4636Z" fill="#A3856C"/>
<path d="M62.5487 121.229C41.476 112.776 54.8183 64.1209 62.5486 47.4746H101.859C125.745 79.3679 123.29 109.544 114.091 117.442C104.892 125.339 83.6215 129.681 62.5487 121.229Z" fill="#B3937A"/>
<path d="M39.7702 97.615C44.1967 87.6835 56.8237 82.9648 59.0673 84.4359C61.311 85.9069 54.6687 103.018 50.2658 105.991C48.1222 107.439 44.381 106.704 43.2919 105.991C41.4325 104.822 38.0063 101.572 39.7702 97.615Z" fill="#A3856C"/>
<path d="M99.5974 52.0791C96.9965 50.9951 96.6657 48.1184 97.8672 44.2573C99.2881 39.6919 102.955 39.2769 105.556 40.3609C108.157 41.4448 110.127 44.3991 107.286 48.1827C104.714 51.6082 102.198 53.1631 99.5974 52.0791Z" fill="#C2A28A"/>
<path d="M54.0786 65.5798C57.2325 59.745 58.0394 47.2353 59.893 43.8142C61.7466 40.3931 70.5651 38.2025 78.7291 37.2482C86.6318 36.3244 95.8689 34.575 99.9266 38.8271C103.984 43.0793 107.89 51.7108 113.714 60.5304C98.8806 57.8077 68.9859 62.5044 54.0786 65.5798Z" fill="#4FA6CC"/>
<path d="M97.1635 63.783C107.856 65.1668 118.233 62.721 119.335 60.0091C120.97 55.9836 114.74 56.3259 109.114 56.078C94.9267 55.453 57.4697 60.563 55.3008 62.4065C52.1559 65.0797 48.5746 65.1983 47.9456 67.8715C47.3166 70.5446 55.1436 74.6717 64.2638 69.4826C73.3841 64.2935 83.7976 62.0533 97.1635 63.783Z" fill="#83C0DB"/>
<path d="M84.6811 74.2142C84.6106 75.2206 84.1235 73.5593 82.8329 73.4599C81.8691 73.3856 81.1201 74.9517 81.1906 73.9453C81.2612 72.9389 82.0997 72.1833 83.0636 72.2575C84.0275 72.3318 84.7517 73.2079 84.6811 74.2142Z" fill="#3F3D3B"/>
<ellipse cx="1.25508" cy="1.64405" rx="1.25508" ry="1.64405" transform="matrix(0.997044 0.0768343 -0.0699306 0.997552 95.875 70.6934)" fill="#3F3D3B"/>
<path d="M91.0124 77.1475C91.1495 76.9405 91.3797 76.8141 91.628 76.8096L92.6505 76.7909C92.9424 76.7856 93.2113 76.9491 93.3408 77.2109L94.3673 79.2849C94.4168 79.3848 94.4435 79.4945 94.4455 79.6059L94.4705 80.9769C94.4781 81.3938 94.1464 81.7379 93.7295 81.7455L90.496 81.8045C90.0791 81.8121 89.735 81.4804 89.7274 81.0635L89.6966 79.3756C89.6938 79.2226 89.7375 79.0725 89.822 78.9449L91.0124 77.1475Z" fill="white"/>
<path d="M93.7906 75.0185C93.8329 75.6978 93.1711 76.0056 91.9937 76.6741C90.937 76.4171 89.6869 75.9199 89.6445 75.2405C89.6022 74.5611 90.5115 74.2744 91.7061 74.2C92.9008 74.1255 93.7482 74.3391 93.7906 75.0185Z" fill="#3F3D3B"/>
<path d="M91.3943 76.0883C90.7631 78.3521 89.5001 79.1403 86.3819 80.0977" stroke="#3F3D3B" stroke-width="1.50984" stroke-linecap="round"/>
<path d="M92.1698 76.3054C93.599 78.3913 94.0282 78.3647 96.2006 78.6599" stroke="#3F3D3B" stroke-width="1.50984" stroke-linecap="round"/>
<path d="M64.1692 56.6075C61.7945 57.864 59.1548 56.5337 56.5288 53.58C53.424 50.0876 55.1133 47.259 57.488 46.0026C59.8627 44.7461 63.4821 44.9551 65.1283 49.0301C66.6187 52.7193 66.5438 55.3511 64.1692 56.6075Z" fill="#C2A28A"/>
<path d="M30.1376 57.9849C36.7099 60.9711 35.8356 49.7183 32.9208 45.7198C32.7469 45.4813 32.4062 45.6385 32.4158 45.9335C32.6119 51.9677 27.3499 56.7182 30.1376 57.9849Z" fill="#F7FCFA"/>
<path d="M119.974 47.7833C123.761 45.9472 119.199 41.6158 115.743 39.1588C115.336 38.8694 114.79 39.1667 114.813 39.6655C115.002 43.7094 116.204 49.6113 119.974 47.7833Z" fill="#F7FCFA"/>
<path d="M27.6705 43.3806C29.3553 43.8299 29.2433 40.5519 28.9015 38.3147C28.8591 38.037 28.5081 37.967 28.3636 38.2079C27.2533 40.058 25.9953 42.9339 27.6705 43.3806Z" fill="#F7FCFA"/>
<path d="M37.634 162.792C43.2547 169.226 49.999 166.19 57.075 169.964C47.027 169.335 37.4333 168.797 24.586 164.937C8.52699 160.111 -29.6133 138.126 -7.03022 132.228C15.5528 126.33 0.999306 149.923 18.5639 149.923C36.1285 149.923 30.6082 154.749 37.634 162.792Z" fill="#FBFEFF"/>
<mask id="mask6_1573_2116" style="mask-type:alpha" maskUnits="userSpaceOnUse" x="-14" y="131" width="72" height="39">
<path d="M37.634 162.792C43.2547 169.226 49.999 166.19 57.075 169.964C47.027 169.335 37.4333 168.797 24.586 164.937C8.52699 160.111 -29.6133 138.126 -7.03022 132.228C15.5528 126.33 0.999306 149.923 18.5639 149.923C36.1285 149.923 30.6082 154.749 37.634 162.792Z" fill="#FBFEFF"/>
</mask>
<g mask="url(#mask6_1573_2116)">
<path d="M-10.0687 132.067C-7.44795 131.647 0.617123 128.962 2.66818 136.627C5.65584 147.791 13.3609 154.396 25.3116 154.71C35.4494 154.977 33.932 167.578 41.1097 171.683C46.5674 172.656 49.0217 173.064 45.9107 172.951C43.9547 172.879 42.3932 172.417 41.1097 171.683C23.9464 168.62 -22.9199 159.961 -19.8179 144.332C-16.5472 127.853 -11.9557 129.289 -10.0687 132.067Z" fill="#EDF8FA"/>
</g>
<path d="M8.01631 106.566C11.9146 105.768 10.9724 116.029 16.72 120.218C16.9561 120.39 16.881 120.769 16.5898 120.794C13.4024 121.069 8.18618 120.196 6.29551 118.519C3.70902 116.225 8.00589 117.27 7.98732 115.759C7.96876 114.247 -0.74937 113.497 2.15022 109.743C4.87075 106.221 6.85489 111.217 7.85731 110.846C8.59465 110.573 4.47112 107.291 8.01631 106.566Z" fill="#FBFEFF"/>
<path d="M52.0268 81.6256C49.8656 83.5903 51.6175 84.7363 52.7635 85.0638C51.5356 85.2275 49.178 86.1934 49.571 88.7475C49.9639 91.3016 52.518 90.3029 53.7459 89.4842C53.1728 90.5484 52.7144 92.6277 55.4649 92.4312C58.2155 92.2348 57.5933 90.3847 56.9384 89.4842C58.1663 89.9754 60.7695 90.5157 61.3589 88.7475C61.9483 86.9793 59.3124 86.5373 57.9208 86.5373C59.0668 86.0461 60.8678 84.5726 58.9031 82.6079C56.9384 80.6433 55.7924 82.9354 55.4649 84.327C55.2194 82.608 54.1879 79.661 52.0268 81.6256Z" fill="url(#paint1_radial_1573_2116)"/>
<path d="M57.2158 84.4219C54.4424 85.3377 55.5767 87.0972 56.4905 87.8625C55.3021 87.5126 52.7555 87.4361 52.0757 89.9292C51.3958 92.4223 54.1353 92.5487 55.59 92.3003C54.6336 93.0394 53.3691 94.7525 55.9618 95.6917C58.5545 96.631 58.7386 94.6878 58.5065 93.5988C59.4285 94.547 61.5869 96.0993 62.8445 94.7237C64.1021 93.3481 61.8739 91.8722 60.6026 91.3062C61.8493 91.3236 64.0938 90.71 63.0981 88.1161C62.1024 85.5222 60.1232 87.15 59.258 88.2882C59.7329 86.6178 59.9892 83.5061 57.2158 84.4219Z" fill="url(#paint2_linear_1573_2116)"/>
<path d="M56.9697 90.9541C56.3138 93.8001 58.4064 93.7433 59.5347 93.3591C58.6191 94.1935 57.2325 96.331 59.0111 98.2056C60.7897 100.08 62.3191 97.8038 62.8614 96.4313C62.9971 97.6323 63.8056 99.6021 65.9536 97.8729C68.1017 96.1437 66.536 94.9782 65.4846 94.6116C66.7735 94.3153 69.2204 93.2755 68.6968 91.4867C68.1733 89.6979 65.7555 90.8371 64.612 91.6303C65.2738 90.5735 65.9137 88.3363 63.1796 87.8418C60.4455 87.3474 60.8103 89.8839 61.3344 91.214C60.1528 89.9415 57.6256 88.108 56.9697 90.9541Z" fill="url(#paint3_radial_1573_2116)"/>
<path d="M63.7812 90.3443C61.4308 92.078 63.0564 93.3969 64.163 93.8397C62.9248 93.8771 60.4809 94.5973 60.611 97.1781C60.7411 99.7589 63.3838 99.0263 64.6889 98.3373C64.0101 99.3374 63.3418 101.359 66.098 101.444C68.8542 101.53 68.4243 99.626 67.8647 98.6633C69.0361 99.2773 71.5705 100.081 72.3373 98.3818C73.1042 96.6831 70.5272 95.9742 69.1429 95.8321C70.3331 95.4605 72.275 94.1786 70.5213 92.0236C68.7675 89.8686 67.3934 92.0317 66.9256 93.3826C66.8568 91.6475 66.1316 88.6106 63.7812 90.3443Z" fill="url(#paint4_linear_1573_2116)"/>
<path d="M66.0383 95.5426C65.4602 98.4055 67.5505 98.2916 68.6679 97.8768C67.7754 98.7358 66.4477 100.91 68.2767 102.736C70.1058 104.561 71.5725 102.244 72.0772 100.857C72.2456 102.054 73.1075 104.001 75.2076 102.214C77.3076 100.427 75.7107 99.3043 74.6498 98.9665C75.9301 98.6352 78.3477 97.529 77.7756 95.7552C77.2034 93.9813 74.8176 95.186 73.6962 96.0101C74.3289 94.9357 74.9075 92.6819 72.161 92.2621C69.4144 91.8424 69.8482 94.3681 70.4085 95.6834C69.1926 94.4436 66.6163 92.6797 66.0383 95.5426Z" fill="url(#paint5_radial_1573_2116)"/>
<path d="M71.864 95.2222C70.1715 97.6025 72.1274 98.3487 73.3169 98.4242C72.1521 98.846 70.0548 100.292 70.9833 102.704C71.9118 105.115 74.1941 103.595 75.2192 102.534C74.8863 103.695 74.8818 105.825 77.5272 105.046C80.1726 104.268 79.1702 102.593 78.3384 101.853C79.6428 102.071 82.3013 102.044 82.5001 100.19C82.6989 98.3372 80.0293 98.4674 78.6697 98.7641C79.6847 98.0399 81.13 96.2163 78.7916 94.7157C76.4532 93.2151 75.8223 95.6989 75.7991 97.1284C75.1926 95.5012 73.5565 92.842 71.864 95.2222Z" fill="url(#paint6_linear_1573_2116)"/>
<path d="M75.1009 101.695C76.2577 104.377 77.9103 103.092 78.592 102.114C78.3483 103.329 78.4967 105.872 81.04 106.329C83.5834 106.787 83.4677 104.047 83.092 102.62C83.9126 103.507 85.7305 104.615 86.4374 101.95C87.1443 99.2847 85.1925 99.2727 84.1282 99.5998C84.9913 98.5978 86.3473 96.311 84.8661 95.1796C83.385 94.0482 82.1113 96.3979 81.6596 97.7142C81.567 96.4708 80.7579 94.2891 78.2619 95.5097C75.7659 96.7303 77.5619 98.5582 78.772 99.3196C77.0663 98.994 73.944 99.0131 75.1009 101.695Z" fill="url(#paint7_radial_1573_2116)"/>
<path d="M81.4905 97.9117C80.6231 100.701 82.7141 100.801 83.868 100.502C82.8925 101.266 81.3496 103.293 82.9827 105.296C84.6158 107.298 86.3115 105.143 86.9551 103.815C87.0005 105.023 87.659 107.048 89.9306 105.484C92.2022 103.921 90.7283 102.642 89.7074 102.197C91.0148 101.998 93.5327 101.145 93.1447 99.3218C92.7567 97.4988 90.2604 98.4536 89.0607 99.1588C89.7997 98.1546 90.6055 95.9717 87.9162 95.2737C85.2268 94.5757 85.4005 97.1324 85.8235 98.4981C84.7405 97.1406 82.3578 95.1228 81.4905 97.9117Z" fill="url(#paint8_linear_1573_2116)"/>
<path d="M87.0056 102.021C88.1765 104.697 89.8223 103.403 90.4988 102.422C90.2615 103.638 90.4233 106.181 92.969 106.625C95.5147 107.069 95.3846 104.329 95.0014 102.904C95.8266 103.787 97.6503 104.886 98.3433 102.217C99.0362 99.548 97.0843 99.5462 96.0218 99.879C96.8796 98.8724 98.2236 96.5785 96.7365 95.4549C95.2494 94.3313 93.9881 96.6877 93.5433 98.0063C93.4442 96.7634 92.6236 94.586 90.1341 95.8197C87.6445 97.0534 89.4501 98.8719 90.6641 99.6269C88.9567 99.3102 85.8346 99.3457 87.0056 102.021Z" fill="url(#paint9_radial_1573_2116)"/>
<path d="M92.4195 98.4019C92.4621 101.256 94.4422 100.798 95.4269 100.212C94.7504 101.188 93.9308 103.504 96.0647 104.957C98.1986 106.41 99.1216 103.933 99.3163 102.513C99.7272 103.638 100.959 105.37 102.6 103.298C104.241 101.226 102.476 100.412 101.388 100.263C102.547 99.7304 104.634 98.2615 103.715 96.6484C102.797 95.0352 100.761 96.5937 99.8579 97.5746C100.24 96.4341 100.325 94.1666 97.6049 94.2206C94.8845 94.2745 95.8269 96.6349 96.6382 97.8084C95.2141 96.8171 92.3768 95.5479 92.4195 98.4019Z" fill="url(#paint10_linear_1573_2116)"/>
<path d="M101.059 102.432C103.546 103.963 104.161 101.962 104.158 100.77C104.656 101.904 106.238 103.901 108.583 102.815C110.927 101.729 109.259 99.5521 108.132 98.5996C109.313 98.8548 111.438 98.7183 110.486 96.1303C109.534 93.5423 107.929 94.6533 107.246 95.5324C107.377 94.2164 107.174 91.5655 105.312 91.4899C103.449 91.4143 103.756 94.0694 104.142 95.4063C103.352 94.4416 101.437 93.1202 100.095 95.5529C98.7522 97.9855 101.272 98.4506 102.7 98.379C101.117 99.092 98.5717 100.901 101.059 102.432Z" fill="url(#paint11_radial_1573_2116)"/>
<path d="M102.896 96.0854C103.788 98.8667 105.557 97.7479 106.331 96.8408C105.97 98.026 105.872 100.572 108.359 101.273C110.846 101.975 110.996 99.2368 110.76 97.78C111.491 98.7428 113.193 100.022 114.155 97.4378C115.117 94.8535 113.175 94.6524 112.084 94.8749C113.04 93.9612 114.612 91.8165 113.247 90.5469C111.883 89.2773 110.387 91.4926 109.81 92.7589C109.838 91.5124 109.244 89.2626 106.642 90.2356C104.039 91.2086 105.65 93.202 106.78 94.0771C105.114 93.5877 102.005 93.3042 102.896 96.0854Z" fill="url(#paint12_linear_1573_2116)"/>
<path d="M108.319 95.166C110.611 96.9763 111.455 95.0605 111.59 93.8763C111.953 95.0609 113.292 97.2285 115.747 96.4227C118.202 95.6169 116.799 93.2609 115.79 92.1835C116.934 92.5746 119.06 92.6865 118.416 90.0052C117.772 87.3239 116.049 88.2406 115.267 89.034C115.551 87.7423 115.658 85.0858 113.817 84.7938C111.976 84.5018 111.972 87.1746 112.199 88.5474C111.527 87.4972 109.779 85.9618 108.162 88.2216C106.546 90.4814 108.995 91.2368 110.421 91.332C108.765 91.8557 106.027 93.3557 108.319 95.166Z" fill="url(#paint13_radial_1573_2116)"/>
<path d="M109.566 86.1277C109.548 89.0483 111.578 88.5359 112.595 87.9146C111.883 88.9288 110.997 91.3174 113.142 92.7584C115.287 94.1994 116.283 91.6441 116.512 90.1863C116.907 91.3287 118.126 93.0744 119.844 90.9179C121.563 88.7614 119.781 87.9659 118.675 87.8377C119.868 87.2671 122.028 85.7181 121.127 84.0868C120.225 82.4555 118.115 84.0951 117.172 85.1188C117.587 83.9431 117.723 81.6201 114.947 81.7346C112.171 81.8491 113.081 84.2448 113.883 85.4283C112.452 84.4445 109.585 83.2071 109.566 86.1277Z" fill="url(#paint14_linear_1573_2116)"/>
<path d="M113.149 88.6075C115.636 90.1387 116.251 88.1376 116.247 86.9457C116.745 88.08 118.328 90.0769 120.672 88.9908C123.017 87.9046 121.349 85.7279 120.222 84.7754C121.403 85.0306 123.528 84.8941 122.576 82.3061C121.624 79.7181 120.019 80.8291 119.336 81.7082C119.467 80.3922 119.264 77.7413 117.402 77.6657C115.539 77.5901 115.846 80.2451 116.232 81.5821C115.442 80.6174 113.527 79.296 112.184 81.7287C110.842 84.1613 113.362 84.6263 114.79 84.5548C113.207 85.2677 110.662 87.0764 113.149 88.6075Z" fill="url(#paint15_radial_1573_2116)"/>
</g>
<mask id="mask7_1573_2116" style="mask-type:alpha" maskUnits="userSpaceOnUse" x="0" y="0" width="160" height="160">
<circle cx="80" cy="80" r="80" fill="#D9D9D9"/>
</mask>
<g mask="url(#mask7_1573_2116)">
</g>
<defs>
<linearGradient id="paint0_linear_1573_2116" x1="140.573" y1="161.785" x2="53.3012" y2="57.3744" gradientUnits="userSpaceOnUse">
<stop stop-color="#5C56AF"/>
<stop offset="1" stop-color="#42266D"/>
</linearGradient>
<radialGradient id="paint1_radial_1573_2116" cx="0" cy="0" r="1" gradientUnits="userSpaceOnUse" gradientTransform="translate(55.4854 86.7094) rotate(90) scale(5.73481 5.95807)">
<stop stop-color="#FDFDFB"/>
<stop offset="0.0001" stop-color="#FFF5D8"/>
<stop offset="1" stop-color="#FCA51A"/>
<stop offset="1" stop-color="#FCA51A"/>
</radialGradient>
<linearGradient id="paint2_linear_1573_2116" x1="60.6402" y1="85.2339" x2="55.9752" y2="95.7119" gradientUnits="userSpaceOnUse">
<stop stop-color="#FD2F30"/>
<stop offset="1" stop-color="#971A1C"/>
</linearGradient>
<radialGradient id="paint3_radial_1573_2116" cx="0" cy="0" r="1" gradientUnits="userSpaceOnUse" gradientTransform="translate(62.7091 93.1599) rotate(55.2514) scale(5.73481 5.95807)">
<stop stop-color="#DCDCDC"/>
<stop offset="1" stop-color="#A8B8D8"/>
</radialGradient>
<linearGradient id="paint4_linear_1573_2116" x1="67.2882" y1="90.0498" x2="66.117" y2="101.459" gradientUnits="userSpaceOnUse">
<stop stop-color="#FDAEE5"/>
<stop offset="1" stop-color="#FD5D9F"/>
</linearGradient>
<radialGradient id="paint5_radial_1573_2116" cx="0" cy="0" r="1" gradientUnits="userSpaceOnUse" gradientTransform="translate(71.8357 97.591) rotate(53.6886) scale(5.73481 5.95807)">
<stop stop-color="#FDFDFB"/>
<stop offset="0.0001" stop-color="#FFF5D8"/>
<stop offset="1" stop-color="#FCA51A"/>
<stop offset="1" stop-color="#FCA51A"/>
</radialGradient>
<linearGradient id="paint6_linear_1573_2116" x1="75.1042" y1="93.8487" x2="77.5499" y2="105.055" gradientUnits="userSpaceOnUse">
<stop stop-color="#FD2F30"/>
<stop offset="1" stop-color="#971A1C"/>
</linearGradient>
<radialGradient id="paint7_radial_1573_2116" cx="0" cy="0" r="1" gradientUnits="userSpaceOnUse" gradientTransform="translate(81.032 100.074) rotate(18.94) scale(5.73481 5.95807)">
<stop stop-color="#DCDCDC"/>
<stop offset="1" stop-color="#A8B8D8"/>
</radialGradient>
<linearGradient id="paint8_linear_1573_2116" x1="84.1421" y1="95.5977" x2="89.9548" y2="105.485" gradientUnits="userSpaceOnUse">
<stop stop-color="#FDAEE5"/>
<stop offset="1" stop-color="#FD5D9F"/>
</linearGradient>
<radialGradient id="paint9_radial_1573_2116" cx="0" cy="0" r="1" gradientUnits="userSpaceOnUse" gradientTransform="translate(92.9281 100.369) rotate(18.639) scale(5.73481 5.95807)">
<stop stop-color="#FDFDFB"/>
<stop offset="0.0001" stop-color="#FFF5D8"/>
<stop offset="1" stop-color="#FCA51A"/>
<stop offset="1" stop-color="#FCA51A"/>
</radialGradient>
<linearGradient id="paint10_linear_1573_2116" x1="94.1853" y1="95.5231" x2="102.623" y2="103.292" gradientUnits="userSpaceOnUse">
<stop stop-color="#FD2F30"/>
<stop offset="1" stop-color="#971A1C"/>
</linearGradient>
<radialGradient id="paint11_radial_1573_2116" cx="0" cy="0" r="1" gradientUnits="userSpaceOnUse" gradientTransform="translate(104.983 97.6983) rotate(-16.1096) scale(5.73481 5.95807)">
<stop stop-color="#DCDCDC"/>
<stop offset="1" stop-color="#A8B8D8"/>
</radialGradient>
<linearGradient id="paint12_linear_1573_2116" x1="103.738" y1="92.6682" x2="114.175" y2="97.4246" gradientUnits="userSpaceOnUse">
<stop stop-color="#FDAEE5"/>
<stop offset="1" stop-color="#FD5D9F"/>
</linearGradient>
<radialGradient id="paint13_radial_1573_2116" cx="0" cy="0" r="1" gradientUnits="userSpaceOnUse" gradientTransform="translate(112.768 90.9217) rotate(-9.4225) scale(5.73481 5.95807)">
<stop stop-color="#FDFDFB"/>
<stop offset="0.0001" stop-color="#FFF5D8"/>
<stop offset="1" stop-color="#FCA51A"/>
<stop offset="1" stop-color="#FCA51A"/>
</radialGradient>
<linearGradient id="paint14_linear_1573_2116" x1="111.43" y1="83.1424" x2="119.868" y2="90.9116" gradientUnits="userSpaceOnUse">
<stop stop-color="#FD2F30"/>
<stop offset="1" stop-color="#971A1C"/>
</linearGradient>
<radialGradient id="paint15_radial_1573_2116" cx="0" cy="0" r="1" gradientUnits="userSpaceOnUse" gradientTransform="translate(117.073 83.8741) rotate(-16.1096) scale(5.73481 5.95807)">
<stop stop-color="#DCDCDC"/>
<stop offset="1" stop-color="#A8B8D8"/>
</radialGradient>
</defs>
</svg>
