<svg width="162" height="160" viewBox="0 0 162 160" fill="none" xmlns="http://www.w3.org/2000/svg">
<mask id="mask0_1122_16867" style="mask-type:alpha" maskUnits="userSpaceOnUse" x="2" y="0" width="160" height="160">
<circle cx="82" cy="80" r="80" fill="#D9D9D9"/>
</mask>
<g mask="url(#mask0_1122_16867)">
<rect x="-115" y="-151" width="362.289" height="420.813" rx="15.8416" fill="#14B8A6"/>
<path d="M139.35 48.9472C125.677 48.5918 115.408 64.5574 111.663 74.7047C109.358 102.952 112.169 152.668 141.853 125.549C171.536 98.4305 177.105 83.3688 171.679 65.3249C168.21 53.7917 149.428 49.2092 139.35 48.9472Z" fill="#694931"/>
<path d="M7.54884 124.326C9.28496 116.591 21.6548 96.8349 27.6227 87.9238C27.6227 100.437 27.2972 126.602 25.9952 131.152C24.6931 135.702 19.6655 136.081 17.3145 135.702C13.3359 135.133 5.81272 132.062 7.54884 124.326Z" fill="#A3856C"/>
<path d="M157.575 120.824C155.814 113.106 143.27 93.3962 137.218 84.5059C137.218 96.9902 137.548 123.094 138.868 127.634C140.189 132.173 145.287 132.552 147.671 132.173C151.706 131.606 159.335 128.541 157.575 120.824Z" fill="#A3856C"/>
<path d="M42.3437 186.931C41.2295 176.033 41.8795 157.793 42.3437 150.035L80.4132 154.576C81.806 161.199 84.1273 176.941 82.2703 186.931C80.4132 196.922 69.7352 199.041 64.6283 198.852C57.6644 199.419 43.458 197.83 42.3437 186.931Z" fill="#A3856C"/>
<path d="M86.832 188.066C85.7178 177.167 86.3678 158.928 86.832 151.17L124.901 155.711C126.294 162.333 128.616 178.076 126.759 188.066C124.901 198.056 114.223 200.176 109.117 199.986C102.153 200.554 87.9462 198.965 86.832 188.066Z" fill="#A3856C"/>
<path d="M44.111 173.11C5.55116 157.643 25.6992 67.5969 39.8444 37.1367H111.777C155.485 95.4966 150.992 150.714 134.159 165.166C117.325 179.617 82.6708 188.577 44.111 173.11Z" fill="#C2A28A"/>
<path d="M109.592 51.2436C105.035 48.8323 104.914 43.535 107.751 36.7009C111.106 28.6204 117.857 28.4792 122.415 30.8905C126.972 33.3019 130.066 39.0154 124.255 45.4332C118.995 51.2436 114.15 53.655 109.592 51.2436Z" fill="#C2A28A"/>
<path d="M45.4581 50.5934C41.1128 52.8925 36.2826 50.4583 31.4776 45.0536C25.7962 38.663 28.8874 33.487 33.2327 31.188C37.578 28.8889 44.2009 29.2713 47.2132 36.7278C49.9405 43.4786 49.8034 48.2944 45.4581 50.5934Z" fill="#C2A28A"/>
<path d="M80.6902 89.0938C80.7062 89.0706 80.7327 89.0566 80.761 89.0566H84.1336C84.1668 89.0566 84.1971 89.0758 84.2113 89.1059L86.4946 93.9395C86.5001 93.951 86.5029 93.9636 86.5029 93.9763V98.0713C86.5029 98.1188 86.4644 98.1573 86.4169 98.1573H77.9083C77.8608 98.1573 77.8223 98.1188 77.8223 98.0713V93.2837C77.8223 93.2663 77.8276 93.2492 77.8374 93.2349L80.6902 89.0938Z" fill="white"/>
<path d="M86.5037 86.2377C86.5037 87.483 85.2603 87.9695 83.0344 89.0562C81.1342 88.4666 78.9082 87.4164 78.9082 86.1711C78.9082 84.9258 80.6011 84.5059 82.7909 84.5059C84.9807 84.5059 86.5037 84.9924 86.5037 86.2377Z" fill="#3F3D3B"/>
<path d="M82.0118 87.923C80.6012 91.9855 78.2048 93.2812 72.4011 94.6747" stroke="#3F3D3B" stroke-width="1.5" stroke-linecap="round"/>
<path d="M83.4024 88.4058C84.6615 93.0463 87.1741 94.1071 93.3753 94.5532" stroke="#3F3D3B" stroke-width="1.5" stroke-linecap="round"/>
<path d="M53.8154 138.711L87.5331 157.03C87.556 157.043 87.5823 157.047 87.6082 157.044L163.555 146.347C163.66 146.332 163.697 146.199 163.615 146.132L143.73 129.959C143.705 129.939 143.674 129.929 143.642 129.932L53.862 138.483C53.7423 138.494 53.7097 138.654 53.8154 138.711Z" fill="#BFBFBF"/>
<path d="M66.7538 140.908L92.5474 153.541C92.5687 153.551 92.5927 153.555 92.6163 153.552L150.912 146.151C151.022 146.137 151.058 145.997 150.969 145.932L135.768 134.787C135.744 134.769 135.715 134.761 135.685 134.764L66.7969 140.678C66.6739 140.688 66.6429 140.854 66.7538 140.908Z" fill="#A8A8A8"/>
<path d="M85.6914 104.167C85.6914 104.023 85.7984 103.902 85.9409 103.885L166.469 93.9826C166.639 93.9617 166.788 94.0939 166.788 94.2646V146.049C166.788 146.191 166.684 146.31 166.544 146.33L86.0157 157.808C85.8445 157.832 85.6914 157.699 85.6914 157.526V104.167Z" fill="url(#paint0_linear_1122_16867)"/>
<path d="M139.936 122.379H134.953V120.957H139.936V122.379Z" fill="#9A9A9A"/>
<path d="M139.936 122.379H134.953V120.957H139.936V122.379Z" stroke="#979797"/>
<path d="M136.656 125.101V119.977L138.213 118.395V123.594L136.656 125.101Z" fill="#9A9A9A"/>
<path d="M136.656 125.101V119.977L138.213 118.395V123.594L136.656 125.101Z" stroke="#979797"/>
<path d="M138.999 136.956L135.875 135.375V127.269L138.999 124.258V136.956Z" fill="#9A9A9A"/>
<path d="M138.999 136.956L135.875 135.375V127.269L138.999 124.258V136.956Z" stroke="#979797"/>
<path d="M138.988 135.838V140.049L120.926 122.604V118.393L138.988 135.838Z" fill="#9A9A9A"/>
<path d="M138.988 135.838V140.049L120.926 122.604V118.393L138.988 135.838Z" stroke="#979797"/>
<path d="M124.04 121.4L124.04 137.041L120.926 140.049L120.926 118.393L124.04 121.4Z" fill="#9A9A9A"/>
<path d="M124.04 121.4L124.04 137.041L120.926 140.049L120.926 118.393L124.04 121.4Z" stroke="#979797"/>
<path d="M128.555 132.832L120.924 140.065L120.973 135.663L126.375 130.722L128.555 132.832Z" fill="#9A9A9A"/>
<path d="M128.555 132.832L120.924 140.065L120.973 135.663L126.375 130.722L128.555 132.832Z" stroke="#979797"/>
<path d="M79.3648 37.4888C85.922 29.2338 98.1662 19.3844 113.792 35.6036C129.482 51.8891 133.735 45.3683 133.901 40.0722C134.066 46.8578 131.418 71.1039 110.316 60.6773C91.4141 51.3373 87.4771 47.2716 79.2848 53.2297C75.9747 49.9197 68.5602 49.7541 60.4175 57.6982C46.5153 71.2614 35.8404 66.6354 30.6271 60.6773C26.4564 55.9108 28.8893 47.3543 30.6271 46.0303C32.1166 48.0163 34.2019 47.0729 38.5712 42.3065C44.0328 36.3484 47.0542 29.3973 63.1483 29.3973C71.6677 29.3973 80.5052 35.7053 79.3648 37.4888Z" fill="#1E1E1E"/>
<path opacity="0.4" d="M79.2871 37.5859V53.4742" stroke="#C2A28A" stroke-width="0.0375328"/>
<ellipse cx="12.2219" cy="11.9907" rx="12.2219" ry="11.9907" transform="matrix(-0.998957 0.00866347 -0.00802445 1.00101 117.209 68.7988)" fill="white"/>
<ellipse cx="12.2219" cy="11.9907" rx="12.2219" ry="11.9907" transform="matrix(-0.998957 0.00866347 -0.00802445 1.00101 74.2109 68.9277)" fill="white"/>
<ellipse cx="3.12051" cy="3.1608" rx="3.12051" ry="3.1608" transform="matrix(-0.996745 0.0806199 0.066642 0.997777 112.281 79.627)" fill="#3F3D3B"/>
<ellipse cx="3.12051" cy="3.1608" rx="3.12051" ry="3.1608" transform="matrix(-0.996745 0.0806199 0.066642 0.997777 69.2832 79.7559)" fill="#3F3D3B"/>
</g>
<mask id="mask1_1122_16867" style="mask-type:alpha" maskUnits="userSpaceOnUse" x="2" y="0" width="160" height="160">
<circle cx="82" cy="80" r="80" fill="#D9D9D9"/>
</mask>
<g mask="url(#mask1_1122_16867)">
</g>
<defs>
<linearGradient id="paint0_linear_1122_16867" x1="102.609" y1="96.3601" x2="153.899" y2="155.974" gradientUnits="userSpaceOnUse">
<stop stop-color="#D9D9D9"/>
<stop offset="1" stop-color="#ACACAC"/>
</linearGradient>
</defs>
</svg>
