<svg width="20" height="13" viewBox="0 0 20 13" fill="none" xmlns="http://www.w3.org/2000/svg">
<path d="M19.5255 11.7746C19.8085 12.0404 19.6084 12.4955 19.2086 12.4955H0.449426C0.0496397 12.4955 -0.150391 12.0404 0.132551 11.7746L8.16474 4.22868C8.34069 4.06338 8.62593 4.0643 8.80067 4.23074L9.50383 4.90048C9.67868 5.06701 9.96414 5.06782 10.14 4.90227L10.8574 4.22715C11.0324 4.06241 11.3162 4.06229 11.4914 4.22689L19.5255 11.7746Z" fill="#FF9D66"/>
<path d="M6.01562 12.4945L9.9155 8.95117L13.8387 12.4945H6.01562Z" fill="#DB693B"/>
<path d="M14.8193 2.55776C15.2208 2.78072 15.0518 3.35679 14.5849 3.35679H10.0882C9.83452 3.35679 9.62891 3.16445 9.62891 2.92718V0.430264C9.62891 0.0972373 10.0165 -0.109152 10.3226 0.0608413L14.8193 2.55776Z" fill="#DB693B"/>
</svg>
