<svg width="20" height="19" viewBox="0 0 20 19" fill="none" xmlns="http://www.w3.org/2000/svg">
<path d="M5.72878 4.99021C6.77876 5.53988 6.91024 6.69398 6.7014 6.88633L6.21943 15.2749C6.21943 15.2749 2.16402 12.7412 1.08622 10.4952C0.714714 9.72098 0.357385 8.70005 0.405481 7.86296C0.453383 7.02924 0.575204 6.43329 1.11181 5.7287C2.21593 4.27893 4.11342 4.14456 5.72878 4.99021Z" fill="url(#paint0_linear_1712_3906)"/>
<path d="M17.0866 7.72438L15.6646 8.18676C15.167 8.34859 15.942 10.4096 16.3448 10.2786L17.7668 9.81618C19.6154 9.21508 18.6508 7.21575 17.0866 7.72438Z" fill="#D39A15"/>
<path d="M4.96516 7.42746L6.37029 7.93878C6.86206 8.11773 6.01621 10.1507 5.6181 10.0058L4.21298 9.49446C2.38631 8.82974 3.41952 6.865 4.96516 7.42746Z" fill="url(#paint1_linear_1712_3906)"/>
<path d="M16.9536 13.6002C16.9536 10.0395 16.6348 7.72678 15.3458 3.75225C14.6229 1.52336 13.2562 1.47032 10.8573 1.47033C8.10496 1.47033 7.39257 1.6073 6.70371 4.08722C6.11404 6.21009 4.76093 9.98259 5.09589 13.3992C5.29389 15.4188 5.76618 16.697 7.70861 17.3518C9.62335 17.9972 12.3528 17.9215 14.2469 17.2178C15.9487 16.5855 16.9536 15.476 16.9536 13.6002Z" fill="url(#paint2_linear_1712_3906)"/>
<path d="M12.5974 7.8509C12.602 7.70388 12.5974 7.55632 12.5974 7.40927C12.4318 7.33066 12.3164 7.32499 12.1783 7.22669C11.9965 6.91334 12.0635 6.83856 11.8274 7.22669C11.7243 7.39622 11.3996 7.32597 11.3996 7.47174C11.3996 7.59872 11.3936 7.73744 11.3936 7.8509C11.4022 8.03478 11.6408 8.03478 11.8298 8.03478L12.1975 8.03477C12.3612 8.02475 12.5935 7.97329 12.5974 7.8509Z" fill="#AA7905"/>
<path d="M13.0955 7.01209C12.8763 7.28615 12.3556 7.63695 12.0267 6.84766C11.6978 7.58762 11.2045 7.34097 10.9579 7.01209" stroke="#AA7905" stroke-width="0.5" stroke-linecap="round"/>
<path d="M11.666 6.51635C11.9359 6.374 12.2917 6.41929 12.4757 6.51635C12.7457 6.6587 12.5207 6.77732 12.4083 6.80105C12.2396 6.83664 11.8684 6.83664 11.7335 6.80105C11.5926 6.7639 11.3961 6.6587 11.666 6.51635Z" fill="#AA7905"/>
<ellipse cx="0.401957" cy="0.602935" rx="0.401957" ry="0.602935" transform="matrix(-1 4.62565e-08 1.65225e-07 1 14.2088 4.95312)" fill="#AA7905"/>
<ellipse cx="0.401957" cy="0.602935" rx="0.401957" ry="0.602935" transform="matrix(-1 4.62565e-08 1.65225e-07 1 10.7244 4.95312)" fill="#AA7905"/>
<path d="M11.2374 0.201172C14.1855 0.201176 15.4811 2.2108 15.6151 4.22058C15.6151 4.57143 13.2131 3.34968 11.1265 3.34968C9.03999 3.34968 6.44369 4.75186 6.57104 4.01961C7.00285 1.53669 8.74692 0.201169 11.2374 0.201172Z" fill="url(#paint3_radial_1712_3906)"/>
<path d="M15.5914 3.85514C15.8049 3.99406 15.5914 4.61918 15.44 4.54973L13.6717 3.85514L11.5279 3.5502L9.31716 3.85514L7.79389 4.54973C7.52228 4.44118 7.43954 4.07489 7.56678 3.99406C8.55093 3.36894 9.71272 2.94727 11.5791 2.94727C13.4455 2.94727 14.4086 3.28223 15.5914 3.85514Z" fill="#B58106"/>
<g filter="url(#filter0_d_1712_3906)">
<path d="M11.44 3.48438C12.7421 3.48438 14.0442 3.73807 15.2697 4.24546C15.6284 4.39395 15.6803 4.67494 15.1931 4.50153C13.0485 3.73807 11.9384 3.8015 11.1336 3.8015C10.0613 3.8015 9.07089 4.21837 8.04235 4.50153C7.70292 4.59498 7.30494 4.42025 8.13807 4.13619C9.09471 3.81002 10.291 3.48438 11.44 3.48438Z" fill="#CB920E"/>
</g>
<path d="M10.9022 0.268125C10.9022 0.407784 11.5721 0.402107 11.5721 0.268122C11.5702 0.0924158 11.4547 0.00460036 11.2371 0.000154126C10.9711 -0.00528382 10.9022 0.134149 10.9022 0.268125Z" fill="#AA7905"/>
<path d="M12.4855 16.7209C12.4185 15.6958 12.6211 14.8197 13.1259 14.2448C13.6306 13.6698 15.2918 13.6793 15.8537 14.3446C16.4155 15.0098 16.4352 15.9279 16.2269 16.8577C16.0186 17.7875 15.0108 17.9495 14.5329 17.9143C13.8784 17.9436 12.5526 17.746 12.4855 16.7209Z" fill="#B58106"/>
<path d="M7.58606 16.8019C7.47697 15.7892 7.64128 14.9129 8.11737 14.3223C8.59346 13.7318 10.2395 13.672 10.8238 14.3077C11.4081 14.9433 11.4658 15.852 11.2982 16.7818C11.1306 17.7116 10.1389 17.914 9.66396 17.899C9.01678 17.9553 7.69516 17.8147 7.58606 16.8019Z" fill="#B58106"/>
<path d="M8.03352 2.0419C7.71101 2.39484 7.44867 2.73709 7.26389 2.5611C6.70631 2.03009 6.63853 1.6705 6.96104 1.31756C7.28355 0.964616 7.80191 0.957871 8.32215 1.54187C8.43307 1.66638 8.35603 1.68896 8.03352 2.0419Z" fill="#CB920E"/>
<path d="M14.2083 2.0419C14.5308 2.39484 14.7932 2.73709 14.978 2.5611C15.5355 2.03009 15.6033 1.6705 15.2808 1.31756C14.9583 0.964616 14.4399 0.957871 13.9197 1.54187C13.8088 1.66638 13.8858 1.68896 14.2083 2.0419Z" fill="#CB920E"/>
<defs>
<filter id="filter0_d_1712_3906" x="6.3618" y="2.84407" width="10.4675" height="3.63349" filterUnits="userSpaceOnUse" color-interpolation-filters="sRGB">
<feFlood flood-opacity="0" result="BackgroundImageFix"/>
<feColorMatrix in="SourceAlpha" type="matrix" values="0 0 0 0 0 0 0 0 0 0 0 0 0 0 0 0 0 0 127 0" result="hardAlpha"/>
<feOffset dy="0.640307"/>
<feGaussianBlur stdDeviation="0.640307"/>
<feComposite in2="hardAlpha" operator="out"/>
<feColorMatrix type="matrix" values="0 0 0 0 0 0 0 0 0 0 0 0 0 0 0 0 0 0 0.18 0"/>
<feBlend mode="normal" in2="BackgroundImageFix" result="effect1_dropShadow_1712_3906"/>
<feBlend mode="normal" in="SourceGraphic" in2="effect1_dropShadow_1712_3906" result="shape"/>
</filter>
<linearGradient id="paint0_linear_1712_3906" x1="4.70115" y1="5.79586" x2="0.663751" y2="15.484" gradientUnits="userSpaceOnUse">
<stop stop-color="#C48F10"/>
<stop offset="1" stop-color="#664800"/>
</linearGradient>
<linearGradient id="paint1_linear_1712_3906" x1="3.72805" y1="7.90487" x2="5.89994" y2="9.38175" gradientUnits="userSpaceOnUse">
<stop stop-color="#ECB22B"/>
<stop offset="1" stop-color="#C68F0E"/>
</linearGradient>
<linearGradient id="paint2_linear_1712_3906" x1="14.4126" y1="13.3795" x2="7.46251" y2="7.64573" gradientUnits="userSpaceOnUse">
<stop stop-color="#D69A0E"/>
<stop offset="1" stop-color="#F0BB3E"/>
</linearGradient>
<radialGradient id="paint3_radial_1712_3906" cx="0" cy="0" r="1" gradientUnits="userSpaceOnUse" gradientTransform="translate(9.37509 1.1294) rotate(23.3177) scale(5.48693 12.1607)">
<stop stop-color="#F9C44A"/>
<stop offset="1" stop-color="#C78F0B"/>
</radialGradient>
</defs>
</svg>
