<svg width="23" height="17" viewBox="0 0 23 17" fill="none" xmlns="http://www.w3.org/2000/svg">
<path d="M15.8818 0.289062L16.9277 0.74707L18.5215 1.79883L20.3027 3.02148L20.3057 3.02344L21.6865 3.94043L21.8447 4.94727L21.7119 7.98535L21.7109 7.99707L21.7119 8.00879L21.8447 10.6758L21.6367 12.1523L20.6816 12.9902L19.2686 13.3418L19.2568 13.3457L16.6855 14.1152L13.4023 14.6025L13.3896 14.6045L13.3779 14.6074L9.98633 15.4639L6.70898 16.0703L5.64844 16.1807L4.90527 15.7139L3.22168 13.9824L3.21484 13.9736L3.20605 13.9668L1.64453 12.6201L0.719727 11.6982L0.439453 10.7822L0.25 8.93555L0.314453 6.47852V4.49805L0.930664 3.72852L2.01758 3.23145L4.1748 2.69043L4.17773 2.68945L5.86719 2.24121L5.86816 2.24219L7.87012 1.75293L7.87109 1.75391L10.4453 1.18555L13.2109 0.736328L13.2285 0.733398L13.2441 0.728516L14.8096 0.250977L15.8818 0.289062Z" fill="white" stroke="#45201B" stroke-width="0.5"/>
<mask id="path-2-inside-1_1066_7313" fill="white">
<path d="M20.0693 3.89746C20.7052 3.75674 21.2737 3.92093 21.6328 4.28809C21.8764 4.5388 22.0233 4.88384 22.0283 5.29102L22.1045 11.4707C22.1169 12.4763 21.2584 13.485 20.1895 13.7217L6.61719 16.7275C5.54842 16.9641 4.6707 16.3403 4.6582 15.335L4.58203 9.1543C4.56966 8.14868 5.42809 7.14008 6.49707 6.90332L13.9521 5.25195L16.1924 4.75586L20.0693 3.89746ZM9.6709 12.1836C9.54297 12.1809 9.41504 12.1932 9.28711 12.2197C8.96383 12.2867 8.70203 12.4373 8.50195 12.6719C8.30183 12.9065 8.20117 13.1838 8.20117 13.5029C8.2012 13.8278 8.29853 14.0549 8.49219 14.1846C8.68589 14.3142 8.93675 14.3478 9.24414 14.2842C9.57056 14.2165 9.80687 14.0855 9.9541 13.8926C10.1014 13.6996 10.1865 13.5133 10.209 13.333L9.77734 13.3477C9.72291 13.6575 9.56087 13.8408 9.29199 13.8965C8.92376 13.9727 8.73926 13.7966 8.73926 13.3691C8.73934 12.9302 8.91886 12.6739 9.27734 12.5996C9.40864 12.5724 9.53387 12.5724 9.65234 12.6006L9.72363 12.9111L10.1367 12.7861L10.0508 12.25C9.92589 12.2085 9.79896 12.1863 9.6709 12.1836ZM13.3936 11.3691C13.2177 11.4056 13.0689 11.4766 12.9473 11.582C12.8256 11.6877 12.732 11.815 12.668 11.9629C12.6168 11.8214 12.5274 11.7278 12.3994 11.6826C12.2714 11.6374 12.1269 11.6319 11.9668 11.665C11.8068 11.6982 11.6706 11.7601 11.5586 11.8506C11.4468 11.941 11.3572 12.047 11.29 12.1689V11.8447L10.459 12.0166V12.3809L10.7764 12.3154V13.5625L10.4541 13.6289V13.9893L11.6934 13.7324V13.3721L11.29 13.4561V12.6836C11.2932 12.5483 11.335 12.4203 11.415 12.2998C11.495 12.1794 11.6179 12.1019 11.7842 12.0674C11.9123 12.0409 12.0129 12.0584 12.085 12.1211C12.1569 12.1838 12.1924 12.3089 12.1924 12.4961V13.2686L12.0771 13.293V13.6533L13.0283 13.4561V13.0957L12.707 13.1621V12.3945C12.7102 12.2592 12.7507 12.1304 12.8291 12.0088C12.9075 11.8872 13.0315 11.8086 13.2012 11.7734C13.3324 11.7462 13.4338 11.7645 13.5059 11.8271C13.5779 11.8898 13.6143 12.0148 13.6143 12.2021V12.9746L13.4941 12.999V13.3594L14.4453 13.1631V12.8027L14.1279 12.8682V11.9238C14.1279 11.681 14.0545 11.5173 13.9072 11.4336C13.76 11.3501 13.5887 11.3287 13.3936 11.3691ZM15.833 9.85352V10.2139L16.2988 10.1172V11.1143C16.2349 11.0224 16.1449 10.9567 16.0283 10.918C15.9115 10.8792 15.7674 10.8779 15.5977 10.9131C15.2649 10.9821 15.0205 11.1396 14.8652 11.3867C14.7099 11.6341 14.6328 11.8986 14.6328 12.1797C14.6328 12.4871 14.715 12.712 14.8799 12.8535C15.0448 12.9949 15.2682 13.0358 15.5498 12.9775C15.7451 12.9371 15.9034 12.8632 16.0234 12.7549C16.1433 12.6467 16.2348 12.5286 16.2988 12.4014V12.7783L17.1299 12.6064V12.2461L16.8135 12.3125V9.65137L15.833 9.85352ZM15.7471 11.2598C15.9007 11.228 16.0301 11.2495 16.1357 11.3242C16.2413 11.3989 16.2956 11.5175 16.2988 11.6807V11.8301C16.2956 11.9771 16.2414 12.1276 16.1357 12.2812C16.0301 12.4348 15.8889 12.5299 15.7129 12.5664C15.5625 12.5974 15.4333 12.5694 15.3262 12.4834C15.2193 12.3972 15.166 12.2505 15.166 12.043C15.166 11.8381 15.2191 11.6652 15.3262 11.5244C15.4334 11.3836 15.5742 11.2956 15.7471 11.2598ZM20.3623 8.90527C20.2599 8.90454 20.1588 8.91402 20.0596 8.93457C19.8068 8.98698 19.6072 9.1035 19.46 9.2832C19.3127 9.46295 19.2383 9.65941 19.2383 9.87305V10.1982L18.9551 10.2568V10.6035L19.2383 10.5449V11.8096L18.917 11.877V12.2363L20.1562 11.9795V11.6201L19.748 11.7041V10.4395L20.29 10.3271V9.98047L19.748 10.0928V9.70215C19.748 9.4738 19.8474 9.33897 20.0459 9.29785C20.1129 9.28401 20.1783 9.2809 20.2422 9.28809L20.3428 9.58691L20.7471 9.45996L20.6553 8.97363C20.5625 8.92852 20.4647 8.90602 20.3623 8.90527ZM17.4277 11.3242V11.7197L18.5615 11.4844V11.0898L17.4277 11.3242ZM8.51758 7.5625C8.13681 7.65652 7.82324 8.01863 7.82324 8.36426V8.57422L7.36035 8.68848V8.47852C7.36035 8.13277 7.04598 7.92472 6.66504 8.01855C6.28424 8.11251 5.97076 8.47467 5.9707 8.82031C5.9707 9.16597 6.28418 9.37305 6.66504 9.2793L6.89648 9.22266V9.64258L6.66504 9.7002C6.28424 9.79419 5.9707 10.1563 5.9707 10.502C5.97083 10.8475 6.28429 11.0546 6.66504 10.9609C7.04598 10.8671 7.36035 10.5049 7.36035 10.1592V9.94922L7.82324 9.83496V10.0449C7.82324 10.3905 8.13681 10.5985 8.51758 10.5049C8.89846 10.4111 9.21279 10.0488 9.21289 9.70312C9.21289 9.35741 8.89852 9.1493 8.51758 9.24316L8.28613 9.30078V8.87988L8.51758 8.82324C8.89852 8.72937 9.21289 8.36723 9.21289 8.02148C9.21283 7.67583 8.89848 7.46864 8.51758 7.5625Z"/>
</mask>
<path d="M20.0693 3.89746C20.7052 3.75674 21.2737 3.92093 21.6328 4.28809C21.8764 4.5388 22.0233 4.88384 22.0283 5.29102L22.1045 11.4707C22.1169 12.4763 21.2584 13.485 20.1895 13.7217L6.61719 16.7275C5.54842 16.9641 4.6707 16.3403 4.6582 15.335L4.58203 9.1543C4.56966 8.14868 5.42809 7.14008 6.49707 6.90332L13.9521 5.25195L16.1924 4.75586L20.0693 3.89746ZM9.6709 12.1836C9.54297 12.1809 9.41504 12.1932 9.28711 12.2197C8.96383 12.2867 8.70203 12.4373 8.50195 12.6719C8.30183 12.9065 8.20117 13.1838 8.20117 13.5029C8.2012 13.8278 8.29853 14.0549 8.49219 14.1846C8.68589 14.3142 8.93675 14.3478 9.24414 14.2842C9.57056 14.2165 9.80687 14.0855 9.9541 13.8926C10.1014 13.6996 10.1865 13.5133 10.209 13.333L9.77734 13.3477C9.72291 13.6575 9.56087 13.8408 9.29199 13.8965C8.92376 13.9727 8.73926 13.7966 8.73926 13.3691C8.73934 12.9302 8.91886 12.6739 9.27734 12.5996C9.40864 12.5724 9.53387 12.5724 9.65234 12.6006L9.72363 12.9111L10.1367 12.7861L10.0508 12.25C9.92589 12.2085 9.79896 12.1863 9.6709 12.1836ZM13.3936 11.3691C13.2177 11.4056 13.0689 11.4766 12.9473 11.582C12.8256 11.6877 12.732 11.815 12.668 11.9629C12.6168 11.8214 12.5274 11.7278 12.3994 11.6826C12.2714 11.6374 12.1269 11.6319 11.9668 11.665C11.8068 11.6982 11.6706 11.7601 11.5586 11.8506C11.4468 11.941 11.3572 12.047 11.29 12.1689V11.8447L10.459 12.0166V12.3809L10.7764 12.3154V13.5625L10.4541 13.6289V13.9893L11.6934 13.7324V13.3721L11.29 13.4561V12.6836C11.2932 12.5483 11.335 12.4203 11.415 12.2998C11.495 12.1794 11.6179 12.1019 11.7842 12.0674C11.9123 12.0409 12.0129 12.0584 12.085 12.1211C12.1569 12.1838 12.1924 12.3089 12.1924 12.4961V13.2686L12.0771 13.293V13.6533L13.0283 13.4561V13.0957L12.707 13.1621V12.3945C12.7102 12.2592 12.7507 12.1304 12.8291 12.0088C12.9075 11.8872 13.0315 11.8086 13.2012 11.7734C13.3324 11.7462 13.4338 11.7645 13.5059 11.8271C13.5779 11.8898 13.6143 12.0148 13.6143 12.2021V12.9746L13.4941 12.999V13.3594L14.4453 13.1631V12.8027L14.1279 12.8682V11.9238C14.1279 11.681 14.0545 11.5173 13.9072 11.4336C13.76 11.3501 13.5887 11.3287 13.3936 11.3691ZM15.833 9.85352V10.2139L16.2988 10.1172V11.1143C16.2349 11.0224 16.1449 10.9567 16.0283 10.918C15.9115 10.8792 15.7674 10.8779 15.5977 10.9131C15.2649 10.9821 15.0205 11.1396 14.8652 11.3867C14.7099 11.6341 14.6328 11.8986 14.6328 12.1797C14.6328 12.4871 14.715 12.712 14.8799 12.8535C15.0448 12.9949 15.2682 13.0358 15.5498 12.9775C15.7451 12.9371 15.9034 12.8632 16.0234 12.7549C16.1433 12.6467 16.2348 12.5286 16.2988 12.4014V12.7783L17.1299 12.6064V12.2461L16.8135 12.3125V9.65137L15.833 9.85352ZM15.7471 11.2598C15.9007 11.228 16.0301 11.2495 16.1357 11.3242C16.2413 11.3989 16.2956 11.5175 16.2988 11.6807V11.8301C16.2956 11.9771 16.2414 12.1276 16.1357 12.2812C16.0301 12.4348 15.8889 12.5299 15.7129 12.5664C15.5625 12.5974 15.4333 12.5694 15.3262 12.4834C15.2193 12.3972 15.166 12.2505 15.166 12.043C15.166 11.8381 15.2191 11.6652 15.3262 11.5244C15.4334 11.3836 15.5742 11.2956 15.7471 11.2598ZM20.3623 8.90527C20.2599 8.90454 20.1588 8.91402 20.0596 8.93457C19.8068 8.98698 19.6072 9.1035 19.46 9.2832C19.3127 9.46295 19.2383 9.65941 19.2383 9.87305V10.1982L18.9551 10.2568V10.6035L19.2383 10.5449V11.8096L18.917 11.877V12.2363L20.1562 11.9795V11.6201L19.748 11.7041V10.4395L20.29 10.3271V9.98047L19.748 10.0928V9.70215C19.748 9.4738 19.8474 9.33897 20.0459 9.29785C20.1129 9.28401 20.1783 9.2809 20.2422 9.28809L20.3428 9.58691L20.7471 9.45996L20.6553 8.97363C20.5625 8.92852 20.4647 8.90602 20.3623 8.90527ZM17.4277 11.3242V11.7197L18.5615 11.4844V11.0898L17.4277 11.3242ZM8.51758 7.5625C8.13681 7.65652 7.82324 8.01863 7.82324 8.36426V8.57422L7.36035 8.68848V8.47852C7.36035 8.13277 7.04598 7.92472 6.66504 8.01855C6.28424 8.11251 5.97076 8.47467 5.9707 8.82031C5.9707 9.16597 6.28418 9.37305 6.66504 9.2793L6.89648 9.22266V9.64258L6.66504 9.7002C6.28424 9.79419 5.9707 10.1563 5.9707 10.502C5.97083 10.8475 6.28429 11.0546 6.66504 10.9609C7.04598 10.8671 7.36035 10.5049 7.36035 10.1592V9.94922L7.82324 9.83496V10.0449C7.82324 10.3905 8.13681 10.5985 8.51758 10.5049C8.89846 10.4111 9.21279 10.0488 9.21289 9.70312C9.21289 9.35741 8.89852 9.1493 8.51758 9.24316L8.28613 9.30078V8.87988L8.51758 8.82324C8.89852 8.72937 9.21289 8.36723 9.21289 8.02148C9.21283 7.67583 8.89848 7.46864 8.51758 7.5625Z" fill="#45201B"/>
<path d="M20.0693 3.89746L19.9613 3.40927L19.9612 3.40928L20.0693 3.89746ZM21.6328 4.28809L21.9914 3.93965L21.9903 3.93849L21.6328 4.28809ZM22.0283 5.29102L21.5284 5.29713V5.29718L22.0283 5.29102ZM22.1045 11.4707L22.6045 11.4646V11.4645L22.1045 11.4707ZM20.1895 13.7217L20.0813 13.2335L20.0813 13.2335L20.1895 13.7217ZM6.61719 16.7275L6.72522 17.2157L6.7253 17.2157L6.61719 16.7275ZM4.6582 15.335L4.15824 15.3411L4.15824 15.3412L4.6582 15.335ZM4.58203 9.1543L4.08207 9.16045L4.08207 9.16046L4.58203 9.1543ZM6.49707 6.90332L6.60519 7.39149L6.6052 7.39149L6.49707 6.90332ZM13.9521 5.25195L13.844 4.76378L13.844 4.76379L13.9521 5.25195ZM16.1924 4.75586L16.0843 4.26768L16.0843 4.26769L16.1924 4.75586ZM9.6709 12.1836L9.6816 11.6837L9.68157 11.6837L9.6709 12.1836ZM9.28711 12.2197L9.38849 12.7093H9.38849L9.28711 12.2197ZM8.50195 12.6719L8.12157 12.3474L8.12151 12.3474L8.50195 12.6719ZM8.20117 13.5029H7.70117V13.503L8.20117 13.5029ZM8.49219 14.1846L8.21401 14.6L8.21403 14.6001L8.49219 14.1846ZM9.24414 14.2842L9.34553 14.7738L9.34562 14.7738L9.24414 14.2842ZM9.9541 13.8926L10.3515 14.196L10.3516 14.1959L9.9541 13.8926ZM10.209 13.333L10.7052 13.3948L10.7775 12.8134L10.192 12.8333L10.209 13.333ZM9.77734 13.3477L9.76039 12.8479L9.35505 12.8617L9.28488 13.2611L9.77734 13.3477ZM9.29199 13.8965L9.3934 14.3861L9.39344 14.3861L9.29199 13.8965ZM8.73926 13.3691L8.23926 13.3691V13.3691H8.73926ZM9.27734 12.5996L9.176 12.11L9.1759 12.11L9.27734 12.5996ZM9.65234 12.6006L10.1397 12.4887L10.0702 12.186L9.76796 12.1141L9.65234 12.6006ZM9.72363 12.9111L9.23631 13.023L9.35608 13.5447L9.86845 13.3897L9.72363 12.9111ZM10.1367 12.7861L10.2815 13.2647L10.6995 13.1382L10.6304 12.707L10.1367 12.7861ZM10.0508 12.25L10.5445 12.1709L10.4964 11.8711L10.2083 11.7755L10.0508 12.25ZM13.3936 11.3691L13.2922 10.8795L13.2921 10.8795L13.3936 11.3691ZM12.9473 11.582L12.6197 11.2043L12.6193 11.2046L12.9473 11.582ZM12.668 11.9629L12.1978 12.133L12.6265 13.3175L13.1268 12.1615L12.668 11.9629ZM12.3994 11.6826L12.5659 11.2111L12.5659 11.2111L12.3994 11.6826ZM11.9668 11.665L11.8654 11.1754L11.8652 11.1755L11.9668 11.665ZM11.5586 11.8506L11.2444 11.4617L11.2442 11.4618L11.5586 11.8506ZM11.29 12.1689H10.79L11.728 12.4101L11.29 12.1689ZM11.29 11.8447H11.79V11.2307L11.1888 11.3551L11.29 11.8447ZM10.459 12.0166L10.3577 11.527L9.95898 11.6094V12.0166H10.459ZM10.459 12.3809H9.95898V12.9945L10.5599 12.8706L10.459 12.3809ZM10.7764 12.3154H11.2764V11.7018L10.6754 11.8257L10.7764 12.3154ZM10.7764 13.5625L10.8773 14.0522L11.2764 13.97V13.5625H10.7764ZM10.4541 13.6289L10.3532 13.1392L9.9541 13.2214V13.6289H10.4541ZM10.4541 13.9893H9.9541V14.6035L10.5556 14.4789L10.4541 13.9893ZM11.6934 13.7324L11.7948 14.222L12.1934 14.1394V13.7324H11.6934ZM11.6934 13.3721H12.1934V12.7572L11.5914 12.8826L11.6934 13.3721ZM11.29 13.4561H10.79V14.0709L11.392 13.9456L11.29 13.4561ZM11.29 12.6836L10.79 12.6718V12.6836H11.29ZM11.415 12.2998L10.9985 12.0232L10.9985 12.0232L11.415 12.2998ZM11.7842 12.0674L11.6828 11.5778L11.6826 11.5778L11.7842 12.0674ZM12.085 12.1211L12.4135 11.7442L12.4131 11.7438L12.085 12.1211ZM12.1924 12.4961H12.6924V12.4961L12.1924 12.4961ZM12.1924 13.2686L12.296 13.7577L12.6924 13.6737V13.2686H12.1924ZM12.0771 13.293L11.9735 12.8038L11.5771 12.8878V13.293H12.0771ZM12.0771 13.6533H11.5771V14.2677L12.1787 14.1429L12.0771 13.6533ZM13.0283 13.4561L13.1299 13.9456L13.5283 13.863V13.4561H13.0283ZM13.0283 13.0957H13.5283V12.4818L12.9271 12.6061L13.0283 13.0957ZM12.707 13.1621H12.207V13.776L12.8082 13.6518L12.707 13.1621ZM12.707 12.3945L12.207 12.3827V12.3945H12.707ZM12.8291 12.0088L12.4089 11.7378L12.4089 11.7379L12.8291 12.0088ZM13.2012 11.7734L13.0998 11.2838L13.0997 11.2838L13.2012 11.7734ZM13.5059 11.8271L13.834 11.4499L13.8339 11.4498L13.5059 11.8271ZM13.6143 12.9746L13.7138 13.4646L14.1143 13.3832V12.9746H13.6143ZM13.4941 12.999L13.3946 12.509L12.9941 12.5904V12.999H13.4941ZM13.4941 13.3594H12.9941V13.9731L13.5952 13.8491L13.4941 13.3594ZM14.4453 13.1631L14.5464 13.6528L14.9453 13.5704V13.1631H14.4453ZM14.4453 12.8027H14.9453V12.1891L14.3444 12.313L14.4453 12.8027ZM14.1279 12.8682H13.6279V13.4818L14.2289 13.3579L14.1279 12.8682ZM14.1279 11.9238H14.6279V11.9237L14.1279 11.9238ZM13.9072 11.4336L14.1542 10.9989L14.154 10.9987L13.9072 11.4336ZM15.833 9.85352L15.732 9.36382L15.333 9.44609V9.85352H15.833ZM15.833 10.2139H15.333V10.8283L15.9346 10.7034L15.833 10.2139ZM16.2988 10.1172H16.7988V9.50276L16.1972 9.62762L16.2988 10.1172ZM16.2988 11.1143L15.8885 11.3999L16.7988 12.7077V11.1143H16.2988ZM16.0283 10.918L16.1859 10.4435L16.1857 10.4434L16.0283 10.918ZM15.5977 10.9131L15.4963 10.4235L15.4961 10.4235L15.5977 10.9131ZM14.8652 11.3867L14.4418 11.1208L14.4418 11.1208L14.8652 11.3867ZM14.6328 12.1797H14.1328H14.6328ZM14.8799 12.8535L14.5543 13.233L14.5545 13.2331L14.8799 12.8535ZM15.5498 12.9775L15.6512 13.4672L15.6512 13.4671L15.5498 12.9775ZM16.0234 12.7549L16.3583 13.1261L16.3584 13.1261L16.0234 12.7549ZM16.2988 12.4014H16.7988L15.8522 12.1766L16.2988 12.4014ZM16.2988 12.7783H15.7988V13.3923L16.4001 13.268L16.2988 12.7783ZM17.1299 12.6064L17.2311 13.0961L17.6299 13.0136V12.6064H17.1299ZM17.1299 12.2461H17.6299V11.6303L17.0272 11.7568L17.1299 12.2461ZM16.8135 12.3125H16.3135V12.9283L16.9162 12.8018L16.8135 12.3125ZM16.8135 9.65137H17.3135V9.03776L16.7125 9.16167L16.8135 9.65137ZM15.7471 11.2598L15.6457 10.7701L15.6457 10.7701L15.7471 11.2598ZM16.1357 11.3242L16.4245 10.916L16.4245 10.916L16.1357 11.3242ZM16.2988 11.6807H16.7989L16.7987 11.6707L16.2988 11.6807ZM16.2988 11.8301L16.7988 11.841V11.8301H16.2988ZM16.1357 12.2812L16.5476 12.5647L16.5477 12.5646L16.1357 12.2812ZM15.7129 12.5664L15.8139 13.0561L15.8143 13.056L15.7129 12.5664ZM15.3262 12.4834L15.0124 12.8727L15.0132 12.8733L15.3262 12.4834ZM15.166 12.043H14.666V12.043L15.166 12.043ZM15.3262 11.5244L14.9285 11.2214L14.9283 11.2216L15.3262 11.5244ZM20.3623 8.90527L20.3659 8.40529L20.3659 8.40529L20.3623 8.90527ZM20.0596 8.93457L19.9582 8.44496L19.9581 8.44498L20.0596 8.93457ZM19.46 9.2832L19.0732 8.96634L19.0732 8.96635L19.46 9.2832ZM19.2383 9.87305L18.7383 9.87293V9.87305H19.2383ZM19.2383 10.1982L19.3396 10.6879L19.7383 10.6054V10.1982H19.2383ZM18.9551 10.2568L18.8538 9.76721L18.4551 9.84969V10.2568H18.9551ZM18.9551 10.6035H18.4551V11.2176L19.0564 11.0931L18.9551 10.6035ZM19.2383 10.5449H19.7383V9.93088L19.137 10.0553L19.2383 10.5449ZM19.2383 11.8096L19.3409 12.2989L19.7383 12.2156V11.8096H19.2383ZM18.917 11.877L18.8144 11.3876L18.417 11.4709V11.877H18.917ZM18.917 12.2363H18.417V12.8506L19.0185 12.7259L18.917 12.2363ZM20.1562 11.9795L20.2577 12.4691L20.6562 12.3865V11.9795H20.1562ZM20.1562 11.6201H20.6562V11.0068L20.0555 11.1304L20.1562 11.6201ZM19.748 11.7041H19.248V12.3174L19.8488 12.1938L19.748 11.7041ZM19.748 10.4395L19.6466 9.94985L19.248 10.0324V10.4395H19.748ZM20.29 10.3271L20.3915 10.8167L20.79 10.7342V10.3271H20.29ZM20.29 9.98047H20.79V9.36624L20.1886 9.49087L20.29 9.98047ZM19.748 10.0928H19.248V10.707L19.8495 10.5824L19.748 10.0928ZM20.0459 9.29785L19.9448 8.80817L19.9445 8.80824L20.0459 9.29785ZM20.2422 9.28809L20.7161 9.12858L20.6145 8.82683L20.2981 8.79122L20.2422 9.28809ZM20.3428 9.58691L19.8689 9.74642L20.0252 10.2107L20.4926 10.0639L20.3428 9.58691ZM20.7471 9.45996L20.8969 9.937L21.3208 9.80387L21.2384 9.36722L20.7471 9.45996ZM20.6553 8.97363L21.1466 8.88089L21.1 8.63386L20.8739 8.52395L20.6553 8.97363ZM17.4277 11.3242L17.3265 10.8346L16.9277 10.917V11.3242H17.4277ZM17.4277 11.7197H16.9277V12.3342L17.5294 12.2093L17.4277 11.7197ZM18.5615 11.4844L18.6631 11.9739L19.0615 11.8912V11.4844H18.5615ZM18.5615 11.0898H19.0615V10.4759L18.4603 10.6002L18.5615 11.0898ZM8.51758 7.5625L8.39795 7.07702L8.39772 7.07708L8.51758 7.5625ZM7.82324 8.57422L7.94306 9.05965L8.32324 8.96581V8.57422H7.82324ZM7.36035 8.68848H6.86035V9.3269L7.48017 9.17391L7.36035 8.68848ZM6.66504 8.01855L6.54545 7.53307L6.54526 7.53311L6.66504 8.01855ZM5.9707 8.82031L5.4707 8.82023V8.82031H5.9707ZM6.66504 9.2793L6.54618 8.79363L6.54553 8.79379L6.66504 9.2793ZM6.89648 9.22266H7.39648V8.58554L6.77763 8.73699L6.89648 9.22266ZM6.89648 9.64258L7.01727 10.1278L7.39648 10.0334V9.64258H6.89648ZM6.66504 9.7002L6.78486 10.1856L6.78583 10.1854L6.66504 9.7002ZM5.9707 10.502H5.4707L5.4707 10.5021L5.9707 10.502ZM6.66504 10.9609L6.78448 11.4465L6.78467 11.4464L6.66504 10.9609ZM7.36035 9.94922L7.24053 9.46379L6.86035 9.55763V9.94922H7.36035ZM7.82324 9.83496H8.32324V9.19654L7.70342 9.34953L7.82324 9.83496ZM8.51758 10.5049L8.63697 10.9904L8.63717 10.9904L8.51758 10.5049ZM9.21289 9.70312L9.71289 9.70327V9.70312H9.21289ZM8.51758 9.24316L8.39795 8.75768L8.39679 8.75797L8.51758 9.24316ZM8.28613 9.30078H7.78613V9.94051L8.40692 9.78597L8.28613 9.30078ZM8.28613 8.87988L8.16728 8.39421L7.78613 8.48749V8.87988H8.28613ZM8.51758 8.82324L8.63643 9.30891L8.6372 9.30872L8.51758 8.82324ZM9.21289 8.02148H9.71289V8.0214L9.21289 8.02148ZM20.0693 3.89746L20.1774 4.38565C20.6712 4.27635 21.055 4.41242 21.2753 4.63768L21.6328 4.28809L21.9903 3.93849C21.4924 3.42945 20.7391 3.23713 19.9613 3.40927L20.0693 3.89746ZM21.6328 4.28809L21.2742 4.63652C21.4241 4.79082 21.5249 5.01139 21.5284 5.29713L22.0283 5.29102L22.5283 5.2849C22.5218 4.7563 22.3287 4.28677 21.9914 3.93965L21.6328 4.28809ZM22.0283 5.29102L21.5284 5.29718L21.6045 11.4769L22.1045 11.4707L22.6045 11.4645L22.5283 5.28485L22.0283 5.29102ZM22.1045 11.4707L21.6045 11.4769C21.6136 12.2165 20.9489 13.0414 20.0813 13.2335L20.1895 13.7217L20.2976 14.2099C21.568 13.9285 22.6201 12.7361 22.6045 11.4646L22.1045 11.4707ZM20.1895 13.7217L20.0813 13.2335L6.50907 16.2394L6.61719 16.7275L6.7253 17.2157L20.2976 14.2099L20.1895 13.7217ZM6.61719 16.7275L6.50915 16.2394C6.09369 16.3313 5.75562 16.2489 5.53127 16.0894C5.31179 15.9334 5.1625 15.6779 5.15816 15.3287L4.6582 15.335L4.15824 15.3412C4.1664 15.9974 4.46221 16.5564 4.95191 16.9045C5.43674 17.2491 6.07191 17.3603 6.72522 17.2157L6.61719 16.7275ZM4.6582 15.335L5.15817 15.3288L5.08199 9.14814L4.58203 9.1543L4.08207 9.16046L4.15824 15.3411L4.6582 15.335ZM4.58203 9.1543L5.08199 9.14815C5.0729 8.40849 5.73765 7.58363 6.60519 7.39149L6.49707 6.90332L6.38895 6.41515C5.11853 6.69652 4.06643 7.88887 4.08207 9.16045L4.58203 9.1543ZM6.49707 6.90332L6.6052 7.39149L14.0603 5.74012L13.9521 5.25195L13.844 4.76379L6.38894 6.41515L6.49707 6.90332ZM13.9521 5.25195L14.0603 5.74013L16.3005 5.24403L16.1924 4.75586L16.0843 4.26769L13.844 4.76378L13.9521 5.25195ZM16.1924 4.75586L16.3005 5.24404L20.1774 4.38564L20.0693 3.89746L19.9612 3.40928L16.0843 4.26768L16.1924 4.75586ZM9.6709 12.1836L9.68157 11.6837C9.51397 11.6801 9.34845 11.6964 9.18572 11.7301L9.28711 12.2197L9.38849 12.7093C9.48164 12.6901 9.57196 12.6816 9.66023 12.6835L9.6709 12.1836ZM9.28711 12.2197L9.18573 11.7301C8.76206 11.8178 8.39908 12.0221 8.12157 12.3474L8.50195 12.6719L8.88234 12.9964C9.00498 12.8526 9.1656 12.7555 9.38849 12.7093L9.28711 12.2197ZM8.50195 12.6719L8.12151 12.3474C7.84167 12.6756 7.70117 13.0689 7.70117 13.5029H8.20117H8.70117C8.70117 13.2988 8.76198 13.1375 8.8824 12.9963L8.50195 12.6719ZM8.20117 13.5029L7.70117 13.503C7.70121 13.924 7.83183 14.3442 8.21401 14.6L8.49219 14.1846L8.77036 13.7691C8.76522 13.7657 8.70119 13.7316 8.70117 13.5029L8.20117 13.5029ZM8.49219 14.1846L8.21403 14.6001C8.55305 14.827 8.95296 14.8551 9.34553 14.7738L9.24414 14.2842L9.14275 13.7946C8.92054 13.8406 8.81873 13.8015 8.77035 13.7691L8.49219 14.1846ZM9.24414 14.2842L9.34562 14.7738C9.74719 14.6905 10.1086 14.5143 10.3515 14.196L9.9541 13.8926L9.55666 13.5892C9.50515 13.6567 9.39393 13.7425 9.14266 13.7946L9.24414 14.2842ZM9.9541 13.8926L10.3516 14.1959C10.5346 13.9561 10.6686 13.6882 10.7052 13.3948L10.209 13.333L9.71282 13.2712C9.70446 13.3384 9.66811 13.4432 9.55664 13.5892L9.9541 13.8926ZM10.209 13.333L10.192 12.8333L9.76039 12.8479L9.77734 13.3477L9.7943 13.8474L10.2259 13.8327L10.209 13.333ZM9.77734 13.3477L9.28488 13.2611C9.26913 13.3508 9.2451 13.381 9.24053 13.3861C9.23806 13.3889 9.23567 13.391 9.23117 13.3935C9.22612 13.3963 9.21397 13.402 9.19054 13.4069L9.29199 13.8965L9.39344 14.3861C9.61998 14.3391 9.82846 14.2309 9.98964 14.0486C10.1469 13.8707 10.2311 13.6543 10.2698 13.4342L9.77734 13.3477ZM9.29199 13.8965L9.19059 13.4069C9.16699 13.4118 9.15115 13.4133 9.1421 13.4137C9.13312 13.414 9.13277 13.4132 9.13911 13.4143C9.14584 13.4155 9.15889 13.4188 9.17536 13.4269C9.19217 13.4351 9.20852 13.4464 9.22273 13.46C9.25191 13.4878 9.25589 13.5091 9.25201 13.4965C9.25003 13.49 9.24671 13.4767 9.24395 13.4549C9.2412 13.4332 9.23926 13.4049 9.23926 13.3691H8.73926H8.23926C8.23926 13.6316 8.29199 13.954 8.53235 14.1834C8.79263 14.4318 9.12931 14.4408 9.3934 14.3861L9.29199 13.8965ZM8.73926 13.3691L9.23926 13.3692C9.23929 13.2124 9.27196 13.1509 9.28361 13.1342C9.28788 13.1281 9.30166 13.1052 9.37879 13.0892L9.27734 12.5996L9.1759 12.11C8.89455 12.1683 8.63932 12.3107 8.46419 12.561C8.29643 12.8008 8.23931 13.0869 8.23926 13.3691L8.73926 13.3691ZM9.27734 12.5996L9.37869 13.0892C9.44702 13.0751 9.49765 13.0777 9.53673 13.087L9.65234 12.6006L9.76796 12.1141C9.5701 12.0671 9.37026 12.0698 9.176 12.11L9.27734 12.5996ZM9.65234 12.6006L9.16502 12.7125L9.23631 13.023L9.72363 12.9111L10.211 12.7993L10.1397 12.4887L9.65234 12.6006ZM9.72363 12.9111L9.86845 13.3897L10.2815 13.2647L10.1367 12.7861L9.9919 12.3076L9.57882 12.4326L9.72363 12.9111ZM10.1367 12.7861L10.6304 12.707L10.5445 12.1709L10.0508 12.25L9.55708 12.3291L9.64302 12.8653L10.1367 12.7861ZM10.0508 12.25L10.2083 11.7755C10.0374 11.7187 9.861 11.6875 9.6816 11.6837L9.6709 12.1836L9.6602 12.6835C9.73693 12.6851 9.8144 12.6984 9.89321 12.7245L10.0508 12.25ZM13.3936 11.3691L13.2921 10.8795C13.0424 10.9313 12.8131 11.0366 12.6197 11.2043L12.9473 11.582L13.2749 11.9598C13.3247 11.9166 13.393 11.8799 13.495 11.8587L13.3936 11.3691ZM12.9473 11.582L12.6193 11.2046C12.4418 11.3589 12.3032 11.547 12.2091 11.7643L12.668 11.9629L13.1268 12.1615C13.1608 12.0829 13.2094 12.0166 13.2752 11.9595L12.9473 11.582ZM12.668 11.9629L13.1381 11.7927C13.0425 11.5287 12.8525 11.3124 12.5659 11.2111L12.3994 11.6826L12.2329 12.1541C12.2308 12.1533 12.2258 12.1513 12.2192 12.1471C12.2126 12.1429 12.2064 12.1377 12.2013 12.1324C12.1905 12.1211 12.192 12.117 12.1978 12.133L12.668 11.9629ZM12.3994 11.6826L12.5659 11.2111C12.3347 11.1295 12.0951 11.1279 11.8654 11.1754L11.9668 11.665L12.0682 12.1547C12.1586 12.1359 12.208 12.1453 12.233 12.1541L12.3994 11.6826ZM11.9668 11.665L11.8652 11.1755C11.6381 11.2226 11.4262 11.3147 11.2444 11.4617L11.5586 11.8506L11.8728 12.2395C11.9149 12.2055 11.9755 12.1739 12.0684 12.1546L11.9668 11.665ZM11.5586 11.8506L11.2442 11.4618C11.0841 11.5912 10.9517 11.7468 10.8521 11.9278L11.29 12.1689L11.728 12.4101C11.7627 12.3472 11.8095 12.2907 11.8729 12.2394L11.5586 11.8506ZM11.29 12.1689H11.79V11.8447H11.29H10.79V12.1689H11.29ZM11.29 11.8447L11.1888 11.3551L10.3577 11.527L10.459 12.0166L10.5602 12.5062L11.3913 12.3344L11.29 11.8447ZM10.459 12.0166H9.95898V12.3809H10.459H10.959V12.0166H10.459ZM10.459 12.3809L10.5599 12.8706L10.8773 12.8051L10.7764 12.3154L10.6754 11.8257L10.358 11.8912L10.459 12.3809ZM10.7764 12.3154H10.2764V13.5625H10.7764H11.2764V12.3154H10.7764ZM10.7764 13.5625L10.6755 13.0728L10.3532 13.1392L10.4541 13.6289L10.555 14.1186L10.8773 14.0522L10.7764 13.5625ZM10.4541 13.6289H9.9541V13.9893H10.4541H10.9541V13.6289H10.4541ZM10.4541 13.9893L10.5556 14.4789L11.7948 14.222L11.6934 13.7324L11.5919 13.2428L10.3526 13.4997L10.4541 13.9893ZM11.6934 13.7324H12.1934V13.3721H11.6934H11.1934V13.7324H11.6934ZM11.6934 13.3721L11.5914 12.8826L11.1881 12.9666L11.29 13.4561L11.392 13.9456L11.7953 13.8616L11.6934 13.3721ZM11.29 13.4561H11.79V12.6836H11.29H10.79V13.4561H11.29ZM11.29 12.6836L11.7899 12.6954C11.7907 12.6614 11.7998 12.6242 11.8316 12.5764L11.415 12.2998L10.9985 12.0232C10.8703 12.2163 10.7958 12.4352 10.7902 12.6718L11.29 12.6836ZM11.415 12.2998L11.8315 12.5765C11.8324 12.5751 11.8326 12.5751 11.8322 12.5755C11.8317 12.5759 11.832 12.5755 11.8337 12.5744C11.837 12.5724 11.8515 12.5641 11.8858 12.5569L11.7842 12.0674L11.6826 11.5778C11.4112 11.6342 11.1638 11.7744 10.9985 12.0232L11.415 12.2998ZM11.7842 12.0674L11.8855 12.557C11.9046 12.5531 11.8958 12.558 11.8682 12.5531C11.8361 12.5474 11.7943 12.5309 11.7568 12.4984L12.085 12.1211L12.4131 11.7438C12.182 11.5428 11.9007 11.5327 11.6828 11.5778L11.7842 12.0674ZM12.085 12.1211L11.7565 12.498C11.7271 12.4725 11.7088 12.4467 11.6982 12.4283C11.693 12.4192 11.6897 12.4119 11.6877 12.4071C11.6857 12.4023 11.6849 12.3995 11.6849 12.3993C11.6849 12.3993 11.687 12.4067 11.6889 12.424C11.6909 12.441 11.6924 12.4647 11.6924 12.4961L12.1924 12.4961L12.6924 12.4961C12.6924 12.2906 12.6628 11.9614 12.4135 11.7442L12.085 12.1211ZM12.1924 12.4961H11.6924V13.2686H12.1924H12.6924V12.4961H12.1924ZM12.1924 13.2686L12.0888 12.7794L11.9735 12.8038L12.0771 13.293L12.1808 13.7821L12.296 13.7577L12.1924 13.2686ZM12.0771 13.293H11.5771V13.6533H12.0771H12.5771V13.293H12.0771ZM12.0771 13.6533L12.1787 14.1429L13.1299 13.9456L13.0283 13.4561L12.9268 12.9665L11.9756 13.1637L12.0771 13.6533ZM13.0283 13.4561H13.5283V13.0957H13.0283H12.5283V13.4561H13.0283ZM13.0283 13.0957L12.9271 12.6061L12.6058 12.6725L12.707 13.1621L12.8082 13.6518L13.1295 13.5854L13.0283 13.0957ZM12.707 13.1621H13.207V12.3945H12.707H12.207V13.1621H12.707ZM12.707 12.3945L13.2069 12.4064C13.2078 12.3684 13.2179 12.3285 13.2493 12.2797L12.8291 12.0088L12.4089 11.7379C12.2835 11.9323 12.2127 12.15 12.2072 12.3827L12.707 12.3945ZM12.8291 12.0088L13.2493 12.2798C13.2495 12.2794 13.249 12.2802 13.248 12.2812C13.247 12.2822 13.2468 12.2822 13.2483 12.2812C13.2513 12.2793 13.2664 12.2705 13.3026 12.263L13.2012 11.7734L13.0997 11.2838C12.8262 11.3405 12.5738 11.4821 12.4089 11.7378L12.8291 12.0088ZM13.2012 11.7734L13.3026 12.263C13.3234 12.2587 13.3155 12.2637 13.2885 12.2589C13.2568 12.2533 13.2152 12.237 13.1778 12.2045L13.5059 11.8271L13.8339 11.4498C13.6027 11.2488 13.3207 11.2381 13.0998 11.2838L13.2012 11.7734ZM13.5059 11.8271L13.1777 12.2044C13.1488 12.1793 13.1306 12.154 13.1202 12.1358C13.11 12.1182 13.1068 12.107 13.1068 12.1069C13.1068 12.1068 13.1088 12.1141 13.1108 12.131C13.1127 12.1477 13.1143 12.1711 13.1143 12.2021H13.6143H14.1143C14.1143 11.9934 14.0826 11.6661 13.834 11.4499L13.5059 11.8271ZM13.6143 12.2021H13.1143V12.9746H13.6143H14.1143V12.2021H13.6143ZM13.6143 12.9746L13.5147 12.4846L13.3946 12.509L13.4941 12.999L13.5937 13.489L13.7138 13.4646L13.6143 12.9746ZM13.4941 12.999H12.9941V13.3594H13.4941H13.9941V12.999H13.4941ZM13.4941 13.3594L13.5952 13.8491L14.5464 13.6528L14.4453 13.1631L14.3443 12.6734L13.3931 12.8697L13.4941 13.3594ZM14.4453 13.1631H14.9453V12.8027H14.4453H13.9453V13.1631H14.4453ZM14.4453 12.8027L14.3444 12.313L14.027 12.3785L14.1279 12.8682L14.2289 13.3579L14.5463 13.2924L14.4453 12.8027ZM14.1279 12.8682H14.6279V11.9238H14.1279H13.6279V12.8682H14.1279ZM14.1279 11.9238L14.6279 11.9237C14.6279 11.5887 14.5215 11.2075 14.1542 10.9989L13.9072 11.4336L13.6602 11.8683C13.6508 11.863 13.6402 11.8548 13.6308 11.8443C13.6217 11.8341 13.6176 11.826 13.6168 11.8241C13.6162 11.8227 13.6191 11.8288 13.6221 11.8455C13.6252 11.8624 13.6279 11.8879 13.6279 11.9239L14.1279 11.9238ZM13.9072 11.4336L14.154 10.9987C13.8826 10.8447 13.5834 10.8193 13.2922 10.8795L13.3936 11.3691L13.4949 11.8588C13.5941 11.8382 13.6375 11.8554 13.6605 11.8685L13.9072 11.4336ZM15.833 9.85352H15.333V10.2139H15.833H16.333V9.85352H15.833ZM15.833 10.2139L15.9346 10.7034L16.4004 10.6068L16.2988 10.1172L16.1972 9.62762L15.7314 9.7243L15.833 10.2139ZM16.2988 10.1172H15.7988V11.1143H16.2988H16.7988V10.1172H16.2988ZM16.2988 11.1143L16.7092 10.8286C16.5784 10.6406 16.3959 10.5132 16.1859 10.4435L16.0283 10.918L15.8707 11.3925C15.878 11.3949 15.8827 11.397 15.8854 11.3984C15.8882 11.3998 15.8893 11.4006 15.8894 11.4006C15.8894 11.4007 15.889 11.4004 15.8885 11.3999C15.888 11.3993 15.888 11.3992 15.8885 11.3999L16.2988 11.1143ZM16.0283 10.918L16.1857 10.4434C15.9572 10.3676 15.7173 10.3777 15.4963 10.4235L15.5977 10.9131L15.6991 11.4027C15.8174 11.3782 15.8658 11.3908 15.871 11.3926L16.0283 10.918ZM15.5977 10.9131L15.4961 10.4235C15.0549 10.515 14.6819 10.7385 14.4418 11.1208L14.8652 11.3867L15.2887 11.6526C15.359 11.5406 15.4749 11.4492 15.6992 11.4027L15.5977 10.9131ZM14.8652 11.3867L14.4418 11.1208C14.2381 11.4452 14.1328 11.8015 14.1328 12.1797H14.6328H15.1328C15.1328 11.9957 15.1818 11.8229 15.2887 11.6526L14.8652 11.3867ZM14.6328 12.1797H14.1328C14.1328 12.5695 14.2382 12.9617 14.5543 13.233L14.8799 12.8535L15.2055 12.4741C15.1918 12.4623 15.1328 12.4047 15.1328 12.1797H14.6328ZM14.8799 12.8535L14.5545 13.2331C14.8733 13.5065 15.2722 13.5456 15.6512 13.4672L15.5498 12.9775L15.4484 12.4879C15.2643 12.526 15.2162 12.4832 15.2053 12.4739L14.8799 12.8535ZM15.5498 12.9775L15.6512 13.4671C15.9119 13.4132 16.1577 13.3072 16.3583 13.1261L16.0234 12.7549L15.6885 12.3836C15.6491 12.4192 15.5784 12.461 15.4484 12.4879L15.5498 12.9775ZM16.0234 12.7549L16.3584 13.1261C16.5193 12.9809 16.6507 12.8143 16.7455 12.6261L16.2988 12.4014L15.8522 12.1766C15.8189 12.2428 15.7674 12.3125 15.6885 12.3837L16.0234 12.7549ZM16.2988 12.4014H15.7988V12.7783H16.2988H16.7988V12.4014H16.2988ZM16.2988 12.7783L16.4001 13.268L17.2311 13.0961L17.1299 12.6064L17.0286 12.1168L16.1976 12.2887L16.2988 12.7783ZM17.1299 12.6064H17.6299V12.2461H17.1299H16.6299V12.6064H17.1299ZM17.1299 12.2461L17.0272 11.7568L16.7108 11.8232L16.8135 12.3125L16.9162 12.8018L17.2326 12.7354L17.1299 12.2461ZM16.8135 12.3125H17.3135V9.65137H16.8135H16.3135V12.3125H16.8135ZM16.8135 9.65137L16.7125 9.16167L15.732 9.36382L15.833 9.85352L15.934 10.3432L16.9144 10.1411L16.8135 9.65137ZM15.7471 11.2598L15.8484 11.7494C15.8763 11.7436 15.8841 11.7464 15.8775 11.7453C15.8743 11.7448 15.869 11.7435 15.8626 11.7409C15.8563 11.7383 15.8509 11.7352 15.847 11.7324L16.1357 11.3242L16.4245 10.916C16.1824 10.7448 15.9043 10.7166 15.6457 10.7701L15.7471 11.2598ZM16.1357 11.3242L15.847 11.7324C15.8385 11.7264 15.8289 11.718 15.82 11.7071C15.811 11.6962 15.8048 11.6857 15.801 11.6773C15.7935 11.6609 15.7983 11.6609 15.7989 11.6906L16.2988 11.6807L16.7987 11.6707C16.7932 11.3949 16.6932 11.1061 16.4245 10.916L16.1357 11.3242ZM16.2988 11.6807H15.7988V11.8301H16.2988H16.7988V11.6807H16.2988ZM16.2988 11.8301L15.7989 11.8192C15.7984 11.8462 15.7886 11.9037 15.7238 11.9979L16.1357 12.2812L16.5477 12.5646C16.6943 12.3515 16.7929 12.108 16.7987 11.841L16.2988 11.8301ZM16.1357 12.2812L15.7238 11.9978C15.6883 12.0494 15.6564 12.0675 15.6115 12.0768L15.7129 12.5664L15.8143 13.056C16.1215 12.9924 16.3719 12.8202 16.5476 12.5647L16.1357 12.2812ZM15.7129 12.5664L15.6118 12.0767C15.594 12.0804 15.5952 12.0771 15.6085 12.08C15.6148 12.0813 15.6215 12.0836 15.6278 12.0866C15.634 12.0896 15.6378 12.0924 15.6391 12.0935L15.3262 12.4834L15.0132 12.8733C15.2503 13.0636 15.5357 13.1135 15.8139 13.0561L15.7129 12.5664ZM15.3262 12.4834L15.6399 12.0941C15.652 12.1038 15.6614 12.1145 15.668 12.1241C15.6744 12.1333 15.6763 12.1389 15.6759 12.1379C15.6755 12.1366 15.6729 12.129 15.6704 12.1128C15.668 12.0967 15.666 12.0738 15.666 12.043L15.166 12.043L14.666 12.043C14.666 12.3223 14.7374 12.651 15.0124 12.8727L15.3262 12.4834ZM15.166 12.043H15.666C15.666 11.9284 15.6939 11.8668 15.724 11.8272L15.3262 11.5244L14.9283 11.2216C14.7442 11.4635 14.666 11.7479 14.666 12.043H15.166ZM15.3262 11.5244L15.7239 11.8274C15.7576 11.7832 15.7928 11.7609 15.8484 11.7494L15.7471 11.2598L15.6457 10.7701C15.3555 10.8302 15.1093 10.9841 14.9285 11.2214L15.3262 11.5244ZM20.3623 8.90527L20.3659 8.40529C20.2301 8.40431 20.0937 8.41688 19.9582 8.44496L20.0596 8.93457L20.161 9.42418C20.2238 9.41116 20.2897 9.40477 20.3587 9.40526L20.3623 8.90527ZM20.0596 8.93457L19.9581 8.44498C19.6055 8.51808 19.3005 8.68886 19.0732 8.96634L19.46 9.2832L19.8467 9.60007C19.9139 9.51815 20.008 9.45589 20.1611 9.42416L20.0596 8.93457ZM19.46 9.2832L19.0732 8.96635C18.8605 9.226 18.7384 9.53218 18.7383 9.87293L19.2383 9.87305L19.7383 9.87316C19.7383 9.78664 19.765 9.6999 19.8468 9.60005L19.46 9.2832ZM19.2383 9.87305H18.7383V10.1982H19.2383H19.7383V9.87305H19.2383ZM19.2383 10.1982L19.137 9.70861L18.8538 9.76721L18.9551 10.2568L19.0564 10.7465L19.3396 10.6879L19.2383 10.1982ZM18.9551 10.2568H18.4551V10.6035H18.9551H19.4551V10.2568H18.9551ZM18.9551 10.6035L19.0564 11.0931L19.3396 11.0346L19.2383 10.5449L19.137 10.0553L18.8538 10.1139L18.9551 10.6035ZM19.2383 10.5449H18.7383V11.8096H19.2383H19.7383V10.5449H19.2383ZM19.2383 11.8096L19.1357 11.3202L18.8144 11.3876L18.917 11.877L19.0196 12.3663L19.3409 12.2989L19.2383 11.8096ZM18.917 11.877H18.417V12.2363H18.917H19.417V11.877H18.917ZM18.917 12.2363L19.0185 12.7259L20.2577 12.4691L20.1562 11.9795L20.0548 11.4899L18.8155 11.7467L18.917 12.2363ZM20.1562 11.9795H20.6562V11.6201H20.1562H19.6562V11.9795H20.1562ZM20.1562 11.6201L20.0555 11.1304L19.6473 11.2144L19.748 11.7041L19.8488 12.1938L20.257 12.1099L20.1562 11.6201ZM19.748 11.7041H20.248V10.4395H19.748H19.248V11.7041H19.748ZM19.748 10.4395L19.8495 10.9291L20.3915 10.8167L20.29 10.3271L20.1886 9.83755L19.6466 9.94985L19.748 10.4395ZM20.29 10.3271H20.79V9.98047H20.29H19.79V10.3271H20.29ZM20.29 9.98047L20.1886 9.49087L19.6466 9.60317L19.748 10.0928L19.8495 10.5824L20.3915 10.4701L20.29 9.98047ZM19.748 10.0928H20.248V9.70215H19.748H19.248V10.0928H19.748ZM19.748 9.70215H20.248C20.248 9.65654 20.2581 9.68149 20.2251 9.72636C20.2087 9.74863 20.1886 9.7657 20.1699 9.77676C20.1524 9.78709 20.1425 9.78846 20.1473 9.78746L20.0459 9.29785L19.9445 8.80824C19.7512 8.84828 19.5575 8.94658 19.42 9.13322C19.2876 9.31287 19.248 9.51942 19.248 9.70215H19.748ZM20.0459 9.29785L20.147 9.78753C20.1647 9.78387 20.1771 9.78391 20.1863 9.78495L20.2422 9.28809L20.2981 8.79122C20.1796 8.77788 20.0612 8.78416 19.9448 8.80817L20.0459 9.29785ZM20.2422 9.28809L19.7683 9.44759L19.8689 9.74642L20.3428 9.58691L20.8166 9.42741L20.7161 9.12858L20.2422 9.28809ZM20.3428 9.58691L20.4926 10.0639L20.8969 9.937L20.7471 9.45996L20.5973 8.98293L20.193 9.10988L20.3428 9.58691ZM20.7471 9.45996L21.2384 9.36722L21.1466 8.88089L20.6553 8.97363L20.1639 9.06637L20.2557 9.5527L20.7471 9.45996ZM20.6553 8.97363L20.8739 8.52395C20.7132 8.44585 20.5419 8.40656 20.3659 8.40529L20.3623 8.90527L20.3587 9.40526C20.3875 9.40547 20.4117 9.4112 20.4367 9.42332L20.6553 8.97363ZM17.4277 11.3242H16.9277V11.7197H17.4277H17.9277V11.3242H17.4277ZM17.4277 11.7197L17.5294 12.2093L18.6631 11.9739L18.5615 11.4844L18.4599 10.9948L17.3261 11.2302L17.4277 11.7197ZM18.5615 11.4844H19.0615V11.0898H18.5615H18.0615V11.4844H18.5615ZM18.5615 11.0898L18.4603 10.6002L17.3265 10.8346L17.4277 11.3242L17.529 11.8139L18.6627 11.5795L18.5615 11.0898ZM8.51758 7.5625L8.39772 7.07708C8.09687 7.15136 7.83609 7.32642 7.64965 7.5417C7.46528 7.7546 7.32324 8.04343 7.32324 8.36426H7.82324H8.32324C8.32324 8.33946 8.33799 8.27441 8.40559 8.19634C8.47113 8.12066 8.55751 8.06766 8.63744 8.04792L8.51758 7.5625ZM7.82324 8.36426H7.32324V8.57422H7.82324H8.32324V8.36426H7.82324ZM7.82324 8.57422L7.70342 8.08879L7.24053 8.20305L7.36035 8.68848L7.48017 9.17391L7.94306 9.05965L7.82324 8.57422ZM7.36035 8.68848H7.86035V8.47852H7.36035H6.86035V8.68848H7.36035ZM7.36035 8.47852H7.86035C7.86035 8.1414 7.70053 7.84473 7.43144 7.66669C7.17039 7.49398 6.84856 7.4584 6.54545 7.53307L6.66504 8.01855L6.78463 8.50404C6.86247 8.48487 6.88829 8.5064 6.87966 8.50069C6.8756 8.498 6.86879 8.4917 6.86375 8.48222C6.85862 8.47257 6.86035 8.46916 6.86035 8.47852H7.36035ZM6.66504 8.01855L6.54526 7.53311C6.24434 7.60736 5.98353 7.78245 5.7971 7.99775C5.61274 8.21067 5.47075 8.49948 5.4707 8.82023L5.9707 8.82031L6.4707 8.82039C6.47071 8.7955 6.48549 8.73041 6.55308 8.65235C6.61861 8.57668 6.70495 8.5237 6.78482 8.504L6.66504 8.01855ZM5.9707 8.82031H5.4707C5.4707 9.15701 5.63001 9.4537 5.89937 9.63172C6.16048 9.80429 6.48207 9.83926 6.78455 9.7648L6.66504 9.2793L6.54553 8.79379C6.46715 8.81308 6.44157 8.7914 6.45073 8.79745C6.45508 8.80033 6.4621 8.80686 6.46724 8.81656C6.47247 8.82641 6.4707 8.82986 6.4707 8.82031H5.9707ZM6.66504 9.2793L6.78389 9.76497L7.01534 9.70832L6.89648 9.22266L6.77763 8.73699L6.54618 8.79363L6.66504 9.2793ZM6.89648 9.22266H6.39648V9.64258H6.89648H7.39648V9.22266H6.89648ZM6.89648 9.64258L6.7757 9.15739L6.54425 9.215L6.66504 9.7002L6.78583 10.1854L7.01727 10.1278L6.89648 9.64258ZM6.66504 9.7002L6.54522 9.21476C6.24433 9.28903 5.98353 9.4641 5.79709 9.6794C5.61272 9.89231 5.4707 10.1811 5.4707 10.502H5.9707H6.4707C6.4707 10.4771 6.48545 10.4121 6.55305 10.334C6.61858 10.2583 6.70495 10.2054 6.78486 10.1856L6.66504 9.7002ZM5.9707 10.502L5.4707 10.5021C5.47083 10.8388 5.63019 11.1353 5.89944 11.3133C6.16049 11.4858 6.48199 11.5209 6.78448 11.4465L6.66504 10.9609L6.5456 10.4754C6.46733 10.4947 6.44174 10.473 6.45083 10.479C6.45514 10.4819 6.46213 10.4884 6.46726 10.498C6.47247 10.5078 6.47071 10.5113 6.4707 10.5018L5.9707 10.502ZM6.66504 10.9609L6.78467 11.4464C7.08554 11.3723 7.34655 11.1974 7.53324 10.9822C7.71784 10.7694 7.86035 10.4804 7.86035 10.1592H7.36035H6.86035C6.86035 10.1837 6.84568 10.2487 6.77786 10.3269C6.71212 10.4026 6.62548 10.4557 6.54541 10.4755L6.66504 10.9609ZM7.36035 10.1592H7.86035V9.94922H7.36035H6.86035V10.1592H7.36035ZM7.36035 9.94922L7.48017 10.4346L7.94306 10.3204L7.82324 9.83496L7.70342 9.34953L7.24053 9.46379L7.36035 9.94922ZM7.82324 9.83496H7.32324V10.0449H7.82324H8.32324V9.83496H7.82324ZM7.82324 10.0449H7.32324C7.32324 10.3815 7.48249 10.6782 7.75141 10.8564C8.01232 11.0293 8.33401 11.0649 8.63697 10.9904L8.51758 10.5049L8.39819 10.0193C8.32038 10.0385 8.2949 10.0169 8.30383 10.0228C8.30803 10.0256 8.31487 10.032 8.31989 10.0415C8.32501 10.0511 8.32324 10.0544 8.32324 10.0449H7.82324ZM8.51758 10.5049L8.63717 10.9904C8.9381 10.9162 9.19909 10.7412 9.38574 10.5261C9.57029 10.3133 9.71279 10.0244 9.71289 9.70327L9.21289 9.70312L8.71289 9.70298C8.71288 9.72754 8.69817 9.7926 8.63031 9.87083C8.56455 9.94665 8.47794 9.9997 8.39799 10.0194L8.51758 10.5049ZM9.21289 9.70312H9.71289C9.71289 9.36602 9.55307 9.06935 9.28399 8.89131C9.02294 8.71859 8.7011 8.68299 8.39795 8.75769L8.51758 9.24316L8.6372 9.72864C8.715 9.70947 8.74081 9.73099 8.73218 9.72528C8.72812 9.7226 8.72132 9.71631 8.71629 9.70684C8.71116 9.69719 8.71289 9.69379 8.71289 9.70312H9.21289ZM8.51758 9.24316L8.39679 8.75797L8.16535 8.81559L8.28613 9.30078L8.40692 9.78597L8.63836 9.72836L8.51758 9.24316ZM8.28613 9.30078H8.78613V8.87988H8.28613H7.78613V9.30078H8.28613ZM8.28613 8.87988L8.40499 9.36555L8.63643 9.30891L8.51758 8.82324L8.39872 8.33757L8.16728 8.39421L8.28613 8.87988ZM8.51758 8.82324L8.6372 9.30872C8.93808 9.23458 9.19909 9.05966 9.38578 8.84446C9.57037 8.63167 9.71289 8.34271 9.71289 8.02148H9.21289H8.71289C8.71289 8.04601 8.69822 8.11099 8.6304 8.18917C8.56466 8.26495 8.47802 8.31803 8.39795 8.33776L8.51758 8.82324ZM9.21289 8.02148L9.71289 8.0214C9.71283 7.68419 9.55283 7.38759 9.28341 7.20983C9.02224 7.03751 8.70059 7.00245 8.39795 7.07702L8.51758 7.5625L8.6372 8.04798C8.71547 8.02869 8.74144 8.05029 8.73269 8.04452C8.72852 8.04177 8.72157 8.03535 8.71641 8.02567C8.71117 8.01582 8.71289 8.01226 8.71289 8.02157L9.21289 8.02148Z" fill="#45201B" mask="url(#path-2-inside-1_1066_7313)"/>
<mask id="path-4-inside-2_1066_7313" fill="white">
<path d="M6.66126 8.50809C6.7921 8.47588 6.89283 8.54246 6.89283 8.6612V8.87138L6.66126 8.92845C6.53042 8.96067 6.42969 8.89408 6.42969 8.77534C6.42969 8.65659 6.53042 8.54034 6.66126 8.50809Z"/>
</mask>
<path d="M6.66126 8.50809C6.7921 8.47588 6.89283 8.54246 6.89283 8.6612V8.87138L6.66126 8.92845C6.53042 8.96067 6.42969 8.89408 6.42969 8.77534C6.42969 8.65659 6.53042 8.54034 6.66126 8.50809Z" fill="#45201B"/>
<path d="M6.66126 8.50809L6.5417 8.0226L6.5416 8.02262L6.66126 8.50809ZM6.89283 8.87138L7.01247 9.35686L7.39283 9.26312V8.87138H6.89283ZM6.66126 8.92845L6.78082 9.41394L6.7809 9.41392L6.66126 8.92845ZM6.66126 8.50809L6.78082 8.99359C6.7433 9.00283 6.6506 9.01139 6.55037 8.94513C6.43942 8.87178 6.39283 8.75419 6.39283 8.6612H6.89283H7.39283C7.39283 8.44947 7.29588 8.23921 7.10185 8.11094C6.91854 7.98976 6.71006 7.98114 6.5417 8.0226L6.66126 8.50809ZM6.89283 8.6612H6.39283V8.87138H6.89283H7.39283V8.6612H6.89283ZM6.89283 8.87138L6.7732 8.3859L6.54162 8.44297L6.66126 8.92845L6.7809 9.41392L7.01247 9.35686L6.89283 8.87138ZM6.66126 8.92845L6.5417 8.44295C6.57922 8.43371 6.67192 8.42515 6.77215 8.49141C6.8831 8.56476 6.92969 8.68235 6.92969 8.77534H6.42969H5.92969C5.92969 8.98707 6.02664 9.19733 6.22067 9.3256C6.40398 9.44678 6.61246 9.4554 6.78082 9.41394L6.66126 8.92845ZM6.42969 8.77534H6.92969C6.92969 8.85744 6.89643 8.91116 6.87428 8.93672C6.85113 8.96343 6.82017 8.98389 6.78092 8.99357L6.66126 8.50809L6.5416 8.02262C6.22933 8.0996 5.92969 8.386 5.92969 8.77534H6.42969Z" fill="#45201B" mask="url(#path-4-inside-2_1066_7313)"/>
<mask id="path-6-inside-3_1066_7313" fill="white">
<path d="M8.51282 8.02762C8.64366 7.9954 8.7444 8.06202 8.7444 8.18076C8.7444 8.29951 8.64366 8.41576 8.51282 8.44797L8.28125 8.50504V8.29487C8.28125 8.17612 8.38199 8.05987 8.51282 8.02762Z"/>
</mask>
<path d="M8.51282 8.02762C8.64366 7.9954 8.7444 8.06202 8.7444 8.18076C8.7444 8.29951 8.64366 8.41576 8.51282 8.44797L8.28125 8.50504V8.29487C8.28125 8.17612 8.38199 8.05987 8.51282 8.02762Z" fill="#45201B"/>
<path d="M8.51282 8.02762L8.39327 7.54213L8.39316 7.54215L8.51282 8.02762ZM8.51282 8.44797L8.39327 7.96248L8.39319 7.9625L8.51282 8.44797ZM8.28125 8.50504H7.78125V9.14322L8.40089 8.99052L8.28125 8.50504ZM8.51282 8.02762L8.63238 8.51312C8.59481 8.52237 8.5021 8.53091 8.40188 8.46464C8.29097 8.3913 8.2444 8.27373 8.2444 8.18076H8.7444H9.2444C9.2444 7.96904 9.14745 7.7588 8.95347 7.63052C8.77017 7.50931 8.56167 7.50066 8.39327 7.54213L8.51282 8.02762ZM8.7444 8.18076H8.2444C8.2444 8.09866 8.27766 8.04493 8.29982 8.01936C8.32298 7.99264 8.35397 7.97216 8.39327 7.96248L8.51282 8.44797L8.63238 8.93347C8.94476 8.85655 9.2444 8.57009 9.2444 8.18076H8.7444ZM8.51282 8.44797L8.39319 7.9625L8.16161 8.01957L8.28125 8.50504L8.40089 8.99052L8.63246 8.93345L8.51282 8.44797ZM8.28125 8.50504H8.78125V8.29487H8.28125H7.78125V8.50504H8.28125ZM8.28125 8.29487H8.78125C8.78125 8.37697 8.74799 8.43069 8.72584 8.45625C8.70269 8.48296 8.67173 8.50342 8.63248 8.51309L8.51282 8.02762L8.39316 7.54215C8.0809 7.61912 7.78125 7.90552 7.78125 8.29487H8.28125Z" fill="#45201B" mask="url(#path-6-inside-3_1066_7313)"/>
<mask id="path-8-inside-4_1066_7313" fill="white">
<path d="M7.35938 9.13363L7.82252 9.01953V9.43988L7.35938 9.55398V9.13363Z"/>
</mask>
<path d="M7.35938 9.13363L7.82252 9.01953V9.43988L7.35938 9.55398V9.13363Z" fill="#45201B"/>
<path d="M7.35938 9.13363L7.23977 8.64815L6.85938 8.74187V9.13363H7.35938ZM7.82252 9.01953H8.32252V8.3814L7.70292 8.53405L7.82252 9.01953ZM7.82252 9.43988L7.94213 9.92536L8.32252 9.83165V9.43988H7.82252ZM7.35938 9.55398H6.85938V10.1921L7.47898 10.0395L7.35938 9.55398ZM7.35938 9.13363L7.47898 9.61912L7.94213 9.50501L7.82252 9.01953L7.70292 8.53405L7.23977 8.64815L7.35938 9.13363ZM7.82252 9.01953H7.32252V9.43988H7.82252H8.32252V9.01953H7.82252ZM7.82252 9.43988L7.70291 8.9544L7.23977 9.0685L7.35938 9.55398L7.47898 10.0395L7.94213 9.92536L7.82252 9.43988ZM7.35938 9.55398H7.85938V9.13363H7.35938H6.85938V9.55398H7.35938Z" fill="#45201B" mask="url(#path-8-inside-4_1066_7313)"/>
<mask id="path-10-inside-5_1066_7313" fill="white">
<path d="M6.66126 10.1215L6.89283 10.0645V10.2746C6.89283 10.3934 6.7921 10.5096 6.66126 10.5418C6.53042 10.5741 6.42969 10.5075 6.42969 10.3887C6.42969 10.27 6.53042 10.1537 6.66126 10.1215Z"/>
</mask>
<path d="M6.66126 10.1215L6.89283 10.0645V10.2746C6.89283 10.3934 6.7921 10.5096 6.66126 10.5418C6.53042 10.5741 6.42969 10.5075 6.42969 10.3887C6.42969 10.27 6.53042 10.1537 6.66126 10.1215Z" fill="#45201B"/>
<path d="M6.66126 10.1215L6.78082 10.607L6.7809 10.607L6.66126 10.1215ZM6.89283 10.0645H7.39283V9.42628L6.7732 9.57898L6.89283 10.0645ZM6.66126 10.1215L6.7809 10.607L7.01247 10.5499L6.89283 10.0645L6.7732 9.57898L6.54162 9.63604L6.66126 10.1215ZM6.89283 10.0645H6.39283V10.2746H6.89283H7.39283V10.0645H6.89283ZM6.89283 10.2746H6.39283C6.39283 10.1925 6.4261 10.1388 6.44827 10.1132C6.47143 10.0865 6.50238 10.066 6.5416 10.0564L6.66126 10.5418L6.78092 11.0273C7.09313 10.9504 7.39283 10.664 7.39283 10.2746H6.89283ZM6.66126 10.5418L6.5416 10.0564C6.57918 10.0471 6.67193 10.0385 6.77218 10.1048C6.88312 10.1782 6.92969 10.2958 6.92969 10.3887H6.42969H5.92969C5.92969 10.6004 6.02663 10.8107 6.22064 10.939C6.40397 11.0602 6.6125 11.0688 6.78092 11.0273L6.66126 10.5418ZM6.42969 10.3887H6.92969C6.92969 10.4708 6.89643 10.5246 6.87427 10.5501C6.8511 10.5769 6.82011 10.5973 6.78082 10.607L6.66126 10.1215L6.5417 9.63602C6.22933 9.71295 5.92969 9.9994 5.92969 10.3887H6.42969Z" fill="#45201B" mask="url(#path-10-inside-5_1066_7313)"/>
<mask id="path-12-inside-6_1066_7313" fill="white">
<path d="M8.28125 9.72141L8.51282 9.66434C8.64366 9.63213 8.7444 9.69871 8.7444 9.81745C8.7444 9.9362 8.64366 10.0524 8.51282 10.0847C8.38199 10.1169 8.28125 10.0503 8.28125 9.93159V9.72141Z"/>
</mask>
<path d="M8.28125 9.72141L8.51282 9.66434C8.64366 9.63213 8.7444 9.69871 8.7444 9.81745C8.7444 9.9362 8.64366 10.0524 8.51282 10.0847C8.38199 10.1169 8.28125 10.0503 8.28125 9.93159V9.72141Z" fill="#45201B"/>
<path d="M8.28125 9.72141L8.16161 9.23594L7.78125 9.32967V9.72141H8.28125ZM8.51282 9.66434L8.39327 9.17885L8.39319 9.17887L8.51282 9.66434ZM8.51282 10.0847L8.63238 10.5702L8.63248 10.5702L8.51282 10.0847ZM8.28125 9.72141L8.40089 10.2069L8.63246 10.1498L8.51282 9.66434L8.39319 9.17887L8.16161 9.23594L8.28125 9.72141ZM8.51282 9.66434L8.63238 10.1498C8.59486 10.1591 8.50217 10.1676 8.40193 10.1014C8.29099 10.028 8.2444 9.91044 8.2444 9.81745H8.7444H9.2444C9.2444 9.60572 9.14744 9.39546 8.95342 9.26719C8.77011 9.14601 8.56162 9.13739 8.39327 9.17885L8.51282 9.66434ZM8.7444 9.81745H8.2444C8.2444 9.73535 8.27766 9.68163 8.29981 9.65607C8.32296 9.62936 8.35392 9.6089 8.39317 9.59922L8.51282 10.0847L8.63248 10.5702C8.94476 10.4932 9.2444 10.2068 9.2444 9.81745H8.7444ZM8.51282 10.0847L8.39327 9.5992C8.43079 9.58996 8.52348 9.5814 8.62371 9.64766C8.73466 9.721 8.78125 9.8386 8.78125 9.93159H8.28125H7.78125C7.78125 10.1433 7.87821 10.3536 8.07223 10.4818C8.25554 10.603 8.46402 10.6116 8.63238 10.5702L8.51282 10.0847ZM8.28125 9.93159H8.78125V9.72141H8.28125H7.78125V9.93159H8.28125Z" fill="#45201B" mask="url(#path-12-inside-6_1066_7313)"/>
</svg>
