<svg width="160" height="160" viewBox="0 0 160 160" fill="none" xmlns="http://www.w3.org/2000/svg">
<mask id="mask0_1122_21257" style="mask-type:alpha" maskUnits="userSpaceOnUse" x="0" y="0" width="160" height="160">
<circle cx="80" cy="80" r="80" fill="#D9D9D9"/>
</mask>
<g mask="url(#mask0_1122_21257)">
<rect x="-45.8242" y="-17.1133" width="301.449" height="350.145" rx="15.8416" fill="#F43F5E"/>
<path d="M132.603 60.4891C119.693 60.1535 109.999 75.2269 106.463 84.8072C104.287 111.476 106.941 158.414 134.965 132.81C162.99 107.207 168.248 92.987 163.125 75.9516C159.85 65.0628 142.118 60.7364 132.603 60.4891Z" fill="#694931"/>
<path d="M8.1654 131.655C9.8045 124.352 21.4831 105.7 27.1175 97.2871C27.1175 109.101 26.8102 133.803 25.5809 138.099C24.3516 142.395 19.605 142.753 17.3853 142.395C13.6291 141.858 6.5263 138.959 8.1654 131.655Z" fill="#A3856C"/>
<path d="M149.804 128.349C148.142 121.063 136.298 102.454 130.585 94.0605C130.585 105.847 130.896 130.492 132.143 134.778C133.389 139.064 138.203 139.421 140.454 139.064C144.263 138.528 151.466 135.635 149.804 128.349Z" fill="#A3856C"/>
<path d="M10.502 121.717L24.096 100.623C22.596 113.561 22.0647 131.171 21.9866 138.358C13.9239 132.358 10.9707 124.764 10.502 121.717Z" fill="#D1A5A6"/>
<path d="M136.599 137.659C144.662 131.659 147.615 124.065 148.084 121.018C148.084 121.018 143.396 112.112 141.521 109.768C139.646 107.424 131.912 95.4707 131.912 95.4707C133.412 108.409 136.521 130.472 136.599 137.659Z" fill="#D1A5A6"/>
<path d="M42.6819 177.704C6.27694 163.102 25.299 78.0881 38.6538 49.3301H106.566C147.832 104.429 143.59 156.56 127.698 170.204C111.805 183.848 79.0869 192.307 42.6819 177.704Z" fill="#C2A28A"/>
<path d="M25.0692 83.5464C25.4731 74.6631 28.784 60.7778 42.1437 45.0743C55.5033 29.3708 85.9728 22.3392 107.536 41.09C129.099 59.8408 153.709 103.669 107.536 111.639C121.599 101.325 121.599 87.497 110.817 78.1217C100.036 68.7465 25.0692 67.3402 42.3781 106.013C43.0204 107.448 43.3156 108.591 45.425 111.404C45.2623 111.404 45.0396 111.28 44.765 111.048C42.1087 109.587 32.1579 103.813 28.3151 97.3413C23.8617 89.8415 25.0692 83.5464 25.0692 83.5464Z" fill="#A63336"/>
<path d="M119.957 91.9478C119.957 105.54 119.957 114.448 78.4717 116.558C36.9863 116.558 36.9863 105.54 36.9863 91.9478C36.9863 78.3561 55.5599 67.3379 78.4717 67.3379C101.383 67.3379 119.957 78.3561 119.957 91.9478Z" fill="#A63336"/>
<path d="M115.738 95.845C115.738 109 111.646 116.558 80.3465 116.558C47.8191 116.558 44.9551 109 44.9551 95.845C44.9551 82.6898 60.8004 72.0254 80.3465 72.0254C99.8927 72.0254 115.738 82.6898 115.738 95.845Z" fill="#C2A28A"/>
<path d="M109.643 110.93C100.081 115.806 68.8611 119.368 46.595 111.165C45.8918 110.462 45.9674 111.219 46.3606 111.399C73.7831 125.228 102.561 116.382 111.05 110.93C111.535 110.618 111.05 110.462 109.643 110.93Z" fill="#A63336"/>
<ellipse cx="2.40882" cy="3.15512" rx="2.40882" ry="3.15512" transform="matrix(0.997044 0.0768285 -0.0699359 0.997552 57.5371 86.9375)" fill="#3F3D3B"/>
<ellipse cx="2.40882" cy="3.15512" rx="2.40882" ry="3.15512" transform="matrix(0.997044 0.0768285 -0.0699359 0.997552 94.418 87.2168)" fill="#3F3D3B"/>
<path d="M77.2189 98.3913C77.2343 98.3689 77.2598 98.3555 77.2871 98.3555H80.4693C80.5013 98.3555 80.5305 98.3739 80.5442 98.4029L82.6993 102.965C82.7045 102.976 82.7072 102.988 82.7072 103.001V106.865C82.7072 106.91 82.6701 106.948 82.6244 106.948H74.5945C74.5488 106.948 74.5117 106.91 74.5117 106.865V102.347C74.5117 102.33 74.5168 102.314 74.5263 102.3L77.2189 98.3913Z" fill="white"/>
<path d="M82.7062 95.6917C82.7062 96.8674 81.5323 97.3267 79.4307 98.3527C77.6367 97.796 75.5352 96.8045 75.5352 95.6288C75.5352 94.4531 77.1335 94.0566 79.2009 94.0566C81.2683 94.0566 82.7062 94.516 82.7062 95.6917Z" fill="#3F3D3B"/>
<path d="M78.4635 97.2797C77.1318 101.115 74.8693 102.339 69.3899 103.654" stroke="#3F3D3B" stroke-width="1.5" stroke-linecap="round"/>
<path d="M79.7766 97.7374C80.9654 102.119 83.3375 103.12 89.1921 103.541" stroke="#3F3D3B" stroke-width="1.5" stroke-linecap="round"/>
<path d="M77.7687 121.481C48.518 121.106 29.3301 107.418 23.3924 100.621C18.1423 119.559 19.6423 145.388 27.3769 164.373C59.487 151.95 111.519 152.419 134.254 162.029C142.223 146.325 140.817 113.512 132.848 99.2148C129.801 105.543 114.332 121.95 77.7687 121.481Z" fill="#F2DEDF"/>
<path d="M40.2311 53.7461C38.0435 55.8555 34.3247 60.3087 36.9498 61.2463C39.5748 62.1838 40.2311 56.6368 40.2311 53.7461Z" fill="#D7B269"/>
<path d="M54.0242 43.8474C51.039 44.4166 45.4899 46.1103 47.1746 48.331C48.8592 50.5518 52.4429 46.2673 54.0242 43.8474Z" fill="#D7B269"/>
<path d="M38.8229 69.2148C36.6353 71.3243 32.9165 75.7775 35.5415 76.715C38.1666 77.6525 38.8229 72.1055 38.8229 69.2148Z" fill="#D7B269"/>
<path d="M28.898 77.6527C27.1722 80.154 24.4102 85.2563 27.1691 85.6546C29.9279 86.053 29.4712 80.486 28.898 77.6527Z" fill="#D7B269"/>
<path d="M51.9479 59.3711C49.7603 61.4805 46.0415 65.9337 48.6665 66.8713C51.2916 67.8088 51.9479 62.2618 51.9479 59.3711Z" fill="#D7B269"/>
<path d="M79.2083 54.6823C78.1264 57.5221 76.6561 63.1345 79.4306 62.8659C82.205 62.5972 80.4384 57.2982 79.2083 54.6823Z" fill="#D7B269"/>
<path d="M33.7415 90.7761C32.6596 93.6159 31.1893 99.2283 33.9638 98.9596C36.7382 98.6909 34.9716 93.392 33.7415 90.7761Z" fill="#D7B269"/>
<path d="M126.912 94.0595C125.035 96.4496 121.964 101.372 124.693 101.94C127.422 102.507 127.309 96.9227 126.912 94.0595Z" fill="#D7B269"/>
<path d="M64.6061 49.9961C62.4185 52.1055 58.6997 56.5587 61.3248 57.4963C63.9498 58.4338 64.6061 52.8868 64.6061 49.9961Z" fill="#D7B269"/>
<path d="M124.17 78.5905C124.267 81.6278 125.075 87.3732 127.531 86.0555C129.987 84.7377 126.314 80.5297 124.17 78.5905Z" fill="#D7B269"/>
<path d="M124.17 63.5866C124.267 66.6239 125.075 72.3693 127.531 71.0516C129.987 69.7338 126.314 65.5258 124.17 63.5866Z" fill="#D7B269"/>
<path d="M112.879 48.1325C113.728 51.0505 115.939 56.4146 117.99 54.5275C120.042 52.6405 115.438 49.4779 112.879 48.1325Z" fill="#D7B269"/>
<path d="M92.9418 52.4127C93.0386 55.4501 93.8461 61.1954 96.3024 59.8777C98.7587 58.56 95.0855 54.352 92.9418 52.4127Z" fill="#D7B269"/>
<path d="M100.327 41.5025C101.094 44.4429 103.155 49.8663 105.258 48.037C107.362 46.2076 102.847 42.9184 100.327 41.5025Z" fill="#D7B269"/>
<path d="M111.835 59.6372C112.4 62.6231 114.086 68.1745 116.309 66.4929C118.532 64.8113 114.252 61.2218 111.835 59.6372Z" fill="#D7B269"/>
<path d="M47.2309 36.0706C38.5652 35.4336 60.1077 30.3837 71.8903 29.1874C82.0466 28.071 101.234 29.1876 110.462 38.1167C112.505 40.0933 107.55 38.2728 101.234 35.6356C101.234 35.637 101.234 35.6385 101.234 35.64C101.347 39.1903 93.2416 36.5231 87.1281 33.863C89.96 35.5484 92.8894 38.3467 92.743 42.162C92.533 47.6322 83.6726 37.7558 79.2687 32.1337C83.757 39.2213 82.78 43.9153 79.2687 43.9153C72.2548 43.9153 75.5511 34.6541 75.9025 32.0045C73.1725 34.8164 64.9723 43.5728 59.9323 42.162C54.8923 40.7511 59.9323 34.7652 71.7882 31.8466C67.2611 32.6873 55.8965 36.7076 47.2309 36.0706Z" fill="#589165"/>
<path d="M85.0353 14.6016C79.4102 16.2891 77.5352 25.4612 77.3008 29.8363H78.9414C78.1914 24.5862 82.6915 18.7423 85.0353 16.4766V14.6016Z" fill="#3D774B"/>
<path d="M78.128 130.8C71.2937 130.91 72.9318 139.421 74.6052 143.663C76.6133 148.754 86.5286 140.944 87.6642 138.572C88.7998 136.2 86.6709 130.664 78.128 130.8Z" fill="#91181B"/>
<path d="M80.0399 141.145C79.4942 141.485 78.5482 142.234 79.1309 142.51C79.7135 142.786 79.9797 141.715 80.0399 141.145Z" fill="#D7B269"/>
<path d="M76.7548 143.012C76.209 143.352 75.2631 144.102 75.8457 144.377C76.4284 144.653 76.6945 143.582 76.7548 143.012Z" fill="#D7B269"/>
<path d="M83.997 139.631C83.4512 139.971 82.5053 140.721 83.0879 140.997C83.6706 141.272 83.9367 140.201 83.997 139.631Z" fill="#D7B269"/>
<path d="M77.1532 134.456C76.6074 134.796 75.6615 135.545 76.2442 135.821C76.8268 136.097 77.093 135.026 77.1532 134.456Z" fill="#D7B269"/>
<path d="M76.3427 139.186C75.7969 139.526 74.851 140.275 75.4336 140.551C76.0163 140.827 76.2824 139.756 76.3427 139.186Z" fill="#D7B269"/>
<path d="M84.8388 136.561C84.293 136.901 83.3471 137.65 83.9297 137.926C84.5124 138.202 84.7785 137.131 84.8388 136.561Z" fill="#D7B269"/>
<path d="M80.5575 136.215C80.0117 136.555 79.0658 137.305 79.6485 137.58C80.2311 137.856 80.4973 136.785 80.5575 136.215Z" fill="#D7B269"/>
<path d="M74.4219 129.802C72.2619 128.86 78.2013 129.775 81.3154 130.612C84.007 131.315 88.8151 133.337 90.4069 136.115C90.7592 136.73 89.6492 135.878 88.2614 134.724C88.2613 134.724 88.2612 134.725 88.261 134.725C87.9851 135.499 86.1425 134.173 84.8084 133.033C85.3875 133.658 85.8959 134.532 85.5309 135.34C85.0076 136.497 83.591 133.549 82.9482 131.931C83.4868 133.872 82.834 134.792 81.9366 134.465C80.144 133.814 81.7816 132.128 82.099 131.59C81.1598 131.942 78.3121 133.064 77.1451 132.292C75.9781 131.521 77.7803 130.701 81.061 131.174C79.8318 130.935 76.582 130.744 74.4219 129.802Z" fill="#589165"/>
<path d="M85.9241 128.695C84.3415 128.536 83.0747 130.335 82.6392 131.254L83.0585 131.407C83.3176 130.207 84.9695 129.368 85.7631 129.098L85.9241 128.695Z" fill="#3D774B"/>
</g>
</svg>
