<svg width="160" height="160" viewBox="0 0 160 160" fill="none" xmlns="http://www.w3.org/2000/svg">
<mask id="mask0_1122_16866" style="mask-type:alpha" maskUnits="userSpaceOnUse" x="0" y="0" width="160" height="160">
<circle cx="80" cy="80" r="80" fill="#D9D9D9"/>
</mask>
<g mask="url(#mask0_1122_16866)">
<rect x="-70" y="-31" width="291.921" height="339.077" rx="15.8416" fill="#D946EF"/>
<path d="M134.791 45.6758C121.803 45.0771 111.74 60.0544 107.986 69.6266C105.257 96.4284 106.98 143.73 135.708 118.524C164.435 93.3171 170.015 79.1091 165.202 61.8574C162.126 50.8304 144.363 46.117 134.791 45.6758Z" fill="#6F5440"/>
<path d="M35.4706 175.34C34.6196 164.961 35.5853 147.639 36.1745 140.275L72.2678 145.317C73.4651 151.638 75.3709 166.643 73.4154 176.102C71.46 185.561 61.2715 187.371 56.4217 187.094C49.7926 187.501 36.3216 185.719 35.4706 175.34Z" fill="#A3856C"/>
<path d="M83.871 176.92C83.02 166.541 83.9857 149.219 84.5749 141.855L120.668 146.897C121.866 153.218 123.771 168.223 121.816 177.682C119.86 187.141 109.672 188.951 104.822 188.674C98.193 189.081 84.722 187.299 83.871 176.92Z" fill="#A3856C"/>
<path d="M41.9089 161.855C5.55797 146.42 26.4239 61.228 40.4482 32.5495L108.81 33.9219C149.235 90.219 143.912 142.61 127.639 156.023C111.365 169.436 78.2597 177.29 41.9089 161.855Z" fill="#C2A28A"/>
<path d="M110.633 56.8179C105.96 54.4315 105.936 49.3946 109.004 42.9588C112.632 35.3491 119.626 35.3552 124.299 37.7416C128.972 40.128 132.067 45.6222 125.928 51.6007C120.369 57.0134 115.306 59.2043 110.633 56.8179Z" fill="#C2A28A"/>
<path d="M44.2339 54.862C39.6905 56.9566 34.7352 54.5427 29.8626 49.3064C24.1014 43.1149 27.4011 38.2602 31.9445 36.1655C36.488 34.0709 43.3388 34.5719 46.3159 41.721C49.0111 48.1935 48.7773 52.7673 44.2339 54.862Z" fill="#C2A28A"/>
<path d="M83.7578 84.8279C83.734 86.0114 82.543 86.45 80.4068 87.4403C78.6122 86.8437 76.5167 85.8032 76.5405 84.6197C76.5643 83.4362 78.1811 83.0694 80.2623 83.1112C82.3434 83.153 83.7815 83.6444 83.7578 84.8279Z" fill="#3F3D3B"/>
<path opacity="0.4" d="M77.9199 33.7344L77.6168 48.834" stroke="#C2A28A" stroke-width="0.408745"/>
<path d="M26.7332 67.3384C27.2898 59.3683 35.957 35.9311 41.4599 25.2336L111.831 26.6463C117.181 36.7303 126.626 55.2103 130.307 69.4176C105.061 62.5923 53.2164 65.2374 26.7332 67.3384Z" fill="#28365B"/>
<ellipse cx="76.6372" cy="26.3564" rx="35.6882" ry="3.74046" transform="rotate(1.15003 76.6372 26.3564)" fill="#28365B"/>
<path d="M80.4207 73.6727C4.44161 72.1475 13.5415 62.1688 30.0066 57.1559C25.408 62.8451 29.9223 61.3589 80.6053 64.4787C121.152 66.9745 128.57 61.9377 127.211 59.1073C141.648 61.0614 155.447 75.1789 80.4207 73.6727Z" fill="#172240"/>
<ellipse cx="2.32296" cy="3.04265" rx="2.32296" ry="3.04265" transform="matrix(0.995302 0.0968241 -0.0899433 0.995947 61.373 79.7109)" fill="#3F3D3B"/>
<ellipse cx="2.09053" cy="2.73841" rx="2.09053" ry="2.73841" transform="matrix(0.995301 0.09683 -0.0899379 0.995947 93.8945 80.0801)" fill="#3F3D3B"/>
<path d="M142.557 129.406C143.885 122 147.596 101.927 137.876 92.291C128.156 82.6548 132.239 124.726 131.707 129.188C131.175 133.651 127.448 135.099 129.674 135.655C133.415 136.658 141.229 136.813 142.557 129.406Z" fill="#A3856C"/>
<path d="M97.3846 157.182L85.3828 112.029C111.46 115.664 129.819 108.943 135.882 105.108L135.33 151.981C124.203 160.715 105.397 159.087 97.3846 157.182Z" fill="white"/>
<path d="M88.4512 123.816C99.0028 124.564 123.247 124.312 135.812 117.325" stroke="#CA1E21" stroke-width="0.997616"/>
<path d="M95.3555 148.74C104.301 149.708 124.812 149.967 135.299 143.266" stroke="#CA1E21" stroke-width="0.997616"/>
<path d="M95.9531 150.982C104.898 151.95 125.41 152.209 135.896 145.508" stroke="#D7B269" stroke-width="0.997616"/>
<path d="M89.0488 126.061C99.3533 126.842 123.024 126.668 135.269 119.726" stroke="#D7B269" stroke-width="0.997616"/>
<path d="M89.9336 128.266C100.114 129.064 123.498 128.93 135.583 122.009" stroke="#CA1E21" stroke-width="0.997616"/>
<path d="M96.5527 153.227C105.251 154.228 125.188 154.566 135.355 147.909" stroke="#CA1E21" stroke-width="0.997616"/>
<ellipse cx="110.529" cy="108.873" rx="25.3418" ry="3.74367" transform="rotate(-7.8041 110.529 108.873)" fill="#D9D9D9"/>
<path d="M118.536 132.519L115.985 132.869L115.885 132.141L118.436 131.791L118.536 132.519Z" fill="#CA1E21"/>
<path d="M118.536 132.519L115.985 132.869L115.885 132.141L118.436 131.791L118.536 132.519Z" stroke="#CA1E21"/>
<path d="M117.045 134.129L116.688 131.524L117.375 130.609L117.737 133.254L117.045 134.129Z" fill="#CA1E21"/>
<path d="M117.045 134.129L116.688 131.524L117.375 130.609L117.737 133.254L117.045 134.129Z" stroke="#CA1E21"/>
<path d="M119.073 140.007L117.364 139.423L116.798 135.294L118.187 133.543L119.073 140.007Z" fill="#CA1E21"/>
<path d="M119.073 140.007L117.364 139.423L116.798 135.294L118.187 133.543L119.073 140.007Z" stroke="#CA1E21"/>
<path d="M118.991 139.445L119.286 141.591L108.818 133.968L108.523 131.822L118.991 139.445Z" fill="#CA1E21"/>
<path d="M118.991 139.445L119.286 141.591L108.818 133.968L108.523 131.822L118.991 139.445Z" stroke="#CA1E21"/>
<path d="M110.328 133.136L111.42 141.108L110.036 142.859L108.523 131.822L110.328 133.136Z" fill="#CA1E21"/>
<path d="M110.328 133.136L111.42 141.108L110.036 142.859L108.523 131.822L110.328 133.136Z" stroke="#CA1E21"/>
<path d="M113.438 138.645L110.036 142.86L109.754 140.617L112.176 137.725L113.438 138.645Z" fill="#CA1E21"/>
<path d="M113.438 138.645L110.036 142.86L109.754 140.617L112.176 137.725L113.438 138.645Z" stroke="#CA1E21"/>
<path d="M84.7941 43.9262L81.3592 43.8572L81.3789 42.877L84.8138 42.9459L84.7941 43.9262Z" fill="white"/>
<path d="M84.7941 43.9262L81.3592 43.8572L81.3789 42.877L84.8138 42.9459L84.7941 43.9262Z" stroke="white"/>
<path d="M82.4969 45.7373L82.5673 42.2302L83.6621 41.168L83.5906 44.7278L82.4969 45.7373Z" fill="white"/>
<path d="M82.4969 45.7373L82.5673 42.2302L83.6621 41.168L83.5906 44.7278L82.4969 45.7373Z" stroke="white"/>
<path d="M83.9479 53.9048L81.8158 52.7778L81.9273 47.2213L84.1226 45.2014L83.9479 53.9048Z" fill="white"/>
<path d="M83.9479 53.9048L81.8158 52.7778L81.9273 47.2213L84.1226 45.2014L83.9479 53.9048Z" stroke="white"/>
<path d="M83.9565 53.1479L83.8985 56.037L71.6881 43.8188L71.7461 40.9297L83.9565 53.1479Z" fill="white"/>
<path d="M83.9565 53.1479L83.8985 56.037L71.6881 43.8188L71.7461 40.9297L83.9565 53.1479Z" stroke="white"/>
<path d="M73.8517 43.0358L73.6363 53.7661L71.4478 55.787L71.7461 40.9297L73.8517 43.0358Z" fill="white"/>
<path d="M73.8517 43.0358L73.6363 53.7661L71.4478 55.787L71.7461 40.9297L73.8517 43.0358Z" stroke="white"/>
<path d="M76.8075 50.9388L71.4489 55.7853L71.5425 52.7725L75.3337 49.4637L76.8075 50.9388Z" fill="white"/>
<path d="M76.8075 50.9388L71.4489 55.7853L71.5425 52.7725L75.3337 49.4637L76.8075 50.9388Z" stroke="white"/>
<path d="M80.809 89.5902C83.7916 89.6501 86.5097 90.1341 88.4984 90.8864C89.49 91.2616 90.333 91.7159 90.9365 92.2442C91.5369 92.7698 91.9665 93.4308 91.9511 94.2034C91.9356 94.9762 91.4797 95.6202 90.8587 96.1214C90.2345 96.6249 89.3738 97.0452 88.368 97.3802C86.3508 98.0521 83.6154 98.4257 80.6328 98.3658C77.6503 98.3059 74.9321 97.8229 72.9434 97.0706C71.9519 96.6955 71.1088 96.241 70.5053 95.7128C69.9049 95.1871 69.4752 94.5253 69.4908 93.7526C69.5064 92.9799 69.9622 92.3367 70.5832 91.8356C71.2073 91.332 72.0679 90.9118 73.0738 90.5768C75.091 89.9049 77.8264 89.5303 80.809 89.5902Z" fill="#F0A7A7" stroke="#3F3D3B" stroke-width="1.22624"/>
<path d="M89.4094 96.2752C86.4557 94.4851 78.8758 91.9097 72.1864 95.9295C74.9137 97.243 82.1765 99.1512 89.4094 96.2752Z" fill="#C57C7D"/>
<path d="M81.979 99.1887C74.1285 99.9838 74.2184 97.3128 75.2447 95.8779L85.0457 95.4792C85.0311 96.2067 86.4159 97.69 92.0718 97.8035C99.1417 97.9454 91.7083 102.361 93.8836 102.405C96.059 102.449 106.108 103.246 105.772 106.415C105.437 109.583 102.92 112.709 108.89 113.424L101.282 113.271C99.4695 113.235 96.4501 112.777 98.8749 111.238C101.906 109.314 101.434 105.732 95.9993 105.424C90.5648 105.117 87.0259 105.244 88.1415 103.877C89.257 102.51 91.792 98.1948 81.979 99.1887Z" fill="#FBDB9E" stroke="#E0AD4A" stroke-width="0.408745"/>
<path d="M80.016 93.9629C79.997 94.9067 79.7562 97.4981 82.7761 97.5587C86.551 97.6345 92.8928 99.178 91.1891 101.74C89.4855 104.302 93.5295 102.731 97.9838 104.237C102.438 105.742 102.164 107.625 101.159 110.673C100.355 113.112 104.652 113.025 106.543 112.906" stroke="#BE8151" stroke-width="0.613118"/>
<path d="M76.7065 94.1332C76.3793 94.7561 73.2517 98.0763 76.2716 98.137C80.0465 98.2127 86.3883 99.7562 84.6846 102.318C82.981 104.88 87.025 103.309 91.4793 104.815C95.9336 106.321 95.6598 108.203 94.6545 111.251C93.8502 113.69 100.866 113.422 102.757 113.302" stroke="#BE8151" stroke-width="0.613118"/>
<path d="M84.3695 94.5219C84.0423 95.1447 84.1429 96.4056 87.1628 96.4662C90.9377 96.542 97.2794 98.0854 95.5758 100.648C93.8722 103.21 97.9162 101.639 102.37 103.144C106.825 104.65 106.551 106.532 105.546 109.581C104.741 112.019 104.887 113.029 106.777 112.91" stroke="#BE8C51" stroke-width="0.613118"/>
<path d="M82.8406 94.2544C82.5134 94.8772 85.558 96.4331 88.5779 96.4938C92.3528 96.5695 98.6945 98.113 96.9909 100.675C95.2873 103.237 99.3313 101.666 103.786 103.172C108.24 104.677 107.966 106.56 106.961 109.608C106.157 112.047 106.302 113.057 108.192 112.937" stroke="#CF9D61" stroke-width="0.613118"/>
<path d="M77.6543 93.916C78.4663 94.6404 77.0544 96.7363 80.0743 96.7969C83.8492 96.8727 90.1909 98.4162 88.4873 100.978C86.7837 103.54 90.8277 101.969 95.282 103.475C99.7363 104.981 99.4624 106.863 98.4571 109.911C97.6529 112.35 97.7983 113.36 99.6889 113.241" stroke="#CF9D61" stroke-width="0.613118"/>
<path d="M77.7316 90.1403L83.394 90.254L83.8029 92.1912C83.8176 92.2609 83.8243 92.3321 83.8229 92.4034L83.8089 93.1021C83.7985 93.6192 83.3709 94.03 82.8538 94.0196L78.1203 93.9246C77.6032 93.9142 77.1924 93.4866 77.2028 92.9695L77.2223 91.9977C77.2239 91.915 77.2366 91.8329 77.2598 91.7536L77.7316 90.1403Z" fill="white"/>
<path d="M55.8915 96.3106L93.5459 101.787L93.527 102.731L55.8505 98.3553L55.8915 96.3106Z" fill="#3F3D3B"/>
<path d="M55.8271 99.6133L93.4814 105.09L93.4625 106.033L55.786 101.658L55.8271 99.6133Z" fill="#3F3D3B"/>
<path d="M50.3064 109.252C43.2803 110.069 13.5974 120.261 13.9359 103.395C14.2745 86.5286 46.7456 92.5055 50.9566 92.2542C55.1676 92.0028 56.8848 95.9898 57.2171 98.0147C57.8411 101.42 57.3324 108.436 50.3064 109.252Z" fill="#A3856C"/>
<path d="M142.295 130.852C141.259 136.889 137.593 141.851 134.402 141.787C131.211 141.723 128.724 136.706 128.847 130.582C128.97 124.458 131.656 119.545 134.847 119.609C140.909 117.607 144.433 118.385 142.295 130.852Z" fill="#A3856C"/>
<ellipse cx="51.8512" cy="86.0806" rx="6.60742" ry="3.06773" transform="rotate(1.15003 51.8512 86.0806)" fill="#DF7B7B"/>
<ellipse cx="106.098" cy="87.8771" rx="6.60742" ry="3.30371" transform="rotate(1.15003 106.098 87.8771)" fill="#DF7B7B"/>
<path d="M80.3357 89.7218L80.3926 86.8906" stroke="#3F3D3B" stroke-width="0.817491"/>
</g>
<mask id="mask1_1122_16866" style="mask-type:alpha" maskUnits="userSpaceOnUse" x="0" y="0" width="160" height="160">
<circle cx="80" cy="80" r="80" fill="#D9D9D9"/>
</mask>
<g mask="url(#mask1_1122_16866)">
</g>
</svg>
