<svg width="160" height="160" viewBox="0 0 160 160" fill="none" xmlns="http://www.w3.org/2000/svg">
<mask id="mask0_1122_16868" style="mask-type:alpha" maskUnits="userSpaceOnUse" x="0" y="0" width="160" height="160">
<circle cx="80" cy="80" r="80" fill="#D9D9D9"/>
</mask>
<g mask="url(#mask0_1122_16868)">
<rect x="-71" y="-30" width="302" height="350.785" rx="16.4016" fill="#4F46E5"/>
<path d="M-3.71197 117.642L12.0669 116.317L15.2812 116.047L37.7722 121.064L80.5477 133.085C80.5477 133.085 77.8842 136.329 71.8732 141.92C64.7766 148.521 58.9505 152.728 55.9269 155.269C51.3477 159.116 45.0974 161.85 39.6051 164.145C32.2818 167.206 21.941 167.551 19.6124 167.626C12.0667 167.869 7.66791 167.838 0.343912 165.941C-5.61819 164.397 -8.92021 163.046 -14.2827 159.964C-18.748 157.397 -21.748 156.241 -24.9436 152.152C-27.5465 148.821 -29.4582 146.584 -29.5934 142.334C-29.7264 138.156 -27.9471 135.901 -25.7194 132.401C-23.0159 128.153 -20.5651 126.365 -16.4605 123.516C-11.9452 120.382 -3.71197 117.642 -3.71197 117.642Z" fill="url(#paint0_linear_1122_16868)"/>
<path d="M-4.00494 114.16L11.774 112.835L14.9882 112.565L37.4792 117.582L80.2547 129.602C80.2547 129.602 77.5912 132.846 71.5802 138.437C64.4837 145.038 58.6575 149.246 55.6339 151.786C51.0547 155.634 44.8045 158.368 39.3121 160.663C31.9889 163.723 21.6481 164.068 19.3195 164.143C11.7738 164.386 7.37495 164.355 0.0509435 162.459C-5.91116 160.915 -9.21318 159.563 -14.5756 156.481C-19.041 153.915 -22.041 152.758 -25.2365 148.669C-27.8395 145.339 -29.7512 143.102 -29.8864 138.851C-30.0194 134.673 -28.2401 132.418 -26.0123 128.918C-23.3089 124.67 -20.8581 122.883 -16.7535 120.034C-12.2382 116.9 -4.00494 114.16 -4.00494 114.16Z" fill="url(#paint1_radial_1122_16868)"/>
<mask id="mask1_1122_16868" style="mask-type:alpha" maskUnits="userSpaceOnUse" x="-30" y="112" width="111" height="56">
<path d="M-4.0049 114.158L11.774 112.833L14.9882 112.563L37.4792 117.58L80.2547 129.601C80.2547 129.601 77.2474 136.775 71.2364 142.366C64.1399 148.967 58.7345 152.823 55.7109 155.363C51.1316 159.21 45.8567 161.372 40.3644 163.667C33.0411 166.728 23.5425 167.539 21.2139 167.614C13.6682 167.857 7.19318 167.795 -0.130821 165.899C-6.09293 164.355 -9.00927 163.161 -14.3717 160.079C-18.8371 157.512 -21.5802 156.272 -24.7757 152.183C-27.3787 148.852 -29.6124 147.455 -29.8864 138.85C-30.0194 134.672 -28.24 132.417 -26.0123 128.917C-23.3089 124.669 -20.858 122.881 -16.7534 120.033C-12.2382 116.899 -4.0049 114.158 -4.0049 114.158Z" fill="#4E4E4E" fill-opacity="0.6"/>
</mask>
<g mask="url(#mask1_1122_16868)">
<path d="M-0.110777 111.524C-0.110777 111.524 -8.09294 125.979 -10.4017 132.267C-19.2621 156.397 -13.6539 161.772 -13.6539 161.772" stroke="url(#paint2_linear_1122_16868)" stroke-width="0.471522"/>
<path d="M9.55985 110.712C9.55985 110.712 1.11059 128.317 -1.85321 138.564C-8.95831 163.132 -5.91822 165.215 -5.91822 165.215" stroke="url(#paint3_linear_1122_16868)" stroke-width="0.471522"/>
<path d="M19.0042 114.011C19.0042 114.011 11.8419 129.767 9.15172 139.979C6.29043 150.839 2.7621 166.24 5.18439 167.79" stroke="url(#paint4_linear_1122_16868)" stroke-width="0.471522"/>
<path d="M26.4668 120.986C26.4668 120.986 27.8322 116.778 20.6788 140.765C13.5254 164.752 16.7109 168.577 16.7109 168.577" stroke="url(#paint5_linear_1122_16868)" stroke-width="0.471522"/>
<path d="M38.0409 122.352C38.0409 122.352 35.9729 129.598 32.2529 142.131C28.5329 154.665 25.8144 167.812 28.562 166.412" stroke="url(#paint6_linear_1122_16868)" stroke-width="0.471522"/>
<path d="M49.6166 123.719C49.6166 123.719 44.2373 142.802 41.7637 153.026C39.29 163.249 39.7636 170.148 39.7636 170.148" stroke="url(#paint7_linear_1122_16868)" stroke-width="0.471522"/>
<path d="M61.1908 125.086C61.1908 125.086 57.8764 134.642 55.4028 144.865C52.9292 155.088 51.3378 171.516 51.3378 171.516" stroke="url(#paint8_linear_1122_16868)" stroke-width="0.471522"/>
<path d="M72.765 126.453C72.765 126.453 69.4506 136.009 66.977 146.232C64.5034 156.456 62.912 172.883 62.912 172.883" stroke="url(#paint9_linear_1122_16868)" stroke-width="0.471522"/>
<path d="M-5.05584 88.7476C-5.05584 88.7476 5.66834 92.2501 12.3049 95.1335C18.2007 97.6952 64.015 128.989 64.015 128.989" stroke="url(#paint10_linear_1122_16868)" stroke-width="0.471522"/>
<path d="M-5.72496 106.081C-5.72496 106.081 12.9102 111.234 23.1849 116C43.1257 125.249 64.7848 140.569 67.8374 145.865" stroke="url(#paint11_linear_1122_16868)" stroke-width="0.471522"/>
<path d="M-14.2699 113.49C-14.2699 113.49 0.0109731 117.543 8.73353 121.306C29.3203 130.187 59.261 153.239 57.4211 155.22" stroke="url(#paint12_linear_1122_16868)" stroke-width="0.471522"/>
<path d="M-19.3925 120.744C-19.3925 120.744 -5.4773 125.975 2.3148 129.827C20.8738 138.999 49.7335 159.947 46.4785 161.399" stroke="url(#paint13_linear_1122_16868)" stroke-width="0.471522"/>
<path d="M-27.9785 130.325C-27.9785 130.325 -21.3185 132.198 -7.46095 138.888C6.3966 145.579 36.0409 165.901 32.0757 167.287" stroke="url(#paint14_linear_1122_16868)" stroke-width="0.471522"/>
<path d="M-34.5674 141.182C-34.5674 141.182 -23.2703 145.557 -14.0498 149.745C-4.82938 153.933 10.7255 164.17 20.7584 172.477" stroke="url(#paint15_linear_1122_16868)" stroke-width="0.471522"/>
<path d="M-41.1565 152.037C-41.1565 152.037 -30.8974 155.73 -20.639 160.6C-10.3806 165.471 8.44767 176.938 8.44767 176.938" stroke="url(#paint16_linear_1122_16868)" stroke-width="0.471522"/>
</g>
<path d="M146.824 113.761C150.48 111.566 152.685 108.599 154.643 104.787C156.235 101.686 156.78 99.8154 156.755 96.3476C156.741 94.3681 157.009 91.4129 155.116 90.9352C154.365 90.7459 153.788 91.5286 153.645 91.7449C153.814 91.4728 154.54 90.2346 154.287 89.4292C153.94 88.3267 152.35 88.0504 151.378 88.6898C151.065 88.8957 150.956 89.166 150.919 89.3226C150.967 88.9513 151.044 87.8689 150.367 87.4243C149.464 86.8312 149.159 86.9843 148.246 87.5923C147.162 88.313 145.612 91.0263 145.612 91.0263C145.612 91.0263 143.548 93.4472 141.754 93.648C139.23 93.9307 136.747 93.5483 136.747 93.5483L130.722 92.8675C130.722 92.8675 127.806 96.4327 126.72 99.8848C125.639 103.322 124.536 105.752 125.881 109.05C127.373 112.708 130.207 113.85 133.949 115.029C138.868 116.579 144.258 115.302 146.824 113.761Z" fill="url(#paint17_linear_1122_16868)"/>
<path d="M104.187 44.0914C97.9516 40.4066 93.6884 39.4827 86.5286 38.7031C79.6995 37.9596 75.6419 38.217 68.961 39.9433C61.0313 41.9923 56.52 44.1566 50.1287 49.4573C45.7673 53.0744 43.78 55.7206 40.4259 60.3471C35.9504 66.5203 33.9134 70.4495 31.135 77.6024C29.1671 82.6684 28.3527 85.6505 27.2367 90.9806C25.9461 97.1451 25.6985 100.713 25.3501 107.002C24.9659 113.937 24.3506 120.395 25.3501 127.252C26.3949 134.42 26.2295 136.433 28.8975 143.123C33.3493 154.285 37.7694 160.806 46.5334 168.756C54.1685 175.682 59.9775 179.151 69.5838 182.6C75.434 184.701 85.9897 186.096 96.5044 185.77C106.234 185.469 111.171 183.457 120.394 180.161C129.201 177.013 136.542 171.414 136.542 171.414L146.202 161.753L151.722 148.643C151.722 148.643 151.994 147.268 151.722 141.053C151.371 133.067 151.574 129.898 149.652 123.112C147.256 114.646 143.384 110.895 139.302 103.101C136.184 97.1481 134.889 95.288 131.259 87.8887C127.659 80.5483 126.665 75.9251 123.081 68.5762C120.003 62.2676 119.004 58.1119 114.483 52.824C111.037 48.7953 108.703 46.7605 104.187 44.0914Z" fill="url(#paint18_linear_1122_16868)"/>
<path d="M160.874 141.918L151.334 138.539C151.045 138.436 150.726 138.48 150.486 138.67C149.517 139.439 146.91 141.691 144.746 145.221C143.603 147.086 142.458 152.607 141.948 155.303C141.781 156.185 142.275 157.05 143.112 157.373L153.645 161.427C153.645 161.427 157.395 156.267 158.854 151.956C160.21 147.953 160.874 141.918 160.874 141.918Z" fill="url(#paint19_linear_1122_16868)"/>
<path d="M154.037 146.46C154.795 143.788 156.402 139.753 156.402 139.753L161.991 141.123C161.991 141.123 162.464 139.908 164.454 136.826C166.382 133.841 167.634 132.857 171.141 132.283C172.87 132 175.34 132.336 175.34 132.336C177.129 132.486 179.234 133.174 181.45 134.65L183.041 137.168C183.041 137.168 183.439 141.941 182.29 146.112C181.711 148.211 180.685 150.51 180.298 151.95C179.1 156.414 175.919 161.19 175.919 161.19C175.143 163.023 173.611 165.039 172.486 166.324C172.414 167.341 160.866 164.939 151.891 161.292C151.891 161.292 152.441 152.09 154.037 146.46Z" fill="#D9AE6F"/>
<path d="M90.9228 183.596C92.0614 184.965 94.3541 186.699 94.3541 186.699L100.793 184.425L100.689 172.136L99.5469 162.062C99.5469 162.062 94.0995 159.601 91.7796 160.76C90.686 161.306 89.5887 162.282 89.5887 162.282C89.5887 162.282 87.7736 163.768 86.9238 165.471C85.5727 168.179 86.4236 171.334 86.8755 174.302C87.147 176.085 87.5031 177.071 88.2048 178.763C89.0259 180.743 89.5124 181.901 90.9228 183.596Z" fill="url(#paint20_linear_1122_16868)"/>
<path d="M113.181 157.913L113.215 157.935C114.728 158.905 115.613 159.99 116.789 161.849C118.186 164.058 118.595 164.875 119.191 167.433C119.602 169.194 119.492 171.961 119.492 171.961L114.983 179.029L96.0006 191.988C95.2829 191.82 94.3997 189.68 94.0428 188.026C94.0428 188.026 93.8532 186.591 93.7665 184.497C93.6545 181.792 94.1269 178.515 94.141 175.817C94.1565 172.85 93.9458 171.133 94.4892 168.231C95.0794 165.079 96.6918 162.462 98.5918 160.045C100.321 157.844 102.167 156.774 104.754 156.289C106.581 155.946 108.777 156.126 109.964 156.412C111.367 156.75 112.046 157.186 113.181 157.913Z" fill="#D9AE6F"/>
<path d="M113.101 49.0988C113.101 49.0988 118.692 57.9154 120.958 64.1704C123.757 71.8993 125.086 76.6659 124.807 84.9103C124.344 98.5728 111.217 117.096 111.217 117.096M111.217 117.096C111.217 117.096 101.885 116.965 96.051 115.823C86.1995 113.895 80.3235 111.374 72.1319 106.308C63.418 100.92 59.8664 96.7963 55.7097 88.1153C52.8833 82.2129 52.3242 78.3662 51.4847 71.8475C50.8837 67.1803 51.0252 59.7991 51.0252 59.7991M111.217 117.096C111.217 117.096 116.078 126.709 118.096 133.287C119.848 138.995 119.599 146.924 119.599 146.924M111.217 117.096C111.217 117.096 112.451 128.118 112.344 135.206C112.249 141.514 108.387 150.787 108.387 150.787" stroke="url(#paint21_linear_1122_16868)" stroke-width="0.726451" stroke-linecap="round"/>
<path d="M120.005 142.454C120.396 144.527 120.729 145.407 121.407 146.776" stroke="#6A2E2E" stroke-width="0.363225" stroke-linecap="round"/>
<path d="M119.422 142.406C118.809 144.38 118.432 145.348 117.61 146.457" stroke="#6A2E2E" stroke-width="0.363225" stroke-linecap="round"/>
<path d="M109.644 146.688C108.364 148.074 107.603 148.8 106.086 149.898" stroke="#6A2E2E" stroke-width="0.363225" stroke-linecap="round"/>
<path d="M110.353 147.047L109.999 151.264" stroke="#6A2E2E" stroke-width="0.363225" stroke-linecap="round"/>
<path d="M117.793 140.768C117.71 141.756 118.427 142.623 119.396 142.704C120.364 142.785 121.216 142.05 121.299 141.062C121.382 140.074 120.664 139.208 119.696 139.126C118.728 139.045 117.876 139.78 117.793 140.768Z" fill="#D9AE6F"/>
<ellipse cx="1.75938" cy="1.79516" rx="1.75938" ry="1.79516" transform="matrix(-0.996493 -0.0836796 -0.0836796 0.996493 112.232 143.904)" fill="#D9AE6F"/>
<path d="M75.1021 122.816C72.5315 118.82 72.0776 112.899 68.086 111.297C65.2833 110.172 63.4756 109.17 60.4897 109.73C56.8419 110.414 54.9026 112.417 53.0599 115.589C51.1703 118.841 51.1852 121.117 51.4361 124.84C51.4957 125.723 52.2189 128.503 53.0988 130.495C54.093 132.747 56.7666 135.479 56.7666 135.479C56.7666 135.479 58.9353 137.486 60.4063 138.679C62.7537 140.582 64.0275 141.772 66.7213 143.169C69.9003 144.818 75.4686 146.013 75.4686 146.013L78.6247 146.618C78.6247 146.618 80.1038 147.007 80.8448 147.099C81.9117 147.232 82.798 147.375 83.1441 146.372C83.3694 145.72 82.5277 144.698 82.5277 144.698C82.5277 144.698 83.2938 144.794 83.8116 145.055C84.4665 145.385 84.9297 145.249 85.6301 145.014C86.5698 144.699 86.5081 143.925 86.5917 143.642C86.7784 143.011 86.0827 142.544 86.0827 142.544C86.0827 142.544 87.7582 142.741 88.4358 142.105C88.8593 141.708 88.8091 140.843 88.8091 140.843C88.7615 140.372 88.6684 139.824 88.2464 139.456C88.2464 139.456 84.9009 136.202 82.466 134.568C79.7198 132.725 75.1021 122.816 75.1021 122.816Z" fill="url(#paint22_linear_1122_16868)"/>
<path d="M112.694 81.432C112.694 81.432 110.921 80.1471 110.646 80.916C110.228 82.0838 109.409 82.5503 108.263 82.9753C106.859 83.4967 104.457 82.6201 104.457 82.6201C104.457 82.6201 103.693 83.8685 102.959 84.3932C101.979 85.0946 101.207 85.2343 100.011 85.2474C98.7055 85.2618 97.6733 84.7642 97.3827 84.6103C96.2203 83.9948 95.8674 85.8391 95.8674 85.8391" stroke="url(#paint23_linear_1122_16868)" stroke-width="0.484301" stroke-linecap="round"/>
<path d="M104.305 76.8679L103.035 77.9963C102.943 78.0773 102.825 78.1212 102.703 78.1192L100.584 78.0839C100.036 78.0747 99.5473 78.4359 99.3942 78.964L99.317 79.2303C99.1167 79.921 99.5566 80.6296 100.263 80.7538L101.324 80.9406L103.556 81.5162C103.837 81.5887 104.136 81.4863 104.314 81.2559L106.289 78.7122C106.682 78.2058 106.616 77.4834 106.138 77.0622L105.909 76.8604C105.452 76.4575 104.764 76.4607 104.305 76.8679Z" fill="#783B3B"/>
<path d="M80.8235 69.0171C81.8653 68.0082 83.8356 66.9467 84.1218 66.7951C84.1459 66.7823 84.1699 66.7725 84.1959 66.7642L85.6353 66.3083C85.8452 66.2419 86.0732 66.3294 86.1846 66.5192L87.1908 68.2332C87.3341 68.4773 87.2326 68.7918 86.9744 68.9077C86.2547 69.2308 84.8901 69.8602 83.9564 70.3946C82.0364 71.4934 79.6719 73.487 78.4141 74.5953C78.1629 74.8166 77.7897 74.5763 77.9028 74.2611C78.4206 72.8173 79.4497 70.3477 80.8235 69.0171Z" fill="#9B6A5B"/>
<path d="M115.788 63.7885C114.722 63.0156 111.859 61.9799 111.485 61.8461C111.457 61.8363 111.43 61.8294 111.401 61.825L110.698 61.7162C110.476 61.6818 110.262 61.8086 110.186 62.0194L109.498 63.9218C109.41 64.1668 109.537 64.4384 109.783 64.5278L112.074 65.3616L117.692 67.2966C117.87 67.358 118.037 67.1985 117.974 67.0206C117.706 66.2684 117.026 64.6858 115.788 63.7885Z" fill="#9B6A5B"/>
<path d="M111.785 40.3023C108.132 39.8377 102.372 39.7136 102.372 39.7136L86.0178 39.4587L41.2241 50.4915C41.2241 50.4915 38.6989 51.6246 35.1139 53.3645C31.7433 55.0004 27.3872 57.7558 27.3872 57.7558C25.9917 58.2742 21.9303 61.4894 23.3765 63.4663C24.1126 64.4724 26.6765 64.902 28.8318 65.083C31.3749 65.2965 33.4545 65.0168 38.2892 64.7184C42.9635 64.4299 45.7526 64.3985 50.4129 63.8926C55.3134 63.3607 58.1229 63.006 63.0147 62.3884L63.0171 62.3881C68.3937 61.7093 70.5112 61.422 75.8808 60.6781C80.794 59.9974 83.4025 59.3882 88.2537 58.2974C94.5133 56.8899 97.8875 56.2146 103.577 54.5457C109.882 52.6959 115.367 51.0212 119.826 49.5374C122.688 48.5845 124.125 47.3466 124.125 47.3466C124.125 47.3466 125.4 46.5741 125.237 45.3589C125 43.586 122.67 42.9033 121.048 42.0886C119.56 41.3415 115.439 40.7669 111.785 40.3023Z" fill="url(#paint24_linear_1122_16868)"/>
<path d="M105.914 41.9647L103.727 42.9044L100.969 41.3358L89.911 39.9295C89.911 39.9295 89.6127 38.3191 90.2834 36.9609C90.9442 35.623 91.9294 34.3102 93.0948 33.3978C95.3424 31.6382 96.5042 31.1294 99.3225 30.8723C101.843 30.6423 103.861 31.0954 105.901 32.6136C108.711 34.704 109.299 40.8986 105.914 41.9647Z" fill="#B4836E"/>
<path d="M95.1723 29.9469L87.8403 17.6243C87.6121 17.2407 87.1947 17.0127 86.7503 17.0344C85.0592 17.117 80.7177 17.3604 77.3186 17.8217C70.4426 18.7551 62.1161 21.473 53.9068 25.4001C49.3261 27.5914 43.9199 31.3285 42.449 32.3659C42.1982 32.5427 42.0315 32.8049 41.9732 33.1068C41.7012 34.5179 40.8731 38.8224 40.327 41.7685C39.538 46.0246 38.3671 52.6781 38.3671 52.6781C38.3671 52.6781 43.9875 54.1447 47.8923 54.4928C51.9636 54.8557 54.4895 54.8287 58.5509 54.3402C62.9431 53.8119 69.7238 52.4437 69.7238 52.4437C69.7238 52.4437 78.1612 50.3683 82.5374 49.2478C87.2278 48.0468 95.2092 44.8274 95.2092 44.8274L101.511 41.7082L95.1723 29.9469Z" fill="url(#paint25_linear_1122_16868)"/>
<path d="M96.0167 36.7895L99.0125 42.8876" stroke="#AA7C6D" stroke-width="0.42437" stroke-linecap="round"/>
<path d="M72.5931 51.4616L71.0654 44.8414" stroke="#AA7C6D" stroke-width="0.42437" stroke-linecap="round"/>
<path d="M93.5675 38.104L96.5633 44.202" stroke="#AA7C6D" stroke-width="0.42437" stroke-linecap="round"/>
<path d="M69.6712 52.1959L68.1435 45.5757" stroke="#AA7C6D" stroke-width="0.42437" stroke-linecap="round"/>
<path d="M94.0785 38.9654C85.4876 42.3509 80.5068 43.9895 71.2375 46.4017M68.2372 47.3191C65.2369 48.2364 61.6561 49.105 58.7046 49.4418M98.918 37.0332C98.918 37.0332 97.7081 37.5163 96.4983 37.9993" stroke="#AA7C6D" stroke-width="0.42437"/>
<path d="M95.5274 42.5949C86.9365 45.9804 81.9556 47.6189 72.6863 50.0312M69.686 50.9485C66.6857 51.8659 61.3633 52.5882 58.4117 52.925M100.996 40.1309C100.996 40.1309 99.1569 41.1457 97.9471 41.6288" stroke="#AA7C6D" stroke-width="0.42437"/>
<path d="M37.9584 49.7389C37.443 53.1752 40.9779 57.0134 40.9779 57.0134L49.9604 56.5949L58.9081 54.4861C58.9081 54.4861 59.7473 52.8798 59.4784 51.2199C59.2136 49.5847 58.5971 47.8688 57.6598 46.5172C55.8519 43.9106 54.7872 42.9874 51.8869 41.7828C49.2927 40.7053 47.0097 40.5175 44.3555 41.4497C40.7013 42.7332 38.5425 45.8441 37.9584 49.7389Z" fill="#B4836E"/>
<path d="M81.7584 77.0385L80.0821 79.3595C79.4434 80.2439 79.3488 81.4099 79.8367 82.3857C80.2236 83.1595 80.9326 83.7228 81.7738 83.9247L85.1553 84.7362C86.6322 85.0907 88.1898 84.8283 89.4691 84.0096L92.4673 82.0907C93.7255 81.2854 94.4867 79.8945 94.4867 78.4007C94.4867 77.7605 94.3464 77.1281 94.0757 76.548L93.7007 75.7443C92.9811 74.2024 91.4336 73.2168 89.732 73.2168C89.1633 73.2168 88.6001 73.3275 88.0738 73.5429L84.1712 75.1394C83.2053 75.5345 82.3694 76.1924 81.7584 77.0385Z" fill="white"/>
<path d="M90.2841 82.0207L92.8729 78.4959C93.332 77.8709 93.4747 77.0682 93.2592 76.3233C93.1016 75.7785 92.7632 75.3035 92.2998 74.9766L91.9086 74.7005C91.2155 74.2115 90.3376 74.0641 89.5228 74.2998L87.1705 74.9803L83.8937 75.9283C83.391 76.0737 82.9393 76.3575 82.59 76.7473L81.5056 77.9576C80.8631 78.6747 80.6354 79.6721 80.9029 80.597L81.1379 81.4093C81.5016 82.6665 82.6897 83.5024 83.9959 83.4201L88.2092 83.1546C89.0346 83.1025 89.7945 82.6873 90.2841 82.0207Z" fill="#3E2121"/>
<circle opacity="0.8" cx="86.3327" cy="76.6938" r="1.5616" transform="rotate(15 86.3327 76.6938)" fill="white"/>
<circle opacity="0.8" cx="90.9734" cy="79.5376" r="1.5616" transform="rotate(15 90.9734 79.5376)" fill="white"/>
<circle opacity="0.8" cx="85.6321" cy="81.7212" r="0.896653" transform="rotate(15 85.6321 81.7212)" fill="white"/>
<path d="M83.7452 84.5934L82.3315 85.5532C81.9021 85.8447 81.9321 86.4869 82.3868 86.7372C82.4978 86.7983 82.6235 86.8279 82.7501 86.8227L87.0407 86.6488C87.632 86.6248 88.2158 86.507 88.7701 86.2998L92.5444 84.8888C92.864 84.7693 93.0593 84.4454 93.0157 84.107C92.9869 83.883 92.8566 83.6847 92.6625 83.5693L92.0107 83.1818C91.5705 82.9201 91.0553 82.8135 90.5473 82.8788L88.9783 83.0808C88.7042 83.1161 88.4331 83.1716 88.1672 83.2471L84.2483 84.3587C84.0691 84.4095 83.8993 84.4888 83.7452 84.5934Z" fill="#C7F1FF"/>
<path d="M116.632 68.9169L118.64 70.2543C119.465 70.8043 119.902 71.7796 119.762 72.7618C119.655 73.5081 119.227 74.1703 118.591 74.5739L115.899 76.2797C114.661 77.0645 113.163 77.3309 111.73 77.0214L108.59 76.3432C107.303 76.065 106.252 75.1383 105.814 73.8956C105.624 73.354 105.559 72.7762 105.624 72.2057L105.703 71.5153C105.883 69.9402 106.947 68.6064 108.442 68.0801C108.931 67.9081 109.448 67.8294 109.966 67.848L113.737 67.9837C114.77 68.0209 115.772 68.3439 116.632 68.9169Z" fill="white"/>
<path d="M110.384 68.8989L106.894 71.4316C106.313 71.8534 105.969 72.528 105.969 73.2461C105.969 73.7771 106.157 74.2909 106.501 74.696L106.799 75.0477C107.33 75.6734 108.108 76.0342 108.929 76.0342H111.385H114.79C115.289 76.0342 115.779 75.9005 116.208 75.6471L117.511 74.8788C118.363 74.3767 118.885 73.4619 118.885 72.4735V72.0119C118.885 70.6906 117.959 69.5502 116.666 69.279L112.597 68.4259C111.825 68.2641 111.022 68.4359 110.384 68.8989Z" fill="#3E2121"/>
<ellipse opacity="0.8" cx="110.492" cy="70.4111" rx="1.40224" ry="1.60255" fill="white"/>
<circle opacity="0.8" cx="115.901" cy="74.0181" r="0.801277" fill="white"/>
<ellipse opacity="0.8" cx="111.896" cy="75.0175" rx="1.60255" ry="1.40224" fill="white"/>
<path d="M115.396 76.068L114.668 76.7623C114.453 76.9677 114.539 77.3289 114.823 77.416C114.889 77.436 114.958 77.4384 115.025 77.4229L117.503 76.8463C117.838 76.7686 118.158 76.6405 118.454 76.4665L120.514 75.2544C120.678 75.158 120.753 74.9609 120.695 74.7801C120.656 74.6583 120.561 74.5622 120.44 74.5208L120.005 74.3719C119.735 74.2793 119.442 74.2767 119.17 74.3645L118.302 74.6446C118.119 74.7036 117.94 74.7755 117.767 74.8598L115.642 75.8965C115.552 75.9407 115.469 75.9985 115.396 76.068Z" fill="#C7F1FF"/>
<path d="M144.666 76.9352L142.121 73.2747C149.986 73.4416 148.911 78.0443 147.069 81.8688L161.791 103.04L160.307 104.072L143.384 79.7348L144.666 76.9352Z" fill="#ACACAC"/>
<path d="M140.313 79.96L137.767 76.2995C135.185 83.7306 139.875 84.3252 144.101 83.9304L158.822 105.102L160.306 104.07L143.384 79.7327L140.313 79.96Z" fill="#ACACAC"/>
<path d="M159.162 107.071L161.707 110.731C153.842 110.564 154.917 105.962 156.759 102.137L142.038 80.9655L143.522 79.9336L160.444 104.271L159.162 107.071Z" fill="#ACACAC"/>
<path d="M163.515 104.044L166.061 107.704C168.643 100.273 163.954 99.6787 159.727 100.073L145.006 78.9019L143.522 79.9337L160.445 104.271L163.515 104.044Z" fill="#ACACAC"/>
</g>
<mask id="mask2_1122_16868" style="mask-type:alpha" maskUnits="userSpaceOnUse" x="0" y="0" width="160" height="160">
<circle cx="80" cy="80" r="80" fill="#D9D9D9"/>
</mask>
<g mask="url(#mask2_1122_16868)">
</g>
<defs>
<linearGradient id="paint0_linear_1122_16868" x1="51.7453" y1="142.25" x2="-31.2334" y2="150.341" gradientUnits="userSpaceOnUse">
<stop stop-color="#503030"/>
<stop offset="1" stop-color="#352020"/>
</linearGradient>
<radialGradient id="paint1_radial_1122_16868" cx="0" cy="0" r="1" gradientTransform="matrix(55.6463 7.60475 -4.72455 36.8788 -14.8424 140.826)" gradientUnits="userSpaceOnUse">
<stop stop-color="#784242"/>
<stop offset="1" stop-color="#523535"/>
</radialGradient>
<linearGradient id="paint2_linear_1122_16868" x1="-12.3357" y1="116.059" x2="-8.82559" y2="157.859" gradientUnits="userSpaceOnUse">
<stop stop-color="#303030"/>
<stop offset="1"/>
</linearGradient>
<linearGradient id="paint3_linear_1122_16868" x1="-1.25101" y1="111.62" x2="3.03912" y2="162.709" gradientUnits="userSpaceOnUse">
<stop stop-color="#303030"/>
<stop offset="1"/>
</linearGradient>
<linearGradient id="paint4_linear_1122_16868" x1="9.3801" y1="115.404" x2="13.5727" y2="165.332" gradientUnits="userSpaceOnUse">
<stop stop-color="#303030"/>
<stop offset="1"/>
</linearGradient>
<linearGradient id="paint5_linear_1122_16868" x1="19.6386" y1="121.559" x2="23.4412" y2="166.842" gradientUnits="userSpaceOnUse">
<stop stop-color="#303030"/>
<stop offset="1"/>
</linearGradient>
<linearGradient id="paint6_linear_1122_16868" x1="31.213" y1="122.925" x2="35.0157" y2="168.209" gradientUnits="userSpaceOnUse">
<stop stop-color="#303030"/>
<stop offset="1"/>
</linearGradient>
<linearGradient id="paint7_linear_1122_16868" x1="42.7888" y1="124.292" x2="46.5914" y2="169.575" gradientUnits="userSpaceOnUse">
<stop stop-color="#303030"/>
<stop offset="1"/>
</linearGradient>
<linearGradient id="paint8_linear_1122_16868" x1="54.363" y1="125.659" x2="58.1656" y2="170.942" gradientUnits="userSpaceOnUse">
<stop stop-color="#303030"/>
<stop offset="1"/>
</linearGradient>
<linearGradient id="paint9_linear_1122_16868" x1="65.9372" y1="127.026" x2="69.7398" y2="172.309" gradientUnits="userSpaceOnUse">
<stop stop-color="#303030"/>
<stop offset="1"/>
</linearGradient>
<linearGradient id="paint10_linear_1122_16868" x1="1.35782" y1="81.8094" x2="58.6614" y2="134.78" gradientUnits="userSpaceOnUse">
<stop stop-color="#303030"/>
<stop offset="1"/>
</linearGradient>
<linearGradient id="paint11_linear_1122_16868" x1="1.85739" y1="97.8781" x2="61.3554" y2="152.878" gradientUnits="userSpaceOnUse">
<stop stop-color="#303030"/>
<stop offset="1"/>
</linearGradient>
<linearGradient id="paint12_linear_1122_16868" x1="-7.41961" y1="106.08" x2="50.7057" y2="159.81" gradientUnits="userSpaceOnUse">
<stop stop-color="#303030"/>
<stop offset="1"/>
</linearGradient>
<linearGradient id="paint13_linear_1122_16868" x1="-12.6057" y1="115.208" x2="41.4061" y2="165.136" gradientUnits="userSpaceOnUse">
<stop stop-color="#303030"/>
<stop offset="1"/>
</linearGradient>
<linearGradient id="paint14_linear_1122_16868" x1="-22.6339" y1="124.543" x2="27.1615" y2="170.574" gradientUnits="userSpaceOnUse">
<stop stop-color="#303030"/>
<stop offset="1"/>
</linearGradient>
<linearGradient id="paint15_linear_1122_16868" x1="-29.2007" y1="135.376" x2="16.2321" y2="177.374" gradientUnits="userSpaceOnUse">
<stop stop-color="#303030"/>
<stop offset="1"/>
</linearGradient>
<linearGradient id="paint16_linear_1122_16868" x1="-35.5724" y1="145.996" x2="3.58798" y2="182.195" gradientUnits="userSpaceOnUse">
<stop stop-color="#303030"/>
<stop offset="1"/>
</linearGradient>
<linearGradient id="paint17_linear_1122_16868" x1="149.64" y1="86.3213" x2="133.116" y2="115.297" gradientUnits="userSpaceOnUse">
<stop stop-color="#C18C76"/>
<stop offset="1" stop-color="#612824"/>
</linearGradient>
<linearGradient id="paint18_linear_1122_16868" x1="117.547" y1="52.9527" x2="63.7412" y2="184.504" gradientUnits="userSpaceOnUse">
<stop stop-color="#CD9F84"/>
<stop offset="0.723876" stop-color="#8A5448"/>
</linearGradient>
<linearGradient id="paint19_linear_1122_16868" x1="143.364" y1="148.028" x2="155.652" y2="161.652" gradientUnits="userSpaceOnUse">
<stop stop-color="#A36959"/>
<stop offset="1" stop-color="#925C4F"/>
</linearGradient>
<linearGradient id="paint20_linear_1122_16868" x1="82.5895" y1="169.352" x2="120.635" y2="150.306" gradientUnits="userSpaceOnUse">
<stop stop-color="#8B5448"/>
<stop offset="1" stop-color="#BF8174"/>
</linearGradient>
<linearGradient id="paint21_linear_1122_16868" x1="108.725" y1="143.609" x2="128.185" y2="50.421" gradientUnits="userSpaceOnUse">
<stop stop-color="#6B2C2C"/>
<stop offset="1" stop-color="#533636"/>
</linearGradient>
<linearGradient id="paint22_linear_1122_16868" x1="54.3795" y1="124.59" x2="111.216" y2="145.045" gradientUnits="userSpaceOnUse">
<stop stop-color="#8F594C"/>
<stop offset="1" stop-color="#E1AC90"/>
</linearGradient>
<linearGradient id="paint23_linear_1122_16868" x1="104.282" y1="84.6742" x2="102.703" y2="74.3552" gradientUnits="userSpaceOnUse">
<stop stop-color="#874E4E"/>
<stop offset="1" stop-color="#482222" stop-opacity="0"/>
</linearGradient>
<linearGradient id="paint24_linear_1122_16868" x1="47.0124" y1="45.0433" x2="113.158" y2="35.0539" gradientUnits="userSpaceOnUse">
<stop stop-color="#C1958F"/>
<stop offset="1" stop-color="#DBBFBB"/>
</linearGradient>
<linearGradient id="paint25_linear_1122_16868" x1="41.0919" y1="28.6058" x2="54.3492" y2="6.02381" gradientUnits="userSpaceOnUse">
<stop stop-color="#D6B3AE"/>
<stop offset="1" stop-color="#E4D1C2"/>
</linearGradient>
</defs>
</svg>
