<svg width="628" height="272" viewBox="0 0 628 272" fill="none" xmlns="http://www.w3.org/2000/svg">
<path opacity="0.32" d="M131.138 109.656C158.537 114.286 66.7083 118.835 50.9426 118.432C98.861 128.301 168.972 115.899 169.099 108.116C169.227 100.333 109.769 102.938 106.964 94.554C104.159 86.1701 226.688 106.466 225.242 72.562C223.795 38.6584 64.7973 64.7401 64.9865 53.2097C65.1756 41.6792 160.704 52.1495 157.002 26.7502C152.136 -6.6328 10.2723 26.5128 -12.9992 15.3114C-52.6358 -3.76694 -117.275 26.1438 -129.057 0C-122.262 32.4054 -49.4797 2.35733 -14.6057 20.1869C12.4888 34.039 99.0813 20.7835 104.195 26.4606C117.111 40.8011 -13.3289 35.4134 -13.5997 51.9206C-14.082 81.3233 163.299 61.5982 163.034 77.7408C162.807 91.562 71.7216 79.9593 71.4917 93.9721C71.4042 99.305 116.287 107.146 131.138 109.656Z" fill="white"/>
<path d="M-111.141 237.413C-111.141 237.413 10.8594 187.139 257 205.639C401.702 216.515 594 274.5 594 274.5C594 274.5 629.844 292.408 627.657 298.891C625.469 305.373 625.469 317.341 625.469 317.341C625.469 317.341 477.71 315.193 257 315.193C36.2907 315.193 -111.141 355.639 -111.141 355.639V237.413Z" fill="url(#paint0_linear_9777_6660)"/>
<path d="M-111.141 237.413C-111.141 237.413 10.8594 187.139 257 205.639C401.702 216.515 594 274.5 594 274.5C594 274.5 629.844 292.408 627.657 298.891C625.469 305.373 625.469 317.341 625.469 317.341C625.469 317.341 477.71 315.193 257 315.193C36.2907 315.193 -111.141 355.639 -111.141 355.639V237.413Z" fill="url(#paint1_linear_9777_6660)"/>
<path d="M34.707 104.724C34.7467 104.639 34.7214 104.562 34.6658 104.487C34.5215 104.291 34.1748 104.119 34.2258 103.868C34.2933 103.527 34.6322 103.441 34.5277 103.041C34.5254 103.032 34.5228 103.024 34.52 103.015C34.3962 102.626 34.5759 102.187 34.3959 102.036C34.2166 101.89 34.6571 101.782 34.504 101.554C34.4138 101.424 34.3807 101.311 34.3913 101.223C34.3978 101.161 34.4191 101.091 34.4407 100.999C34.5138 100.803 34.2337 100.303 33.9214 100.228L33.9767 100.259C33.9363 100.256 33.8992 100.257 33.8655 100.265C33.57 100.333 33.4261 99.9487 33.2842 99.8546C33.2774 99.8496 33.2707 99.8446 33.2651 99.8396C33.2628 99.8399 33.2559 99.8383 33.2536 99.8383C33.1984 99.8083 33.1654 99.7669 33.1488 99.7311C33.14 99.7125 33.1454 99.6831 33.1563 99.6565C33.1563 99.6564 33.1563 99.6564 33.1563 99.6564C33.1699 99.6232 33.1934 99.5948 33.2106 99.5968C33.2372 99.5998 33.2643 99.5973 33.2923 99.586C33.3837 99.56 33.4966 99.5322 33.6376 99.4824C33.9757 99.3701 33.9722 99.564 34.2501 99.6458C34.2626 99.6541 34.3034 99.6718 34.314 99.6825C34.3521 99.7037 34.3967 99.725 34.4502 99.747C34.8594 99.9196 35.3289 100.014 35.4523 100.674C35.4627 100.745 35.477 100.806 35.4954 100.862C35.6146 101.267 36.129 101.309 35.9043 101.989C35.733 102.469 35.9547 102.62 36.1852 102.863C36.3105 102.985 36.4401 103.127 36.4986 103.378C36.5744 103.704 36.5366 104.072 36.4783 104.402C36.4104 104.786 36.3164 105.134 36.3398 105.351C36.3833 105.754 36.4753 106.294 36.3851 106.866C36.3533 107.067 36.3616 107.284 36.3779 107.51C36.4076 107.922 36.4637 108.36 36.3509 108.763C36.1769 109.386 35.9501 110.263 35.801 110.666C35.652 111.07 35.6181 111.168 35.6953 111.561C35.7397 111.787 35.6862 112.095 35.4988 112.353C35.4045 112.482 35.278 112.45 35.2201 112.316C35.1356 112.12 35.1986 111.962 35.0419 111.859C34.7288 111.653 34.6088 111.565 34.7992 111.318C34.9896 111.07 34.572 110.943 34.6235 110.797C34.6748 110.652 34.9231 110.659 34.7465 109.91C34.5694 109.163 34.5258 108.755 34.4833 108.474C34.4512 108.262 34.5692 107.877 34.5947 107.505C34.603 107.384 34.6016 107.265 34.5824 107.153C34.5056 106.698 34.5636 105.773 34.4247 105.406C34.2869 105.04 34.5638 105.03 34.707 104.724Z" fill="#427AC0"/>
<path d="M40.1335 104.528C40.3054 104.269 39.6351 104.015 39.7525 103.694C39.8699 103.373 40.2355 103.347 40.178 102.966C40.1474 102.764 40.2109 102.565 40.2563 102.398C40.296 102.252 40.3221 102.128 40.2585 102.043C40.1226 101.862 40.5735 101.88 40.4942 101.631C40.4158 101.381 40.4895 101.232 40.6642 101.033C40.7434 100.943 40.8351 100.755 40.912 100.566C40.9128 100.543 40.9463 100.488 40.9555 100.467C41.1277 100.277 41.3017 100.076 41.3517 99.9023C41.4144 99.6715 41.7065 99.6262 41.9165 99.666C41.9247 99.661 41.9529 99.6569 41.9618 99.6535C42.0549 99.6816 42.1139 99.7222 42.1641 99.7418C42.2175 99.7637 42.2565 99.7956 42.2866 99.8285C42.2992 99.8424 42.305 99.8716 42.3049 99.9005C42.3049 99.9005 42.3049 99.9005 42.3049 99.9005C42.3049 99.9364 42.2957 99.9716 42.2795 99.9761C42.2171 99.9947 42.107 100.038 42.05 100.141L42.0908 100.129C42.082 100.151 42.0739 100.175 42.0677 100.2C42.0217 100.497 41.8565 100.28 41.7307 100.583C41.686 100.71 41.6839 100.839 41.6725 100.956L41.7581 100.761C41.7982 100.93 41.8167 101.065 41.6976 101.274C41.4931 101.648 42.1583 101.797 41.735 102.339C41.6925 102.396 41.6616 102.445 41.64 102.493C41.4484 102.918 42.0199 103.058 42.0709 103.584C42.1278 104.17 41.6928 104.879 41.7019 105.232C41.7101 105.544 41.7507 105.952 41.6718 106.382C41.6615 106.438 41.6491 106.495 41.6344 106.552C41.5071 107.042 41.6972 107.672 41.4911 108.208C41.2851 108.744 41.0174 109.502 40.85 109.848C40.6826 110.195 40.6443 110.279 40.7036 110.63C40.7376 110.831 40.6703 111.1 40.4716 111.316C40.3716 111.424 40.2468 111.388 40.1951 111.267C40.1195 111.09 40.1895 110.955 40.0378 110.855C39.7345 110.655 39.6187 110.572 39.82 110.364C40.0213 110.157 39.6104 110.021 39.6684 109.896C39.7265 109.77 39.9736 109.791 39.8329 109.121C39.692 108.451 39.6698 108.089 39.6423 107.837C39.6148 107.586 39.8669 107.083 39.8178 106.674C39.8041 106.559 39.8042 106.413 39.8091 106.254C39.8218 105.845 39.8657 105.353 39.79 105.108C39.6848 104.769 39.9615 104.786 40.1335 104.528Z" fill="#427AC0"/>
<path fill-rule="evenodd" clip-rule="evenodd" d="M28.319 114.89C29.3724 110.576 34.7232 107.418 39.3086 108.537C44.3664 109.772 46.7578 114.062 45.7044 118.376C45.1639 120.589 43.6962 122.346 41.7766 123.384C41.8492 125.805 42.5898 125.507 42.5704 124.715C43.4717 126.543 43.8234 128.718 43.4649 130.944C44.3136 131.657 45.0238 132.535 45.5652 133.53C47.1032 131.309 50.1057 130.178 53.1329 130.918C55.1467 131.409 56.7683 132.631 57.7297 134.182C59.1479 133.556 60.8543 133.381 62.5744 133.801C64.7087 134.322 66.4012 135.646 67.3142 137.29C68.2476 137.104 69.2519 137.114 70.2594 137.36C72.5857 137.928 74.3222 139.598 74.934 141.58C75.1815 141.599 75.4304 141.638 75.6789 141.698C78.2414 142.324 79.7883 145.005 79.1335 147.687C78.4788 150.368 75.8707 152.035 73.3083 151.409C71.7944 151.04 70.635 149.952 70.0748 148.572C69.2654 148.678 68.4119 148.639 67.5565 148.43C65.7762 147.995 64.3425 146.915 63.493 145.544C62.319 145.851 61.0157 145.877 59.7039 145.557C57.8939 145.115 56.402 144.096 55.4331 142.794C53.9008 143.629 51.9927 143.912 50.0741 143.444C48.5893 143.081 47.3185 142.321 46.3672 141.325C44.942 146.42 40.1283 149.595 35.448 148.452C30.9197 147.346 28.1422 142.596 28.9472 137.599C26.2847 135.362 24.9937 131.485 25.9483 127.575C26.1749 126.647 26.5147 125.78 26.9437 124.986C26.1776 124.712 25.7096 124.133 25.6864 123.101C25.6368 120.88 26.5367 118.443 28.1367 116.442C28.1323 115.934 28.1907 115.416 28.319 114.89Z" fill="url(#paint2_linear_9777_6660)"/>
<path fill-rule="evenodd" clip-rule="evenodd" d="M39.9923 110.08C44.264 110.072 46.4785 113.402 46.2668 118.348C46.1796 120.385 45.5693 122.239 44.6145 123.706C45.4577 125.155 45.9484 126.925 45.9325 128.836C45.9268 129.522 45.854 130.19 45.7257 130.83C46.8453 131.683 47.7799 132.853 48.3817 134.275C48.7241 135.085 48.9305 135.915 49.0165 136.738C49.6972 136.841 50.3828 137.032 51.0542 137.32C54.8186 138.932 56.7237 142.916 55.3096 146.218C53.8952 149.521 49.6968 150.892 45.9322 149.279C43.8853 148.403 42.3894 146.824 41.6766 145.036C38.8256 144.886 36.0875 143.008 34.8202 140.013C34.2177 138.589 34.0285 137.101 34.1966 135.702C32.4881 134.081 31.3985 131.551 31.422 128.716C31.4409 126.452 32.1644 124.394 33.3382 122.846C32.6921 121.435 32.3551 119.751 32.4328 117.934C32.6609 112.607 36.146 109.915 39.9923 110.08Z" fill="#D5F5EA"/>
<ellipse cx="37.3069" cy="117.278" rx="0.80099" ry="1.06584" transform="rotate(3.99088 37.3069 117.278)" fill="#4F2F22"/>
<ellipse cx="0.80099" cy="1.06584" rx="0.80099" ry="1.06584" transform="matrix(-0.999892 -0.0146896 -0.0146896 0.999892 45.1729 116.198)" fill="#4F2F22"/>
<path d="M41.6591 120.108C41.8072 120.123 41.9625 120.06 42.0934 119.921C42.2243 119.782 42.3228 119.573 42.349 119.327C42.3751 119.08 42.3227 118.855 42.2239 118.692C42.1252 118.528 41.9866 118.434 41.8386 118.418C41.6906 118.402 41.5361 118.466 41.4053 118.605C41.2743 118.744 41.1749 118.953 41.1487 119.199C41.1225 119.446 41.1759 119.671 41.2747 119.834C41.3734 119.997 41.5112 120.092 41.6591 120.108Z" stroke="black" stroke-width="0.340535"/>
<mask id="mask0_9777_6660" style="mask-type:alpha" maskUnits="userSpaceOnUse" x="5" y="138" width="87" height="52">
<path fill-rule="evenodd" clip-rule="evenodd" d="M5.66981 174.845C4.47684 170.809 25.4583 139.575 49.3466 138.856C78.842 137.969 90.8711 170.002 91.362 177.747C91.4087 177.865 91.4523 177.984 91.4875 178.104C91.4524 178.236 91.4122 178.366 91.3708 178.495C91.37 178.509 91.3708 178.522 91.3699 178.535C91.366 178.592 91.3418 178.644 91.303 178.696C87.8357 188.58 65.4416 189.197 46.9979 189.577C30.3544 189.921 6.12496 185.134 5.66981 174.845Z" fill="#FF8CC7"/>
</mask>
<g mask="url(#mask0_9777_6660)">
<path fill-rule="evenodd" clip-rule="evenodd" d="M5.66982 174.845C4.47711 170.808 25.4585 139.575 49.3466 138.856C78.8419 137.968 90.871 170.001 91.362 177.746C91.4088 177.864 91.4523 177.983 91.4875 178.103C91.4524 178.235 91.4122 178.365 91.3708 178.495C91.37 178.508 91.3708 178.521 91.3699 178.535C91.366 178.592 91.342 178.645 91.3025 178.698C87.8329 188.58 65.4404 189.196 46.9979 189.577C30.3544 189.92 6.12485 185.133 5.66982 174.845Z" fill="url(#paint3_radial_9777_6660)"/>
<path opacity="0.54" d="M3.72984 166.805C30.3437 170.162 82.283 164.354 80.8784 145.241L103.982 174.808L75.981 195.118L6.29578 196.464C-32.418 182.534 -42.1672 161.015 3.72984 166.805Z" fill="#AB1F43"/>
<path d="M68.5255 153.886C66.7978 156.986 62.107 157.175 58.1503 154.97C54.1936 152.765 52.4694 149.001 54.1971 145.901C55.9249 142.801 60.8258 142.089 64.7825 144.294C68.7392 146.499 70.2533 150.786 68.5255 153.886Z" fill="#F8E2E6"/>
<path d="M20.6745 161.017C21.2407 162.129 20.3516 163.547 18.9044 164.284C17.4572 165.021 16 164.797 15.4337 163.685C14.8675 162.573 15.6448 160.991 17.092 160.254C18.5392 159.517 20.1082 159.905 20.6745 161.017Z" fill="#F8E2E6"/>
<path d="M47.8501 144.263C48.0176 145.5 46.7099 146.546 45.1006 146.764C43.4913 146.982 42.1896 146.289 42.0222 145.053C41.8548 143.816 43.1109 142.579 44.7203 142.361C46.3296 142.143 47.6827 143.027 47.8501 144.263Z" fill="#F8E2E6"/>
<path d="M74.7138 155.166C74.1807 156.045 72.9628 156.136 72.0014 155.553C71.04 154.97 70.6991 153.934 71.2322 153.055C71.7652 152.176 73.052 151.938 74.0134 152.521C74.9748 153.104 75.2468 154.287 74.7138 155.166Z" fill="#F8E2E6"/>
<path d="M37.6573 150.075C39.1724 152.698 37.1691 156.268 33.7218 158.259C30.2746 160.25 26.6887 159.908 25.1737 157.284C23.6586 154.661 25.3696 150.709 28.8169 148.718C32.2641 146.727 36.1423 147.451 37.6573 150.075Z" fill="#F8E2E6"/>
<path d="M83.537 166.691C82.4957 168.125 80.0665 167.871 78.1317 166.465C76.197 165.06 75.4894 163.035 76.5306 161.602C77.5719 160.168 80.1348 160.175 82.0695 161.58C84.0043 162.985 84.5782 165.258 83.537 166.691Z" fill="#F8E2E6"/>
<path d="M83.537 166.691C82.4957 168.125 80.0665 167.871 78.1317 166.465C76.197 165.06 75.4894 163.035 76.5306 161.602C77.5719 160.168 80.1348 160.175 82.0695 161.58C84.0043 162.985 84.5782 165.258 83.537 166.691Z" fill="#F8E2E6"/>
<path fill-rule="evenodd" clip-rule="evenodd" d="M46.5524 155.807C47.7121 154.568 49.2634 154.08 50.4136 154.721C51.8667 155.532 52.2394 157.625 51.1061 159.657C50.764 160.27 50.3224 160.805 49.8346 161.235L49.8834 161.235L46.5998 164.317L43.2461 161.255L43.2578 161.255C42.7661 160.797 42.3096 160.245 41.9363 159.625C40.7354 157.633 41.2795 155.714 42.6941 154.861C43.8079 154.19 45.3568 154.621 46.5524 155.807Z" fill="#F8E2E6"/>
</g>
<path d="M87.3771 177.992C84.3758 184.905 64.0888 186.458 49.1348 187.154C35.6476 187.782 11.7875 181.364 9.74509 176.004C12.2665 171.544 35.2228 168.453 48.9972 168.278C62.183 168.111 84.7869 173.014 87.3771 177.992Z" fill="#EDC3C3"/>
<path d="M69.0198 179.764C68.9585 183.655 59.7348 185.841 49.1866 185.674C38.6384 185.508 28.3168 182.963 28.3782 179.072C28.4395 175.181 38.6764 172.06 49.2246 172.226C59.7728 172.393 69.0812 175.873 69.0198 179.764Z" fill="#A73552"/>
<mask id="mask1_9777_6660" style="mask-type:alpha" maskUnits="userSpaceOnUse" x="35" y="176" width="26" height="50">
<path d="M56.5453 223.337C63.2149 215.874 58.7521 182.15 56.6518 178.148C54.951 175.565 43.777 175.786 41.7716 178.669C41.42 190.258 42.0601 195.168 39.7473 205.374C38.016 213.014 34.7915 220.953 35.7514 223.288C36.532 225.187 52.399 227.976 56.5453 223.337Z" fill="url(#paint4_linear_9777_6660)"/>
</mask>
<g mask="url(#mask1_9777_6660)">
<path d="M56.5453 223.337C63.2149 215.874 58.7521 182.15 56.6518 178.148C54.951 175.565 43.777 175.786 41.7716 178.669C41.42 190.258 42.0601 195.168 39.7473 205.374C38.016 213.014 34.7915 220.953 35.7514 223.288C36.532 225.187 52.399 227.976 56.5453 223.337Z" fill="url(#paint5_linear_9777_6660)"/>
<path opacity="0.26" d="M67.8993 226.751C74.1425 217.802 69.7253 179.338 67.4048 174.863C65.5622 171.993 52.4668 171.399 50.6252 174.823C53.6297 186.165 53.7098 205.509 50.5315 214.623C46.9494 224.894 36.1293 230.536 32.0351 234.216C30.3155 235.762 64.0181 232.315 67.8993 226.751Z" fill="#F67B6A"/>
</g>
<path d="M35.4159 234.5C34.8968 233.705 30.7228 216.012 32.8329 208.278C36.0326 196.55 38.5072 221.189 38.1466 224.083C39.1741 216.909 41.5192 204.306 42.6795 211.29C43.8397 218.274 43.8242 223.188 43.6713 224.772C45.8223 217.514 50.7366 204.733 53.1859 211.664C54.8066 216.25 55.2635 219.88 55.2683 222.248C56.2803 212.248 58.2769 197.188 59.857 201.007C61.5817 205.176 59.78 214.133 58.6635 218.09C60.0761 214.615 62.9806 208.529 63.2977 211.989C63.6147 215.448 59.5497 228.196 56.8114 233.02C50.9694 233.806 38.3772 239.037 35.4159 234.5Z" fill="url(#paint6_linear_9777_6660)"/>
<path d="M170.882 58.9759C166.982 56.2251 159.149 55.5526 159.149 55.5526C159.149 55.5526 129.428 42.6633 124.086 55.2718C123.189 57.3898 121.722 58.8853 122.658 60.9862C123.715 63.3565 127.39 61.302 128.824 63.4647C129.812 64.953 128.728 66.4395 129.665 67.9603C130.982 70.0979 132.886 70.4437 135.337 70.9851C137.907 71.5525 139.474 70.0372 142.06 70.5223C145.144 71.1008 146.283 73.0293 149.151 74.3032C159.693 78.9858 173.819 89.3511 178.352 78.7441C181.596 71.1553 177.627 63.732 170.882 58.9759Z" fill="#9849BD"/>
<mask id="mask2_9777_6660" style="mask-type:alpha" maskUnits="userSpaceOnUse" x="122" y="49" width="58" height="35">
<path d="M170.882 58.9757C166.982 56.2249 159.149 55.5523 159.149 55.5523C159.149 55.5523 129.428 42.6631 124.086 55.2716C123.189 57.3896 121.722 58.8851 122.658 60.9859C123.715 63.3563 127.39 61.3018 128.824 63.4644C129.812 64.9528 128.728 66.4393 129.665 67.9601C130.982 70.0977 132.886 70.4435 135.337 70.9848C137.907 71.5522 139.474 70.037 142.06 70.5221C145.144 71.1006 146.283 73.0291 149.151 74.303C159.693 78.9856 173.819 89.3508 178.352 78.7438C181.596 71.1551 177.627 63.7317 170.882 58.9757Z" fill="#9849BD"/>
</mask>
<g mask="url(#mask2_9777_6660)">
<path fill-rule="evenodd" clip-rule="evenodd" d="M162.311 63.3566C161.593 63.3316 161.541 62.2965 162.118 61.8686C162.493 61.591 162.838 61.2656 163.146 60.8928C165.387 58.1788 164.787 53.9839 161.807 51.5233C160.636 50.5565 159.271 50.0013 157.91 49.848C157.217 49.77 156.816 48.9065 157.425 48.5653C160.174 47.0236 163.887 47.3584 166.676 49.6612C170.213 52.5807 170.924 57.5576 168.265 60.7776C166.789 62.5654 164.585 63.4358 162.311 63.3566Z" fill="#DC76DE"/>
<path fill-rule="evenodd" clip-rule="evenodd" d="M165.769 67.4093C165.119 67.111 165.461 66.1623 166.16 66.0144C166.703 65.8998 167.238 65.7152 167.756 65.4567C171.118 63.7773 172.443 59.6129 170.716 56.1553C170.045 54.8119 169.012 53.7728 167.802 53.1029C167.183 52.7599 167.148 51.7777 167.851 51.6937C171.176 51.2965 174.577 53.0448 176.198 56.2896C178.247 60.3918 176.675 65.3326 172.686 67.3252C170.444 68.4448 167.917 68.3953 165.769 67.4093Z" fill="#DC76DE"/>
<path fill-rule="evenodd" clip-rule="evenodd" d="M169.839 72.1033C169.283 71.6539 169.848 70.8189 170.562 70.8482C171.116 70.8709 171.681 70.8243 172.246 70.7015C175.919 69.9039 178.231 66.1956 177.411 62.4187C177.092 60.9512 176.347 59.6892 175.34 58.7414C174.825 58.2562 175.033 57.2957 175.735 57.3879C179.056 57.8238 181.92 60.3575 182.69 63.902C183.663 68.3831 180.92 72.7828 176.562 73.7291C174.114 74.2608 171.677 73.589 169.839 72.1033Z" fill="#DC76DE"/>
</g>
<path d="M120.491 57.9622C121.282 57.2859 122.081 57.5575 123.081 57.7326C125.195 58.1025 126.784 59.3612 127.096 61.4843C127.218 62.3154 127.434 62.9876 126.88 63.6244C126.443 64.1279 125.318 64.2409 125.318 64.2409C125.318 64.2409 123.771 64.5176 123.369 63.846C123.06 63.3302 123.437 62.2716 123.437 62.2716C123.437 62.2716 122.064 62.7982 121.595 62.2556C121.217 61.8182 121.476 60.7426 121.476 60.7426C121.476 60.7426 120.126 60.8713 119.714 60.2864C119.182 59.5296 119.767 58.5809 120.491 57.9622Z" fill="#DC76DE"/>
<path d="M128.305 65.3186C129.097 64.6423 129.895 64.914 130.896 65.089C133.009 65.459 134.598 66.7177 134.911 68.8408C135.033 69.6718 135.248 70.344 134.695 70.9809C134.258 71.4843 133.132 71.5973 133.132 71.5973C133.132 71.5973 131.585 71.8741 131.183 71.2024C130.875 70.6867 131.252 69.628 131.252 69.628C131.252 69.628 129.878 70.1546 129.409 69.6121C129.031 69.1747 129.291 68.0991 129.291 68.0991C129.291 68.0991 127.94 68.2277 127.529 67.6428C126.996 66.886 127.581 65.9373 128.305 65.3186Z" fill="#DC76DE"/>
<mask id="mask3_9777_6660" style="mask-type:alpha" maskUnits="userSpaceOnUse" x="70" y="62" width="111" height="72">
<path fill-rule="evenodd" clip-rule="evenodd" d="M70.8442 96.6803C70.4536 91.139 106.385 56.8506 137.38 62.7216C175.642 69.9691 182.035 114.664 180.467 124.797C180.494 124.964 180.514 125.131 180.525 125.297C180.443 125.457 180.355 125.614 180.265 125.769C180.26 125.786 180.257 125.804 180.252 125.821C180.23 125.894 180.184 125.957 180.117 126.014C172.831 137.76 143.796 132.183 119.919 127.427C98.3702 123.134 68.5044 110.071 70.8442 96.6803Z" fill="#FD9065"/>
</mask>
<g mask="url(#mask3_9777_6660)">
<path fill-rule="evenodd" clip-rule="evenodd" d="M70.8442 96.6803C70.4536 91.1391 106.385 56.8506 137.38 62.7216C175.642 69.9691 182.035 114.664 180.467 124.797C180.494 124.964 180.514 125.131 180.525 125.297C180.443 125.457 180.355 125.614 180.265 125.769C180.26 125.786 180.257 125.804 180.252 125.821C180.23 125.894 180.184 125.957 180.117 126.014C172.831 137.76 143.796 132.183 119.919 127.427C98.3702 123.134 68.5044 110.071 70.8442 96.6803Z" fill="#E64B73"/>
<path fill-rule="evenodd" clip-rule="evenodd" d="M70.8442 96.6803C70.4536 91.1391 106.385 56.8506 137.38 62.7216C175.642 69.9691 182.035 114.664 180.467 124.797C180.494 124.964 180.514 125.131 180.525 125.297C180.443 125.457 180.355 125.614 180.265 125.769C180.26 125.786 180.257 125.804 180.252 125.821C180.23 125.894 180.184 125.957 180.117 126.014C172.831 137.76 143.796 132.183 119.919 127.427C98.3702 123.134 68.5044 110.071 70.8442 96.6803Z" fill="url(#paint7_radial_9777_6660)"/>
<path d="M45.2144 120.837C124.103 132.614 171.344 86.7608 170.209 77.5749L189.739 127.847L140.967 146.511L30.8936 132.789C2.79699 123.898 -33.6741 109.061 45.2144 120.837Z" fill="#C63359"/>
</g>
<path d="M158.985 86.8822C156.881 90.5347 151.307 90.6795 146.646 87.994C141.985 85.3085 140.001 80.8096 142.105 77.1571C144.209 73.5046 150.041 72.743 154.703 75.4285C159.364 78.114 161.09 83.2298 158.985 86.8822Z" fill="#F1E9FF"/>
<path d="M95.4312 82.7709C96.5536 85.8988 100.738 86.8328 104.594 85.4489C108.451 84.0651 110.518 80.8874 109.396 77.7595C108.273 74.6316 103.972 73.1837 100.116 74.5676C96.26 75.9514 94.3087 79.6431 95.4312 82.7709Z" fill="#F1E9FF"/>
<path d="M86.1448 87.2556C86.7984 88.5857 85.7186 90.2554 83.9876 91.106C82.2566 91.9567 80.5299 91.6661 79.8763 90.336C79.2227 89.006 80.1726 87.1402 81.9037 86.2895C83.6347 85.4389 85.4912 85.9255 86.1448 87.2556Z" fill="#F1E9FF"/>
<path d="M125.24 67.986C125.258 69.4017 127.057 70.3556 129.078 70.33C131.099 70.3043 132.577 69.3089 132.559 67.8932C132.541 66.4775 130.77 65.3003 128.749 65.326C126.728 65.3516 125.222 66.5703 125.24 67.986Z" fill="#F1E9FF"/>
<path d="M170.913 99.377C170.084 100.393 168.23 100.048 166.78 98.865C165.33 97.6819 164.833 96.1089 165.663 95.0926C166.492 94.0763 168.454 94.243 169.904 95.4261C171.354 96.6092 171.742 98.3607 170.913 99.377Z" fill="#F1E9FF"/>
<path d="M127.271 91.4512C124.861 93.2652 123.041 91.8486 121.667 90.2223C121.139 90.1481 121.22 94.3867 119.132 93.9289C117.045 93.4711 119.747 89.9383 119.254 89.693C117.696 89.8111 114.157 90.219 113.87 87.7003C113.583 85.1816 121.913 81.266 125.451 80.3008C126.66 81.1649 129.681 89.6372 127.271 91.4512Z" fill="#F8E2E6"/>
<path d="M127.271 91.4512C124.861 93.2652 123.041 91.8486 121.667 90.2223C121.139 90.1481 121.22 94.3867 119.132 93.9289C117.045 93.4711 119.747 89.9383 119.254 89.693C117.696 89.8111 114.157 90.219 113.87 87.7003C113.583 85.1816 121.913 81.266 125.451 80.3008C126.66 81.1649 129.681 89.6372 127.271 91.4512Z" fill="#F8E2E6"/>
<path d="M176.083 124.645C169.275 132.779 143.971 128.882 121.856 124.161C101.91 119.902 76.2746 107.271 75.1627 99.3113C83.0194 96.4969 110.251 95.7764 130.458 100.751C149.801 105.514 172.709 117.434 176.083 124.645Z" fill="#EDC3C3"/>
<path d="M147.863 119.802C146.733 124.258 134.655 124.798 122.599 121.739C110.543 118.679 100.295 112.409 101.426 107.954C102.557 103.498 116.437 102.09 128.493 105.15C140.549 108.209 148.994 115.347 147.863 119.802Z" fill="#A73552"/>
<mask id="mask4_9777_6660" style="mask-type:alpha" maskUnits="userSpaceOnUse" x="104" y="109" width="41" height="120">
<path d="M113.482 223.105C98.3811 211.116 105.017 129.318 115.982 112.354C124.66 106.035 133.651 112.648 134.629 117.28C123.434 148.09 124.323 173.956 130.127 189.748C135.228 203.624 146.012 218.106 144.454 224.543C143.187 229.778 121.553 229.514 113.482 223.105Z" fill="url(#paint8_linear_9777_6660)"/>
</mask>
<g mask="url(#mask4_9777_6660)">
<path d="M113.482 223.105C98.3811 211.116 105.017 129.318 115.982 112.354C124.66 106.035 133.651 112.648 134.629 117.28C123.434 148.09 124.323 173.956 130.127 189.748C135.228 203.624 146.012 218.106 144.454 224.543C143.187 229.778 121.553 229.514 113.482 223.105Z" fill="url(#paint9_linear_9777_6660)"/>
<path opacity="0.24" d="M116.518 239.496C141.435 223.982 101.77 159.524 132.225 109.053C140.592 101.917 145.794 108.308 146.992 113.195C137.28 146.53 139.402 174.034 145.954 190.579C151.712 205.116 163.175 220.032 161.926 226.96C161.292 230.48 134.192 235.954 116.518 239.496C113.169 241.58 108.655 242.781 102.647 242.945C98.6849 243.054 105.901 241.623 116.518 239.496Z" fill="#F67B6A"/>
</g>
<path d="M143.756 225.925C144.518 224.758 150.938 206.538 147.841 195.186C143.145 177.973 139.513 214.136 140.042 218.383C138.534 207.853 135.093 189.356 133.39 199.606C131.687 209.857 131.71 217.069 131.934 219.393C128.777 208.742 121.564 189.983 117.97 200.155C115.591 206.886 114.92 212.214 114.913 215.689C113.428 201.013 110.498 178.909 108.179 184.515C105.647 190.633 108.292 203.779 109.93 209.587C107.857 204.487 103.594 195.555 103.129 200.632C102.664 205.709 110.585 221.138 114.604 228.218C123.178 229.372 139.409 232.583 143.756 225.925Z" fill="url(#paint10_linear_9777_6660)"/>
<mask id="mask5_9777_6660" style="mask-type:alpha" maskUnits="userSpaceOnUse" x="115" y="60" width="41" height="27">
<path d="M147.707 61.3824C143.306 59.5507 152.808 63.2148 152.808 63.2148C152.354 58.7928 162.972 75.0098 141.721 78.6225C139.102 79.0677 132.913 85.8867 130.267 86.0321C127.743 86.1708 125.797 86.3597 124.066 84.428C122.835 83.0537 123.6 81.1178 122.325 79.7937C120.472 77.8699 117.271 81.1909 115.749 78.9294C114.399 76.9249 119.854 71.956 120.307 69.3893C122.457 57.2113 141.825 60.5232 149.6 62.3695C149.043 62.0118 148.415 61.677 147.707 61.3824Z" fill="#632E64"/>
</mask>
<g mask="url(#mask5_9777_6660)">
<path d="M147.708 61.3828C143.307 59.5511 152.808 63.2152 152.808 63.2152C152.355 58.7931 162.973 75.0101 141.722 78.6229C139.103 79.0681 137.227 82.9776 134.581 83.123C132.057 83.2617 130.111 83.4506 128.38 81.5189C127.149 80.1446 127.913 78.2087 126.639 76.8847C124.786 74.9608 121.585 78.2818 120.062 76.0203C118.713 74.0159 119.854 71.9564 120.307 69.3897C122.458 57.2116 141.826 60.5235 149.601 62.3698C149.044 62.0122 148.415 61.6774 147.708 61.3828Z" fill="#9849BD"/>
<path d="M118.006 74.2716C118.605 73.4605 119.418 73.5425 120.401 73.4893C122.477 73.3769 124.251 74.2179 125.009 76.1534C125.306 76.911 125.656 77.4985 125.273 78.2203C124.97 78.7909 123.933 79.1433 123.933 79.1433C123.933 79.1433 122.533 79.7424 122.007 79.1962C121.604 78.7768 121.728 77.6954 121.728 77.6954C121.728 77.6954 120.547 78.4923 119.986 78.0827C119.533 77.7524 119.543 76.6806 119.543 76.6806C119.543 76.6806 118.297 77.0969 117.781 76.6348C117.113 76.0368 117.458 75.0137 118.006 74.2716Z" fill="#DC76DE"/>
<path d="M126.989 79.5079C127.588 78.6968 128.401 78.7789 129.383 78.7257C131.459 78.6132 133.233 79.4542 133.992 81.3897C134.289 82.1474 134.639 82.7348 134.256 83.4566C133.953 84.0273 132.915 84.3797 132.915 84.3797C132.915 84.3797 131.516 84.9787 130.99 84.4325C130.586 84.0131 130.71 82.9317 130.71 82.9317C130.71 82.9317 129.529 83.7287 128.968 83.319C128.516 82.9887 128.526 81.917 128.526 81.917C128.526 81.917 127.279 82.3332 126.763 81.8711C126.095 81.2731 126.44 80.25 126.989 79.5079Z" fill="#DC76DE"/>
<path d="M118.489 76.5057C118.209 76.8567 117.737 76.9688 117.666 76.6272C117.669 76.4981 117.87 76.1489 117.953 76.0309C118.032 75.919 118.218 75.7278 118.375 75.6887C118.842 75.5724 118.769 76.1547 118.489 76.5057Z" fill="white"/>
<path d="M120.549 78.1514C120.269 78.5024 119.796 78.6146 119.726 78.273C119.729 78.1438 119.929 77.7946 120.012 77.6767C120.091 77.5647 120.278 77.3736 120.435 77.3345C120.901 77.2182 120.828 77.8004 120.549 78.1514Z" fill="white"/>
<path d="M122.791 79.1301C122.511 79.4811 122.038 79.5932 121.968 79.2516C121.971 79.1225 122.171 78.7733 122.255 78.6553C122.333 78.5434 122.52 78.3522 122.677 78.3131C123.144 78.1968 123.071 78.7791 122.791 79.1301Z" fill="white"/>
<path d="M127.423 81.8464C127.143 82.1975 126.67 82.3096 126.6 81.968C126.603 81.8388 126.803 81.4896 126.886 81.3717C126.965 81.2597 127.152 81.0686 127.309 81.0295C127.775 80.9132 127.702 81.4954 127.423 81.8464Z" fill="white"/>
<path d="M129.481 83.4916C129.202 83.8427 128.729 83.9548 128.658 83.6132C128.661 83.484 128.862 83.1348 128.945 83.0169C129.024 82.9049 129.21 82.7138 129.367 82.6747C129.834 82.5584 129.761 83.1406 129.481 83.4916Z" fill="white"/>
<path d="M131.724 84.4708C131.444 84.8218 130.971 84.934 130.901 84.5924C130.904 84.4632 131.104 84.114 131.187 83.9961C131.266 83.8841 131.452 83.6929 131.609 83.6539C132.076 83.5376 132.003 84.1198 131.724 84.4708Z" fill="white"/>
<path d="M156.161 63.7787C156.223 69.2588 147.294 72.5419 138.494 72.6418C129.695 72.7416 121.001 68.2185 119.995 62.8288C119.933 57.3486 129.262 54.5821 138.061 54.4823C146.86 54.3825 156.099 58.2985 156.161 63.7787Z" fill="#DC76DE"/>
</g>
<path d="M128.596 36.887C126.468 37.1911 126.283 47.4111 126.283 47.4111L135.923 44.0415C135.923 44.0415 130.723 36.5829 128.596 36.887Z" fill="#632E64"/>
<path d="M128.68 39.3269C127.196 39.5446 127.054 46.7743 127.054 46.7743L133.781 44.379C133.781 44.379 130.163 39.1092 128.68 39.3269Z" fill="#DC76DE"/>
<path d="M149.693 39.4277C151.688 40.228 149.442 50.1999 149.442 50.1999L140.877 44.6388C140.877 44.6388 147.699 38.6275 149.693 39.4277Z" fill="#632E64"/>
<path d="M149.032 41.7771C150.422 42.3408 148.843 49.3975 148.843 49.3975L142.877 45.4741C142.877 45.4741 147.642 41.2134 149.032 41.7771Z" fill="#DC76DE"/>
<path d="M139.824 43.1376C123.784 41.2066 124.278 52.7738 124.278 52.7738C124.278 52.7738 121.035 50.2279 120.271 50.7845C119.328 51.4707 120.146 53.5945 118.989 53.4551C117.615 53.2898 118.192 53.3417 118.196 54.3707C118.2 55.384 117.334 56.4588 118.34 56.5799C119.962 56.7752 119.026 57.8496 119.075 58.4494C119.187 59.8098 120.026 61.9505 120.985 63.0631C123.75 66.273 129.669 69.7263 135.818 70.4657C141.529 71.1523 147.099 70.3168 150.558 68.149C151.829 67.3525 153.628 66.1709 154.649 64.5129C155.173 63.6637 156.568 61.5537 157.281 60.8568C158.248 59.9129 158.272 59.4576 157.59 58.2911C156.909 57.1246 156.304 59.1308 156.24 58.1285C156.167 56.9824 155.976 55.7678 154.977 54.9626C154.241 54.3691 152.007 56.112 152.007 56.112C152.007 56.112 154.408 44.8933 139.824 43.1376Z" fill="url(#paint11_linear_9777_6660)"/>
<path d="M154.237 58.0133C158.037 64.8675 147.799 70.6771 136.533 69.3209C125.267 67.9646 116.7 59.8911 122.018 54.1348C126.634 49.1396 132.994 58.2524 138.563 58.9227C144.132 59.5931 150.938 52.0655 154.237 58.0133Z" fill="#F4C4DC"/>
<mask id="mask6_9777_6660" style="mask-type:alpha" maskUnits="userSpaceOnUse" x="122" y="54" width="31" height="15">
<path d="M151.619 59.4854C154.977 64.9265 144.107 69.1633 136.389 68.2342C128.672 67.3051 119.118 60.6097 123.671 56.1209C127.622 52.2256 133.219 59.4722 138.05 60.0537C142.88 60.6352 148.706 54.7637 151.619 59.4854Z" fill="#D9D9D9"/>
</mask>
<g mask="url(#mask6_9777_6660)">
<path fill-rule="evenodd" clip-rule="evenodd" d="M134.244 58.5955C135.537 59.3152 136.82 59.898 138.053 60.0465C138.896 60.148 139.769 60.0502 140.652 59.8498C140.959 60.9827 141.304 62.4333 141.543 63.8532C141.699 64.7784 141.809 65.6827 141.838 66.4727C141.863 67.1451 141.826 67.7059 141.725 68.1204C140.061 68.3488 138.37 68.4026 136.796 68.251C136.979 67.3925 137.162 66.1389 137.313 64.846C137.515 63.1218 137.667 61.2714 137.693 60.0808L136.859 60.0631C136.834 61.216 136.684 63.0369 136.484 64.7491C136.325 66.1029 136.137 67.3546 135.963 68.1497C134.443 67.927 132.865 67.4898 131.347 66.8986C131.379 66.7024 131.427 66.4753 131.489 66.2212C131.659 65.5239 131.93 64.6571 132.25 63.7329C132.878 61.92 133.683 59.9157 134.244 58.5955ZM123.674 56.1182C126.462 53.3761 130.07 56.1696 133.65 58.2565L133.508 58.1961C132.941 59.5262 132.11 61.5896 131.462 63.46C131.139 64.3942 130.858 65.2891 130.678 66.0234C130.631 66.2169 130.59 66.4018 130.557 66.5753C129.423 66.0868 128.336 65.5134 127.347 64.8846C127.379 64.5266 127.496 64.0648 127.693 63.5196C127.946 62.8163 128.315 62.021 128.736 61.2117C129.577 59.5937 130.612 57.9524 131.308 56.9378L130.963 56.7016L130.62 56.4655C129.911 57.5006 128.856 59.1715 127.995 60.8265C127.565 61.6538 127.178 62.4856 126.907 63.2372C126.766 63.6302 126.651 64.0155 126.58 64.3753C123.03 61.8741 121.106 58.6451 123.674 56.1182ZM144.409 58.6201C144.91 59.6562 145.595 61.1907 146.136 62.6749C146.425 63.4702 146.671 64.2429 146.826 64.9112C146.985 65.5941 147.036 66.1162 146.979 66.4365L147.389 66.5095L147.517 66.5317C146.049 67.1795 144.354 67.6752 142.601 67.9819C142.674 67.5214 142.692 66.9951 142.672 66.4423C142.642 65.6033 142.525 64.6605 142.366 63.7153C142.122 62.2683 141.773 60.7943 141.461 59.6404C142.449 59.3547 143.442 58.9747 144.409 58.6201ZM145.199 58.3395C147.765 57.4498 150.094 57.011 151.623 59.4827C153.359 62.2899 151.292 64.7734 147.825 66.3908C147.865 65.9206 147.781 65.3353 147.639 64.7228C147.473 64.0091 147.215 63.2015 146.919 62.3896C146.381 60.9123 145.705 59.3929 145.199 58.3395Z" fill="white"/>
</g>
<path d="M137.518 60.6383C136.203 60.4493 135.155 58.5755 135.937 57.7067C136.276 57.4695 137.47 57.4184 137.896 57.4483C138.301 57.4768 139.066 57.6842 139.395 58.0917C140.374 59.3041 138.832 60.8273 137.518 60.6383Z" fill="#D560D7"/>
<circle cx="142.154" cy="55.6125" r="2.85631" transform="rotate(6.86441 142.154 55.6125)" fill="#FFDB65"/>
<ellipse cx="134.253" cy="54.1129" rx="2.99233" ry="2.85631" transform="rotate(6.86441 134.253 54.1129)" fill="#FFDB65"/>
<circle cx="133.394" cy="54.4208" r="1.36015" transform="rotate(6.86441 133.394 54.4208)" fill="black"/>
<circle cx="141.43" cy="55.9367" r="1.36015" transform="rotate(6.86441 141.43 55.9367)" fill="black"/>
<path d="M172.103 82.3965C172.103 82.3965 176.234 76.0475 177.514 78.0168C178.311 79.2429 178.492 80.1087 178.77 81.5444C179.14 83.4588 179.323 84.6844 178.716 86.5372C177.43 90.4584 174.597 91.1158 169.777 92.1731C164.957 93.2305 161.022 97.9959 161.022 97.9959C161.022 97.9959 154.631 105.537 149.482 104.713C144.641 103.939 141.635 100.553 140.703 95.7405C139.403 89.0302 145.681 85.2956 151.762 82.1752C158.83 78.5483 172.103 82.3965 172.103 82.3965Z" fill="#9849BD"/>
<mask id="mask7_9777_6660" style="mask-type:alpha" maskUnits="userSpaceOnUse" x="140" y="77" width="40" height="28">
<path d="M172.103 82.3964C172.103 82.3964 176.234 76.0474 177.514 78.0167C178.311 79.2428 178.492 80.1085 178.77 81.5443C179.14 83.4587 179.323 84.6842 178.716 86.5371C177.43 90.4582 174.597 91.1156 169.777 92.173C164.957 93.2303 161.022 97.9958 161.022 97.9958C161.022 97.9958 154.631 105.536 149.482 104.713C144.641 103.939 141.635 100.553 140.703 95.7403C139.403 89.0301 145.681 85.2955 151.762 82.175C158.83 78.5482 172.103 82.3964 172.103 82.3964Z" fill="#F0ABDA"/>
</mask>
<g mask="url(#mask7_9777_6660)">
<path fill-rule="evenodd" clip-rule="evenodd" d="M157.16 105.478C156.387 105.659 155.876 104.409 156.264 103.717C156.51 103.278 156.67 102.811 156.735 102.319C157.243 98.46 151.675 94.5439 144.298 93.572C140.548 93.078 137.052 93.4398 134.455 94.422C133.861 94.6466 133.254 94.1413 133.588 93.6008C135.712 90.1549 142.356 88.2561 149.859 89.2445C158.611 90.3976 165.217 95.0438 164.614 99.6221C164.25 102.388 161.338 104.496 157.16 105.478Z" fill="#DC76DE"/>
<path fill-rule="evenodd" clip-rule="evenodd" d="M165.96 94.7724C165.193 94.9798 164.635 93.6801 164.909 92.9348C164.99 92.7144 165.046 92.4869 165.077 92.2526C165.504 89.0122 160.828 85.7236 154.633 84.9075C151.6 84.5079 148.766 84.775 146.612 85.5319C146.013 85.7425 145.418 85.2348 145.782 84.7142C147.707 81.9587 153.162 80.4644 159.303 81.2734C166.653 82.2418 172.2 86.1434 171.694 89.988C171.403 92.1926 169.185 93.8998 165.96 94.7724Z" fill="#DC76DE"/>
<path fill-rule="evenodd" clip-rule="evenodd" d="M176.541 91.2098C175.986 91.148 175.974 90.081 176.267 89.6058C177.267 87.9864 175.568 85.1242 172.472 83.2128C171.207 82.4313 169.903 81.9298 168.737 81.7206C168.111 81.6085 167.833 80.9195 168.435 80.7189C170.22 80.1246 173.093 80.7132 175.82 82.3966C179.492 84.6643 181.508 88.0601 180.322 89.9814C179.69 91.0044 178.278 91.403 176.541 91.2098Z" fill="#DC76DE"/>
</g>
<mask id="mask8_9777_6660" style="mask-type:alpha" maskUnits="userSpaceOnUse" x="143" y="175" width="71" height="46">
<path fill-rule="evenodd" clip-rule="evenodd" d="M212.949 208.582C214.179 204.977 199.26 176.375 179.98 175.171C156.171 173.685 144.33 202.245 143.426 209.199C143.381 209.304 143.338 209.408 143.302 209.515C143.322 209.631 143.347 209.745 143.371 209.859C143.371 209.875 143.368 209.891 143.368 209.906C143.367 209.961 143.385 210.012 143.417 210.063C145.584 219.03 163.651 220.107 178.542 220.879C191.985 221.576 211.903 217.832 212.949 208.582Z" fill="#FD9065"/>
</mask>
<g mask="url(#mask8_9777_6660)">
<path fill-rule="evenodd" clip-rule="evenodd" d="M213.191 206.378C212.19 199.421 198.419 173.77 180.571 172.861C156.581 171.639 144.267 202.312 143.358 209.496C143.309 209.602 143.261 209.706 143.222 209.813C143.247 209.934 143.277 210.052 143.307 210.17C143.31 210.211 143.319 210.25 143.339 210.289C145.732 218.863 164.934 220.16 180.752 221.12C195.279 222.002 216.852 218.614 217.025 209.48C216.885 208.354 215.469 207.314 213.191 206.378Z" fill="url(#paint12_radial_9777_6660)"/>
<path d="M134.635 201.177C180.18 203.213 207.112 192.48 218.167 174.415L228.765 207.089L202.086 224.343L133.823 238.97C116.87 232.937 85.9019 198.998 134.635 201.177Z" fill="#C63359"/>
<path d="M157.038 191.94L158.953 197.128L153.925 202.647L152.446 196.89L157.038 191.94Z" fill="#F8E2E6"/>
</g>
<path d="M166.83 186.15C167.441 188.777 170.694 189.78 173.894 188.864C177.095 187.948 179.032 185.461 178.421 182.834C177.809 180.207 174.511 178.777 171.31 179.692C168.109 180.608 166.218 183.523 166.83 186.15Z" fill="#F8E2E6"/>
<path d="M200.539 197.159C199.343 198.931 196.723 198.83 194.692 197.334C192.662 195.838 191.991 193.513 193.187 191.742C194.382 189.971 197.159 189.77 199.189 191.266C201.22 192.761 201.734 195.388 200.539 197.159Z" fill="#F8E2E6"/>
<path d="M180.679 193.699C181.11 195.268 182.915 195.926 184.618 195.448C186.322 194.969 187.279 193.534 186.848 191.966C186.416 190.397 184.57 189.484 182.866 189.963C181.163 190.442 180.247 192.131 180.679 193.699Z" fill="#F8E2E6"/>
<path d="M205.233 201.482C204.621 202.206 204.969 203.427 205.842 204.242C206.714 205.056 207.779 205.157 208.391 204.433C209.003 203.709 208.764 202.387 207.892 201.572C207.02 200.757 205.845 200.758 205.233 201.482Z" fill="#F8E2E6"/>
<path d="M188.171 182.937C187.918 183.819 186.697 184.121 185.513 183.774C184.329 183.427 183.631 182.564 183.884 181.682C184.137 180.8 185.38 180.354 186.564 180.701C187.748 181.047 188.425 182.055 188.171 182.937Z" fill="#F8E2E6"/>
<path d="M171.44 196.498C171.352 197.662 170.142 198.372 168.843 198.266C167.544 198.16 166.648 197.278 166.737 196.114C166.825 194.949 168.029 194.055 169.328 194.161C170.626 194.266 171.529 195.333 171.44 196.498Z" fill="#F8E2E6"/>
<path d="M145.951 210.135C148.56 216.332 164.106 218.037 177.917 218.705C190.374 219.307 208.603 215.658 210.662 209.498C206.55 204.524 189.603 202.863 176.87 202.666C164.681 202.478 149.17 206.179 145.951 210.135Z" fill="#EDC3C3"/>
<path d="M163.462 211.08C163.373 213.765 170.389 215.863 178.001 215.924C185.614 215.984 192.706 213.962 192.795 211.277C192.884 208.591 184.955 205.735 177.342 205.675C169.729 205.615 163.551 208.395 163.462 211.08Z" fill="#A73552"/>
<mask id="mask9_9777_6660" style="mask-type:alpha" maskUnits="userSpaceOnUse" x="167" y="209" width="18" height="33">
<path d="M182.584 239.677C186.479 234.882 184.649 213.454 183.192 210.952C182 209.326 173.848 209.109 172.332 210.8C171.86 217.843 171.811 221.801 170.585 227.206C169.709 231.071 167.745 236.856 167.689 238.415C167.542 242.485 180.033 242.816 182.584 239.677Z" fill="#FEE1A5"/>
<path d="M182.584 239.677C186.479 234.882 184.649 213.454 183.192 210.952C182 209.326 173.848 209.109 172.332 210.8C171.86 217.843 171.811 221.801 170.585 227.206C169.709 231.071 167.745 236.856 167.689 238.415C167.542 242.485 180.033 242.816 182.584 239.677Z" fill="url(#paint13_linear_9777_6660)"/>
</mask>
<g mask="url(#mask9_9777_6660)">
<path d="M182.584 239.677C186.479 234.882 184.649 213.454 183.192 210.952C182 209.326 173.848 209.109 172.332 210.8C171.86 217.843 171.811 221.801 170.585 227.206C169.709 231.071 169.539 237.315 169.483 238.873C169.336 242.943 180.033 242.816 182.584 239.677Z" fill="url(#paint14_linear_9777_6660)"/>
<path opacity="0.62" d="M160.934 243.684C157.71 237.162 162.383 210.702 164.161 207.786C165.56 205.925 173.673 206.796 174.951 209.116C174.48 217.962 174.001 222.904 174.496 229.815C174.85 234.756 177.277 241.051 177.124 243.002C176.727 248.097 163.045 247.955 160.934 243.684Z" fill="#FDBEAB"/>
</g>
<path d="M168.512 246.73C167.422 235.92 164.968 235.5 166.618 229.45C169.121 220.276 171.861 240.09 171.578 242.354C172.382 236.742 174.217 226.884 175.124 232.347C176.032 237.81 176.019 241.653 175.9 242.892C177.582 237.216 181.427 227.218 183.342 232.639C184.466 235.819 184.845 237.892 184.901 239.301C185.71 231.703 187.332 221.334 188.561 224.303C189.91 227.564 188.5 234.57 187.627 237.666C188.732 234.948 191.004 230.187 191.252 232.893C191.5 235.599 186.66 242.892 186.66 246.73C182.09 247.345 170.828 250.279 168.512 246.73Z" fill="url(#paint15_linear_9777_6660)"/>
<path d="M64.1368 62.5667C63.4302 63.0546 61.5446 63.8189 61.1545 63.9051L65.9646 84.0582L69.5258 86.3686L69.1908 79.2716L68.9716 74.9728C68.9716 74.9728 68.9131 72.848 68.7177 71.5038C68.5089 70.068 68.5811 69.2037 67.905 67.8785C67.2288 66.5533 66.9932 65.7154 66.0825 64.5435C65.4179 63.6881 64.1368 62.5667 64.1368 62.5667Z" fill="#C98032"/>
<path d="M59.3201 73.224C59.7654 72.7823 60.3078 72.4499 61.1421 72.4059L62.1317 75.5183L59.3201 73.224Z" fill="#C98032"/>
<path d="M60.6449 73.6604C61.3261 74.0847 61.8729 75.308 61.8729 75.308C61.8729 75.308 61.3201 72.6247 61.1749 72.1198C61.0298 71.6149 60.7662 67.5802 60.7662 67.5802C60.7662 67.5802 60.7322 64.4197 60.912 64.0947C61.0919 63.7697 61.3404 63.7952 61.6576 63.7601C62.355 63.6829 63.1097 64.8184 63.1097 64.8184L64.6306 68.2074L66.1638 72.8937L67.6113 85.1914L62.1523 83.7327L59.9926 78.9204L58.5934 75.8026C58.5934 75.8026 57.9115 74.0536 58.6228 73.5094C58.8302 73.3507 58.9771 73.2885 59.2328 73.2356C59.7967 73.1188 60.1561 73.356 60.6449 73.6604Z" fill="#F9ED9B"/>
<path d="M46.2155 80.4947C46.3665 80.408 46.4582 80.3706 46.6222 80.3122C48.1207 79.7794 50.2347 82.1925 50.2347 82.1925L45.1225 82.7768C45.1225 82.7768 45.3589 80.9873 46.2155 80.4947Z" fill="#C98032"/>
<path d="M65.9875 87.1745C66.1369 86.7817 65.7137 86.5645 65.7137 86.5645L49.696 75.187C49.696 75.187 46.4979 75.2802 44.4622 75.5001C43.9787 75.5523 43.2256 75.6479 43.2256 75.6479L43.8948 77.139C43.8948 77.139 45.0186 78.5649 45.7963 79.38C47.2405 80.8937 50.3325 82.23 50.3325 82.23C50.3325 82.23 48.1864 81.7508 46.9826 82.0234C46.2186 82.1964 45.6296 82.2233 45.1526 82.8447C44.9149 83.1543 44.7401 83.3686 44.7485 83.7589C44.7593 84.2596 45.1419 84.4406 45.469 84.8199C46.6118 86.1448 47.854 86.1914 49.5116 86.7514C52.5902 87.7914 54.6433 86.7834 57.7895 87.5964C60.4117 88.274 64.2332 90.1604 64.2332 90.1604C64.2332 90.1604 65.838 87.5673 65.9875 87.1745Z" fill="#F9ED9B"/>
<path d="M55.8764 86.4187C56.5943 86.5219 57.1614 86.6192 57.8542 86.8339L58.366 86.5228L57.6856 86.0953C57.6856 86.0953 53.8089 84.1707 53.5074 84.2246C53.2058 84.2785 53.3136 84.8816 53.026 84.6035C52.7384 84.3254 52.3995 84.4776 52.0067 84.3281C51.6139 84.1786 51.6974 83.9738 51.4687 83.6738C51.1611 83.2702 50.8731 83.1208 50.4025 82.9309C49.5331 82.5801 48.8921 82.7298 48.0041 83.0301C47.7018 83.1323 47.4638 83.1203 47.2585 83.3647C46.8011 83.9093 47.8213 84.3396 48.3275 84.8393C49.5394 86.0355 50.7038 86.1615 52.3839 86.4388C53.7296 86.661 54.5264 86.2245 55.8764 86.4187Z" fill="url(#paint16_linear_9777_6660)"/>
<path d="M65.0058 86.8006C65.2022 86.8754 65.0458 87.4341 65.0458 87.4341C65.0458 87.4341 64.7346 87.7 64.5035 87.6774C64.381 87.6655 64.3306 87.5841 64.209 87.5654C63.8935 87.5169 63.534 87.5887 63.4634 87.9C63.383 88.2545 63.9227 88.0269 63.8423 88.3815C63.7718 88.6927 63.9862 88.6535 63.6821 88.7501C62.1915 89.2237 59.8385 87.625 59.8385 87.625C59.8385 87.625 59.3632 87.3622 59.3722 87.1303C59.3828 86.8568 59.7623 86.548 59.7623 86.548C59.7623 86.548 53.4169 84.0215 52.7738 83.4957C52.1307 82.9699 52.1377 82.8041 51.9109 82.6616C51.6841 82.5191 51.3729 82.0072 51.3729 82.0072C51.3729 82.0072 48.6784 80.1764 47.5241 79.4187C47.5241 79.4187 46.184 78.0658 46.6724 77.5209C47.1607 76.9761 49.3337 77.664 50.8618 78.328C51.9171 78.7866 52.4796 79.1506 53.3567 79.8955C53.8536 80.3175 54.5377 81.0755 54.5377 81.0755C54.5377 81.0755 55.8103 81.3294 56.2983 81.914C56.6144 82.2926 56.6183 82.4584 56.8902 82.8699C57.8406 84.308 60.9771 84.5373 60.9771 84.5373C60.9771 84.5373 64.8093 86.7258 65.0058 86.8006Z" fill="url(#paint17_linear_9777_6660)"/>
<path d="M60.7075 81.4002C62.8137 83.0321 66.5812 84.8714 66.5812 84.8714L65.7123 86.5643L62.2285 84.7891C62.2285 84.7891 60.0424 83.5723 58.6907 82.7125C56.7049 81.4492 55.7532 80.5019 53.7825 79.2151C52.2799 78.2339 51.5012 77.5466 49.8589 76.823C48.3154 76.1429 47.3927 75.8089 45.7208 75.5858C44.7562 75.4571 43.1868 75.7459 43.2312 75.4817C43.2755 75.2175 43.8954 74.7428 44.1539 74.0904C44.3142 73.6858 44.3007 72.9659 44.5345 72.9425C44.7682 72.919 47.4359 72.7662 49.2122 73.2046C51.0087 73.6481 51.9433 74.2102 53.519 75.1804C54.9446 76.0583 55.6242 76.7322 56.9003 77.8159C58.4569 79.1377 59.0934 80.1495 60.7075 81.4002Z" fill="#C98032"/>
<path d="M67.6086 84.7338C67.6086 84.7338 66.9882 81.806 67.0734 79.2755C67.1261 77.7086 67.1315 75.6343 68.6348 75.1893C69.1477 75.0374 69.9651 75.0953 70.437 75.3473C70.9646 75.629 71.4367 76.7817 71.0721 77.2558C70.8245 77.5778 69.9916 77.5286 69.9916 77.5286" stroke="#CB415B" stroke-width="0.297166"/>
<circle cx="0.594332" cy="0.594332" r="0.594332" transform="matrix(-0.969574 0.244798 0.244798 0.969574 70.4756 76.41)" fill="#CB415B"/>
<path d="M67.4565 84.5963C67.4565 84.5963 65.7582 81.7885 63.7268 80.3466C62.4434 79.4357 60.9754 78.1913 59.6437 79.0186C59.1892 79.3009 58.6892 79.95 58.5638 80.4701C58.4236 81.0515 58.9709 82.1705 59.5675 82.2132C59.9726 82.2422 60.4895 81.5873 60.4895 81.5873" stroke="#CB415B" stroke-width="0.297166"/>
<circle cx="60.1586" cy="81.3634" r="0.594332" transform="rotate(-34.1699 60.1586 81.3634)" fill="#CB415B"/>
<path d="M64.4667 86.873C63.1119 87.4811 62.4664 88.9457 63.0005 90.1363C63.5349 91.327 65.0585 91.819 66.4135 91.211C67.7686 90.6029 68.4146 89.1371 67.8802 87.9464C67.3457 86.7559 65.8216 86.2649 64.4667 86.873Z" fill="#CB415B" stroke="#CB415B" stroke-width="0.148583"/>
<path d="M60.7932 88.5622C59.3534 88.9259 58.4634 90.2561 58.7826 91.5214C59.1021 92.7868 60.5172 93.5359 61.9572 93.1724C63.3973 92.8088 64.288 91.4776 63.9685 90.2121C63.6488 88.9469 62.2332 88.1987 60.7932 88.5622Z" fill="#CB415B" stroke="#CB415B" stroke-width="0.148583"/>
<path d="M56.4199 88.5589C55.6784 88.613 54.8225 88.9462 54.1649 89.4322C53.5049 89.9202 53.0646 90.5468 53.1108 91.1834C53.1572 91.8202 53.6838 92.377 54.4079 92.7642C55.1289 93.1497 56.0242 93.3552 56.7656 93.3012C58.247 93.1932 59.3554 92.0368 59.2605 90.7351C59.1653 89.4335 57.9011 88.4509 56.4199 88.5589Z" fill="#CB415B" stroke="#CB415B" stroke-width="0.148583"/>
<path d="M67.4032 83.8187C66.0484 84.4268 65.403 85.8914 65.937 87.0821C66.4714 88.2728 67.995 88.7648 69.3501 88.1568C70.7052 87.5486 71.3512 86.0829 70.8168 84.8921C70.2822 83.7016 68.7582 83.2106 67.4032 83.8187Z" fill="#CB415B" stroke="#CB415B" stroke-width="0.148583"/>
<path d="M209.424 147.791C209.293 147.728 209.214 147.702 209.073 147.664C207.788 147.309 206.168 149.456 206.168 149.456L210.477 149.633C210.477 149.633 210.171 148.151 209.424 147.791Z" fill="#C98032"/>
<path d="M193.301 154.582C193.153 154.263 193.493 154.055 193.493 154.055L206.192 143.566C206.192 143.566 208.872 143.449 210.587 143.509C210.994 143.523 211.63 143.557 211.63 143.557L211.161 144.845C211.161 144.845 210.309 146.105 209.708 146.834C208.593 148.188 206.089 149.494 206.089 149.494C206.089 149.494 207.854 148.962 208.877 149.117C209.527 149.215 210.021 149.201 210.458 149.692C210.675 149.936 210.834 150.105 210.851 150.432C210.873 150.851 210.564 151.026 210.313 151.363C209.439 152.54 208.403 152.655 207.051 153.224C204.54 154.281 202.762 153.563 200.181 154.435C198.03 155.161 194.95 156.972 194.95 156.972C194.95 156.972 193.45 154.901 193.301 154.582Z" fill="#F9ED9B"/>
<path d="M201.708 153.334C201.114 153.464 200.645 153.58 200.079 153.802L199.632 153.573L200.175 153.174C200.175 153.174 203.299 151.328 203.554 151.355C203.81 151.382 203.757 151.893 203.98 151.643C204.204 151.393 204.496 151.499 204.816 151.35C205.135 151.201 205.053 151.035 205.225 150.77C205.458 150.414 205.69 150.272 206.072 150.084C206.777 149.738 207.322 149.824 208.083 150.021C208.342 150.088 208.54 150.063 208.727 150.255C209.142 150.683 208.316 151.105 207.923 151.553C206.983 152.627 206.017 152.804 204.629 153.138C203.517 153.406 202.824 153.089 201.708 153.334Z" fill="url(#paint18_linear_9777_6660)"/>
<path d="M194.1 154.209C193.941 154.284 194.105 154.741 194.105 154.741C194.105 154.741 194.382 154.945 194.574 154.912C194.675 154.894 194.712 154.823 194.813 154.8C195.074 154.74 195.379 154.778 195.457 155.034C195.546 155.326 195.08 155.168 195.169 155.46C195.247 155.716 195.066 155.696 195.326 155.758C196.601 156.064 198.471 154.583 198.471 154.583C198.471 154.583 198.852 154.335 198.831 154.141C198.805 153.913 198.469 153.678 198.469 153.678C198.469 153.678 203.62 151.179 204.126 150.7C204.631 150.221 204.615 150.083 204.796 149.95C204.977 149.817 205.206 149.37 205.206 149.37C205.206 149.37 207.348 147.675 208.267 146.972C208.267 146.972 209.305 145.759 208.863 145.333C208.422 144.907 206.647 145.615 205.409 146.263C204.555 146.711 204.107 147.049 203.419 147.726C203.029 148.109 202.504 148.784 202.504 148.784C202.504 148.784 201.455 149.074 201.083 149.593C200.841 149.928 200.848 150.067 200.646 150.428C199.939 151.688 197.331 152.071 197.331 152.071C197.331 152.071 194.26 154.135 194.1 154.209Z" fill="url(#paint19_linear_9777_6660)"/>
<path d="M197.362 149.432C195.7 150.925 192.662 152.692 192.662 152.692L193.492 154.055L196.297 152.358C196.297 152.358 198.05 151.208 199.128 150.406C200.711 149.229 201.449 148.379 203.019 147.183C204.215 146.271 204.824 145.649 206.153 144.944C207.402 144.281 208.153 143.946 209.538 143.657C210.336 143.491 211.666 143.636 211.613 143.418C211.56 143.2 211.74 142.823 211.484 142.294C211.325 141.965 210.565 141.38 210.368 141.375C210.172 141.369 207.932 141.404 206.473 141.879C204.998 142.359 204.251 142.886 202.993 143.794C201.855 144.614 201.327 145.219 200.326 146.203C199.106 147.403 198.635 148.288 197.362 149.432Z" fill="#C98032"/>
<path d="M176.169 150.17C176.287 150.085 176.361 150.046 176.492 149.983C177.697 149.411 179.665 151.243 179.665 151.243L175.452 152.166C175.452 152.166 175.496 150.654 176.169 150.17Z" fill="#A6673C" stroke="#A6673C" stroke-width="0.124559"/>
<path d="M193.228 154.056C193.319 153.716 192.948 153.571 192.948 153.571L178.621 145.446C178.621 145.446 175.961 145.797 174.282 146.153C173.884 146.238 173.264 146.382 173.264 146.382L173.949 147.568C173.949 147.568 175.007 148.662 175.725 149.275C177.059 150.415 179.751 151.266 179.751 151.266C179.751 151.266 177.921 151.049 176.94 151.379C176.317 151.588 175.829 151.661 175.484 152.22C175.312 152.498 175.184 152.692 175.225 153.017C175.276 153.433 175.611 153.552 175.916 153.84C176.982 154.848 178.022 154.781 179.452 155.107C182.108 155.712 183.734 154.696 186.427 155.106C188.672 155.448 192.019 156.696 192.019 156.696C192.019 156.696 193.137 154.397 193.228 154.056Z" fill="#F9ED9B" stroke="#CDC089" stroke-width="0.124559"/>
<path d="M184.732 154.288C185.339 154.313 185.82 154.346 186.416 154.466L186.817 154.163L186.213 153.864C186.213 153.864 182.816 152.589 182.569 152.66C182.322 152.73 182.463 153.224 182.2 153.017C181.936 152.809 181.667 152.965 181.326 152.874C180.986 152.783 181.038 152.605 180.822 152.374C180.531 152.064 180.278 151.964 179.869 151.845C179.115 151.627 178.593 151.806 177.878 152.132C177.634 152.243 177.435 152.254 177.284 152.475C176.949 152.968 177.837 153.24 178.301 153.614C179.414 154.508 180.396 154.514 181.821 154.602C182.962 154.673 183.589 154.241 184.732 154.288Z" fill="url(#paint20_linear_9777_6660)"/>
<path d="M192.376 153.829C192.546 153.875 192.463 154.354 192.463 154.354C192.463 154.354 192.226 154.602 192.032 154.603C191.928 154.604 191.879 154.54 191.776 154.535C191.509 154.521 191.215 154.612 191.183 154.877C191.146 155.18 191.577 154.944 191.54 155.247C191.508 155.512 191.683 155.461 191.438 155.568C190.235 156.09 188.137 154.957 188.137 154.957C188.137 154.957 187.718 154.778 187.706 154.584C187.691 154.355 187.981 154.065 187.981 154.065C187.981 154.065 182.474 152.498 181.893 152.115C181.312 151.731 181.304 151.592 181.103 151.492C180.901 151.393 180.598 150.992 180.598 150.992C180.598 150.992 178.195 149.695 177.168 149.161C177.168 149.161 175.935 148.147 176.296 147.651C176.657 147.155 178.528 147.544 179.859 147.968C180.778 148.26 181.278 148.516 182.073 149.062C182.523 149.372 183.158 149.946 183.158 149.946C183.158 149.946 184.241 150.049 184.698 150.495C184.994 150.784 185.011 150.922 185.273 151.242C186.188 152.36 188.823 152.285 188.823 152.285C188.823 152.285 192.206 153.783 192.376 153.829Z" fill="url(#paint21_linear_9777_6660)"/>
<path d="M188.335 149.691C190.231 150.872 193.529 152.085 193.529 152.085L192.949 153.571L189.892 152.388C189.892 152.388 187.965 151.559 186.765 150.957C185.001 150.072 184.127 149.363 182.374 148.458C181.037 147.768 180.329 147.261 178.898 146.797C177.553 146.362 176.755 146.162 175.341 146.118C174.526 146.093 173.242 146.467 173.256 146.243C173.271 146.019 173.332 145.666 173.492 145.1C173.591 144.749 173.934 144.054 174.127 144.014C174.32 143.975 176.532 143.62 178.05 143.835C179.586 144.052 180.414 144.441 181.81 145.116C183.074 145.726 183.698 146.231 184.855 147.026C186.265 147.995 186.882 148.785 188.335 149.691Z" fill="#C98032"/>
<path d="M191.772 147.088C191.772 147.088 191.242 144.636 190.308 142.73C189.73 141.55 189.014 139.965 187.712 140.141C187.267 140.201 186.662 140.525 186.387 140.88C186.081 141.277 186.115 142.32 186.557 142.558C186.857 142.719 187.477 142.396 187.477 142.396" stroke="#CB415B" stroke-width="0.249118"/>
<circle cx="187.299" cy="142.11" r="0.498237" transform="rotate(-10 187.299 142.11)" fill="#CB415B"/>
<path d="M191.841 146.93C191.841 146.93 192.176 144.2 193.235 142.4C193.904 141.263 194.599 139.807 195.902 139.983C196.346 140.043 196.951 140.367 197.226 140.722C197.533 141.119 197.498 142.162 197.057 142.4C196.757 142.561 196.137 142.238 196.137 142.238" stroke="#CB415B" stroke-width="0.249118"/>
<circle cx="0.498237" cy="0.498237" r="0.498237" transform="matrix(-0.984808 -0.173648 -0.173648 0.984808 196.893 141.549)" fill="#CB415B"/>
<path d="M190.491 153.069C190.917 154.239 192.102 154.868 193.13 154.494C194.158 154.12 194.661 152.875 194.236 151.706C193.81 150.536 192.625 149.906 191.597 150.28C190.568 150.654 190.065 151.899 190.491 153.069Z" fill="#CB415B" stroke="#CB415B" stroke-width="0.124559"/>
<path d="M192.015 156.169C192.232 157.395 193.29 158.221 194.368 158.031C195.445 157.841 196.156 156.703 195.94 155.477C195.724 154.251 194.666 153.425 193.589 153.615C192.511 153.805 191.799 154.943 192.015 156.169Z" fill="#CB415B" stroke="#CB415B" stroke-width="0.124559"/>
<path d="M196.847 159.238C196.847 159.861 196.621 160.597 196.255 161.177C195.887 161.758 195.389 162.165 194.854 162.165C194.318 162.165 193.821 161.758 193.453 161.177C193.087 160.597 192.861 159.861 192.861 159.238C192.861 157.993 193.76 156.996 194.854 156.996C195.948 156.996 196.847 157.993 196.847 159.238Z" fill="#CB415B" stroke="#CB415B" stroke-width="0.124559"/>
<path d="M193.562 148.65C193.562 149.895 192.663 150.892 191.569 150.892C190.475 150.892 189.577 149.895 189.577 148.65C189.577 147.405 190.475 146.408 191.569 146.408C192.664 146.408 193.562 147.405 193.562 148.65Z" fill="#CB415B" stroke="#CB415B" stroke-width="0.124559"/>
<g opacity="0.68">
<path opacity="0.63" d="M354.258 243.649C353.239 241.224 349.368 236.933 342.032 239.169C342.768 242.281 346.242 247.535 354.258 243.649Z" fill="#33766D"/>
<path opacity="0.63" d="M203.371 255.752C201.171 254.063 195.465 251.96 190.237 257.067C192.558 259.481 198.435 262.598 203.371 255.752Z" fill="#33766D"/>
<path opacity="0.63" d="M314.777 279.742C315.241 277.185 314.265 271.746 306.653 270.439C305.561 273.467 305.656 279.566 314.777 279.742Z" fill="#33766D"/>
<path opacity="0.63" d="M218.733 235.655C218.269 233.099 219.244 227.659 226.856 226.352C227.949 229.38 227.853 235.48 218.733 235.655Z" fill="#33766D"/>
<path opacity="0.63" d="M49.7341 261.655C49.2702 259.099 50.2453 253.659 57.8574 252.352C58.9498 255.38 58.8545 261.48 49.7341 261.655Z" fill="#33766D"/>
<path opacity="0.63" d="M17.3448 236.734C19.9014 236.27 25.3412 237.245 26.648 244.857C23.6202 245.95 17.5206 245.854 17.3448 236.734Z" fill="#33766D"/>
<path opacity="0.63" d="M136.291 239.73C133.46 240.301 127.315 239.768 125.383 233.07C128.702 231.91 135.531 231.618 136.291 239.73Z" fill="#33766D"/>
<path opacity="0.63" d="M268.733 238.945C268.269 241.502 269.244 246.941 276.856 248.248C277.949 245.22 277.853 239.121 268.733 238.945Z" fill="#33766D"/>
<path opacity="0.63" d="M313.762 221.017C313.632 223.605 311.434 228.753 303.684 228.648C303.306 225.485 304.793 219.531 313.762 221.017Z" fill="#33766D"/>
<path opacity="0.63" d="M399.363 243.632C398.899 246.188 399.874 251.628 407.486 252.935C408.579 249.907 408.483 243.807 399.363 243.632Z" fill="#33766D"/>
<path opacity="0.63" d="M374.192 261.209C372.568 263.355 367.681 266.722 361.132 263.022C362.661 260.148 367.413 255.762 374.192 261.209Z" fill="#33766D"/>
<path opacity="0.63" d="M469.174 246.945C469.638 249.502 468.663 254.942 461.051 256.248C459.958 253.221 460.054 247.121 469.174 246.945Z" fill="#33766D"/>
<path opacity="0.63" d="M519.662 263.284C517.379 265.07 511.736 267.286 507.43 261.866C509.917 259.313 515.845 256.021 519.662 263.284Z" fill="#33766D"/>
</g>
<path d="M87.7573 262.53C90.8698 258.497 87.5004 243.108 85.6542 241.571C84.2105 240.613 76.0693 241.785 74.8302 243.23C75.4791 248.3 72.0356 249.36 71.4477 254.202C71.0723 257.295 69.8243 261.435 70.0159 262.549C70.5165 265.459 85.7193 265.17 87.7573 262.53Z" fill="#FFCCBA"/>
<mask id="mask10_9777_6660" style="mask-type:alpha" maskUnits="userSpaceOnUse" x="60" y="235" width="40" height="23">
<path d="M99.5643 246.383C98.8588 254.394 89.7554 256.598 79.297 257.095C68.8387 257.592 60.9028 255.693 60.5485 248.238C60.2648 242.269 67.8279 236.325 78.2863 235.828C88.7447 235.331 99.21 238.928 99.5643 246.383Z" fill="#E64B73"/>
</mask>
<g mask="url(#mask10_9777_6660)">
<path d="M99.5643 246.383C98.8588 254.394 89.7554 256.598 79.297 257.095C68.8387 257.592 60.9028 255.693 60.5485 248.238C60.2648 242.269 67.8279 236.325 78.2863 235.828C88.7447 235.331 99.21 238.928 99.5643 246.383Z" fill="#E64B73"/>
<path d="M99.5643 246.383C98.8588 254.394 89.7554 256.598 79.297 257.095C68.8387 257.592 60.9028 255.693 60.5485 248.238C60.2648 242.269 67.8279 236.325 78.2863 235.828C88.7447 235.331 99.21 238.928 99.5643 246.383Z" fill="url(#paint22_radial_9777_6660)"/>
<path d="M104.109 246.033C102.67 251.876 94.7113 252.51 85.782 251.735C76.8528 250.959 70.3161 248.689 70.798 243.14C71.1838 238.697 78.2274 235.131 87.1566 235.906C96.0859 236.682 104.591 240.483 104.109 246.033Z" fill="#C63359"/>
</g>
<path d="M85.557 244.634C87.4779 244.224 87.7822 241.76 87.7173 240.968C85.7422 241.228 81.8007 242.695 81.6515 243.371C81.4649 244.217 83.1558 245.146 85.557 244.634Z" fill="url(#paint23_linear_9777_6660)"/>
<path d="M72.8825 244.672C70.899 244.324 70.6393 242.311 70.5885 241.33C72.6313 241.234 77.0061 242.006 77.2573 242.801C77.5713 243.795 75.7155 245.168 72.8825 244.672Z" fill="url(#paint24_linear_9777_6660)"/>
<path d="M84.0387 241.583C87.2969 243.246 98.6657 232.2 97.566 227.084C96.7257 223.174 89.2322 216.788 86.2578 221.727C82.5399 227.902 79.9659 239.504 84.0387 241.583Z" fill="#46281C"/>
<path d="M64.1983 227.683C65.3327 229.49 69.6854 230.582 71.4676 229.565C71.3434 228.88 69.3994 227.683 68.4514 225.959C67.5034 224.235 66.2607 223.282 65.7578 223.021C65.4726 223.049 64.8897 223.252 64.4687 223.582C63.2918 224.504 62.9349 225.669 64.1983 227.683Z" fill="url(#paint25_linear_9777_6660)"/>
<path d="M67.2074 232.913C67.7737 225.975 69.7368 219.313 71.143 217.353C71.143 217.353 73.5952 214.41 77.0216 214.091C83.2545 213.51 85.0274 216.059 85.0274 216.059C88.1734 219.433 89.6977 224.194 90.4552 232.755C91.0498 239.475 88.3748 241.599 85.9088 242.349C84.9369 242.644 83.1975 243.531 79.0934 243.559C74.337 243.591 74.8108 243.237 72.0203 242.571C68.5655 241.746 66.6466 239.782 67.2074 232.913Z" fill="url(#paint26_linear_9777_6660)"/>
<path d="M94.3872 225.046C93.9035 227.138 90.162 229.652 88.1581 229.301C88.0537 228.612 89.496 226.82 89.8313 224.871C90.1667 222.921 91.0281 221.599 91.4169 221.181C91.6941 221.11 92.3076 221.102 92.81 221.27C94.2143 221.739 94.9259 222.716 94.3872 225.046Z" fill="url(#paint27_linear_9777_6660)"/>
<path d="M78.6533 222.646C78.1446 222.648 77.7099 222.301 77.9616 221.989C78.0779 221.897 78.5287 221.824 78.6919 221.814C78.8468 221.804 79.148 221.833 79.294 221.947C79.7283 222.286 79.162 222.644 78.6533 222.646Z" fill="#4F2F22"/>
<ellipse cx="78.663" cy="224.137" rx="0.626879" ry="0.643423" fill="#4F2F22"/>
<ellipse cx="0.551946" cy="0.753" rx="0.551946" ry="0.753" transform="matrix(0.990517 0.136733 -0.129935 0.991609 74.8506 220.793)" fill="#4F2F22"/>
<ellipse cx="0.551854" cy="0.753119" rx="0.551854" ry="0.753119" transform="matrix(-0.990682 0.136756 0.129914 0.991452 82.2686 220.792)" fill="#4F2F22"/>
<path d="M90.2045 224.575C81.7139 228.726 71.7249 226.305 67.8958 224.575C66.5639 228.781 66.1478 235.739 68.104 238.962C70.4347 243.837 85.8343 245.37 89.2912 239.788C92.6525 234.36 91.0785 227.589 90.2045 224.575Z" fill="#EEEEF6"/>
<path d="M63.6079 242.641C61.7396 241.834 67.344 225.788 67.344 225.788C76.5387 229.051 81.5879 228.855 90.4491 225.788C90.4491 225.788 95.2665 241.632 93.3986 242.641C91.5308 243.65 65.4762 243.448 63.6079 242.641Z" fill="#3AA6FF"/>
<path d="M67.2341 240.236C65.9016 239.659 67.847 227.402 67.847 227.402C74.405 229.73 82.162 230.095 88.4821 227.907C88.4821 227.907 89.8144 239.515 88.4822 240.236C87.1499 240.956 68.5667 240.812 67.2341 240.236Z" fill="#EEEEF6"/>
<path fill-rule="evenodd" clip-rule="evenodd" d="M72.7608 210.84C73.8864 210.088 75.1343 209.714 76.6075 210.26C77.4944 210.589 78.1046 210.91 78.6143 211.552C79.3904 211.108 81.337 210.126 82.9922 210.4C86.5902 210.996 88.3819 213.734 89.4044 217.286C89.7824 218.6 89.9055 220.05 89.9053 221.4C90.795 222.675 91.6827 224.213 92.1544 225.794C93.2108 229.336 93.1884 232.635 90.5079 235.169C88.9272 236.664 86.5267 236.988 85.8379 236.71C85.1492 236.432 83.2824 235.373 84.0811 232.632C84.8799 229.892 86.3169 228.588 88.168 226.351C88.7839 225.606 88.9734 224.624 88.9317 223.6C88.4605 221.763 87.5429 219.604 85.7803 219.079C83.034 218.262 79.8084 218.957 78.9952 216.155C78.8384 215.614 78.9447 215.162 79.0294 214.708C74.1303 214.676 72.6648 216.741 72.6544 216.756C69.4892 220.128 67.9577 224.889 67.2002 233.45C67.1124 234.443 67.0981 235.336 67.1426 236.139C66.9533 236.104 66.7574 236.036 66.5596 235.938C66.147 235.734 65.7083 235.4 65.2618 234.966C64.464 234.191 64.1715 233.621 63.7286 232.675C62.7922 230.675 63.1821 229.018 63.9561 227.37C64.3404 226.553 64.8252 225.724 65.2872 224.864C65.7515 223.998 66.1989 223.089 66.5206 222.09C66.782 221.278 66.9412 220.513 67.0733 219.782C67.2048 219.053 67.3109 218.346 67.4649 217.667C67.7755 216.298 68.2869 215.012 69.6153 213.711C70.6272 212.721 71.6459 211.586 72.7608 210.84Z" fill="#FFC92B"/>
<path d="M70.5016 213.656C71.5979 213.323 72.0368 214.371 72.1192 214.936C71.4999 215.398 70.1279 216.214 69.5948 215.784C68.9283 215.248 69.1313 214.071 70.5016 213.656Z" fill="#D6AA80"/>
<path d="M85.3941 213.681C84.3141 213.297 83.8283 214.323 83.7203 214.883C84.3181 215.374 85.6517 216.254 86.2037 215.851C86.8937 215.346 86.7442 214.161 85.3941 213.681Z" fill="#D6AA80"/>
<path d="M22.9504 12.6422L21.4687 14.6039V19.1813L21.334 24.6743L21.738 28.8593L22.3781 31.0752L24.4299 33.2484L27.6941 36.2366L31.2582 40.1296L33.016 41.303L35.4348 41.0358L42.3362 39.6775L49.4241 37.7759L56.3255 36.6893L61.7347 34.9688L64.8124 34.1539L67.0506 32.0712L67.5169 28.5397L67.2372 22.5633L67.5169 15.772L67.1439 13.2365L64.0663 11.0633L60.3358 8.34676L56.9783 5.99246L54.6468 4.90579L52.2219 4.81531L48.8646 5.90191L43.0823 6.89796L37.6731 8.16566L33.4763 9.25226L29.9323 10.2484L25.375 11.4651L22.9504 12.6422Z" fill="white"/>
<path fill-rule="evenodd" clip-rule="evenodd" d="M63.7473 13.3911C65.0767 13.0785 66.2652 13.4423 67.0159 14.2573C67.5253 14.8138 67.8326 15.579 67.843 16.4829L68.0013 30.2017C68.0269 32.4335 66.2345 34.6723 64.0003 35.1978L35.6321 41.8687C33.3977 42.3942 31.5623 41.0089 31.5364 38.7769L31.3782 25.0591C31.3524 22.8271 33.1449 20.5876 35.3792 20.062L50.9632 16.398L55.6458 15.2964L63.7473 13.3911ZM42.0159 31.7837C41.7483 31.7776 41.4807 31.804 41.2132 31.8628C40.5372 32.0114 39.9898 32.3468 39.5716 32.8677C39.1534 33.3885 38.9436 34.0033 38.9436 34.7114C38.9437 35.4325 39.1463 35.9373 39.5511 36.2251C39.9559 36.5129 40.4799 36.5861 41.1223 36.4448C41.805 36.2947 42.3008 36.005 42.6087 35.5767C42.9164 35.1484 43.0931 34.7336 43.1399 34.3335L42.2366 34.3667C42.1228 35.0546 41.7851 35.4609 41.2229 35.5845C40.4533 35.7538 40.0686 35.3633 40.0686 34.4146C40.0688 33.4401 40.4432 32.8704 41.1927 32.7056C41.4671 32.6453 41.7283 32.646 41.9759 32.7085L42.1263 33.397L42.9895 33.1196L42.8089 31.9312C42.5479 31.8391 42.2835 31.7898 42.0159 31.7837ZM50.8704 30.1196C50.5626 29.9339 50.2044 29.8854 49.7962 29.9751C49.4281 30.0561 49.1169 30.2141 48.8626 30.4487C48.6082 30.6834 48.4144 30.9651 48.2806 31.2935C48.1735 30.9791 47.9857 30.7717 47.7181 30.6714C47.4504 30.5711 47.1493 30.5578 46.8147 30.6314C46.4802 30.705 46.1954 30.8416 45.9612 31.0425C45.727 31.2435 45.5393 31.4801 45.3987 31.7515V31.0298L43.6624 31.4116V32.2212L44.3245 32.0757V34.8433L43.6526 34.9917V35.7905L46.2425 35.2212V34.4214L45.3987 34.6069V32.8921C45.4054 32.5917 45.4931 32.307 45.6604 32.0396C45.8277 31.7724 46.0852 31.6004 46.4329 31.5239C46.7006 31.4651 46.9102 31.505 47.0608 31.6441C47.2114 31.7831 47.2864 32.0612 47.2864 32.4771V34.1919L47.0452 34.2456V35.0444L49.0335 34.6069V33.8081L48.3606 33.9556V32.2505C48.3673 31.9502 48.4526 31.6649 48.6165 31.395C48.7804 31.125 49.0401 30.9505 49.3948 30.8726C49.6691 30.8123 49.882 30.8517 50.0325 30.9907C50.1829 31.1298 50.258 31.4073 50.2581 31.8228V33.5386L50.0071 33.5942V34.3931L51.9944 33.9556V33.1567L51.3323 33.3023V31.2066C51.3323 30.6675 51.178 30.3054 50.8704 30.1196ZM54.8958 26.6118V27.4116L55.8694 27.1968V29.4097C55.7355 29.2052 55.5463 29.0601 55.302 28.9741C55.0578 28.8882 54.7582 28.8844 54.4036 28.9624C53.7078 29.1155 53.1978 29.4663 52.8733 30.0151C52.5488 30.564 52.3861 31.1502 52.386 31.7739C52.386 32.4562 52.5589 32.955 52.9036 33.2691C53.2483 33.5829 53.7153 33.6749 54.304 33.5454C54.712 33.4556 55.0414 33.2906 55.2923 33.0503C55.5432 32.8099 55.7355 32.548 55.8694 32.2651V33.104L57.6067 32.7222V31.9224L56.9436 32.0679V26.1616L54.8958 26.6118ZM54.7151 29.7319C55.0364 29.6613 55.3077 29.7086 55.5286 29.8745C55.7493 30.0403 55.8626 30.3044 55.8694 30.6665V30.9985C55.8627 31.3248 55.7494 31.6586 55.5286 31.9995C55.3077 32.3405 55.0129 32.5514 54.6448 32.6323C54.3305 32.7014 54.0613 32.6405 53.8372 32.4497C53.6131 32.2586 53.5004 31.9323 53.5003 31.4712C53.5003 31.0163 53.613 30.6323 53.8372 30.3198C54.0614 30.0074 54.3538 29.8114 54.7151 29.7319ZM64.3626 24.5054C64.1484 24.5037 63.9372 24.5262 63.7298 24.5718C63.2013 24.6881 62.7826 24.9453 62.4749 25.3442C62.167 25.7433 62.014 26.1805 62.0139 26.6548V27.3765L61.4212 27.5064V28.2769L62.0139 28.146V30.9536L61.3411 31.1011V31.9009L63.9309 31.3306V30.5317L63.0774 30.7192V27.9126L64.2122 27.6626V26.8931L63.0774 27.1421V26.2749C63.0774 25.7683 63.2848 25.4688 63.6995 25.3774C63.84 25.3466 63.9777 25.339 64.1116 25.355L64.3225 26.02L65.1653 25.7378L64.9749 24.6587C64.7808 24.5584 64.5767 24.507 64.3626 24.5054ZM58.2288 29.8755V30.7524L60.5979 30.2319V29.354L58.2288 29.8755ZM41.055 22.5444C41.0548 21.7775 40.3997 21.3169 39.6038 21.5249C38.8075 21.7333 38.1516 22.5378 38.1516 23.3052V23.771L37.1829 24.0249V23.5581C37.1829 22.7907 36.527 22.3303 35.7307 22.5386C34.9347 22.7471 34.2786 23.5506 34.2786 24.3179C34.2786 25.0851 34.9347 25.5455 35.7307 25.3374L36.2151 25.2105V26.1441L35.7307 26.27C34.9348 26.4784 34.2789 27.2822 34.2786 28.0493C34.2786 28.8166 34.9347 29.2778 35.7307 29.0698C36.527 28.8615 37.1829 28.057 37.1829 27.2896V26.8237L38.1516 26.5698V27.0366C38.1516 27.804 38.8075 28.2645 39.6038 28.0562C40.3998 27.8477 41.0549 27.0441 41.055 26.2769C41.055 25.5096 40.3999 25.0492 39.6038 25.2573L39.1194 25.3843V24.4507L39.6038 24.3247C40.3999 24.1162 41.055 23.3118 41.055 22.5444Z" fill="#0C2360"/>
<path d="M35.7291 23.6243C36.0026 23.5528 36.2132 23.7006 36.2132 23.9641V24.4306L35.7291 24.5573C35.4557 24.6288 35.2451 24.481 35.2451 24.2175C35.2451 23.9539 35.4557 23.6959 35.7291 23.6243Z" fill="#0C2360"/>
<path d="M39.6022 22.5596C39.8757 22.4881 40.0862 22.636 40.0862 22.8996C40.0862 23.1631 39.8757 23.4211 39.6022 23.4927L39.1182 23.6193V23.1528C39.1182 22.8893 39.3287 22.6312 39.6022 22.5596Z" fill="#0C2360"/>
<path d="M37.1885 25.0157L38.1565 24.7624V25.6954L37.1885 25.9487V25.0157Z" fill="#0C2360"/>
<path d="M35.7291 27.2051L36.2132 27.0784V27.5449C36.2132 27.8085 36.0026 28.0665 35.7291 28.138C35.4557 28.2096 35.2451 28.0618 35.2451 27.7982C35.2451 27.5346 35.4557 27.2766 35.7291 27.2051Z" fill="#0C2360"/>
<path d="M39.1182 26.3172L39.6022 26.1905C39.8757 26.119 40.0862 26.2668 40.0862 26.5304C40.0862 26.7939 39.8757 27.0519 39.6022 27.1235C39.3287 27.195 39.1182 27.0473 39.1182 26.7837V26.3172Z" fill="#0C2360"/>
<path fill-rule="evenodd" clip-rule="evenodd" d="M53.4105 4.00596C53.2904 4.01177 53.0089 4.04374 52.8469 4.06996C52.7134 4.09157 51.2452 4.42961 45.322 5.80258C44.9097 5.89816 40.2907 6.96813 35.0577 8.18032C29.8247 9.3925 25.4645 10.4067 25.3684 10.4341C24.8482 10.5823 24.2826 10.8322 23.8634 11.099C22.8206 11.7627 22.0084 12.6574 21.4972 13.7056C21.1581 14.4009 20.9817 15.0412 20.9266 15.7773C20.9171 15.903 20.9308 17.3673 20.9877 22.3429C21.0279 25.8651 21.0663 28.887 21.0729 29.0584C21.0795 29.2298 21.0922 29.4255 21.1011 29.4933C21.2129 30.3424 21.5367 31.0837 22.0628 31.6949C22.2039 31.8588 22.9206 32.5569 23.2039 32.8064C23.4776 33.0475 24.107 33.6509 24.8028 34.3394C25.427 34.9569 25.9529 35.4871 27.1996 36.7554C27.3798 36.9387 27.6363 37.1994 27.7696 37.3349C27.9029 37.4703 28.1996 37.773 28.4289 38.0076C28.6582 38.2421 28.9043 38.493 28.9757 38.5652C29.047 38.6374 29.25 38.844 29.4267 39.0242C29.9858 39.5946 30.5307 40.1426 30.5926 40.1967C30.6255 40.2254 30.7534 40.3424 30.8769 40.4567C31.1901 40.7466 31.4178 40.9462 31.563 41.058C31.9783 41.3781 32.5649 41.6723 33.0345 41.7961C33.3524 41.88 33.6168 41.9112 34.2883 41.9442L34.432 41.9513V41.4928V41.0343L34.3447 41.0392C34.2173 41.0464 33.9391 41.0241 33.7638 40.9927C33.2901 40.9078 32.7861 40.6805 32.3258 40.3441C31.9307 40.0553 31.5402 39.6856 31.1687 39.2485C31.07 39.1324 28.3453 36.3445 27.8879 35.8916C27.7267 35.732 26.9585 34.9694 26.1807 34.1968C25.403 33.4243 24.6368 32.6643 24.478 32.5079C23.3824 31.429 23.212 31.2499 22.9595 30.9116C22.6027 30.4336 22.4722 30.1816 22.3653 29.7636C22.2944 29.4862 22.2703 29.281 22.2618 28.8834C22.2583 28.7181 22.2228 25.7468 22.1828 22.2807C22.1076 15.7591 22.1082 15.8846 22.1504 15.5608C22.2478 14.8126 22.605 13.9861 23.1144 13.3304C23.2933 13.1001 23.4021 12.9791 23.6264 12.7608C24.1132 12.2869 24.5809 11.9722 25.1724 11.7202C25.3518 11.6438 25.7091 11.5257 25.8869 11.4839C26.0259 11.4513 52.4322 5.33229 52.7398 5.26142C53.0965 5.17923 53.2524 5.15897 53.5968 5.15009C53.8552 5.14343 54.0155 5.15265 54.2222 5.18603C54.4956 5.23019 54.7887 5.32085 55.0335 5.437C55.4195 5.62014 56.1897 6.03991 56.5178 6.24596C56.5775 6.28346 57.8762 7.19626 59.4037 8.27441C63.339 11.0519 63.7516 11.3436 64.9825 12.2186C66.0104 12.9492 66.0914 13.0092 66.2317 13.1433C66.4842 13.3844 66.6472 13.5965 66.7705 13.8443C66.9118 14.1282 66.9384 14.2437 66.9669 14.6971C66.9867 15.0121 67.0003 15.9716 66.9927 16.5148L66.9855 17.0314L67.0127 17.0316C67.0276 17.0317 67.2097 17.0462 67.4172 17.0638C67.6247 17.0814 67.7972 17.0933 67.8005 17.0901C67.8038 17.0869 67.8079 16.6037 67.8098 16.0164C67.8125 15.1204 67.8102 14.9125 67.7952 14.7244C67.724 13.8338 67.6062 13.3266 67.3779 12.9287C67.2177 12.6494 67.0093 12.395 66.7798 12.1987C66.7201 12.1476 66.6553 12.0917 66.6357 12.0745C66.4747 11.9325 65.6428 11.3197 64.7119 10.6572C64.622 10.5932 64.4115 10.4432 64.2441 10.3239C63.7511 9.97242 61.9381 8.69041 61.3525 8.27915C60.8211 7.90593 59.859 7.22815 59.7461 7.14735C59.6903 7.10744 59.5533 7.01091 59.4417 6.93284C59.3301 6.85477 59.013 6.63092 58.7371 6.43538C58.4612 6.23986 58.1391 6.01169 58.0213 5.92836C57.6469 5.66352 57.28 5.39229 57.1927 5.3158C56.95 5.10325 56.5339 4.85549 55.972 4.58901C55.2567 4.24981 54.8619 4.11996 54.3124 4.04316C54.0376 4.00475 53.7123 3.99134 53.4105 4.00596Z" fill="#0C2360"/>
<defs>
<linearGradient id="paint0_linear_9777_6660" x1="206.922" y1="157.071" x2="206.326" y2="290.828" gradientUnits="userSpaceOnUse">
<stop stop-color="#A0E475"/>
<stop offset="1" stop-color="#4FAE89"/>
</linearGradient>
<linearGradient id="paint1_linear_9777_6660" x1="206.922" y1="157.071" x2="206.326" y2="290.828" gradientUnits="userSpaceOnUse">
<stop stop-color="#A0E475"/>
<stop offset="1" stop-color="#4FAE89"/>
</linearGradient>
<linearGradient id="paint2_linear_9777_6660" x1="52.5299" y1="108.346" x2="52.4283" y2="151.489" gradientUnits="userSpaceOnUse">
<stop stop-color="#0F2CB0"/>
<stop offset="1" stop-color="#457EC1"/>
</linearGradient>
<radialGradient id="paint3_radial_9777_6660" cx="0" cy="0" r="1" gradientTransform="matrix(8.4347 32.8512 -51.4444 13.2088 43.3853 139.094)" gradientUnits="userSpaceOnUse">
<stop stop-color="#E8A982"/>
<stop offset="1" stop-color="#E64B73"/>
</radialGradient>
<linearGradient id="paint4_linear_9777_6660" x1="48.985" y1="176.308" x2="47.4808" y2="225.883" gradientUnits="userSpaceOnUse">
<stop stop-color="#FAF2E7"/>
<stop offset="1" stop-color="#FFDB90"/>
</linearGradient>
<linearGradient id="paint5_linear_9777_6660" x1="48.985" y1="176.308" x2="47.4808" y2="225.883" gradientUnits="userSpaceOnUse">
<stop stop-color="#FFEDD4"/>
<stop offset="1" stop-color="#FFCAB8"/>
</linearGradient>
<linearGradient id="paint6_linear_9777_6660" x1="47.0171" y1="198.864" x2="48.232" y2="242.507" gradientUnits="userSpaceOnUse">
<stop stop-color="#499A7B"/>
<stop offset="1" stop-color="#81D07C"/>
</linearGradient>
<radialGradient id="paint7_radial_9777_6660" cx="0" cy="0" r="1" gradientTransform="matrix(8.41544 44.2606 -69.3118 13.1795 120.636 58.2982)" gradientUnits="userSpaceOnUse">
<stop stop-color="#E8A982"/>
<stop offset="1" stop-color="#E64B73"/>
</radialGradient>
<linearGradient id="paint8_linear_9777_6660" x1="126.159" y1="109.798" x2="124.193" y2="228.074" gradientUnits="userSpaceOnUse">
<stop stop-color="#FAF2E7"/>
<stop offset="1" stop-color="#FFDB90"/>
</linearGradient>
<linearGradient id="paint9_linear_9777_6660" x1="126.159" y1="109.798" x2="124.193" y2="228.074" gradientUnits="userSpaceOnUse">
<stop stop-color="#FFEDD4"/>
<stop offset="1" stop-color="#FFCAB8"/>
</linearGradient>
<linearGradient id="paint10_linear_9777_6660" x1="127.024" y1="181.369" x2="125.241" y2="245.423" gradientUnits="userSpaceOnUse">
<stop stop-color="#499A7B"/>
<stop offset="1" stop-color="#81D07C"/>
</linearGradient>
<linearGradient id="paint11_linear_9777_6660" x1="139.683" y1="43.1206" x2="136.383" y2="70.5337" gradientUnits="userSpaceOnUse">
<stop stop-color="#632E64"/>
<stop offset="1" stop-color="#9849BD"/>
</linearGradient>
<radialGradient id="paint12_radial_9777_6660" cx="0" cy="0" r="1" gradientTransform="matrix(7.82793 33.2774 47.2491 -10.5092 170.686 170.991)" gradientUnits="userSpaceOnUse">
<stop stop-color="#E8A982"/>
<stop offset="1" stop-color="#E64B73"/>
</radialGradient>
<linearGradient id="paint13_linear_9777_6660" x1="176.057" y1="209.483" x2="173.931" y2="240.49" gradientUnits="userSpaceOnUse">
<stop stop-color="#FAF2E7"/>
<stop offset="1" stop-color="#F5E6FF"/>
</linearGradient>
<linearGradient id="paint14_linear_9777_6660" x1="177.322" y1="209.57" x2="175.143" y2="241.354" gradientUnits="userSpaceOnUse">
<stop stop-color="#FFEDD4"/>
<stop offset="1" stop-color="#FFCAB8"/>
</linearGradient>
<linearGradient id="paint15_linear_9777_6660" x1="178.517" y1="222.627" x2="179.467" y2="256.766" gradientUnits="userSpaceOnUse">
<stop stop-color="#499A7B"/>
<stop offset="1" stop-color="#81D07C"/>
</linearGradient>
<linearGradient id="paint16_linear_9777_6660" x1="51.1484" y1="81.5432" x2="54.2489" y2="88.4519" gradientUnits="userSpaceOnUse">
<stop stop-color="#DCB206"/>
<stop offset="1" stop-color="#F09D00"/>
</linearGradient>
<linearGradient id="paint17_linear_9777_6660" x1="52.4341" y1="74.8938" x2="59.5" y2="90.6383" gradientUnits="userSpaceOnUse">
<stop stop-color="#DCB206"/>
<stop offset="1" stop-color="#F09D00"/>
</linearGradient>
<linearGradient id="paint18_linear_9777_6660" x1="205.363" y1="148.969" x2="203.192" y2="154.935" gradientUnits="userSpaceOnUse">
<stop stop-color="#DCB206"/>
<stop offset="1" stop-color="#F09D00"/>
</linearGradient>
<linearGradient id="paint19_linear_9777_6660" x1="203.886" y1="143.488" x2="198.937" y2="157.082" gradientUnits="userSpaceOnUse">
<stop stop-color="#DCB206"/>
<stop offset="1" stop-color="#F09D00"/>
</linearGradient>
<linearGradient id="paint20_linear_9777_6660" x1="180.373" y1="150.624" x2="183.547" y2="156.122" gradientUnits="userSpaceOnUse">
<stop stop-color="#DCB206"/>
<stop offset="1" stop-color="#F09D00"/>
</linearGradient>
<linearGradient id="paint21_linear_9777_6660" x1="180.877" y1="144.97" x2="188.111" y2="157.499" gradientUnits="userSpaceOnUse">
<stop stop-color="#DCB206"/>
<stop offset="1" stop-color="#F09D00"/>
</linearGradient>
<radialGradient id="paint22_radial_9777_6660" cx="0" cy="0" r="1" gradientTransform="matrix(1.44301 13.456 -24.7057 2.24827 80.602 235.506)" gradientUnits="userSpaceOnUse">
<stop stop-color="#E8A982"/>
<stop offset="1" stop-color="#E64B73"/>
</radialGradient>
<linearGradient id="paint23_linear_9777_6660" x1="84.5398" y1="241.62" x2="84.2923" y2="245.092" gradientUnits="userSpaceOnUse">
<stop offset="0.288798" stop-color="#D6AA80"/>
<stop offset="1" stop-color="#B0814F"/>
</linearGradient>
<linearGradient id="paint24_linear_9777_6660" x1="73.9037" y1="241.446" x2="73.836" y2="245.439" gradientUnits="userSpaceOnUse">
<stop offset="0.288798" stop-color="#D6AA80"/>
<stop offset="1" stop-color="#B0814F"/>
</linearGradient>
<linearGradient id="paint25_linear_9777_6660" x1="69.1926" y1="224.042" x2="61.424" y2="229.975" gradientUnits="userSpaceOnUse">
<stop stop-color="#D6AA80"/>
<stop offset="1" stop-color="#B0814F"/>
</linearGradient>
<linearGradient id="paint26_linear_9777_6660" x1="78.3081" y1="226.933" x2="78.3081" y2="250.338" gradientUnits="userSpaceOnUse">
<stop stop-color="#D6AA80"/>
<stop offset="1" stop-color="#B0814F"/>
</linearGradient>
<linearGradient id="paint27_linear_9777_6660" x1="88.1815" y1="226.209" x2="94.6413" y2="228.358" gradientUnits="userSpaceOnUse">
<stop stop-color="#D6AA80"/>
<stop offset="1" stop-color="#B0814F"/>
</linearGradient>
</defs>
</svg>
