<svg width="252" height="259" viewBox="0 0 252 259" fill="none" xmlns="http://www.w3.org/2000/svg">
<path d="M160.892 179.839C142.897 176.759 124.903 159.622 126.101 151.096C132.093 150.605 147.743 151.641 164.544 153.852C181.345 156.063 190.984 157.911 196.101 163.464C196.645 165.057 196.562 168.56 194.985 171.402C190.578 179.346 180.935 183.269 160.892 179.839Z" fill="url(#paint0_linear_1216_4314)"/>
<path d="M65.8544 96.6888C67.8375 114.85 86.6737 139.138 97.1962 137.716C97.9156 131.94 90.8649 115.587 89.6179 98.7497C88.3708 81.9128 84.2243 70 82.3069 66.1483C80.8815 65.3306 77.6895 64.7844 75.0311 65.8182C67.6002 68.7081 63.6456 76.4611 65.8544 96.6888Z" fill="url(#paint1_linear_1216_4314)"/>
<path d="M179.732 111.872C159.646 142.76 133.895 157.204 125.505 161.829L91.2828 139.926C94.0144 123.448 92.3469 103.126 113.77 69.6543C130.588 43.3776 151.231 35.6192 158.697 37.5568C161.639 38.3204 170.879 44.0348 171.544 45.779C172.878 49.279 159.656 66.8331 154.926 71.7428C154.926 71.7428 158.263 72.411 161.973 76.2533C165.684 80.0956 177.553 75.7391 177.553 75.7391L179.732 111.872Z" fill="url(#paint2_linear_1216_4314)"/>
<path d="M159.757 37.1852C157.607 36.1376 140.999 30.4379 114.925 68.401C137.138 77.1103 150.812 74.0054 154.872 71.3643C159.316 66.7664 172.732 49.8604 170.278 44.5253C169.237 42.2626 161.908 38.2328 159.757 37.1852Z" fill="url(#paint3_linear_1216_4314)"/>
<path d="M207.757 75.2552C208.644 77.4554 213.111 94.2905 173.445 117.693C166.389 95.1047 170.47 81.7472 173.392 77.892C178.289 73.7822 196.085 61.5717 201.216 64.3496C203.392 65.5278 206.87 73.0551 207.757 75.2552Z" fill="url(#paint4_linear_1216_4314)"/>
<ellipse cx="133.642" cy="109.302" rx="23.8369" ry="29.0677" transform="rotate(-147.38 133.642 109.302)" fill="url(#paint5_radial_1216_4314)"/>
<path d="M51.5149 149.168C63.5343 131.187 82.2354 122.599 113.089 143.224C147.923 166.51 143.156 184.412 131.137 202.393C119.117 220.373 91.5496 223.034 69.5627 208.336C47.5758 193.639 39.4955 167.148 51.5149 149.168Z" fill="url(#paint6_linear_1216_4314)"/>
<path d="M37.5808 181.349C34.6888 171.051 46.6017 167.666 46.6017 167.666L53.6231 188.717C53.6231 188.717 40.4728 191.647 37.5808 181.349Z" fill="#C686A2"/>
<path d="M41.8845 179.916C40.1358 172.927 48.2151 170.844 48.2151 170.844L52.5364 185.149C52.5364 185.149 43.6333 186.905 41.8845 179.916Z" fill="url(#paint7_linear_1216_4314)"/>
<path d="M107.913 226.921C118.534 225.657 117.108 213.354 117.108 213.354L94.9716 214.914C94.9716 214.914 97.2918 228.186 107.913 226.921Z" fill="#C686A2"/>
<path d="M107.591 222.394C114.717 221.338 113.554 213.076 113.554 213.076L98.6832 214.552C98.6832 214.552 100.464 223.45 107.591 222.394Z" fill="url(#paint8_linear_1216_4314)"/>
<path d="M112.426 202.114C109.233 204.39 105.162 205.038 101.377 204.01C84.7129 199.484 75.0753 193.004 63.391 178.6C60.7484 175.342 59.6812 171.033 60.7566 166.978C63.2246 157.673 67.0042 151.814 74.0815 145.966C78.2633 142.511 84.1755 142.264 88.9546 144.831C102.078 151.88 111.171 158.005 122.763 167.502C126.763 170.778 128.838 175.989 127.524 180.99C125.097 190.222 120.921 196.059 112.426 202.114Z" fill="url(#paint9_linear_1216_4314)"/>
<ellipse cx="95.4333" cy="168.544" rx="15.4483" ry="8.44333" transform="rotate(-147.292 95.4333 168.544)" fill="#EBB994"/>
<path d="M95.0142 169.063C96.8857 170.334 97.6421 172.648 95.9627 173.117C95.3155 173.146 93.5754 172.557 92.9512 172.185C92.3585 171.831 91.2355 170.681 90.975 169.914C90.2001 167.63 93.1428 167.792 95.0142 169.063Z" fill="#3A241E" stroke="#3A241E" stroke-width="0.851317" stroke-linecap="round"/>
<path d="M94.9197 169.225L96.8122 166.394M96.8122 166.394C96.4788 165.488 95.4698 163.449 93.4639 162.62M96.8122 166.394C97.4616 166.316 100.012 166.229 101.249 167.824" stroke="#3A241E" stroke-width="0.851317" stroke-linecap="round"/>
<path d="M107.819 186.484C107.462 186.17 107.297 185.683 107.341 185.128C107.384 184.572 107.638 183.963 108.101 183.438C108.563 182.914 109.137 182.586 109.682 182.474C110.228 182.361 110.732 182.465 111.088 182.779C111.444 183.093 111.609 183.58 111.566 184.136C111.522 184.691 111.268 185.301 110.806 185.825C110.343 186.349 109.77 186.677 109.224 186.79C108.679 186.902 108.175 186.799 107.819 186.484Z" fill="#3A241E" stroke="#3A241E" stroke-width="0.425659"/>
<path d="M75.575 164.674C76.0016 164.883 76.5149 164.85 77.0113 164.597C77.5077 164.344 77.9742 163.877 78.2818 163.249C78.5894 162.621 78.673 161.966 78.5684 161.419C78.4638 160.872 78.1757 160.446 77.7491 160.237C77.3225 160.028 76.8092 160.061 76.3128 160.314C75.8163 160.567 75.35 161.034 75.0423 161.662C74.7346 162.29 74.6512 162.945 74.7557 163.492C74.8603 164.039 75.1484 164.465 75.575 164.674Z" fill="#3A241E" stroke="#3A241E" stroke-width="0.425659"/>
<defs>
<linearGradient id="paint0_linear_1216_4314" x1="124.133" y1="165.099" x2="201.765" y2="187.517" gradientUnits="userSpaceOnUse">
<stop stop-color="#BB869E"/>
<stop offset="1" stop-color="#876472"/>
</linearGradient>
<linearGradient id="paint1_linear_1216_4314" x1="80.8461" y1="137.083" x2="56.7956" y2="37.2775" gradientUnits="userSpaceOnUse">
<stop stop-color="#BB869E"/>
<stop offset="1" stop-color="#876473"/>
</linearGradient>
<linearGradient id="paint2_linear_1216_4314" x1="108.312" y1="150.825" x2="195.58" y2="30.3562" gradientUnits="userSpaceOnUse">
<stop stop-color="#C597AB"/>
<stop offset="1" stop-color="#956F7F"/>
</linearGradient>
<linearGradient id="paint3_linear_1216_4314" x1="143.874" y1="78.2923" x2="164.257" y2="35.1469" gradientUnits="userSpaceOnUse">
<stop stop-color="#C59797"/>
<stop offset="1" stop-color="#956F7F"/>
</linearGradient>
<linearGradient id="paint4_linear_1216_4314" x1="165.701" y1="88.3493" x2="210.161" y2="71.0526" gradientUnits="userSpaceOnUse">
<stop stop-color="#C59797"/>
<stop offset="1" stop-color="#956F7F"/>
</linearGradient>
<radialGradient id="paint5_radial_1216_4314" cx="0" cy="0" r="1" gradientUnits="userSpaceOnUse" gradientTransform="translate(140.609 95.7586) rotate(99.2855) scale(43.177 35.4071)">
<stop stop-color="#F4C3BB"/>
<stop offset="1" stop-color="#B88299"/>
</radialGradient>
<linearGradient id="paint6_linear_1216_4314" x1="96.4016" y1="167.992" x2="143.245" y2="106.435" gradientUnits="userSpaceOnUse">
<stop stop-color="#C597AB"/>
<stop offset="1" stop-color="#93536F"/>
</linearGradient>
<linearGradient id="paint7_linear_1216_4314" x1="52.5969" y1="174.171" x2="44.9763" y2="184.206" gradientUnits="userSpaceOnUse">
<stop stop-color="#E8B5CB"/>
<stop offset="1" stop-color="#C49797"/>
</linearGradient>
<linearGradient id="paint8_linear_1216_4314" x1="108.803" y1="210.299" x2="102.445" y2="221.177" gradientUnits="userSpaceOnUse">
<stop stop-color="#E8B5CB"/>
<stop offset="1" stop-color="#C49797"/>
</linearGradient>
<linearGradient id="paint9_linear_1216_4314" x1="80.0928" y1="194.726" x2="106.467" y2="155.271" gradientUnits="userSpaceOnUse">
<stop stop-color="#B58968"/>
<stop offset="1" stop-color="#B6715B"/>
</linearGradient>
</defs>
</svg>
