<svg width="129" height="134" viewBox="0 0 129 134" fill="none" xmlns="http://www.w3.org/2000/svg">
<path d="M104.67 79.0829C106.729 74.2608 101.929 69.9252 100.138 68.8884C97.6757 73.6065 94.7875 84.4329 96.005 85.7675C97.5269 87.4357 102.095 85.1106 104.67 79.0829Z" fill="url(#paint0_linear_1216_4383)"/>
<path d="M85.3876 106.931C81.6148 110.764 76.9171 108.337 74.7437 106.988C77.6584 102.364 85.9925 93.9209 88.0748 94.5536C90.6776 95.3444 90.7763 101.458 85.3876 106.931Z" fill="url(#paint1_linear_1216_4383)"/>
<path d="M95.8369 77.8759C104.369 73.2073 98.1388 31.8339 85.5283 26.6295C75.8924 22.6527 50.7984 29.5775 56.8072 43.4527C64.3182 60.7966 85.1722 83.7117 95.8369 77.8759Z" fill="#DBB4B9"/>
<path d="M87.442 39.5228C82.59 36.7298 70.969 39.5224 67.9628 44.0479C69.0778 45.4808 75.1165 45.8722 79.4271 48.7C83.7377 51.5279 87.8228 52.2122 89.3265 52.2008C89.9687 51.7876 91.1079 50.6082 91.7105 49.3314C93.3949 45.7624 92.8461 42.6336 87.442 39.5228Z" fill="url(#paint2_linear_1216_4383)"/>
<path d="M35.3477 86.6289C40.8668 85.6859 50.6414 90.4504 51.9059 95.7506C50.3651 96.7113 43.7307 99.7612 39.244 101.522C34.7573 103.282 31.9341 102.424 29.4874 100.165C27.0407 97.9074 27.2979 96.9895 27.1718 95.5794C26.8192 91.6377 29.2006 87.6791 35.3477 86.6289Z" fill="url(#paint3_linear_1216_4383)"/>
<path d="M51.5997 101.877C37.6441 90.3083 26.409 76.0856 24.3712 70.0851C24.3712 70.0851 21.8308 60.3274 26.3836 52.3386C34.6655 37.8062 42.8199 37.7127 42.8199 37.7127C54.8347 35.8368 67.3357 39.5815 86.7824 50.664C102.049 59.3643 102.499 68.3916 100.333 74.915C99.4792 77.4858 98.7154 82.6196 92.5044 91.6606C85.3062 102.139 85.274 100.573 79.5877 105.7C72.5476 112.049 65.4187 113.332 51.5997 101.877Z" fill="url(#paint4_linear_1216_4383)"/>
<path d="M51.5997 101.877C37.6441 90.3083 26.409 76.0856 24.3712 70.0851C24.3712 70.0851 21.8308 60.3274 26.3836 52.3386C34.6655 37.8062 42.8199 37.7127 42.8199 37.7127C54.8347 35.8368 67.3357 39.5815 86.7824 50.664C102.049 59.3643 102.499 68.3916 100.333 74.915C99.4792 77.4858 98.7154 82.6196 92.5044 91.6606C85.3062 102.139 85.274 100.573 79.5877 105.7C72.5476 112.049 65.4187 113.332 51.5997 101.877Z" fill="url(#paint5_linear_1216_4383)" fill-opacity="0.5"/>
<path d="M19.6471 65.7395C19.9404 62.8327 22.7796 62.78 24.1625 63.117C24.6286 65.0172 25.1844 69.032 23.6792 69.8894C21.7977 70.9611 19.2805 69.3732 19.6471 65.7395Z" fill="#D39792"/>
<path d="M39.9906 35.5471C37.6276 37.2654 39.013 39.7442 40.001 40.7689C41.8771 40.2138 45.6249 38.6706 45.6069 36.9384C45.5844 34.7732 42.9443 33.3993 39.9906 35.5471Z" fill="#D39792"/>
<g filter="url(#filter0_f_1216_4383)">
<path d="M31.6738 71.4564C30.7451 69.8908 30.6044 67.9836 31.1866 66.2588C34.393 56.7591 38.2001 51.3246 46.462 44.3514C47.9486 43.0967 49.9229 42.5176 51.8224 42.9375C56.552 43.9832 59.3466 45.8782 61.9965 49.6751C63.4004 51.6866 63.3438 54.3462 62.1195 56.4719C57.5456 64.4134 53.8541 69.676 47.9541 76.756C46.4699 78.5371 44.173 79.5224 41.9034 79.0489C37.1535 78.0579 34.3636 75.991 31.6738 71.4564Z" fill="url(#paint6_linear_1216_4383)"/>
</g>
<path d="M47.9765 60.7486C47.2038 61.8674 45.7982 62.3041 45.5146 61.2864C45.4971 60.8955 46.0305 59.7986 46.2571 59.425C46.4723 59.0703 46.9958 58.4539 47.462 58.3033C48.849 57.8551 48.7491 59.6299 47.9765 60.7486Z" fill="#372824"/>
<path d="M50.3417 64.8357L48.8596 63.8289L49.621 61.3967L51.3078 60.2253L52.7898 61.2321C52.9141 61.3165 52.9464 61.4856 52.862 61.6098L50.7194 64.7636C50.635 64.8878 50.4659 64.9201 50.3417 64.8357Z" fill="#DBDBDB"/>
<path d="M48.2061 60.7525L49.3685 61.5334M49.3685 61.5334C50.0311 61.2912 51.4607 60.5396 51.8787 59.4709C52.2968 58.4022 52.1725 57.7314 52.0582 57.5296M49.3685 61.5334C49.4244 62.0083 49.4146 63.1389 48.5817 64.3787C47.7488 65.6186 46.9371 65.7107 46.5921 65.6663" stroke="#372824" stroke-width="0.543809" stroke-linecap="round"/>
<ellipse cx="40.5457" cy="65.4331" rx="1.32687" ry="1.7656" transform="rotate(-47.4726 40.5457 65.4331)" fill="#372824"/>
<ellipse cx="1.32687" cy="1.7656" rx="1.32687" ry="1.7656" transform="matrix(-0.457216 0.889356 0.889356 0.457216 48.5469 50.5768)" fill="#372824"/>
<path d="M51.8458 39.4074C55.0128 40.2764 57.4122 41.8383 57.2332 42.4907C57.0542 43.143 54.6033 41.7691 51.4362 40.9001C48.2692 40.0311 43.8722 44.3771 44.299 42.8217C44.7257 41.2664 48.6788 38.5385 51.8458 39.4074Z" fill="#EDC5C2"/>
<path d="M81.7137 28.071C84.2007 28.7534 86.0353 30.1603 85.8563 30.8127C85.6773 31.465 83.7911 30.246 81.3042 29.5637C78.8172 28.8813 74.2609 31.7614 74.6877 30.2061C75.1144 28.6507 79.2267 27.3886 81.7137 28.071Z" fill="#D7C9D1"/>
<defs>
<filter id="filter0_f_1216_4383" x="27.8398" y="39.8015" width="38.2031" height="42.3652" filterUnits="userSpaceOnUse" color-interpolation-filters="sRGB">
<feFlood flood-opacity="0" result="BackgroundImageFix"/>
<feBlend mode="normal" in="SourceGraphic" in2="BackgroundImageFix" result="shape"/>
<feGaussianBlur stdDeviation="1.5" result="effect1_foregroundBlur_1216_4383"/>
</filter>
<linearGradient id="paint0_linear_1216_4383" x1="96.6761" y1="76.8267" x2="106.998" y2="84.102" gradientUnits="userSpaceOnUse">
<stop offset="0.288798" stop-color="#A87E7A"/>
<stop offset="1" stop-color="#80534E"/>
</linearGradient>
<linearGradient id="paint1_linear_1216_4383" x1="80.0558" y1="99.8901" x2="90.4554" y2="107.949" gradientUnits="userSpaceOnUse">
<stop offset="0.288798" stop-color="#AE706B"/>
<stop offset="1" stop-color="#715451"/>
</linearGradient>
<linearGradient id="paint2_linear_1216_4383" x1="73.3076" y1="37.563" x2="133.376" y2="84.9231" gradientUnits="userSpaceOnUse">
<stop stop-color="#DBDBDB"/>
<stop offset="1" stop-color="#BB9490"/>
</linearGradient>
<linearGradient id="paint3_linear_1216_4383" x1="48.5096" y1="90.8974" x2="-22.6746" y2="117.603" gradientUnits="userSpaceOnUse">
<stop stop-color="#E2C3C0"/>
<stop offset="1" stop-color="#BB9490"/>
</linearGradient>
<linearGradient id="paint4_linear_1216_4383" x1="63.4043" y1="73.8868" x2="156.792" y2="138.956" gradientUnits="userSpaceOnUse">
<stop stop-color="#D9A5A1"/>
<stop offset="1" stop-color="#B17771"/>
</linearGradient>
<linearGradient id="paint5_linear_1216_4383" x1="49.1443" y1="51.4989" x2="105.104" y2="101.986" gradientUnits="userSpaceOnUse">
<stop stop-color="#DBDBDB"/>
<stop offset="1" stop-color="#B17872"/>
</linearGradient>
<linearGradient id="paint6_linear_1216_4383" x1="37.0894" y1="54.1267" x2="55.5148" y2="66.9649" gradientUnits="userSpaceOnUse">
<stop stop-color="#C6A274"/>
<stop offset="1" stop-color="#C6916B"/>
</linearGradient>
</defs>
</svg>
