<svg width="233" height="261" viewBox="0 0 233 261" fill="none" xmlns="http://www.w3.org/2000/svg">
<path d="M153.343 174.658C143.867 164.641 120.42 145.962 111.007 151.772C112.299 156.349 122.729 166.475 131.417 177.023C140.025 187.475 143.427 188.094 146.543 190.061C149.241 192.001 156.951 195.689 159.099 193.725C165.104 188.233 164.665 186.627 153.343 174.658Z" fill="url(#paint0_linear_1216_4340)"/>
<path d="M61.004 117.231C74.074 121.626 100.871 135.065 99.5488 146.048C94.852 146.797 81.2839 141.581 68.0621 138.124C54.9622 134.699 52.9725 131.871 49.8788 129.869C46.9857 128.234 41.814 124.664 42.6953 121.89C45.1586 114.134 45.3876 111.979 61.004 117.231Z" fill="url(#paint1_linear_1216_4340)"/>
<path d="M51.5971 175.409C65.4416 150.293 84.9915 137.794 91.7931 134.015L124.549 151.658C124.177 165.029 124.682 179.639 109.981 206.855C98.441 228.221 89.9512 240.356 80.841 234.425C78.5025 232.903 73.0498 229.998 72.251 228.586C70.6479 225.753 81.6745 200.353 85.2257 196.355C85.2257 196.355 82.9256 196.479 79.2495 194.499C75.5734 192.519 75.6423 191.875 74.4818 190.568C72.9567 195.329 57.5213 218.296 50.4409 217.572C48.24 217.347 47.5301 215.958 45.6284 214.904C40.0365 211.804 34.2915 206.804 51.5971 175.409Z" fill="url(#paint2_radial_1216_4340)"/>
<ellipse cx="92.8247" cy="168.644" rx="16.3381" ry="20" transform="rotate(29.1967 92.8247 168.644)" fill="url(#paint3_radial_1216_4340)"/>
<path d="M108.393 164.916C107.804 168.369 106.149 171.038 105.243 170.883C104.337 170.729 105.732 168.016 106.32 164.562C106.909 161.109 102.404 155.337 104.564 155.705C106.724 156.073 108.982 161.462 108.393 164.916Z" fill="#D7C9CF"/>
<path d="M161.185 137.646C150.881 156.085 137.161 161.986 108.786 151.917C105.503 150.752 102.391 149.067 99.6196 146.956C74.2189 127.603 74.8046 113.651 85.1412 95.1528C96.0238 75.678 121.869 69.4031 142.868 81.1373C163.866 92.8715 172.067 118.171 161.185 137.646Z" fill="url(#paint4_radial_1216_4340)"/>
<g filter="url(#filter0_f_1216_4340)">
<path d="M101.345 91.189C103.97 89.0223 107.588 88.5819 110.738 89.8733C116.465 92.2212 125.833 96.2327 132.334 99.8803C138.62 103.407 146.639 109.072 151.555 112.66C154.365 114.71 155.886 118.116 155.315 121.547C153.456 132.715 149.577 139.308 141.075 146.792C138.532 149.032 134.957 149.616 131.777 148.445C126.058 146.34 116.763 142.71 110.382 139.163C103.72 135.46 95.3559 129.137 90.5054 125.32C87.9782 123.332 86.5975 120.205 86.9994 117.014C88.4402 105.575 92.1341 98.7895 101.345 91.189Z" fill="#B27D4C"/>
<path d="M101.345 91.189C103.97 89.0223 107.588 88.5819 110.738 89.8733C116.465 92.2212 125.833 96.2327 132.334 99.8803C138.62 103.407 146.639 109.072 151.555 112.66C154.365 114.71 155.886 118.116 155.315 121.547C153.456 132.715 149.577 139.308 141.075 146.792C138.532 149.032 134.957 149.616 131.777 148.445C126.058 146.34 116.763 142.71 110.382 139.163C103.72 135.46 95.3559 129.137 90.5054 125.32C87.9782 123.332 86.5975 120.205 86.9994 117.014C88.4402 105.575 92.1341 98.7895 101.345 91.189Z" fill="#A86A6F" fill-opacity="0.6"/>
</g>
<path d="M135.379 87.813C134.855 88.6378 133.823 89.1081 132.263 88.68C130.859 88.2947 130.495 85.9836 131.019 85.1587C131.543 84.3339 133.298 84.3742 134.376 85.0663C135.454 85.7584 135.903 86.9881 135.379 87.813Z" fill="url(#paint5_linear_1216_4340)"/>
<path d="M139.954 89.6546C139.43 90.4794 139.439 91.618 140.482 92.8608C141.42 93.9793 143.659 93.339 144.183 92.5142C144.707 91.6893 143.933 90.1063 142.855 89.4142C141.777 88.7221 140.478 88.8297 139.954 89.6546Z" fill="url(#paint6_linear_1216_4340)"/>
<path d="M137.646 93.9898C137.218 94.8685 136.244 95.4572 134.639 95.2206C133.195 95.0077 132.418 92.9132 132.845 92.0345C133.273 91.1559 135.176 90.8376 136.331 91.3931C137.485 91.9485 138.074 93.1111 137.646 93.9898Z" fill="url(#paint7_linear_1216_4340)"/>
<path d="M195.305 57.9455C207.175 71.3874 172.399 90.4622 158.408 102.597C153.464 102.638 146.739 96.8302 154.181 90.8719C163.483 83.424 157.317 67.653 164.021 62.8457C170.724 58.0383 165.622 85.7823 171.513 76.9949C186.498 54.6432 190.936 52.9971 195.305 57.9455Z" fill="url(#paint8_linear_1216_4340)"/>
<path d="M134.388 22.5443C116.818 19.0151 117.655 59.661 114.196 77.8681C116.643 82.1696 125.036 85.077 126.447 75.6421C128.211 63.8484 145.073 60.3106 145.86 52.0929C146.648 43.8752 125.243 62.2216 129.877 52.7089C141.662 28.5126 140.856 23.8436 134.388 22.5443Z" fill="url(#paint9_linear_1216_4340)"/>
<path d="M107.403 64.891C95.6207 73.8395 101.44 77.5526 100.971 82.2248C100.354 88.3615 119.374 84.3797 116.954 80.7386C114.535 77.0976 120.169 72.7559 107.403 64.891Z" fill="url(#paint10_radial_1216_4340)"/>
<path d="M107.302 70.3313C108.195 69.3639 110.129 69.4233 112.258 73.1005C112.519 73.552 114.963 77.2697 114.217 79.2355C113.284 81.6927 106.927 82.0354 105.179 80.8294C103.431 79.6234 105.456 79.1514 104.321 76.4549C103.185 73.7584 106.186 71.5405 107.302 70.3313Z" fill="url(#paint11_linear_1216_4340)"/>
<path d="M174.895 101.098C173.449 115.823 167.236 112.812 163.503 115.661C158.6 119.402 152.023 101.117 156.392 101.269C160.761 101.422 161.506 94.3482 174.895 101.098Z" fill="url(#paint12_radial_1216_4340)"/>
<path d="M170.313 104.035C170.669 102.768 169.605 101.152 165.358 101.266C164.836 101.28 160.389 101.147 159.106 102.813C157.502 104.895 160.542 110.489 162.485 111.346C164.429 112.202 163.769 110.23 166.661 109.784C169.552 109.338 169.868 105.62 170.313 104.035Z" fill="url(#paint13_linear_1216_4340)"/>
<ellipse cx="15.9966" cy="10.3632" rx="15.9966" ry="10.3632" transform="matrix(0.882125 0.471015 -0.472304 0.881436 109.408 107.359)" fill="#E3BA97"/>
<path d="M107.875 105.327C108.209 105.554 108.386 105.994 108.365 106.565C108.344 107.134 108.125 107.803 107.704 108.432C107.284 109.061 106.751 109.517 106.236 109.751C105.718 109.986 105.247 109.986 104.912 109.76C104.578 109.533 104.401 109.093 104.422 108.522C104.443 107.954 104.662 107.284 105.082 106.655C105.503 106.026 106.036 105.57 106.551 105.336C107.069 105.101 107.541 105.1 107.875 105.327Z" fill="#1B120E" stroke="#1B120E" stroke-width="0.337865"/>
<path d="M139.816 122.266C139.437 122.095 138.955 122.178 138.467 122.504C137.981 122.829 137.514 123.381 137.19 124.086C136.866 124.792 136.753 125.505 136.826 126.081C136.899 126.66 137.153 127.075 137.532 127.246C137.912 127.417 138.394 127.334 138.882 127.008C139.368 126.684 139.836 126.131 140.159 125.425C140.483 124.719 140.595 124.007 140.523 123.431C140.45 122.852 140.196 122.437 139.816 122.266Z" fill="#1B120E" stroke="#1B120E" stroke-width="0.337865"/>
<path d="M119.569 122.417C117.079 121.025 116.112 118.023 117.98 117.634C118.734 117.638 119.823 120.084 120.643 120.496C121.42 120.888 124.21 120.589 124.692 121.384C125.421 123.625 122.06 123.808 119.569 122.417Z" fill="#1B120E" stroke="#1B120E" stroke-width="0.8" stroke-linecap="round"/>
<path d="M119.778 122.303L118.217 125.097M118.217 125.097C118.572 125.906 119.623 127.624 120.987 128.019C122.351 128.415 123.176 128.174 123.418 128.003M118.217 125.097C117.63 125.227 116.222 125.357 114.611 124.456C113 123.556 112.82 122.539 112.847 122.096" stroke="#1B120E" stroke-width="0.8" stroke-linecap="round"/>
<defs>
<filter id="filter0_f_1216_4340" x="82.9319" y="85.1504" width="76.5039" height="67.8848" filterUnits="userSpaceOnUse" color-interpolation-filters="sRGB">
<feFlood flood-opacity="0" result="BackgroundImageFix"/>
<feBlend mode="normal" in="SourceGraphic" in2="BackgroundImageFix" result="shape"/>
<feGaussianBlur stdDeviation="2" result="effect1_foregroundBlur_1216_4340"/>
</filter>
<linearGradient id="paint0_linear_1216_4340" x1="126.248" y1="145.017" x2="153.547" y2="173.768" gradientUnits="userSpaceOnUse">
<stop offset="0.341346" stop-color="#FA92AF"/>
<stop offset="1" stop-color="#A3686D"/>
</linearGradient>
<linearGradient id="paint1_linear_1216_4340" x1="99.5578" y1="118.161" x2="69.8794" y2="130.757" gradientUnits="userSpaceOnUse">
<stop offset="0.341346" stop-color="#FA92AF"/>
<stop offset="1" stop-color="#A3686D"/>
</linearGradient>
<radialGradient id="paint2_radial_1216_4340" cx="0" cy="0" r="1" gradientUnits="userSpaceOnUse" gradientTransform="translate(91.3942 177.239) rotate(-150.018) scale(36.5034 79.5513)">
<stop stop-color="#FA908C"/>
<stop offset="0.328033" stop-color="#D48484"/>
<stop offset="0.541567" stop-color="#AA6B6F"/>
<stop offset="1" stop-color="#5E4952"/>
</radialGradient>
<radialGradient id="paint3_radial_1216_4340" cx="0" cy="0" r="1" gradientUnits="userSpaceOnUse" gradientTransform="translate(103.769 171.344) rotate(152.928) scale(25.2686)">
<stop stop-color="#EAB5B9"/>
<stop offset="0.5" stop-color="#DC8D8F"/>
<stop offset="1" stop-color="#916269"/>
</radialGradient>
<radialGradient id="paint4_radial_1216_4340" cx="0" cy="0" r="1" gradientUnits="userSpaceOnUse" gradientTransform="translate(124.283 114.282) rotate(118.812) scale(74.5017 74.5017)">
<stop offset="0.0288462" stop-color="#DBDBDB"/>
<stop offset="0.221154" stop-color="#F98D89"/>
<stop offset="0.423077" stop-color="#B47174"/>
<stop offset="0.673077" stop-color="#8D5F65"/>
<stop offset="0.913462" stop-color="#5E4952"/>
</radialGradient>
<linearGradient id="paint5_linear_1216_4340" x1="134.181" y1="84.941" x2="131.884" y2="88.5179" gradientUnits="userSpaceOnUse">
<stop offset="0.00961538" stop-color="#DBDBDB"/>
<stop offset="0.706731" stop-color="#AD6F76"/>
</linearGradient>
<linearGradient id="paint6_linear_1216_4340" x1="143.05" y1="89.5395" x2="140.754" y2="93.1164" gradientUnits="userSpaceOnUse">
<stop offset="0.00961538" stop-color="#DBDBDB"/>
<stop offset="0.706731" stop-color="#AD6F76"/>
</linearGradient>
<linearGradient id="paint7_linear_1216_4340" x1="136.09" y1="91.2775" x2="134.245" y2="95.1141" gradientUnits="userSpaceOnUse">
<stop offset="0.0480769" stop-color="#DBDBDB"/>
<stop offset="0.966346" stop-color="#AD6F76"/>
</linearGradient>
<linearGradient id="paint8_linear_1216_4340" x1="176.208" y1="72.214" x2="155.794" y2="81.4918" gradientUnits="userSpaceOnUse">
<stop stop-color="#FA9AB1"/>
<stop offset="0.5" stop-color="#DF90A3"/>
<stop offset="1" stop-color="#AD6F76"/>
</linearGradient>
<linearGradient id="paint9_linear_1216_4340" x1="131.592" y1="46.6277" x2="133.923" y2="69.2981" gradientUnits="userSpaceOnUse">
<stop stop-color="#FA9AB1"/>
<stop offset="0.5" stop-color="#DF90A3"/>
<stop offset="1" stop-color="#AD6F76"/>
</linearGradient>
<radialGradient id="paint10_radial_1216_4340" cx="0" cy="0" r="1" gradientUnits="userSpaceOnUse" gradientTransform="translate(108.98 77.0933) rotate(81.7913) scale(10.7005 15.0252)">
<stop offset="0.399038" stop-color="#F19A9A"/>
<stop offset="0.699519" stop-color="#D18385"/>
<stop offset="1" stop-color="#AD6D72"/>
</radialGradient>
<linearGradient id="paint11_linear_1216_4340" x1="112.108" y1="71.5101" x2="109.89" y2="81.6116" gradientUnits="userSpaceOnUse">
<stop stop-color="#DBDBDB"/>
<stop offset="1" stop-color="#DF8F91"/>
</linearGradient>
<radialGradient id="paint12_radial_1216_4340" cx="0" cy="0" r="1" gradientUnits="userSpaceOnUse" gradientTransform="translate(163.676 106.15) rotate(156.602) scale(10.7005 15.0252)">
<stop offset="0.399038" stop-color="#F19A9A"/>
<stop offset="0.699519" stop-color="#D18385"/>
<stop offset="1" stop-color="#AD6D72"/>
</radialGradient>
<linearGradient id="paint13_linear_1216_4340" x1="166.791" y1="100.56" x2="159.35" y2="107.743" gradientUnits="userSpaceOnUse">
<stop stop-color="#DBDBDB"/>
<stop offset="1" stop-color="#DF8F91"/>
</linearGradient>
</defs>
</svg>
